<svg xmlns="http://www.w3.org/2000/svg" width="247" height="40" viewBox="0 0 247 40">
  <defs>
    <linearGradient id="mxbank-a" x1="49.949%" x2="49.949%" y1=".006%" y2="99.989%">
      <stop offset="0%" stop-color="#EAD56A"/>
      <stop offset="100%" stop-color="#C7A853"/>
    </linearGradient>
  </defs>
  <g fill="none">
    <path fill="#FFF" d="M193.184358 10.8391724L187.895826 10.8391724 181.011995 16.3111724C180.509366 16.7095172 179.875616 16.9401379 179.220013 16.9401379L173.953336 16.9401379C173.450707 16.9401379 173.035491 16.5417931 173.035491 16.0595862L173.035491.125793103 169.342261.125793103 169.342261 25.9972414 173.035491 25.9972414 173.035491 20.7977931C173.035491 20.3155862 173.450707 19.9172414 173.953336 19.9172414L179.19816 19.9172414C179.853763 19.9172414 180.487512 20.1478621 181.011995 20.5462069L187.85212 25.9972414 193.140651 25.9972414 184.399277 19.0157241C184.027769 18.7012414 184.027769 18.1561379 184.399277 17.8416552L193.184358 10.8391724zM157.169898 9.74896552L139.184522 9.74896552 139.009694 9.74896552C137.064739 9.74896552 135.491291 11.1326897 135.491291 12.809931L135.491291 12.9566897 135.491291 25.9762759 138.660039 25.9762759 138.660039 14.2984828C138.660039 13.3969655 139.621591 12.7889655 140.648702 12.7889655L155.574597 12.809931C156.623562 12.809931 157.694381 13.3969655 157.694381 14.2984828L157.694381 25.9762759 160.863128 25.9762759 160.863128 12.9566897 160.863128 12.809931C160.863128 11.1117241 159.289681 9.74896552 157.344726 9.74896552L157.169898 9.74896552zM127.034012 22.9362759C125.87578 22.9362759 124.914229 22.0347586 124.914229 20.9026207L124.914229 11.9922759C124.914229 10.7553103 123.865265 9.728 122.554058 9.728L103.97864 9.728C102.689287 9.728 101.618469 10.7343448 101.618469 11.9922759L101.618469 23.7958621C101.618469 25.0328276 102.667433 26.0601379 103.97864 26.0601379L122.554058 26.0601379C123.275222 26.0601379 123.908971 25.7456552 124.34604 25.2634483 125.132764 25.7037241 126.050608 25.9762759 127.034012 25.9762759L127.034012 22.9362759zM121.745481 21.5735172C121.745481 22.3282759 121.111732 22.9362759 120.325008 22.9362759L106.229543 22.9362759C105.44282 22.9362759 104.80907 22.3282759 104.80907 21.5735172L104.80907 14.1307586C104.80907 13.376 105.44282 12.768 106.229543 12.768L120.325008 12.768C121.111732 12.768 121.745481 13.376 121.745481 14.1307586L121.745481 21.5735172zM89.6646402 9.74896552L88.7249425 9.74896552C88.8779165 9.56027586 88.9653303 9.32965517 88.9653303 9.07806897L88.9653303 5.45103448C88.9653303 3.58510345 87.391883 2.07558621 85.4469274 2.07558621L70.1495235 2.07558621C68.8601709 2.07558621 67.7893526 3.08193103 67.7893526 4.33986207L67.7893526 9.74896552 67.7893526 10.2102069 67.7893526 23.6910345C67.7893526 24.928 68.8383174 25.9553103 70.1495235 25.9553103L90.8228722 25.9553103C92.1122248 25.9553103 93.183043 24.9489655 93.183043 23.6910345L93.183043 13.1453793C93.183043 11.2584828 91.6095958 9.74896552 89.6646402 9.74896552zM70.979954 6.47834483C70.979954 5.72358621 71.6137036 5.11558621 72.4004272 5.11558621L83.4364114 5.11558621C84.725764 5.11558621 85.7965823 6.12193103 85.7965823 7.37986207L85.7965823 7.44275862C85.7965823 8.67972414 84.7476175 9.70703448 83.4364114 9.70703448L72.4004272 9.70703448C71.6137036 9.70703448 70.979954 9.09903448 70.979954 8.34427586L70.979954 6.47834483zM90.0142951 20.630069C90.0142951 21.8670345 88.9653303 22.8943448 87.6541242 22.8943448L72.3785738 22.8943448C71.5918501 22.8943448 70.9581006 22.2863448 70.9581006 21.5315862L70.9581006 14.1517241C70.9581006 13.3969655 71.5918501 12.7889655 72.3785738 12.7889655L87.6541242 12.7889655C88.9434768 12.7889655 90.0142951 13.7953103 90.0142951 15.0532414L90.0142951 20.630069zM59.3320736 26.0601379L49.5635886 13.8372414C49.2357871 13.4388966 49.2357871 12.8728276 49.5635886 12.4744828L57.7367729 2.22234483 52.9727243 2.22234483 47.5530726 8.9942069C47.0722971 9.58124138 46.1544528 9.58124138 45.6955307 8.9942069L40.2758791 2.22234483 35.5118304 2.22234483 43.6850148 12.4744828C44.0128163 12.8728276 44.0128163 13.4388966 43.6850148 13.8372414L33.9165297 26.0601379 38.6805784 26.0601379 45.6736773 17.2965517C46.1544528 16.7095172 47.0722971 16.7095172 47.5312192 17.2965517L54.5243181 26.0601379 59.3320736 26.0601379zM13.1776208 12.8308966C12.9809399 13.0615172 12.6312849 13.0615172 12.434604 12.8308966L4.34883339 2.85131034C4.02103188 2.432 3.49654946 2.20137931 2.9502136 2.20137931L.109267171 2.20137931.109267171 26.0391724 3.80249754 26.0391724 3.80249754 9.09903448C3.80249754 8.67972414 4.37068682 8.49103448 4.63292803 8.82648276L11.931975 17.8206897C12.3690437 18.3657931 13.2213276 18.3657931 13.6583963 17.8206897L20.9574433 8.82648276C21.241538 8.49103448 21.7878738 8.67972414 21.7878738 9.09903448L21.7878738 25.9762759 25.4811042 25.9762759 25.4811042 2.13848276 22.6401577 2.13848276C22.0938219 2.13848276 21.5693395 2.39006897 21.241538 2.78841379L13.1776208 12.8308966z" transform="translate(53.816 6.897)"/>
    <path fill="url(#mxbank-a)" d="M36.6003613,0.552016985 L22.5517378,10.4670913 C21.8340836,10.9766454 20.8772114,10.9766454 20.1595573,10.4670913 L6.13268085,0.552016985 C5.61075057,0.191082803 5.0018319,0 4.37116614,0 L0,0 L0,33.9065817 L0,39.1295117 L0,40 L6.15442795,40 C6.78509371,40 7.39401238,39.8089172 7.91594266,39.447983 L20.2030515,30.8917197 C20.9207056,30.403397 21.8558307,30.403397 22.5734848,30.8917197 L34.8605936,39.447983 C35.3825239,39.8089172 35.9914426,40 36.6221084,40 L37.4267509,40 L42.7765363,40 L42.7765363,33.9065817 L42.7765363,0 L38.4053702,0 C37.7312102,0 37.1222916,0.191082803 36.6003613,0.552016985 Z M34.8388466,33.3545648 L26.7489271,27.7282378 C26.2487439,27.388535 26.2487439,26.6454352 26.7489271,26.3057325 L32.0552184,22.611465 L32.0552184,16.5180467 L22.5517378,23.1422505 C21.8340836,23.6305732 20.8989585,23.6305732 20.1813044,23.1422505 L10.6778238,16.5180467 L10.6778238,22.611465 L15.984115,26.3057325 C16.4842982,26.6454352 16.4842982,27.388535 15.984115,27.7282378 L7.91594266,33.3545648 C7.39401238,33.7154989 6.78509371,33.9065817 6.15442795,33.9065817 L5.34978543,33.9065817 L5.34978543,7.70700637 C5.34978543,7.02760085 6.13268085,6.64543524 6.69810533,7.02760085 L20.2030515,16.5392781 C20.9207056,17.0488323 21.8775778,17.0488323 22.5952319,16.5392781 L36.1001781,7.02760085 C36.6656026,6.62420382 37.448498,7.02760085 37.448498,7.70700637 L37.448498,33.9065817 L36.6438555,33.9065817 C35.9479484,33.9065817 35.3390297,33.7154989 34.8388466,33.3545648 Z"/>
  </g>
</svg>
