<svg xmlns="http://www.w3.org/2000/svg" width="113" height="40" viewBox="0 0 113 40">
  <g fill="none">
    <path fill="#697180" d="M63.3705495,20.043956 C63.3793737,21.3225189 63.1651765,22.5928275 62.7375824,23.7978022 C62.3363944,24.9342683 61.7150149,25.9804563 60.909011,26.8764835 C60.0848325,27.7753236 59.0784128,28.4880294 57.9569231,28.967033 C55.3824547,30.0003581 52.5085343,30.0003581 49.9340659,28.967033 C48.8091186,28.4845122 47.7984517,27.7703954 46.9679121,26.8712088 C46.1551995,25.9801347 45.5329695,24.9325148 45.1393407,23.7925275 C44.3141996,21.3621936 44.3141996,18.7274767 45.1393407,16.2971429 C45.5307868,15.1519509 46.1531567,14.099308 46.9679121,13.2043956 C47.7991752,12.3073511 48.8097503,11.5950962 49.9340659,11.1138462 C52.5059485,10.0828719 55.3762493,10.0828719 57.9481319,11.1138462 C59.0699201,11.5947245 60.0763128,12.3092093 60.9002198,13.2096703 C61.712042,14.1102942 62.3366143,15.1634007 62.7375824,16.3076923 C63.1623729,17.5073141 63.376517,18.7713588 63.3705495,20.043956 Z M53.9498901,26.6531868 C54.778843,26.6742456 55.6014392,26.5033478 56.3534066,26.1538462 C57.0244663,25.8271362 57.6115611,25.3507232 58.0694505,24.7613187 C58.5456998,24.1367141 58.8945793,23.4246174 59.0962637,22.6654945 C59.5462248,20.9509347 59.5462248,19.1492851 59.0962637,17.4347253 C58.8944933,16.6756345 58.5456217,15.963554 58.0694505,15.3389011 C57.6115611,14.7494966 57.0244663,14.2730836 56.3534066,13.9463736 C54.8215092,13.2715078 53.0765128,13.2715078 51.5446154,13.9463736 C50.87342,14.2728706 50.2862804,14.7493199 49.8285714,15.3389011 C49.3522831,15.9634816 49.0033996,16.6755863 48.8017582,17.4347253 C48.3517972,19.1492851 48.3517972,20.9509347 48.8017582,22.6654945 C49.0055564,23.4198581 49.3549768,24.1270611 49.8303297,24.7472527 C50.2880387,25.3368339 50.8751782,25.8132833 51.5463736,26.1397802 C52.2972868,26.4936426 53.1199573,26.6687686 53.9498901,26.6514286 L53.9498901,26.6531868 Z M65.8443956,29.4083516 L65.8443956,10.6813187 L69.7810989,10.6813187 L69.7810989,19.68 L76.2778022,10.6813187 L80.8334066,10.6813187 L73.9428571,19.9331868 L81.3116484,29.4101099 L76.4465934,29.4101099 L69.7810989,20.2145055 L69.7810989,29.4101099 L65.8443956,29.4083516 Z M82.8589011,10.6813187 L94.1116484,10.6813187 L94.1116484,13.8021978 L86.7956044,13.8021978 L86.7956044,18.3296703 L93.7705495,18.3296703 L93.7705495,21.4505495 L86.7956044,21.4505495 L86.7956044,26.2874725 L94.1925275,26.2874725 L94.1925275,29.4083516 L82.8589011,29.4083516 L82.8589011,10.6813187 Z M108.131868,10.6813187 L112.406154,10.6813187 L106.252308,19.9894505 L112.527473,29.4083516 L108.225055,29.4083516 L104.181099,23.0241758 L100.137143,29.4083516 L95.8241758,29.4083516 L102.095824,19.9876923 L95.941978,10.6795604 L100.216264,10.6795604 L104.181099,17.0092308 L108.131868,10.6813187 Z M17.7881319,17.8549451 C19.1979328,18.2001298 20.6701991,18.2001298 22.08,17.8549451 C22.8825893,14.5892818 25.4323587,12.0395124 28.698022,11.2369231 C29.5879889,7.59899173 28.1381793,3.78947363 25.0547015,1.66373843 C21.9712236,-0.461996767 17.89515,-0.461996767 14.8116722,1.66373843 C11.7281944,3.78947363 10.2783847,7.59899173 11.1683516,11.2369231 C14.4346932,12.0389405 16.9852468,14.5888167 17.7881319,17.8549451 Z M22.08,22.1450549 C20.6701991,21.7998702 19.1979328,21.7998702 17.7881319,22.1450549 C16.9855426,25.4107182 14.4357732,27.9604876 11.1701099,28.7630769 C10.2801429,32.4010083 11.7299526,36.2105264 14.8134304,38.3362616 C17.8969082,40.4619968 21.9729819,40.4619968 25.0564597,38.3362616 C28.1399375,36.2105264 29.5897472,32.4010083 28.6997802,28.7630769 C25.4334387,27.9610595 22.882885,25.4111833 22.08,22.1450549 Z"/>
    <path fill="#697180" d="M30.8448352,10.9767033 C30.122055,10.9767866 29.4018935,11.0635601 28.6997802,11.2351648 C27.8971909,14.5008281 25.3474215,17.0505975 22.0817582,17.8531868 C21.7365735,19.2629877 21.7365735,20.735254 22.0817582,22.1450549 C25.3474215,22.9476442 27.8971909,25.4974136 28.6997802,28.7630769 C32.0828654,29.5906994 35.6402136,28.3974173 37.8398838,25.697107 C40.039554,22.9967967 40.4887683,19.2716317 38.9940765,16.1258216 C37.4993847,12.9800116 34.3276823,10.9752792 30.8448352,10.9749451 L30.8448352,10.9767033 Z M17.7881319,22.1450549 C18.1333166,20.735254 18.1333166,19.2629877 17.7881319,17.8531868 C14.5224686,17.0505975 11.9726992,14.5008281 11.1701099,11.2351648 C7.53217855,10.3451979 3.72266045,11.7950075 1.59692525,14.8784854 C-0.528809954,17.9619632 -0.528809954,22.0380368 1.59692525,25.1215146 C3.72266045,28.2049925 7.53217855,29.6548021 11.1701099,28.7648352 C11.9721273,25.4984936 14.5220035,22.94794 17.7881319,22.1450549 Z"/>
    <path fill="#3D4659" d="M22.08,17.8549451 C25.3456633,17.0523558 27.8954327,14.5025864 28.698022,11.2369231 C25.4323587,12.0395124 22.8825893,14.5892818 22.08,17.8549451 Z M22.08,22.1450549 C22.8825893,25.4107182 25.4323587,27.9604876 28.698022,28.7630769 C27.8954327,25.4974136 25.3456633,22.9476442 22.08,22.1450549 Z M17.7881319,17.8549451 C16.9855426,14.5892818 14.4357732,12.0395124 11.1701099,11.2369231 C11.9726992,14.5025864 14.5224686,17.0523558 17.7881319,17.8549451 Z M17.7881319,22.1450549 C14.5224686,22.9476442 11.9726992,25.4974136 11.1701099,28.7630769 C14.4357732,27.9604876 16.9855426,25.4107182 17.7881319,22.1450549 Z"/>
    <path fill="#FFF" d="M63.3705495,20.043956 C63.3793737,21.3225189 63.1651765,22.5928275 62.7375824,23.7978022 C62.3363944,24.9342683 61.7150149,25.9804563 60.909011,26.8764835 C60.0848325,27.7753236 59.0784128,28.4880294 57.9569231,28.967033 C55.3824547,30.0003581 52.5085343,30.0003581 49.9340659,28.967033 C48.8091186,28.4845122 47.7984517,27.7703954 46.9679121,26.8712088 C46.1551995,25.9801347 45.5329695,24.9325148 45.1393407,23.7925275 C44.3141996,21.3621936 44.3141996,18.7274767 45.1393407,16.2971429 C45.5307868,15.1519509 46.1531567,14.099308 46.9679121,13.2043956 C47.7991752,12.3073511 48.8097503,11.5950962 49.9340659,11.1138462 C52.5059485,10.0828719 55.3762493,10.0828719 57.9481319,11.1138462 C59.0699201,11.5947245 60.0763128,12.3092093 60.9002198,13.2096703 C61.712042,14.1102942 62.3366143,15.1634007 62.7375824,16.3076923 C63.1623729,17.5073141 63.376517,18.7713588 63.3705495,20.043956 Z M53.9498901,26.6531868 C54.778843,26.6742456 55.6014392,26.5033478 56.3534066,26.1538462 C57.0244663,25.8271362 57.6115611,25.3507232 58.0694505,24.7613187 C58.5456998,24.1367141 58.8945793,23.4246174 59.0962637,22.6654945 C59.5462248,20.9509347 59.5462248,19.1492851 59.0962637,17.4347253 C58.8944933,16.6756345 58.5456217,15.963554 58.0694505,15.3389011 C57.6115611,14.7494966 57.0244663,14.2730836 56.3534066,13.9463736 C54.8215092,13.2715078 53.0765128,13.2715078 51.5446154,13.9463736 C50.87342,14.2728706 50.2862804,14.7493199 49.8285714,15.3389011 C49.3522831,15.9634816 49.0033996,16.6755863 48.8017582,17.4347253 C48.3517972,19.1492851 48.3517972,20.9509347 48.8017582,22.6654945 C49.0055564,23.4198581 49.3549768,24.1270611 49.8303297,24.7472527 C50.2880387,25.3368339 50.8751782,25.8132833 51.5463736,26.1397802 C52.2972868,26.4936426 53.1199573,26.6687686 53.9498901,26.6514286 L53.9498901,26.6531868 Z M65.8443956,29.4083516 L65.8443956,10.6813187 L69.7810989,10.6813187 L69.7810989,19.68 L76.2778022,10.6813187 L80.8334066,10.6813187 L73.9428571,19.9331868 L81.3116484,29.4101099 L76.4465934,29.4101099 L69.7810989,20.2145055 L69.7810989,29.4101099 L65.8443956,29.4083516 Z M82.8589011,10.6813187 L94.1116484,10.6813187 L94.1116484,13.8021978 L86.7956044,13.8021978 L86.7956044,18.3296703 L93.7705495,18.3296703 L93.7705495,21.4505495 L86.7956044,21.4505495 L86.7956044,26.2874725 L94.1925275,26.2874725 L94.1925275,29.4083516 L82.8589011,29.4083516 L82.8589011,10.6813187 Z M108.131868,10.6813187 L112.406154,10.6813187 L106.252308,19.9894505 L112.527473,29.4083516 L108.225055,29.4083516 L104.181099,23.0241758 L100.137143,29.4083516 L95.8241758,29.4083516 L102.095824,19.9876923 L95.941978,10.6795604 L100.216264,10.6795604 L104.181099,17.0092308 L108.131868,10.6813187 Z"/>
    <path fill="#88BDF3" d="M17.7881319,17.8549451 C19.1979328,18.2001298 20.6701991,18.2001298 22.08,17.8549451 C22.8825893,14.5892818 25.4323587,12.0395124 28.698022,11.2369231 C29.5879889,7.59899173 28.1381793,3.78947363 25.0547015,1.66373843 C21.9712236,-0.461996767 17.89515,-0.461996767 14.8116722,1.66373843 C11.7281944,3.78947363 10.2783847,7.59899173 11.1683516,11.2369231 C14.4346932,12.0389405 16.9852468,14.5888167 17.7881319,17.8549451 Z"/>
    <path fill="#3075EE" d="M22.08,22.1450549 C20.6701991,21.7998702 19.1979328,21.7998702 17.7881319,22.1450549 C16.9855426,25.4107182 14.4357732,27.9604876 11.1701099,28.7630769 C10.2801429,32.4010083 11.7299526,36.2105264 14.8134304,38.3362616 C17.8969082,40.4619968 21.9729819,40.4619968 25.0564597,38.3362616 C28.1399375,36.2105264 29.5897472,32.4010083 28.6997802,28.7630769 C25.4334387,27.9610595 22.882885,25.4111833 22.08,22.1450549 Z"/>
    <path fill="#5795F1" d="M30.8448352,10.9767033 C30.122055,10.9767866 29.4018935,11.0635601 28.6997802,11.2351648 C27.8971909,14.5008281 25.3474215,17.0505975 22.0817582,17.8531868 C21.7365735,19.2629877 21.7365735,20.735254 22.0817582,22.1450549 C25.3474215,22.9476442 27.8971909,25.4974136 28.6997802,28.7630769 C32.0828654,29.5906994 35.6402136,28.3974173 37.8398838,25.697107 C40.039554,22.9967967 40.4887683,19.2716317 38.9940765,16.1258216 C37.4993847,12.9800116 34.3276823,10.9752792 30.8448352,10.9749451 L30.8448352,10.9767033 Z"/>
    <path fill="#205FEC" d="M17.7881319,22.1450549 C18.1333166,20.735254 18.1333166,19.2629877 17.7881319,17.8531868 C14.5224686,17.0505975 11.9726992,14.5008281 11.1701099,11.2351648 C7.53217855,10.3451979 3.72266045,11.7950075 1.59692525,14.8784854 C-0.528809954,17.9619632 -0.528809954,22.0380368 1.59692525,25.1215146 C3.72266045,28.2049925 7.53217855,29.6548021 11.1701099,28.7648352 C11.9721273,25.4984936 14.5220035,22.94794 17.7881319,22.1450549 Z"/>
    <path fill="#3170F1" d="M28.698022,11.2369231 C25.4323587,12.0395124 22.8825893,14.5892818 22.08,17.8549451 C25.3456633,17.0523558 27.8954327,14.5025864 28.698022,11.2369231 Z"/>
    <path fill="#0932E8" d="M22.08,22.1450549 C22.8825893,25.4107182 25.4323587,27.9604876 28.698022,28.7630769 C27.8954327,25.4974136 25.3456633,22.9476442 22.08,22.1450549 Z"/>
    <path fill="#134BEF" d="M11.1701099,11.2369231 C11.9726992,14.5025864 14.5224686,17.0523558 17.7881319,17.8549451 C16.9855426,14.5892818 14.4357732,12.0395124 11.1701099,11.2369231 Z"/>
    <path fill="#0932E8" d="M11.1701099,28.7630769 C14.4357732,27.9604876 16.9855426,25.4107182 17.7881319,22.1450549 C14.5224686,22.9476442 11.9726992,25.4974136 11.1701099,28.7630769 Z"/>
  </g>
</svg>
