<?xml version="1.0" encoding="UTF-8"?>
<svg width="40px" height="40px" viewBox="0 0 40 40" version="1.1" xmlns="http://www.w3.org/2000/svg" xmlns:xlink="http://www.w3.org/1999/xlink">
    <!-- Generator: Sketch 51.2 (57519) - http://www.bohemiancoding.com/sketch -->
    <title>异步架构</title>
    <desc>Created with Sketch.</desc>
    <defs>
        <polygon id="path-1" points="104 -13.0902791 194 38.7048604 194 142.29514 104 194.090279 14 142.29514 14 38.7048604"></polygon>
        <filter x="-33.3%" y="-29.0%" width="166.7%" height="157.9%" filterUnits="objectBoundingBox" id="filter-2">
            <feOffset dx="0" dy="0" in="SourceAlpha" result="shadowOffsetOuter1"></feOffset>
            <feGaussianBlur stdDeviation="20" in="shadowOffsetOuter1" result="shadowBlurOuter1"></feGaussianBlur>
            <feColorMatrix values="0 0 0 0 0.82745098   0 0 0 0 0.917647059   0 0 0 0 1  0 0 0 1 0" type="matrix" in="shadowBlurOuter1"></feColorMatrix>
        </filter>
    </defs>
    <g id="Page-1" stroke="none" stroke-width="1" fill="none" fill-rule="evenodd">
        <g id="首页" transform="translate(-732.000000, -2894.000000)">
            <g id="Group-18" transform="translate(648.000000, 2853.000000)">
                <g id="Polygon-Copy-2" transform="translate(104.000000, 90.500000) rotate(90.000000) translate(-104.000000, -90.500000) ">
                    <use fill="black" fill-opacity="1" filter="url(#filter-2)" xlink:href="#path-1"></use>
                    <use fill="#FFFFFF" fill-rule="evenodd" xlink:href="#path-1"></use>
                </g>
                <g id="crown" transform="translate(86.000000, 48.000000)" stroke="#007AFF" stroke-linecap="square" stroke-width="2.7">
                    <path d="M0,21.4117647 L36,21.4117647" id="Shape"></path>
                    <path d="M36,3.29411765 L27.8181818,9.88235294 L18,0 L8.18181818,9.88235294 L0,3.29411765 L0,24.7058824 C3.63345717e-16,26.5251733 1.46524991,28 3.27272727,28 L32.7272727,28 C34.5347501,28 36,26.5251733 36,24.7058824 L36,3.29411765 Z" id="Shape"></path>
                </g>
            </g>
        </g>
    </g>
</svg>