<svg xmlns="http://www.w3.org/2000/svg" width="1920" height="648" viewBox="0 0 1920 648">
  <g fill="none" fill-rule="evenodd">
    <path stroke="#6397C8" stroke-linecap="square" d="M1536.25 1L1536.25 647M1057.25 1L1057.25 647M1632.25 1L1632.25 647M1153.25 1L1153.25 647M1728.25 1L1728.25 647M1249.25 1L1249.25 647M1824.25 1L1824.25 647M1345.25 1L1345.25 647M1441.25 1L1441.25 647M.5 1L.5 647M480.25 1L480.25 647M576.25 1L576.25 647M96.25 1L96.25 647M672.25 1L672.25 647M192.25 1L192.25 647M768.25 1L768.25 647M288.25 1L288.25 647M864.25 1L864.25 647M384.25 1L384.25 647" opacity=".2"/>
    <path stroke="#6397C8" stroke-dasharray="5 10" stroke-linecap="square" d="M1 297L1921 297M0 408L1920 408" opacity=".2"/>
    <path stroke="#09F" stroke-width="2" d="M961,1 L961,647"/>
  </g>
</svg>
