<?xml version="1.0" encoding="UTF-8"?>
<svg width="40px" height="40px" viewBox="0 0 40 40" version="1.1" xmlns="http://www.w3.org/2000/svg" xmlns:xlink="http://www.w3.org/1999/xlink">
    <!-- Generator: Sketch 51.2 (57519) - http://www.bohemiancoding.com/sketch -->
    <title>快照链</title>
    <desc>Created with Sketch.</desc>
    <defs></defs>
    <g id="Page-1" stroke="none" stroke-width="1" fill="none" fill-rule="evenodd">
        <g id="首页" transform="translate(-1178.000000, -2781.000000)" fill="#007AFF" fill-rule="nonzero">
            <g id="Group-19" transform="translate(1094.000000, 2738.000000)">
                <g id="if_Link_2638329" transform="translate(84.000000, 43.000000)">
                    <path d="M18.0833333,17.4666667 L23.4666667,12.0833333 L32.3333333,12.0833333 L32.3333333,1 L21.25,1 L21.25,9.86666667 L15.8666667,15.25 L7,15.25 L7,26.3333333 L15.8666667,26.3333333 L19.6666667,30.1333333 L19.6666667,39 L30.75,39 L30.75,27.9166667 L21.8833333,27.9166667 L18.0833333,24.1166667 L18.0833333,17.4666667 Z M24.4166667,4.16666667 L29.1666667,4.16666667 L29.1666667,8.91666667 L24.4166667,8.91666667 L24.4166667,4.16666667 Z M14.9166667,23.1666667 L10.1666667,23.1666667 L10.1666667,18.4166667 L14.9166667,18.4166667 L14.9166667,23.1666667 Z M22.8333333,31.0833333 L27.5833333,31.0833333 L27.5833333,35.8333333 L22.8333333,35.8333333 L22.8333333,31.0833333 Z" id="Shape"></path>
                </g>
            </g>
        </g>
    </g>
</svg>