<svg xmlns="http://www.w3.org/2000/svg" width="60" height="60" viewBox="0 0 60 60">
  <g fill="#007AFF" fill-rule="evenodd">
    <path fill-rule="nonzero" d="M50.3225806,15.483871 L50.3225806,4.83870968 C50.3225806,2.17064516 48.1519355,0 45.483871,0 L4.83870968,0 C2.17064516,0 0,2.17064516 0,4.83870968 L0,30 C0,32.6680645 2.17064516,34.8387097 4.83870968,34.8387097 L9.67741935,34.8387097 L9.67741935,38.7096774 L7.74193548,38.7096774 L7.74193548,40.6451613 L27.0967742,40.6451613 L27.0967742,60 L60,60 L60,15.483871 L50.3225806,15.483871 Z M2.11354839,30.9677419 L23.2258065,30.9677419 L23.2258065,29.0322581 L1.93548387,29.0322581 L1.93548387,4.83870968 C1.93548387,3.23806452 3.23806452,1.93548387 4.83870968,1.93548387 L45.483871,1.93548387 C47.0845161,1.93548387 48.3870968,3.23806452 48.3870968,4.83870968 L48.3870968,15.483871 L27.0967742,15.483871 L27.0967742,29.0322581 L25.1612903,29.0322581 L25.1612903,30.9677419 L27.0967742,30.9677419 L27.0967742,32.9032258 L4.83870968,32.9032258 C3.57870968,32.9032258 2.51419355,32.0912903 2.11354839,30.9677419 Z M11.6129032,38.7096774 L11.6129032,34.8387097 L27.0967742,34.8387097 L27.0967742,38.7096774 L11.6129032,38.7096774 Z M58.0645161,58.0645161 L29.0322581,58.0645161 L29.0322581,17.4193548 L58.0645161,17.4193548 L58.0645161,58.0645161 Z"/>
    <path fill-rule="nonzero" d="M56.1290323 19.3548387L30.9677419 19.3548387 30.9677419 29.0322581 56.1290323 29.0322581 56.1290323 19.3548387zM54.1935484 27.0967742L32.9032258 27.0967742 32.9032258 21.2903226 54.1935484 21.2903226 54.1935484 27.0967742zM28.3219355 5.80645161L46.4516129 5.80645161 46.4516129 3.87096774 27.8070968 3.87096774 21.8632258 7.26774194C20.0874194 5.19290323 17.4551613 3.87096774 14.516129 3.87096774 9.18 3.87096774 4.83870968 8.21225806 4.83870968 13.5483871 4.83870968 18.8845161 9.18 23.2258065 14.516129 23.2258065 19.8522581 23.2258065 24.1935484 18.8845161 24.1935484 13.5483871 24.1935484 11.8480645 23.7493548 10.2512903 22.976129 8.86064516L28.3219355 5.80645161zM6.77419355 13.5483871C6.77419355 9.94935484 9.24677419 6.92419355 12.5806452 6.06096774L12.5806452 13.8580645 17.4687097 20.7019355C16.5580645 21.0793548 15.5612903 21.2903226 14.516129 21.2903226 10.2474194 21.2903226 6.77419355 17.8170968 6.77419355 13.5483871zM19.1545161 19.7322581L14.516129 13.2387097 14.516129 5.80645161C18.7848387 5.80645161 22.2580645 9.27967742 22.2580645 13.5483871 22.2580645 16.076129 21.0348387 18.3183871 19.1545161 19.7322581z"/>
    <rect width="11.613" height="1.935" x="28.065" y="7.742"/>
    <rect width="4.839" height="1.935" x="41.613" y="7.742"/>
    <path fill-rule="nonzero" d="M42.5806452,30.9677419 L30.9677419,30.9677419 L30.9677419,42.5806452 L42.5806452,42.5806452 L42.5806452,30.9677419 Z M40.6451613,40.6451613 L32.9032258,40.6451613 L32.9032258,32.9032258 L40.6451613,32.9032258 L40.6451613,40.6451613 Z"/>
    <polygon points="35.806 38.71 37.742 38.71 37.742 37.742 38.71 37.742 38.71 35.806 37.742 35.806 37.742 34.839 35.806 34.839 35.806 35.806 34.839 35.806 34.839 37.742 35.806 37.742"/>
    <path fill-rule="nonzero" d="M44.516129,42.5806452 L56.1290323,42.5806452 L56.1290323,30.9677419 L44.516129,30.9677419 L44.516129,42.5806452 Z M46.4516129,32.9032258 L54.1935484,32.9032258 L54.1935484,40.6451613 L46.4516129,40.6451613 L46.4516129,32.9032258 Z"/>
    <rect width="3.871" height="1.935" x="48.387" y="35.806"/>
    <path fill-rule="nonzero" d="M42.5806452,44.516129 L30.9677419,44.516129 L30.9677419,56.1290323 L42.5806452,56.1290323 L42.5806452,44.516129 Z M40.6451613,54.1935484 L32.9032258,54.1935484 L32.9032258,46.4516129 L40.6451613,46.4516129 L40.6451613,54.1935484 Z"/>
    <polygon points="36.09 52.375 36.774 51.691 37.458 52.375 38.827 51.007 38.143 50.323 38.827 49.638 37.458 48.27 36.774 48.954 36.09 48.27 34.722 49.638 35.406 50.323 34.722 51.007"/>
    <path fill-rule="nonzero" d="M44.516129,56.1290323 L56.1290323,56.1290323 L56.1290323,44.516129 L44.516129,44.516129 L44.516129,56.1290323 Z M46.4516129,46.4516129 L54.1935484,46.4516129 L54.1935484,54.1935484 L46.4516129,54.1935484 L46.4516129,46.4516129 Z"/>
    <rect width="3.871" height="1.935" x="48.387" y="51.29"/>
    <rect width="3.871" height="1.935" x="48.387" y="47.419"/>
  </g>
</svg>
