<svg xmlns="http://www.w3.org/2000/svg" width="60" height="60" viewBox="0 0 60 60">
  <g fill="#007AFF" fill-rule="evenodd">
    <path fill-rule="nonzero" d="M57,58 L57,37 L40,37 L40,27 L38,27 L38,24 L33,24 L33,21.421 C35.4204715,20.4332963 37.3217049,18.4842513 38.249,16.04 C41.2619834,13.5781369 43.0068292,9.8908601 43,6 L43,2 L39,2 L39,0 L21,0 L21,2 L17,2 L17,6 C16.9935998,9.8907641 18.7383629,13.577866 21.751,16.04 C22.677983,18.4844503 24.5793218,20.4336033 27,21.421 L27,24 L22,24 L22,27 L20,27 L20,33 L3,33 L3,58 L0,58 L0,60 L60,60 L60,58 L57,58 Z M41,4 L41,6 C41.0063651,8.27044308 40.3075184,10.4868352 39,12.343 C39,12.266 39,12.188 39,12.11 L39,4 L41,4 Z M19,6 L19,4 L21,4 L21,12.11 C21,12.188 21,12.266 21,12.343 C19.6924816,10.4868352 18.9936349,8.27044308 19,6 Z M23.521,15.1 C23.1760051,14.1408891 22.9997334,13.1292719 23,12.11 L22.9999997,2 L37,2 L37,4 L29,4 L29,6 L37,6 L37,12.11 C37,12.391 36.984,12.669 36.958,12.946 C36.8888745,13.6810861 36.7283009,14.4046752 36.48,15.1 C35.727895,17.3200808 33.9636654,19.0494046 31.729,19.757 C30.6786415,20.0604651 29.566269,20.0777273 28.507,19.807 C28.43,19.788 28.352,19.78 28.276,19.759 C26.0396129,19.0516558 24.2738038,17.3214971 23.521,15.1 Z M29,21.938 C29.6640831,22.0210026 30.3359169,22.0210026 31,21.938 L31,24 L29,24 L29,21.938 Z M24,26 L36,26 L36,27 L24,27 L24,26 Z M5,58 L5,35 L20,35 L20,58 L5,58 Z M22,58 L22,29 L38,29 L38,58 L22,58 Z M40,58 L40,39 L55,39 L55,58 L40,58 Z"/>
    <rect width="2" height="2" x="25" y="4"/>
  </g>
</svg>
