<?xml version="1.0" encoding="UTF-8"?>
<svg width="70px" height="70px" viewBox="0 0 70 70" version="1.1" xmlns="http://www.w3.org/2000/svg" xmlns:xlink="http://www.w3.org/1999/xlink">
    <!-- Generator: Sketch 55 (78076) - https://sketchapp.com -->
    <title>confirm</title>
    <desc>Created with Sketch.</desc>
    <g id="页面-1" stroke="none" stroke-width="1" fill="none" fill-rule="evenodd">
        <g id="什么是vite" transform="translate(-819.000000, -1000.000000)">
            <g id="编组-2" transform="translate(819.000000, 1000.000000)">
                <circle id="椭圆形" fill-opacity="0.46" fill="#F1F1F1" fill-rule="nonzero" cx="35" cy="35" r="35"></circle>
                <g id="编组" transform="translate(10.000000, 10.000000)">
                    <path d="M4.66564453,7.81259953 L42.1656445,7.81259953 L42.1656445,0.781349534 C42.1657422,0.349904222 41.8160352,1.87821061e-06 41.3845898,1.87821061e-06 C41.3405469,-9.57780394e-05 41.2966016,0.00361515946 41.2531445,0.0110370345 L4.53439453,6.26103703 C4.15890625,6.32500188 3.88429688,6.65049016 3.88439453,7.03134953 L3.88439451,7.95634953 C4.13458984,7.86377141 4.39894531,7.8151386 4.66564453,7.81259953" id="Fill-1" fill="#D9EBFF"></path>
                    <path d="M36.6968945,17.1875995 L46.8531445,17.1875995 L46.8531445,10.1563495 C46.8531445,9.72490422 46.5033398,9.37509953 46.0718945,9.37509953 L4.66564453,9.37509953 C4.23419922,9.37509953 3.88439453,9.72490422 3.88439453,10.1563495 L3.88439453,31.0938495 C9.13664062,28.0631855 15.8512891,29.864162 18.8819531,35.1164081 C19.8483594,36.7911152 20.355293,38.6914081 20.351582,40.6250995 C20.351582,40.889162 20.3304883,41.1469745 20.3117383,41.4063495 L46.0718945,41.4063495 C46.5033398,41.4063495 46.8531445,41.0565448 46.8531445,40.6250995 L46.8531445,32.8125995 L36.6968945,32.8125995 C35.4024609,32.8125995 34.3531445,31.7632831 34.3531445,30.4688495 L34.3531445,19.5313495 C34.3531445,18.2369159 35.4024609,17.1875995 36.6968945,17.1875995" id="Fill-3" fill="#C7DEFF"></path>
                    <path d="M42.9468945,24.2188495 C43.3783398,24.2188495 43.7281445,24.5686542 43.7281445,25.0000995 C43.7281445,25.4315448 43.3783398,25.7813495 42.9468945,25.7813495 C42.5154492,25.7813495 42.1656445,25.4315448 42.1656445,25.0000995 C42.1656445,24.5686542 42.5154492,24.2188495 42.9468945,24.2188495" id="Fill-5" fill="#007AFF"></path>
                    <path d="M42.9468945,27.3438495 C41.6524609,27.3438495 40.6031445,26.2945331 40.6031445,25.0000995 C40.6031445,23.7056659 41.6524609,22.6563495 42.9468945,22.6563495 C44.2413281,22.6563495 45.2906445,23.7056659 45.2906445,25.0000995 C45.2906445,26.2945331 44.2413281,27.3438495 42.9468945,27.3438495 M49.1968945,18.7500995 L36.6968945,18.7500995 C36.2654492,18.7500995 35.9156445,19.0999042 35.9156445,19.5313495 L35.9156445,30.4688495 C35.9156445,30.9002948 36.2654492,31.2500995 36.6968945,31.2500995 L49.1968945,31.2500995 C49.6283398,31.2500995 49.9781445,30.9002948 49.9781445,30.4688495 L49.9781445,19.5313495 C49.9781445,19.0999042 49.6283398,18.7500995 49.1968945,18.7500995" id="Fill-7" fill="#78B9FF"></path>
                    <path d="M9.3640625,31.2719355 C4.19238281,31.2719355 -6.75015599e-14,35.4644159 -6.75015599e-14,40.6360956 C-6.75015599e-14,45.8076777 4.19238281,50.0000605 9.3640625,50.0000605 C14.5357422,50.0000605 18.728125,45.8076777 18.728125,40.6360956 C18.722168,35.4668573 14.5332031,31.2779902 9.3640625,31.2719355 L9.3640625,31.2719355 Z M13.8117187,38.0525019 L7.56171875,44.3025019 C7.25683594,44.6064081 6.76347656,44.6064081 6.45859375,44.3025019 L4.10859375,41.9665644 C3.80292969,41.6616816 3.80224609,41.166662 4.10703125,40.860998 C4.41191406,40.5553339 4.90683594,40.5546503 5.2125,40.8595331 L7.009375,42.6462519 L12.7085937,36.9477167 C13.0189453,36.6480097 13.5135742,36.6566034 13.8132812,36.9668573 C14.1057617,37.2696894 14.1057617,37.7496698 13.8132812,38.0525019 L13.8117187,38.0525019 Z" id="Fill-9" fill="#007AFF"></path>
                </g>
            </g>
        </g>
    </g>
</svg>