<?xml version="1.0" encoding="UTF-8"?>
<svg width="70px" height="70px" viewBox="0 0 70 70" version="1.1" xmlns="http://www.w3.org/2000/svg" xmlns:xlink="http://www.w3.org/1999/xlink">
    <!-- Generator: Sketch 55 (78076) - https://sketchapp.com -->
    <title>chain</title>
    <desc>Created with Sketch.</desc>
    <defs>
        <linearGradient x1="83.1099615%" y1="86.0217906%" x2="19.5506363%" y2="37.420401%" id="linearGradient-1">
            <stop stop-color="#54B6FF" offset="0%"></stop>
            <stop stop-color="#2A7FFF" offset="100%"></stop>
        </linearGradient>
        <linearGradient x1="85.8339048%" y1="86.0217906%" x2="17.0455793%" y2="37.420401%" id="linearGradient-2">
            <stop stop-color="#54B6FF" offset="0%"></stop>
            <stop stop-color="#2A7FFF" offset="100%"></stop>
        </linearGradient>
    </defs>
    <g id="页面-1" stroke="none" stroke-width="1" fill="none" fill-rule="evenodd">
        <g id="什么是vite" transform="translate(-1265.000000, -1000.000000)">
            <g id="编组-2" transform="translate(1265.000000, 1000.000000)">
                <circle id="椭圆形" fill-opacity="0.46" fill="#F1F1F1" fill-rule="nonzero" cx="35" cy="35" r="35"></circle>
                <g id="编组" transform="translate(10.000000, 10.000000)">
                    <polygon id="Fill-1" fill-opacity="0.2" fill="url(#linearGradient-1)" points="8.0078125 0.976538086 0.9765625 5.02927246 0.9765625 13.1347412 8.0078125 17.1874756 15.0390625 13.1347412 15.0390625 5.02927246"></polygon>
                    <polygon id="Fill-2" fill="#78B9FF" points="15.0390625 13.1347412 15.0390625 5.02927246 8.0078125 9.08200684 8.0078125 17.1874756"></polygon>
                    <polygon id="Fill-3" fill="#E7F1FF" points="0.9765625 13.1347412 0.9765625 5.02927246 8.0078125 9.08200684 8.0078125 17.1874756"></polygon>
                    <polygon id="Fill-4" fill-opacity="0.2" fill="url(#linearGradient-1)" points="41.9921875 0.976538086 34.9609375 5.02927246 34.9609375 13.1347412 41.9921875 17.1874756 49.0234375 13.1347412 49.0234375 5.02927246"></polygon>
                    <polygon id="Fill-5" fill="#78B9FF" points="49.0234375 13.1347412 49.0234375 5.02927246 41.9921875 9.08200684 41.9921875 17.1874756"></polygon>
                    <polygon id="Fill-6" fill="#E7F1FF" points="34.9609375 13.1347412 34.9609375 5.02927246 41.9921875 9.08200684 41.9921875 17.1874756"></polygon>
                    <polygon id="Fill-7" fill-opacity="0.2" fill="url(#linearGradient-2)" points="8.0078125 33.4407568 0.9765625 37.3363623 0.9765625 45.1278662 8.0078125 49.023374 15.0390625 45.1278662 15.0390625 37.3363623"></polygon>
                    <polygon id="Fill-8" fill="#78B9FF" points="15.0390625 45.1278467 15.0390625 37.3363428 8.0078125 41.2318506 8.0078125 49.0234521"></polygon>
                    <polygon id="Fill-9" fill="#E7F1FF" points="0.9765625 45.1278467 0.9765625 37.3363428 8.0078125 41.2318506 8.0078125 49.0234521"></polygon>
                    <polygon id="Fill-10" fill-opacity="0.2" fill="url(#linearGradient-2)" points="41.9921875 33.4407568 34.9609375 37.3363623 34.9609375 45.1278662 41.9921875 49.023374 49.0234375 45.1278662 49.0234375 37.3363623"></polygon>
                    <polygon id="Fill-11" fill="#78B9FF" points="49.0234375 45.1278467 49.0234375 37.3363428 41.9921875 41.2318506 41.9921875 49.0234521"></polygon>
                    <polygon id="Fill-12" fill="#E7F1FF" points="34.9609375 45.1278467 34.9609375 37.3363428 41.9921875 41.2318506 41.9921875 49.0234521"></polygon>
                    <path d="M30.7739258,19.5583057 L19.2260742,19.5583057 C18.1003906,19.5583057 17.1875,20.4711963 17.1875,21.5968799 L17.1875,31.1439502 C17.1875,32.2700244 18.1003906,33.1825244 19.2260742,33.1825244 L30.7739258,33.1825244 C31.8996094,33.1825244 32.8125,32.2700244 32.8125,31.1439502 L32.8125,21.5968799 C32.8125,20.4711963 31.8996094,19.5583057 30.7739258,19.5583057" id="Fill-13" fill="#E7F1FF"></path>
                    <path d="M26.953125,26.9618701 C26.953125,28.0406787 26.0788086,28.9149951 25,28.9149951 C23.9211914,28.9149951 23.046875,28.0406787 23.046875,26.9618701 C23.046875,25.8830615 23.9211914,25.0087451 25,25.0087451 C26.0788086,25.0087451 26.953125,25.8830615 26.953125,26.9618701" id="Fill-15" fill="#FFFFFF"></path>
                    <path d="M41.9921875,2.10378418 L47.0680664,5.02927246 L41.9921875,7.95476074 L36.9163086,5.02927246 L41.9921875,2.10378418 Z M42.96875,15.4975342 L42.96875,9.64616699 L48.046875,6.71960449 L48.046875,12.5705811 L42.96875,15.4975342 Z M41.015625,9.64616699 L41.015625,15.4975342 L35.9375,12.5705811 L35.9375,6.71921387 L41.015625,9.64616699 Z M25,12.8772217 C27.0461914,12.8772217 28.7109375,14.5419678 28.7109375,16.5881592 L28.7109375,18.5817139 L21.2890625,18.5817139 L21.2890625,16.5881592 C21.2890625,14.5419678 22.9538086,12.8772217 25,12.8772217 L25,12.8772217 Z M41.9921875,34.5569092 L47.0084961,37.3363037 L41.9921875,40.1156982 L36.9758789,37.3363037 L41.9921875,34.5569092 Z M42.96875,47.3658936 L42.96875,41.8074951 L48.046875,38.9938232 L48.046875,44.5522217 L42.96875,47.3658936 Z M35.9375,38.9938232 L41.015625,41.8074951 L41.015625,47.3658936 L35.9375,44.5522217 L35.9375,38.9938232 Z M8.984375,47.3658936 L8.984375,41.8074951 L14.0625,38.9938232 L14.0625,44.5522217 L8.984375,47.3658936 Z M1.953125,38.9938232 L7.03125,41.8074951 L7.03125,47.3658936 L1.953125,44.5522217 L1.953125,38.9938232 Z M8.0078125,34.5569092 L13.0241211,37.3363037 L8.0078125,40.1156982 L2.99150391,37.3363037 L8.0078125,34.5569092 Z M1.953125,6.71921387 L7.03125,9.64616699 L7.03125,15.4971436 L1.953125,12.5705811 L1.953125,6.71921387 Z M8.0078125,2.10378418 L13.0836914,5.02927246 L8.0078125,7.95476074 L2.93193359,5.02927246 L8.0078125,2.10378418 Z M8.984375,9.64616699 L14.0625,6.71960449 L14.0625,12.5705811 L8.984375,15.4975342 L8.984375,9.64616699 Z M41.5046875,18.0335693 C41.6553711,18.1205811 41.8239258,18.1640381 41.9921875,18.1640381 C42.1604492,18.1640381 42.3290039,18.1205811 42.4796875,18.0335693 L49.5109375,13.980835 C49.8134766,13.8065186 50,13.4837646 50,13.1347412 L50,5.02927246 C50,4.68024902 49.8134766,4.35749512 49.5109375,4.18317871 L42.4796875,0.130444336 C42.1779297,-0.0434814453 41.8064453,-0.0434814453 41.5046875,0.130444336 L34.4734375,4.18317871 C34.1708984,4.35749512 33.984375,4.68024902 33.984375,5.02927246 L33.984375,13.1347412 C33.984375,13.4837646 34.1708984,13.8065186 34.4734375,13.980835 L34.5775391,14.0410889 L30.6640625,17.9545654 L30.6640625,16.5881592 C30.6640625,13.4651123 28.1230469,10.9240967 25,10.9240967 C21.8769531,10.9240967 19.3359375,13.4651123 19.3359375,16.5881592 L19.3359375,17.9549561 L15.4224609,14.0410889 L15.5265625,13.980835 C15.8291016,13.8065186 16.015625,13.4837646 16.015625,13.1347412 L16.015625,5.02927246 C16.015625,4.68024902 15.8291016,4.35749512 15.5265625,4.18317871 L8.4953125,0.130444336 C8.19355469,-0.0434814453 7.82207031,-0.0434814453 7.5203125,0.130444336 L0.4890625,4.18317871 C0.186523437,4.35749512 0,4.68024902 0,5.02927246 L0,13.1347412 C0,13.4837646 0.186523437,13.8065186 0.4890625,13.980835 L7.5203125,18.0335693 C7.67099609,18.1205811 7.83916016,18.1640381 8.0078125,18.1640381 C8.17646484,18.1640381 8.34462891,18.1205811 8.4953125,18.0335693 L13.6699219,15.0508545 L17.6479492,19.0291748 C16.7866211,19.5606201 16.2109375,20.5127686 16.2109375,21.5968506 L16.2109375,31.1439209 C16.2109375,31.5200928 16.2807617,31.8797607 16.4070312,32.212085 L13.340332,35.2786865 L8.48125,32.5863037 C8.18671875,32.4234131 7.82890625,32.4234131 7.534375,32.5863037 L0.503125,36.4822021 C0.192675781,36.6542725 0,36.9812256 0,37.3363037 L0,45.1278076 C0,45.4825928 0.192675781,45.8099365 0.503125,45.9819092 L7.534375,49.8775146 C7.68164062,49.9591553 7.84453125,49.9999756 8.0078125,49.9999756 C8.17109375,49.9999756 8.33398437,49.9591553 8.48125,49.8775146 L15.5125,45.9819092 C15.8229492,45.8099365 16.015625,45.4825928 16.015625,45.1278076 L16.015625,37.3363037 C16.015625,36.9812256 15.8229492,36.6542725 15.5125,36.4822021 L15.1176758,36.2632568 L17.6609375,33.7199951 C18.1174805,33.9985107 18.6535156,34.1590576 19.2260742,34.1590576 L20.6054688,34.1590576 C21.1448242,34.1590576 21.5820312,33.7219482 21.5820312,33.1824951 C21.5820312,32.6431396 21.1448242,32.2059326 20.6054688,32.2059326 L19.2260742,32.2059326 C18.6405273,32.2059326 18.1640625,31.7294678 18.1640625,31.1439209 L18.1640625,21.5968506 C18.1640625,21.0113037 18.6405273,20.5348389 19.2260742,20.5348389 L30.7739258,20.5348389 C31.3594727,20.5348389 31.8359375,21.0113037 31.8359375,21.5968506 L31.8359375,31.1439209 C31.8359375,31.7294678 31.3594727,32.2059326 30.7739258,32.2059326 L29.3945312,32.2059326 C28.8551758,32.2059326 28.4179688,32.6431396 28.4179688,33.1824951 C28.4179688,33.7219482 28.8551758,34.1590576 29.3945312,34.1590576 L30.7739258,34.1590576 C31.3464844,34.1590576 31.8825195,33.9985107 32.3390625,33.7199951 L34.8823242,36.2632568 L34.4875,36.4822021 C34.1770508,36.6542725 33.984375,36.9812256 33.984375,37.3363037 L33.984375,45.1278076 C33.984375,45.4825928 34.1770508,45.8099365 34.4875,45.9819092 L41.51875,49.8775146 C41.6660156,49.9591553 41.8289062,49.9999756 41.9921875,49.9999756 C42.1554688,49.9999756 42.3183594,49.9591553 42.465625,49.8775146 L49.496875,45.9819092 C49.8073242,45.8099365 50,45.4825928 50,45.1278076 L50,37.3363037 C50,36.9812256 49.8073242,36.6542725 49.496875,36.4822021 L42.465625,32.5863037 C42.1710937,32.4234131 41.8132813,32.4234131 41.51875,32.5863037 L36.6599609,35.2786865 L33.5929688,32.212085 C33.7192383,31.8797607 33.7890625,31.5200928 33.7890625,31.1439209 L33.7890625,21.5968506 C33.7890625,20.5127686 33.2133789,19.5606201 32.3520508,19.0291748 L36.3300781,15.0508545 L41.5046875,18.0335693 Z" id="Fill-17" fill="#C7DEFF"></path>
                    <path d="M25,27.9384326 C24.4613281,27.9384326 24.0234375,27.500542 24.0234375,26.9618701 C24.0234375,26.4231982 24.4613281,25.9853076 25,25.9853076 C25.5386719,25.9853076 25.9765625,26.4231982 25.9765625,26.9618701 C25.9765625,27.500542 25.5386719,27.9384326 25,27.9384326 M25.9765625,24.2000537 L25.9765625,23.4356006 C25.9765625,22.8961475 25.5393555,22.4590381 25,22.4590381 C24.4606445,22.4590381 24.0234375,22.8961475 24.0234375,23.4356006 L24.0234375,24.2000537 C22.8866211,24.6032764 22.0703125,25.6889209 22.0703125,26.9618701 C22.0703125,28.5773975 23.3844727,29.8915576 25,29.8915576 C26.6155273,29.8915576 27.9296875,28.5773975 27.9296875,26.9618701 C27.9296875,25.6889209 27.1133789,24.6032764 25.9765625,24.2000537" id="Fill-19" fill="#007AFF"></path>
                    <path d="M25,32.202124 C24.7432617,32.202124 24.4911133,32.305542 24.3095703,32.487085 C24.1279297,32.6697998 24.0234375,32.9219482 24.0234375,33.1786865 C24.0234375,33.4346436 24.1279297,33.6864014 24.3095703,33.8691162 C24.4911133,34.0507568 24.7432617,34.155249 25,34.155249 C25.2567383,34.155249 25.5088867,34.0507568 25.6904297,33.8691162 C25.8720703,33.6875732 25.9765625,33.4354248 25.9765625,33.1786865 C25.9765625,32.9207764 25.8720703,32.6697998 25.6904297,32.487085 C25.5088867,32.305542 25.2567383,32.202124 25,32.202124" id="Fill-21" fill="#007AFF"></path>
                </g>
            </g>
        </g>
    </g>
</svg>