<?xml version="1.0" encoding="UTF-8"?>
<svg width="70px" height="70px" viewBox="0 0 70 70" version="1.1" xmlns="http://www.w3.org/2000/svg" xmlns:xlink="http://www.w3.org/1999/xlink">
    <!-- Generator: Sketch 55 (78076) - https://sketchapp.com -->
    <title>Throughput</title>
    <desc>Created with Sketch.</desc>
    <g id="页面-1" stroke="none" stroke-width="1" fill="none" fill-rule="evenodd">
        <g id="什么是vite" transform="translate(-594.000000, -1000.000000)">
            <g id="编组" transform="translate(594.000000, 1000.000000)">
                <circle id="椭圆形" fill-opacity="0.46" fill="#F1F1F1" fill-rule="nonzero" cx="35" cy="35" r="35"></circle>
                <path d="M34.8136257,17.1299415 L41.0817544,20.7068421 L34.8136257,24.3425146 L28.5463743,20.7068421 L34.8136257,17.1299415 Z M34.6136257,7.99982456 L58.0250292,21.5951462 L58.0250292,29.522924 L49.5250292,34.5021637 L49.5250292,34.4740936 L43.7440351,37.8220468 L43.7440351,29.5518713 L36.6168421,25.4024561 L42.9422807,21.7390058 L49.982924,25.8887135 L49.982924,30.0966082 L54.4478363,27.4916374 L54.4478363,23.7138596 L34.6419883,12.2068421 L15.324152,23.6834503 L15.324152,26.6609357 C16.3884795,27.3012865 17.0402339,28.4521637 17.0419883,29.6945614 C17.0419883,31.6401754 15.4677193,33.2433918 13.5209357,33.2433918 C11.578538,33.2454386 10.0019298,31.6723392 9.99988304,29.7299415 L9.99988304,29.7226316 C10.0016374,28.4802339 10.6533918,27.3293567 11.7177193,26.6890058 L11.7177193,21.6232164 L34.6136257,7.99982456 Z M26.5995906,21.7667836 L32.9253216,25.4293567 L25.7700585,29.5507018 L25.7700585,37.8232164 L19.5589474,34.2451462 L19.5589474,25.8872515 L26.6010526,21.7667836 L26.5995906,21.7667836 Z M49.9536842,36.0188304 L49.9536842,43.6892982 L43.7156725,47.2384211 L43.7156725,39.6822807 L49.9536842,36.0188304 Z M27.5729825,40.6556725 L34.8136257,44.8053801 L41.6823392,40.9126901 L41.6823392,48.4118129 L34.8136257,52.475848 L27.5729825,48.2118129 L27.5729825,40.6556725 Z M20.1607018,35.7045029 L20.7612865,36.7062573 L25.7685965,39.6822807 L25.7685965,47.2384211 L19.5308772,43.6892982 L19.5308772,40.2547953 L15.2668421,42.7451462 L15.2668421,45.8933918 L35.0718129,57.3992398 L54.3908187,45.9226316 L54.3908187,42.917076 C53.3261988,42.2764327 52.6744444,41.125848 52.6729825,39.8834503 C52.6709357,37.9407602 54.2440351,36.3644444 56.1867251,36.3623977 L56.1940351,36.3623977 C58.1367251,36.3603509 59.7127485,37.9334503 59.7147953,39.875848 L59.7147953,39.8834503 C59.7115789,41.1182456 59.0732749,42.264152 58.0250292,42.917076 L58.0250292,47.9828655 L35.099883,61.6062573 L11.6326316,47.9533333 L11.6326316,40.6556725 L19.5320468,36.0483626 L19.5320468,35.9907602 L19.5893567,36.0188304 L20.1621637,35.7045029 L20.1607018,35.7045029 Z" id="Fill-1" fill="#BBD7FF"></path>
                <polygon id="路径" fill="#007AFF" points="34.8136257 26.4600585 41.6823392 30.5814035 41.6823392 39.1097661 34.8136257 43.0024561 27.5729825 38.8235088 27.5729825 30.697193 34.8136257 26.4612281"></polygon>
                <polygon id="路径" fill="#FFFFFF" points="34.8136257 28.7211696 30.4349708 31.2966082 34.6136257 33.6150292 38.8206433 31.1249708"></polygon>
                <polygon id="路径" fill="#FFFFFF" points="29.5188889 33.0132749 29.5188889 37.7074269 33.6402339 40.0831579 33.6402339 35.3039181"></polygon>
                <polygon id="路径" fill="#FFFFFF" points="39.7074854 32.842807 35.5873099 35.2755556 35.5873099 40.3123977 39.7074854 37.965614 39.7074854 32.841345"></polygon>
            </g>
        </g>
    </g>
</svg>