<?xml version="1.0" encoding="UTF-8"?>
<svg width="50px" height="50px" viewBox="0 0 50 50" version="1.1" xmlns="http://www.w3.org/2000/svg" xmlns:xlink="http://www.w3.org/1999/xlink">
    <!-- Generator: Sketch 53.2 (72643) - https://sketchapp.com -->
    <title>bitcoinblue</title>
    <desc>Created with Sketch.</desc>
    <g id="Page-1" stroke="none" stroke-width="1" fill="none" fill-rule="evenodd">
        <g id="人物" transform="translate(-1162.000000, -3746.000000)" fill="#1B4366" fill-rule="nonzero">
            <g id="Group-11" transform="translate(1162.000000, 3746.000000)">
                <path d="M25,15 C30.514,15 35,19.486 35,25 C35,30.514 30.514,35 25,35 C19.486,35 15,30.514 15,25 C15,19.486 19.486,15 25,15 Z M25,13 C18.373,13 13,18.373 13,25 C13,31.627 18.373,37 25,37 C31.627,37 37,31.627 37,25 C37,18.373 31.627,13 25,13 Z M24.5,25.497 L24.5,28 C26.484,28 27.844,27.812 27.844,26.742 C27.844,25.594 26.375,25.497 24.5,25.497 Z M27.289,23.25 C27.289,22.25 26.25,22 24.5,22 L24.5,24.5 C25.605,24.5 27.289,24.422 27.289,23.25 Z M25,16 C20.029,16 16,20.029 16,25 C16,29.971 20.029,34 25,34 C29.971,34 34,29.971 34,25 C34,20.029 29.971,16 25,16 Z M26,29.5 L26,31 L25,31 L25,29.489 L24.5,29.489 L24.5,31 L23.5,31 L23.5,29.489 L21.016,29.489 L21.266,28 L21.805,28 C22.247,28 22.5,27.575 22.5,27.146 L22.5,22.702 C22.5,22.286 22.258,22 21.817,22 L21,22 L21,20.5 L23.5,20.5 L23.5,19 L24.5,19 L24.5,20.5 L25,20.5 L25,19 L26,19 L26,20.526 C28.158,20.599 29.012,21.417 29.257,22.338 C29.547,23.428 28.828,24.343 28.211,24.566 C28.961,24.758 30,25.312 30,26.592 C30,28.333 28.656,29.5 26,29.5 L26,29.5 Z" id="Shape"></path>
            </g>
        </g>
    </g>
</svg>