<?xml version="1.0" encoding="UTF-8"?>
<svg width="50px" height="50px" viewBox="0 0 50 50" version="1.1" xmlns="http://www.w3.org/2000/svg" xmlns:xlink="http://www.w3.org/1999/xlink">
    <!-- Generator: Sketch 54.1 (76490) - https://sketchapp.com -->
    <title>blockchain</title>
    <desc>Created with Sketch.</desc>
    <g id="Page-1" stroke="none" stroke-width="1" fill="none" fill-rule="evenodd">
        <g id="人物" transform="translate(-1162.000000, -3937.000000)" fill="#1B4366" fill-rule="nonzero">
            <g id="blockchain" transform="translate(1162.000000, 3937.000000)">
                <path d="M34.1875,35.5 L15.8125,35.5 C15.4644027,35.5 15.1305638,35.3617182 14.8844222,35.1155727 C14.6382805,34.8694273 14.5,34.5355909 14.5,34.1875 L14.5,15.8125 C14.5,15.4644027 14.6382805,15.1305638 14.8844222,14.8844222 C15.1305638,14.6382805 15.4644027,14.5 15.8125,14.5 L34.1875,14.5 C34.5355909,14.5 34.8694273,14.6382805 35.1155727,14.8844222 C35.3617182,15.1305638 35.5,15.4644027 35.5,15.8125 L35.5,33.7300182 L35.5,34.1875 C35.5,34.5355909 35.3617182,34.8694273 35.1155727,35.1155727 C34.8694273,35.3617182 34.5355909,35.5 34.1875,35.5 Z M25.5072455,18.7516473 L21.2679182,18.7516473 L21.2679182,31.7697636 L25.8194455,31.7697636 C28.2053636,31.7697636 29.8394818,30.2829 29.8394818,28.2269364 C29.8394818,26.7757091 28.9769545,25.4557 27.4900909,25.0882 C28.6282273,24.6616455 29.4353909,23.6707 29.4353909,22.2757273 C29.4353909,20.2197764 27.9860091,18.7516473 25.5072455,18.7516473 Z M25.3057091,24.4375818 L23.0660273,24.4375818 L23.0660273,20.3257118 L25.2325909,20.3257118 C26.7194545,20.3257118 27.6185091,21.1338364 27.6185091,22.3638636 C27.6185091,23.5751182 26.7560455,24.4375818 25.3057091,24.4375818 Z M25.5625455,30.1863636 L23.0660273,30.1863636 L23.0660273,25.9826091 L25.6328636,25.9826091 C27.2107273,25.9826091 28.0000727,26.8638455 28.0000727,28.1125818 C28.0000727,29.3781818 27.0128818,30.1863636 25.5625455,30.1863636 Z" id="形状结合"></path>
            </g>
        </g>
    </g>
</svg>