<?xml version="1.0" encoding="UTF-8"?>
<svg width="22px" height="22px" viewBox="0 0 22 22" version="1.1" xmlns="http://www.w3.org/2000/svg" xmlns:xlink="http://www.w3.org/1999/xlink">
    <!-- Generator: Sketch 54.1 (76490) - https://sketchapp.com -->
    <title>blockchain</title>
    <desc>Created with Sketch.</desc>
    <g id="Page-1" stroke="none" stroke-width="1" fill="none" fill-rule="evenodd">
        <g id="人物" transform="translate(-846.000000, -5100.000000)" fill="#FFFFFF" fill-rule="nonzero">
            <g id="footer" transform="translate(374.000000, 4930.000000)">
                <g id="blockchain" transform="translate(472.000000, 170.000000)">
                    <path d="M18.4375,19.5 L3.5625,19.5 C3.28070697,19.5 3.01045642,19.3880576 2.81119891,19.188797 C2.61194139,18.9895364 2.5,18.7192879 2.5,18.4375 L2.5,3.5625 C2.5,3.28070697 2.61194139,3.01045642 2.81119891,2.81119891 C3.01045642,2.61194139 3.28070697,2.5 3.5625,2.5 L18.4375,2.5 C18.7192879,2.5 18.9895364,2.61194139 19.188797,2.81119891 C19.3880576,3.01045642 19.5,3.28070697 19.5,3.5625 L19.5,18.0671576 L19.5,18.4375 C19.5,18.7192879 19.3880576,18.9895364 19.188797,19.188797 C18.9895364,19.3880576 18.7192879,19.5 18.4375,19.5 Z M11.4106273,5.9418097 L7.97879091,5.9418097 L7.97879091,16.4802848 L11.6633606,16.4802848 C13.5948182,16.4802848 14.9176758,15.2766333 14.9176758,13.6122818 C14.9176758,12.4374788 14.2194394,11.3689 13.0157879,11.0714 C13.9371364,10.7260939 14.5905545,9.9239 14.5905545,8.79463636 C14.5905545,7.13029515 13.4172455,5.9418097 11.4106273,5.9418097 Z M11.2474788,10.5447091 L9.43440303,10.5447091 L9.43440303,7.21605242 L11.1882879,7.21605242 C12.3919394,7.21605242 13.1197455,7.87024848 13.1197455,8.86598485 C13.1197455,9.84652424 12.4215606,10.5447091 11.2474788,10.5447091 Z M11.4553939,15.1984848 L9.43440303,15.1984848 L9.43440303,11.7954455 L11.5123182,11.7954455 C12.7896364,11.7954455 13.4286303,12.5088273 13.4286303,13.5197091 C13.4286303,14.5442424 12.6294758,15.1984848 11.4553939,15.1984848 Z" id="形状结合"></path>
                </g>
            </g>
        </g>
    </g>
</svg>