<?xml version="1.0" encoding="UTF-8"?>
<svg width="50px" height="50px" viewBox="0 0 50 50" version="1.1" xmlns="http://www.w3.org/2000/svg" xmlns:xlink="http://www.w3.org/1999/xlink">
    <!-- Generator: Sketch 54.1 (76490) - https://sketchapp.com -->
    <title>facebook</title>
    <desc>Created with Sketch.</desc>
    <g id="Page-1" stroke="none" stroke-width="1" fill="none" fill-rule="evenodd">
        <g id="人物" transform="translate(-1162.000000, -3809.000000)" fill="#1B4366" fill-rule="nonzero">
            <g id="facebook" transform="translate(1162.000000, 3809.000000)">
                <path d="M33.1666667,14.5 L16.8333333,14.5 C15.5441667,14.5 14.5,15.5441667 14.5,16.8333333 L14.5,33.1666667 C14.5,34.4558333 15.5441667,35.5 16.8333333,35.5 L25.7245,35.5 L25.7245,27.3788333 L22.991,27.3788333 L22.991,24.1996667 L25.7245,24.1996667 L25.7245,21.8605 C25.7245,19.1491667 27.3823333,17.671 29.802,17.671 C30.6175,17.6686667 31.4318333,17.7106667 32.2426667,17.7935 L32.2426667,20.6285 L30.5766667,20.6285 C29.2583333,20.6285 29.0016667,21.2515 29.0016667,22.1708333 L29.0016667,24.195 L32.1516667,24.195 L31.7421667,27.3741667 L28.983,27.3741667 L28.983,35.5 L33.1666667,35.5 C34.4558333,35.5 35.5,34.4558333 35.5,33.1666667 L35.5,16.8333333 C35.5,15.5441667 34.4558333,14.5 33.1666667,14.5 Z" id="路径"></path>
            </g>
        </g>
    </g>
</svg>