<?xml version="1.0" encoding="UTF-8"?>
<svg width="22px" height="22px" viewBox="0 0 22 22" version="1.1" xmlns="http://www.w3.org/2000/svg" xmlns:xlink="http://www.w3.org/1999/xlink">
    <!-- Generator: Sketch 54.1 (76490) - https://sketchapp.com -->
    <title>facebook</title>
    <desc>Created with Sketch.</desc>
    <g id="Page-1" stroke="none" stroke-width="1" fill="none" fill-rule="evenodd">
        <g id="人物" transform="translate(-950.000000, -5100.000000)" fill="#FFFFFF" fill-rule="nonzero">
            <g id="footer" transform="translate(374.000000, 4930.000000)">
                <g id="facebook" transform="translate(576.000000, 170.000000)">
                    <path d="M17.6111111,2.5 L4.38888889,2.5 C3.34527778,2.5 2.5,3.34527778 2.5,4.38888889 L2.5,17.6111111 C2.5,18.6547222 3.34527778,19.5 4.38888889,19.5 L11.5865,19.5 L11.5865,12.9257222 L9.37366667,12.9257222 L9.37366667,10.3521111 L11.5865,10.3521111 L11.5865,8.4585 C11.5865,6.26361111 12.9285556,5.067 14.8873333,5.067 C15.5475,5.06511111 16.2067222,5.09911111 16.8631111,5.16616667 L16.8631111,7.46116667 L15.5144444,7.46116667 C14.4472222,7.46116667 14.2394444,7.9655 14.2394444,8.70972222 L14.2394444,10.3483333 L16.7894444,10.3483333 L16.4579444,12.9219444 L14.2243333,12.9219444 L14.2243333,19.5 L17.6111111,19.5 C18.6547222,19.5 19.5,18.6547222 19.5,17.6111111 L19.5,4.38888889 C19.5,3.34527778 18.6547222,2.5 17.6111111,2.5 Z" id="路径"></path>
                </g>
            </g>
        </g>
    </g>
</svg>