<?xml version="1.0" encoding="UTF-8"?>
<svg width="50px" height="50px" viewBox="0 0 50 50" version="1.1" xmlns="http://www.w3.org/2000/svg" xmlns:xlink="http://www.w3.org/1999/xlink">
    <!-- Generator: Sketch 52.5 (67469) - http://www.bohemiancoding.com/sketch -->
    <title>发现 copy</title>
    <desc>Created with Sketch.</desc>
    <g id="Page-1" stroke="none" stroke-width="1" fill="none" fill-rule="evenodd">
        <g id="发现-copy" transform="translate(-107.000000, -473.000000)">
            <g id="分组-4" transform="translate(107.000000, 473.000000)">
                <g id="分组" transform="translate(16.000000, 16.000000)">
                    <path d="M15.4711955,9.29432834 L4.49323343,9.29432834 C4.13586414,9.29432834 3.82950383,9.54967965 3.82950383,9.85603996 C3.82950383,10.1624003 4.13586414,10.4175984 4.49323343,10.4175984 L15.4711955,10.4175984 C15.8285648,10.4175984 16.1349251,10.1624003 16.1349251,9.85603996 C16.1349251,9.54967965 15.8285648,9.29432834 15.4711955,9.29432834" id="Fill-3" fill="#000000"></path>
                    <path d="M6.85874051,0 C6.04895473,0 5.36363636,0.665370934 5.36363636,1.45158644 L5.36363636,9.79838991 C5.36363636,10.5846054 6.04895473,11.2499764 6.85874051,11.2499764 L11.7800627,11.2499764 L13.2751668,12.7015628 C13.4620549,12.8830111 13.8358309,12.8830111 14.0227189,12.7015628 L15.5178231,11.2499764 L20.5015658,11.2499764 C21.3113516,11.2499764 21.99667,10.5846054 21.99667,9.79838991 L21.99667,1.45158644 C21.9342494,0.665370934 21.3113516,0 20.5015658,0 L6.85874051,0 Z" id="Fill-7" fill="#1B4366"></path>
                    <path d="M18.7633433,1.50894705 L2.7815984,1.50894705 C1.81135531,1.50894705 1.04545455,2.27484782 1.04545455,3.24493773 L1.04545455,13.3548278 C1.04545455,14.3250709 1.81135531,15.0909717 2.7815984,15.0909717 L8.60244422,15.0909717 L10.1342458,16.6737822 C10.4916151,17.0311515 11.0533267,17.0311515 11.410696,16.6737822 L12.9424975,15.0909717 L18.7633433,15.0909717 C19.7334332,15.0909717 20.499334,14.3250709 20.499334,13.3548278 L20.499334,3.24493773 C20.499334,2.27484782 19.7334332,1.50894705 18.7633433,1.50894705" id="Fill-11-Copy" fill="#FFFFFF"></path>
                    <path d="M17.7178888,2.5544016 L1.73614386,2.5544016 C0.765900766,2.5544016 0,3.32030236 0,4.29039227 L0,14.4002824 C0,15.3705255 0.765900766,16.1364262 1.73614386,16.1364262 L7.55698968,16.1364262 L9.08879121,17.7192368 C9.44616051,18.0766061 10.0078721,18.0766061 10.3652414,17.7192368 L11.897043,16.1364262 L17.7178888,16.1364262 C18.6879787,16.1364262 19.4538795,15.3705255 19.4538795,14.4002824 L19.4538795,4.29039227 C19.4538795,3.32030236 18.6879787,2.5544016 17.7178888,2.5544016" id="Fill-11" fill="#1B4366"></path>
                    <path d="M2.70615718,9.90704895 L11.7437862,9.90704895 C12.2543357,9.90704895 12.6628671,10.3155804 12.6628671,10.8261299 C12.6628671,11.3366793 12.2543357,11.7452108 11.7437862,11.7452108 L2.70615718,11.7452108 C2.19560773,11.7452108 1.78707626,11.3366793 1.78707626,10.8261299 C1.78707626,10.3155804 2.24661672,9.90704895 2.70615718,9.90704895 M2.70615718,6.69026573 L8.11847153,6.69026573 C8.62917416,6.69026573 9.03755245,7.0987972 9.03755245,7.60934665 C9.03755245,8.1198961 8.62917416,8.52842757 8.11847153,8.52842757 L2.70615718,8.52842757 C2.19560773,8.52842757 1.78707626,8.1198961 1.78707626,7.60934665 C1.78707626,7.0987972 2.24661672,6.69026573 2.70615718,6.69026573" id="Fill-15" fill="#FFFFFF"></path>
                </g>
            </g>
        </g>
    </g>
</svg>