<?xml version="1.0" encoding="UTF-8"?>
<svg width="50px" height="50px" viewBox="0 0 50 50" version="1.1" xmlns="http://www.w3.org/2000/svg" xmlns:xlink="http://www.w3.org/1999/xlink">
    <!-- Generator: Sketch 51.2 (57519) - http://www.bohemiancoding.com/sketch -->
    <title>githubblue</title>
    <desc>Created with Sketch.</desc>
    <defs>
        <path d="M8.10306332,23.034041 C8.10306332,22.6774772 8.08650174,21.7096609 8.08650174,20.4362186 C3.94610588,21.3530971 3.06834196,18.3817315 3.06834196,18.3817315 C2.38931704,16.6158914 1.41218361,16.1404729 1.41218361,16.1404729 C0.0541337729,15.2066151 1.51155311,15.2066151 1.51155311,15.2066151 C3.00209562,15.3084905 3.79705163,16.7856837 3.79705163,16.7856837 C5.1219783,19.1118385 7.29154573,18.4496484 8.13618649,18.0591261 C8.26867915,17.0743306 8.64959557,16.3951613 9.08019674,16.0216182 C5.76788006,15.6310959 2.28994754,14.3236951 2.28994754,8.46586003 C2.28994754,6.8018953 2.86960296,5.42657751 3.8301748,4.3568859 C3.68112054,3.96636356 3.16771146,2.42125346 3.97922905,0.315828694 C3.97922905,0.315828694 5.23790939,-0.0916728729 8.06994015,1.87791803 C9.26237416,1.53833339 10.5376161,1.36854107 11.7962964,1.36854107 C13.0549768,1.36854107 14.3302187,1.53833339 15.5226527,1.87791803 C18.371245,-0.108652105 19.6133638,0.315828694 19.6133638,0.315828694 C20.4248814,2.42125346 19.9114723,3.96636356 19.7624181,4.3568859 C20.7229899,5.42657751 21.2860837,6.78491607 21.2860837,8.46586003 C21.2860837,14.3406743 17.8081512,15.6310959 14.4792729,16.004639 C15.0092436,16.4800575 15.4895295,17.4139153 15.4895295,18.8401707 C15.4895295,20.8776786 15.4729679,22.5246641 15.4729679,23.034041 C15.4729679,23.4415426 8.10306332,23.4245634 8.10306332,23.034041 Z" id="path-1"></path>
    </defs>
    <g id="Page-1" stroke="none" stroke-width="1" fill="none" fill-rule="evenodd">
        <g id="社区" transform="translate(-1170.000000, -617.000000)">
            <g id="Group-7" transform="translate(1170.000000, 338.000000)">
                <g id="Group-2" transform="translate(13.750000, 294.000000)">
                    <mask id="mask-2" fill="white">
                        <use xlink:href="#path-1"></use>
                    </mask>
                    <use id="Shape" fill="#007AFF" fill-rule="nonzero" xlink:href="#path-1"></use>
                    <g id="blue" mask="url(#mask-2)" fill="#1B4366">
                        <g transform="translate(-13.750000, -15.000000)" id="Rectangle">
                            <rect x="0" y="0" width="50" height="50"></rect>
                        </g>
                    </g>
                </g>
            </g>
        </g>
    </g>
</svg>