<?xml version="1.0" encoding="UTF-8"?>
<svg width="22px" height="22px" viewBox="0 0 22 22" version="1.1" xmlns="http://www.w3.org/2000/svg" xmlns:xlink="http://www.w3.org/1999/xlink">
    <!-- Generator: Sketch 54.1 (76490) - https://sketchapp.com -->
    <title>ig</title>
    <desc>Created with Sketch.</desc>
    <g id="Page-1" stroke="none" stroke-width="1" fill="none" fill-rule="evenodd">
        <g id="人物" transform="translate(-898.000000, -5100.000000)" fill="#FFFFFF" fill-rule="nonzero">
            <g id="footer" transform="translate(374.000000, 4930.000000)">
                <g id="ig" transform="translate(524.000000, 170.000000)">
                    <path d="M7.31818182,2 C4.385,2 2,4.385 2,7.31818182 L2,14.6818182 C2,17.615 4.385,20 7.31818182,20 L14.6818182,20 C17.615,20 20,17.615 20,14.6818182 L20,7.31818182 C20,4.385 17.615,2 14.6818182,2 L7.31818182,2 Z M15.9090909,5.27272727 C16.3590909,5.27272727 16.7272727,5.64090909 16.7272727,6.09090909 C16.7272727,6.54090909 16.3590909,6.90909091 15.9090909,6.90909091 C15.4590909,6.90909091 15.0909091,6.54090909 15.0909091,6.09090909 C15.0909091,5.64090909 15.4590909,5.27272727 15.9090909,5.27272727 Z M11,6.5 C13.4831818,6.5 15.5,8.51681818 15.5,11 C15.5,13.4831818 13.4831818,15.5 11,15.5 C8.51681818,15.5 6.5,13.4831818 6.5,11 C6.5,8.51681818 8.51681818,6.5 11,6.5 Z M11,7.31818182 C8.97090909,7.31818182 7.31818182,8.97090909 7.31818182,11 C7.31818182,13.0290909 8.97090909,14.6818182 11,14.6818182 C13.0290909,14.6818182 14.6818182,13.0290909 14.6818182,11 C14.6818182,8.97090909 13.0290909,7.31818182 11,7.31818182 Z" id="形状"></path>
                </g>
            </g>
        </g>
    </g>
</svg>