<?xml version="1.0" encoding="UTF-8"?>
<svg width="50px" height="50px" viewBox="0 0 50 50" version="1.1" xmlns="http://www.w3.org/2000/svg" xmlns:xlink="http://www.w3.org/1999/xlink">
    <!-- Generator: Sketch 54.1 (76490) - https://sketchapp.com -->
    <title>ig</title>
    <desc>Created with Sketch.</desc>
    <g id="Page-1" stroke="none" stroke-width="1" fill="none" fill-rule="evenodd">
        <g id="人物" transform="translate(-1162.000000, -3873.000000)" fill="#1B4366" fill-rule="nonzero">
            <g id="ig" transform="translate(1162.000000, 3873.000000)">
                <path d="M20.5,14 C16.915,14 14,16.915 14,20.5 L14,29.5 C14,33.085 16.915,36 20.5,36 L29.5,36 C33.085,36 36,33.085 36,29.5 L36,20.5 C36,16.915 33.085,14 29.5,14 L20.5,14 Z M31,18 C31.55,18 32,18.45 32,19 C32,19.55 31.55,20 31,20 C30.45,20 30,19.55 30,19 C30,18.45 30.45,18 31,18 Z M25,19.5 C28.035,19.5 30.5,21.965 30.5,25 C30.5,28.035 28.035,30.5 25,30.5 C21.965,30.5 19.5,28.035 19.5,25 C19.5,21.965 21.965,19.5 25,19.5 Z M25,20.5 C22.52,20.5 20.5,22.52 20.5,25 C20.5,27.48 22.52,29.5 25,29.5 C27.48,29.5 29.5,27.48 29.5,25 C29.5,22.52 27.48,20.5 25,20.5 Z" id="形状"></path>
            </g>
        </g>
    </g>
</svg>