<?xml version="1.0" encoding="UTF-8"?>
<svg width="24px" height="24px" viewBox="0 0 24 24" version="1.1" xmlns="http://www.w3.org/2000/svg" xmlns:xlink="http://www.w3.org/1999/xlink">
    <!-- Generator: Sketch 54.1 (76490) - https://sketchapp.com -->
    <title>smalllinkin</title>
    <desc>Created with Sketch.</desc>
    <g id="Page-1" stroke="none" stroke-width="1" fill="none" fill-rule="evenodd">
        <g id="人物" transform="translate(-571.000000, -1149.000000)" fill="#007AFF" fill-rule="nonzero">
            <g id="Group-7-Copy" transform="translate(375.000000, 887.000000)">
                <g id="Group-2" transform="translate(196.000000, 262.000000)">
                    <path d="M8,20 L5,20 L5,9 L8,9 L8,20 Z M6.5,7.732 C5.534,7.732 4.75,6.942 4.75,5.968 C4.75,4.994 5.534,4.204 6.5,4.204 C7.466,4.204 8.25,4.994 8.25,5.968 C8.25,6.942 7.467,7.732 6.5,7.732 Z M20,20 L17,20 L17,14.396 C17,11.028 13,11.283 13,14.396 L13,20 L10,20 L10,9 L13,9 L13,10.765 C14.396,8.179 20,7.988 20,13.241 L20,20 Z" id="Shape"></path>
                </g>
            </g>
        </g>
    </g>
</svg>