<svg xmlns="http://www.w3.org/2000/svg" width="16" height="12" viewBox="0 0 16 12">
  <g fill="none" fill-rule="evenodd">
    <g fill-rule="nonzero">
      <polygon fill="#CC0001" points="0 0 16 0 16 12 0 12"/>
      <polygon fill="#FFF" points="0 11.145 16 11.145 16 12 0 12"/>
      <polygon fill="#FFF" points="0 .02 16 .02 16 .875 0 .875" transform="translate(0 9.41)"/>
      <polygon fill="#FFF" points="0 .02 16 .02 16 .875 0 .875" transform="translate(0 7.695)"/>
      <polygon fill="#FFF" points="0 .02 16 .02 16 .875 0 .875" transform="translate(0 5.98)"/>
      <polygon fill="#FFF" points="0 .02 16 .02 16 .875 0 .875" transform="translate(0 4.268)"/>
      <polygon fill="#FFF" points="0 .02 16 .02 16 .875 0 .875" transform="translate(0 2.55)"/>
      <polygon fill="#FFF" points="0 .02 16 .02 16 .875 0 .875" transform="translate(0 .838)"/>
      <polygon fill="#010066" points="0 0 9.315 0 9.315 6.857 0 6.857"/>
      <g fill="#FC0" transform="translate(1.5 1.2)">
        <path d="M2.2425,0.0125 C1.0175,0.0125 0.02,1.005 0.02,2.2275 C0.0213245901,2.81628107 0.256488068,3.38042084 0.673756833,3.79581424 C1.0910256,4.21120764 1.65621894,4.44382758 2.245,4.4425 C2.67028671,4.44331932 3.08683871,4.32182499 3.445,4.0925 C3.23733358,4.1631191 3.0193426,4.19860601 2.8,4.1975 C1.7125,4.1975 0.83,3.3175 0.83,2.235 C0.830319347,1.59050219 1.1462715,0.98702372 1.67575948,0.619573022 C2.20524746,0.252122325 2.88112926,0.167294177 3.485,0.3925 C3.11806503,0.144615592 2.68531813,0.0122664373 2.2425,0.0125 Z"/>
        <polygon points="5.928 3.38 4.992 2.893 5.268 3.893 4.643 3.055 4.447 4.072 4.255 3.055 3.627 3.89 3.908 2.89 2.967 3.377 3.667 2.595 2.605 2.635 3.58 2.228 2.605 1.815 3.667 1.857 2.973 1.075 3.908 1.563 3.632 .563 4.258 1.4 4.452 .383 4.645 1.4 5.272 .568 4.992 1.565 5.933 1.08 5.232 1.86 6.295 1.82 5.32 2.23 6.295 2.643 5.232 2.598"/>
      </g>
    </g>
    <rect width="15.733" height="11.733" x=".133" y=".133" stroke="#D9D9D9" stroke-width=".4"/>
  </g>
</svg>
