<svg xmlns="http://www.w3.org/2000/svg" width="16" height="12" viewBox="0 0 16 12">
  <g fill="none" fill-rule="evenodd">
    <g fill-rule="nonzero">
      <polygon fill="#E30A17" points="0 0 16 0 16 12 0 12"/>
      <path fill="#FFF" d="M10.175,6.1875 C10.175,7.8425 8.81,9.185 7.125,9.185 C5.44,9.185 4.075,7.8425 4.075,6.185 C4.075,4.5275 5.44,3.19 7.125,3.19 C8.81,3.19 10.175,4.5325 10.175,6.1875 Z"/>
      <path fill="#E30A17" d="M10.325,6.1875 C10.325,7.5125 9.235,8.585 7.8875,8.585 C6.54,8.585 5.4475,7.51 5.4475,6.185 C5.4475,4.86 6.54,3.79 7.8875,3.79 C9.235,3.79 10.3275,4.8625 10.3275,6.1875 L10.325,6.1875 Z"/>
      <polygon fill="#FFF" points="10.768 4.787 10.742 5.895 9.71 6.175 10.73 6.537 10.705 7.555 11.367 6.76 12.373 7.11 11.793 6.258 12.5 5.41 11.412 5.71 10.768 4.785"/>
    </g>
    <rect width="15.733" height="11.733" x=".133" y=".133" stroke="#D9D9D9" stroke-width=".4"/>
  </g>
</svg>
