<?xml version="1.0" encoding="UTF-8"?>
<svg width="50px" height="50px" viewBox="0 0 50 50" version="1.1" xmlns="http://www.w3.org/2000/svg" xmlns:xlink="http://www.w3.org/1999/xlink">
    <!-- Generator: Sketch 51.2 (57519) - http://www.bohemiancoding.com/sketch -->
    <title>twitter copy</title>
    <desc>Created with Sketch.</desc>
    <defs>
        <path d="M23.2117345,2.16388206 C22.8386309,2.32345276 22.4550314,2.45812747 22.0630811,2.56746294 C22.5271239,2.06141699 22.8809211,1.46598189 23.0968922,0.814401551 C23.1453114,0.668350039 23.0951301,0.508483842 22.9706345,0.412963051 C22.8462922,0.317368384 22.6735307,0.305917709 22.5366239,0.384151675 C21.7042274,0.86020425 20.8061739,1.20232087 19.8645278,1.40237524 C18.9159865,0.508631593 17.6276682,0 16.2958338,0 C13.4845325,0 11.1973384,2.20539999 11.1973384,4.91618106 C11.1973384,5.12968074 11.2113585,5.34199842 11.2390923,5.55136108 C7.75053521,5.25600754 4.5072918,3.60260396 2.280162,0.968283847 C2.2007913,0.874388312 2.0785175,0.823783717 1.95333243,0.833461384 C1.82807074,0.842917425 1.71552676,0.911030472 1.65224471,1.0157118 C1.20053651,1.76310844 0.961734872,2.61791979 0.961734872,3.48765396 C0.961734872,4.67224475 1.40034231,5.7961839 2.17512606,6.67441373 C1.93954215,6.59573651 1.71093,6.49740845 1.49273716,6.38061157 C1.37559642,6.31774367 1.23263721,6.31870405 1.11626259,6.38304946 C0.99981136,6.44739486 0.926799502,6.56574313 0.923734996,6.69509882 C0.923198708,6.71689204 0.923198708,6.73868526 0.923198708,6.76077398 C0.923198708,8.52897981 1.91012289,10.1209191 3.41900908,10.9885848 C3.28938047,10.9760999 3.15982848,10.9580004 3.03111922,10.9342864 C2.89842611,10.9098337 2.76197897,10.954676 2.6724954,11.0522653 C2.58285859,11.1497807 2.5532095,11.2857113 2.59450372,11.4098219 C3.15300995,13.0912242 4.59095282,14.327971 6.3292939,14.7050306 C4.8875204,15.575799 3.23873951,16.0319053 1.50790647,16.0319053 C1.14675443,16.0319053 0.783533843,16.0114418 0.428051136,15.9708843 C0.251458973,15.9506424 0.0826046877,16.0511867 0.0224637557,16.2131214 C-0.0376771762,16.37513 0.0260645504,16.5557552 0.176301961,16.6486165 C2.39983097,18.0233623 4.97087496,18.75 7.61133002,18.75 C12.8021437,18.75 16.0493709,16.3896835 17.8593448,14.4096032 C20.1163536,11.9406161 21.4108009,8.67259344 21.4108009,5.44357698 C21.4108009,5.30868065 21.4086558,5.17245455 21.4043655,5.03667171 C22.2948343,4.38974551 23.0614971,3.60681485 23.685354,2.70693955 C23.7801238,2.57027021 23.7698577,2.38964504 23.6600718,2.26383537 C23.5504391,2.13795182 23.3677179,2.09724652 23.2117345,2.16388206 Z" id="path-1"></path>
    </defs>
    <g id="Page-1" stroke="none" stroke-width="1" fill="none" fill-rule="evenodd">
        <g id="社区" transform="translate(-1183.000000, -339.000000)">
            <g id="Group-7" transform="translate(1170.000000, 338.000000)">
                <g id="twitter-copy" transform="translate(13.000000, 1.000000)">
                    <g transform="translate(0.750000, 0.000000)">
                        <mask id="mask-2" fill="white">
                            <use xlink:href="#path-1"></use>
                        </mask>
                        <use id="XMLID_827_" fill="#007AFF" fill-rule="nonzero" xlink:href="#path-1"></use>
                        <g id="blue" mask="url(#mask-2)" fill="#1B4366">
                            <g transform="translate(-13.750000, -15.000000)" id="Rectangle">
                                <rect x="0" y="0" width="50" height="50"></rect>
                            </g>
                        </g>
                    </g>
                </g>
            </g>
        </g>
    </g>
</svg>