<svg xmlns="http://www.w3.org/2000/svg" xmlns:xlink="http://www.w3.org/1999/xlink" width="50" height="50" viewBox="0 0 50 50">
  <defs>
    <path id="wechatblue-a" d="M17.1463431,7.28720706 C14.8605506,7.40660144 12.8728942,8.09956883 11.2591701,9.66504515 C9.62874686,11.2466707 8.88448189,13.1847795 9.08792231,15.5873164 C8.19451436,15.4766717 7.38075265,15.3548774 6.56234117,15.2859806 C6.27970447,15.2621817 5.94427026,15.2959802 5.70488152,15.4310738 C4.91021892,15.8795027 4.14835477,16.3857789 3.24539727,16.9502023 C3.41108947,16.2008376 3.51833442,15.5446185 3.70817549,14.9134482 C3.84781892,14.44957 3.78312196,14.1913821 3.35579207,13.8892464 C0.611871205,11.9519875 -0.544724365,9.05277397 0.320834901,6.06796444 C1.12164721,3.30669438 3.08825466,1.63207319 5.76042891,0.759114275 C9.40770726,-0.432229659 13.5065644,0.783013151 15.72436,3.67872688 C16.5253723,4.72472765 17.0165492,5.8987224 17.1463431,7.28720706 Z M6.62638816,6.35715083 C6.64743716,5.81122652 6.17440943,5.31939966 5.61248587,5.30295044 C5.03721294,5.28605123 4.56403521,5.72568054 4.547236,6.29255387 C4.5302368,6.86707683 4.96966612,7.32750516 5.54913885,7.34220447 C6.12361182,7.35680378 6.60513916,6.9165745 6.62638816,6.35715083 Z M12.1150799,5.30260045 C11.5511064,5.31299996 11.0745788,5.79332736 11.0845783,6.34140157 C11.0948779,6.90952483 11.5623559,7.35395392 12.1422786,7.34700424 C12.7237012,7.34000457 13.1646805,6.89082571 13.1591807,6.31075301 C13.1543309,5.74127981 12.6889528,5.29210095 12.1150799,5.30260045 Z"/>
    <path id="wechatblue-c" d="M13.5317014,14.0373364 C12.8079355,13.7150516 12.1439667,13.2315244 11.4371,13.1576778 C10.7329331,13.0841313 9.99271795,13.4903622 9.25600262,13.5657086 C7.01195823,13.7952978 5.00155284,13.1698773 3.34383085,11.6368494 C0.191029226,8.72073664 0.641558024,4.24944706 4.28918636,1.85970952 C7.5310838,-0.264190525 12.28551,0.443876153 14.5711525,3.39083747 C16.5658086,5.96236645 16.3313696,9.3760058 13.8963342,11.5363041 C13.1917174,12.1615247 12.9381293,12.6760505 13.3902581,13.5002617 C13.4737041,13.6524545 13.4832537,13.8451455 13.5317014,14.0373364 Z M5.29278913,6.06036184 C5.75356745,6.06081181 6.13299959,5.70022878 6.15044877,5.2451002 C6.1688479,4.76327288 5.78131614,4.3591419 5.29883885,4.35714199 C4.82116133,4.35499209 4.42098016,4.76477281 4.43757938,5.23945047 C4.45322864,5.69297912 4.83531066,6.05981186 5.29278913,6.06036184 Z M10.6039892,4.3590419 C10.1569102,4.35594205 9.7770281,4.72192482 9.75877896,5.17365356 C9.73942987,5.65673083 10.1148622,6.05341216 10.5929397,6.05461211 C11.0553179,6.05611204 11.4206507,5.70642849 11.43745,5.24635014 C11.4553991,4.76217293 11.0797668,4.36234175 10.6039892,4.3590419 Z"/>
  </defs>
  <g fill="none" fill-rule="evenodd" transform="translate(13.36 14.888)">
    <mask id="wechatblue-b" fill="#fff">
      <use xlink:href="#wechatblue-a"/>
    </mask>
    <use fill="#007AFF" fill-rule="nonzero" xlink:href="#wechatblue-a"/>
    <g fill="#1B4366" mask="url(#wechatblue-b)">
      <rect width="50" height="50" transform="translate(-13.36 -14.888)"/>
    </g>
    <g transform="translate(8.75 7.5)">
      <mask id="wechatblue-d" fill="#fff">
        <use xlink:href="#wechatblue-c"/>
      </mask>
      <use fill="#007AFF" fill-rule="nonzero" xlink:href="#wechatblue-c"/>
      <g fill="#1B4366" mask="url(#wechatblue-d)">
        <rect width="50" height="50" transform="translate(-22.11 -22.388)"/>
      </g>
    </g>
  </g>
</svg>
