<?xml version="1.0" encoding="UTF-8"?>
<svg width="50px" height="50px" viewBox="0 0 50 50" version="1.1" xmlns="http://www.w3.org/2000/svg" xmlns:xlink="http://www.w3.org/1999/xlink">
    <!-- Generator: Sketch 52.5 (67469) - http://www.bohemiancoding.com/sketch -->
    <title>发现 copy</title>
    <desc>Created with Sketch.</desc>
    <defs>
        <polygon id="path-1" points="2.74285714e-05 8.15018305e-06 23.9524114 8.15018305e-06 23.9524114 19.260576 2.74285714e-05 19.260576"></polygon>
    </defs>
    <g id="Page-1" stroke="none" stroke-width="1" fill="none" fill-rule="evenodd">
        <g id="发现-copy-6" transform="translate(-107.000000, -361.000000)">
            <g id="分组-4-copy" transform="translate(107.000000, 361.000000)">
                <g id="分组" transform="translate(13.000000, 15.000000)">
                    <mask id="mask-2" fill="white">
                        <use xlink:href="#path-1"></use>
                    </mask>
                    <g id="Clip-2"></g>
                    <path d="M9.01607314,14.7820389 C9.39376457,14.1685989 9.19559314,13.4668389 8.57406171,13.2043474 C7.96075886,12.9499474 7.16519314,13.2124389 6.78750171,13.8017417 C6.40446171,14.3936503 6.58398171,15.1007589 7.19467886,15.3739474 C7.81333029,15.6552274 8.63303314,15.3873874 9.01607314,14.7820389 M10.4571703,10.4828846 C12.4098103,10.9838674 13.4062903,12.8133531 12.6079817,14.589216 C11.7991131,16.4078674 9.47138743,17.3748617 7.49735314,16.7427703 C5.59024457,16.1320731 4.78398171,14.2624046 5.61959314,12.5776046 C6.439296,10.9276389 8.571456,9.99547886 10.4571703,10.4828846 M10.0606903,17.8517074 C14.0249417,17.4633189 17.0330331,15.0526217 16.7758903,12.4650103 C16.5187474,9.88288457 13.0955246,8.10167314 9.13127314,8.49006171 C5.16702171,8.87845029 2.15893029,11.2918903 2.41607314,13.874016 C2.673216,16.4614903 6.09643886,18.240096 10.0606903,17.8517074 M17.9946789,9.27218743 C19.3687131,9.69541029 20.8982674,10.7186331 20.8982674,12.5186331 C20.8982674,15.5025874 16.5642789,19.260576 10.0499931,19.260576 C5.08130743,19.260576 2.74285714e-05,16.8686674 2.74285714e-05,12.9365074 C2.74285714e-05,10.8793646 1.31248457,8.50350171 3.57054171,6.25888457 C6.58658743,3.26423314 10.1062217,1.90075886 11.4295131,3.21595886 C12.0133303,3.79456457 12.069696,4.79899886 11.6946103,5.996256 C11.4990446,6.59899886 12.2651246,6.26423314 12.2651246,6.26683886 C14.7027017,5.25170743 16.8321189,5.192736 17.608896,6.29632457 C18.0214217,6.88288457 17.9839817,7.707936 17.6009417,8.66423314 C17.4241646,9.10350171 17.6544274,9.17042743 17.9946789,9.27218743 M17.2929189,4.82848457 C17.0892617,4.87127314 16.8750446,4.83383314 16.6982674,4.71863314 C16.5214903,4.606176 16.4009417,4.42939886 16.3554103,4.22574171 C16.2643474,3.80251886 16.5347931,3.38738743 16.9633646,3.29632457 C18.042816,3.06592457 19.1651931,3.42482743 19.9045303,4.23918171 C20.673216,5.08288457 20.876736,6.23200457 20.5500617,7.23918171 C20.4857417,7.43735314 20.3464046,7.60082743 20.1589303,7.694496 C19.971456,7.78830171 19.754496,7.80709029 19.5561874,7.74277029 C19.141056,7.60878171 18.9133989,7.16690743 19.0499931,6.75698743 L19.0473874,6.75698743 C19.2133303,6.24805029 19.0955246,5.68823314 18.7338789,5.28914743 C18.3670217,4.89280457 17.8205074,4.71602743 17.2929189,4.82848457 M23.6464731,8.23291886 L23.6464731,8.23566171 C23.5312731,8.58647314 23.2151589,8.83291886 22.8455589,8.86240457 C22.4759589,8.89189029 22.1250103,8.69632457 21.9561874,8.36951314 C21.8464731,8.155296 21.8249417,7.90610743 21.8999589,7.67584457 L21.8973531,7.67584457 C22.3955931,6.15438171 22.0365531,4.48562743 20.954496,3.29632457 C19.8776503,2.10976457 18.2411246,1.58203886 16.6634331,1.91680457 C16.4249417,1.96768457 16.1758903,1.92215314 15.9723703,1.79090743 C15.7687131,1.65966171 15.6241646,1.45339886 15.5732846,1.21778743 C15.4687817,0.727638857 15.7847589,0.242701714 16.2803931,0.138336 C18.4205074,-0.314372571 20.7428846,0.347204571 22.3152274,2.077536 C23.8929189,3.80526171 24.3161417,6.162336 23.6464731,8.23291886" id="Fill-1" fill="#1B4366" mask="url(#mask-2)"></path>
                </g>
            </g>
        </g>
    </g>
</svg>