<?xml version="1.0" encoding="UTF-8"?>
<svg width="50px" height="50px" viewBox="0 0 50 50" version="1.1" xmlns="http://www.w3.org/2000/svg" xmlns:xlink="http://www.w3.org/1999/xlink">
    <!-- Generator: Sketch 51.2 (57519) - http://www.bohemiancoding.com/sketch -->
    <title>youtubeblue</title>
    <desc>Created with Sketch.</desc>
    <defs>
        <path d="M23.6145311,14.1951731 C23.3326154,15.4203304 22.3304542,16.3236759 21.1245844,16.4584247 C18.2681738,16.7775944 15.3771513,16.7791797 12.4985468,16.7775944 C9.62020642,16.7791797 6.72891971,16.7775944 3.87277332,16.4584247 C2.66663938,16.3236759 1.66500646,15.4203304 1.38335509,14.1951731 C0.982279189,12.450308 0.982279189,10.5463866 0.982279189,8.75026426 C0.982279189,6.95387756 0.987035033,5.04969198 1.38784668,3.3048269 C1.66976231,2.07966958 2.67139513,1.17605989 3.87726491,1.04157534 C6.73367556,0.722405633 9.62469811,0.720820289 12.5033026,0.722405633 C15.3816429,0.720820289 18.2729296,0.722405633 21.129076,1.04157534 C22.33521,1.17605989 23.3373713,2.07966958 23.6190227,3.3048269 C24.0200985,5.04969198 24.0177206,6.95387756 24.0177206,8.75026426 C24.0177206,10.5463866 24.0153427,12.450308 23.6145311,14.1951731 Z M10.4267236,4.5 L10.4267236,11.8612159 L16.8017236,8.18060795 L10.4267236,4.5 Z" id="path-1"></path>
    </defs>
    <g id="Page-1" stroke="none" stroke-width="1" fill="none" fill-rule="evenodd">
        <g id="社区" transform="translate(-1170.000000, -812.000000)">
            <g id="Group-7" transform="translate(1170.000000, 338.000000)">
                <g id="if_YouTube_194904" transform="translate(12.500000, 490.250000)">
                    <mask id="mask-2" fill="white">
                        <use xlink:href="#path-1"></use>
                    </mask>
                    <use id="Oval-1" fill="#007AFF" fill-rule="nonzero" xlink:href="#path-1"></use>
                    <g id="blue" mask="url(#mask-2)" fill="#1B4366">
                        <g transform="translate(-12.500000, -16.250000)" id="Rectangle">
                            <rect x="0" y="0" width="50" height="50"></rect>
                        </g>
                    </g>
                </g>
            </g>
        </g>
    </g>
</svg>