<svg xmlns="http://www.w3.org/2000/svg" width="200" height="50" viewBox="0 0 200 50">
  <g fill="none" fill-rule="evenodd">
    <path fill="#007AFF" d="M25,0 L175,0 C188.807119,-2.53632657e-15 200,11.1928813 200,25 L200,25 C200,38.8071187 188.807119,50 175,50 L25,50 C11.1928813,50 1.59017391e-14,38.8071187 1.42108547e-14,25 L3.55271368e-15,25 C1.8618293e-15,11.1928813 11.1928813,2.53632657e-15 25,0 Z"/>
    <circle cx="174" cy="25" r="20" fill="#FFF"/>
    <rect width="40" height="40" x="154" y="5" fill="#FFF" rx="20"/>
    <path fill="#007AFF" stroke="#007AFF" stroke-linecap="round" stroke-linejoin="round" d="M184.000728,25.1427367 C184.000728,24.9972153 183.936499,24.8582341 183.829646,24.7535895 L178.049683,19.3038935 C177.821381,19.088609 177.451776,19.089154 177.224058,19.3038935 C176.995755,19.518633 176.995755,19.8674484 177.224058,20.0821879 L182.007899,24.5922623 L166.584621,24.5922623 C166.262312,24.5922623 166.000728,24.8386132 166.000728,25.1427367 C166.000728,25.4468601 166.262312,25.693211 166.584621,25.693211 L182.007315,25.693211 L177.224058,30.2032854 C176.995755,30.4180249 176.996339,30.7668403 177.224058,30.9815798 C177.45236,31.1963193 177.821965,31.1963193 178.049683,30.9815798 L183.829646,25.5318839 C183.938834,25.4288743 183.998976,25.2871681 184.000728,25.1427367 Z"/>
  </g>
</svg>