<?xml version="1.0" encoding="UTF-8"?>
<svg width="14px" height="10px" viewBox="0 0 14 10" version="1.1" xmlns="http://www.w3.org/2000/svg" xmlns:xlink="http://www.w3.org/1999/xlink">
    <!-- Generator: Sketch 53.2 (72643) - https://sketchapp.com -->
    <title>Arrow_Forward</title>
    <desc>Created with Sketch.</desc>
    <g id="Page-1" stroke="none" stroke-width="1" fill="none" fill-rule="evenodd">
        <g id="首页-copy-10" transform="translate(-630.000000, -1479.000000)" fill="#007AFF">
            <g id="Group-2" transform="translate(630.000000, 1479.000000)">
                <path d="M14.001455,5.00008519 C14.001455,4.87881733 13.9514942,4.7629997 13.868378,4.67579585 L9.372384,0.134382558 C9.19479698,-0.0450212074 8.90729683,-0.0445670207 8.730164,0.134382558 C8.55257698,0.313332137 8.55257698,0.604011655 8.730164,0.782961234 L12.451316,4.54135657 L0.454186748,4.54135657 C0.203475663,4.54135657 -1.63424829e-13,4.74664898 -1.63424829e-13,5.00008519 C-1.63424829e-13,5.25352139 0.203475663,5.4588138 0.454186748,5.4588138 L12.450862,5.4588138 L8.730164,9.21720914 C8.55257698,9.39615872 8.55303117,9.68683824 8.730164,9.86578782 C8.90775102,10.0447374 9.19525117,10.0447374 9.372384,9.86578782 L13.868378,5.32437452 C13.9533109,5.23853323 14.0000924,5.12044468 14.001455,5.00008519 Z" id="Arrow_Forward"></path>
            </g>
        </g>
    </g>
</svg>