<?xml version="1.0" encoding="UTF-8"?>
<svg width="822px" height="822px" viewBox="0 0 822 822" version="1.1" xmlns="http://www.w3.org/2000/svg" xmlns:xlink="http://www.w3.org/1999/xlink">
    <!-- Generator: Sketch 46.2 (44496) - http://www.bohemiancoding.com/sketch -->
    <title>Shape</title>
    <desc>Created with Sketch.</desc>
    <defs></defs>
    <g id="Page-1" stroke="none" stroke-width="1" fill="none" fill-rule="evenodd" fill-opacity="0.4">
        <g id="技术——PC-" transform="translate(-549.000000, -1055.000000)" fill-rule="nonzero" fill="#DEECFF">
            <g id="2" transform="translate(0.000000, 964.000000)">
                <path d="M960,128.4 C970.3,128.4 978.7,120 978.7,109.7 C978.7,99.4 970.3,91 960,91 C949.7,91 941.3,99.4 941.3,109.7 C941.2,120.1 949.6,128.4 960,128.4 Z M960,875.5 C949.7,875.5 941.3,883.9 941.3,894.2 C941.3,904.5 949.7,912.9 960,912.9 C970.3,912.9 978.7,904.5 978.7,894.2 C978.7,883.9 970.3,875.5 960,875.5 Z M888.6,97.2 C878.4,99 871.6,108.7 873.4,118.9 C875.2,129.1 884.9,135.9 895.1,134.1 C905.3,132.3 912.1,122.6 910.3,112.4 C908.5,102.2 898.8,95.4 888.6,97.2 Z M1024.8,869.9 C1014.6,871.7 1007.8,881.4 1009.6,891.6 C1011.4,901.8 1021.1,908.6 1031.3,906.8 C1041.5,905 1048.3,895.3 1046.5,885.1 C1044.7,874.9 1035,868.1 1024.8,869.9 Z M832.2,151 C841.9,147.5 846.9,136.7 843.4,127 C839.9,117.3 829.1,112.3 819.4,115.8 C809.7,119.3 804.7,130.1 808.2,139.8 C811.7,149.5 822.5,154.5 832.2,151 Z M1087.7,853 C1078,856.5 1073,867.3 1076.5,877 C1080,886.7 1090.8,891.7 1100.5,888.2 C1110.2,884.7 1115.2,873.9 1111.7,864.2 C1108.2,854.5 1097.4,849.5 1087.7,853 Z M773.2,178.5 C782.2,173.3 785.2,161.9 780.1,152.9 C774.9,143.9 763.5,140.9 754.5,146 C745.5,151.2 742.5,162.6 747.6,171.6 C752.8,180.6 764.2,183.7 773.2,178.5 Z M1146.7,825.5 C1137.7,830.7 1134.7,842.1 1139.8,851.1 C1145,860.1 1156.4,863.1 1165.4,858 C1174.4,852.8 1177.4,841.4 1172.3,832.4 C1167.1,823.4 1155.7,820.3 1146.7,825.5 Z M719.8,215.8 C727.7,209.1 728.8,197.4 722.1,189.4 C715.4,181.5 703.6,180.4 695.7,187.1 C687.8,193.7 686.8,205.6 693.4,213.5 C700.1,221.4 711.9,222.5 719.8,215.8 Z M1200.1,788.2 C1192.2,794.8 1191.1,806.6 1197.8,814.6 C1204.4,822.5 1216.3,823.6 1224.2,816.9 C1232.1,810.3 1233.1,798.4 1226.5,790.5 C1219.8,782.5 1208,781.5 1200.1,788.2 Z M673.8,261.9 C680.4,254 679.4,242.2 671.5,235.5 C663.6,228.8 651.8,229.9 645.1,237.8 C638.4,245.7 639.5,257.5 647.4,264.2 C655.3,270.8 667.2,269.8 673.8,261.9 Z M1246.1,742.1 C1239.5,750 1240.5,761.8 1248.4,768.5 C1256.3,775.1 1268.1,774.1 1274.8,766.2 C1281.5,758.3 1280.4,746.5 1272.5,739.8 C1264.6,733.2 1252.8,734.2 1246.1,742.1 Z M610.9,322.1 C619.9,327.3 631.3,324.2 636.5,315.2 C641.7,306.3 638.6,294.8 629.6,289.6 C620.6,284.4 609.2,287.5 604,296.5 C598.8,305.4 601.9,316.9 610.9,322.1 Z M1309,681.9 C1300,676.7 1288.6,679.8 1283.4,688.7 C1278.2,697.7 1281.3,709.1 1290.3,714.3 C1299.2,719.5 1310.7,716.4 1315.9,707.4 C1321.1,698.5 1318,687.1 1309,681.9 Z M584.9,385.4 C594.6,388.9 605.4,383.9 608.9,374.2 C612.4,364.5 607.4,353.7 597.7,350.2 C588,346.7 577.2,351.7 573.7,361.4 C570.2,371.1 575.2,381.9 584.9,385.4 Z M1335,618.6 C1325.3,615.1 1314.5,620.1 1311,629.8 C1307.5,639.5 1312.5,650.3 1322.2,653.8 C1331.9,657.3 1342.7,652.3 1346.2,642.6 C1349.7,632.9 1344.7,622.1 1335,618.6 Z M570.4,452.3 C580.6,454.1 590.3,447.3 592.1,437.1 C593.9,426.9 587.1,417.2 576.9,415.4 C566.7,413.6 557,420.4 555.2,430.6 C553.4,440.8 560.2,450.5 570.4,452.3 Z M1349.5,551.7 C1339.3,549.9 1329.6,556.7 1327.8,566.9 C1326,577.1 1332.8,586.8 1343,588.6 C1353.2,590.4 1362.9,583.6 1364.7,573.4 C1366.5,563.2 1359.7,553.5 1349.5,551.7 Z M586.4,502 C586.4,491.7 578,483.3 567.7,483.3 C557.4,483.3 549,491.7 549,502 C549,512.3 557.4,520.7 567.7,520.7 C578,520.7 586.4,512.3 586.4,502 Z M1352.2,483.3 C1341.9,483.3 1333.5,491.7 1333.5,502 C1333.5,512.4 1341.9,520.7 1352.2,520.7 C1362.5,520.7 1370.9,512.3 1370.9,502 C1371,491.7 1362.6,483.3 1352.2,483.3 Z M576.9,588.5 C587.1,586.7 593.9,577 592.1,566.8 C590.3,556.6 580.6,549.8 570.4,551.6 C560.2,553.4 553.4,563.1 555.2,573.3 C557,583.6 566.7,590.3 576.9,588.5 Z M1343,415.5 C1332.8,417.3 1326,427 1327.8,437.2 C1329.6,447.4 1339.3,454.2 1349.5,452.4 C1359.7,450.6 1366.5,440.9 1364.7,430.7 C1362.9,420.4 1353.2,413.7 1343,415.5 Z M608.9,629.8 C605.4,620.1 594.6,615.1 584.9,618.6 C575.2,622.1 570.2,632.9 573.7,642.6 C577.2,652.3 588,657.3 597.7,653.8 C607.5,650.2 612.5,639.5 608.9,629.8 Z M1311,374.2 C1314.5,383.9 1325.3,388.9 1335,385.4 C1344.7,381.9 1349.7,371.1 1346.2,361.4 C1342.7,351.7 1331.9,346.7 1322.2,350.2 C1312.5,353.8 1307.4,364.5 1311,374.2 Z M610.9,681.9 C602,687.1 598.9,698.5 604.1,707.5 C609.3,716.5 620.7,719.5 629.7,714.3 C638.7,709.1 641.7,697.7 636.6,688.7 C631.3,679.8 619.8,676.8 610.9,681.9 Z M1309,322.1 C1318,316.9 1321,305.5 1315.8,296.5 C1310.6,287.6 1299.2,284.5 1290.2,289.7 C1281.2,294.9 1278.1,306.3 1283.3,315.3 C1288.6,324.2 1300.1,327.3 1309,322.1 Z M647.4,739.8 C639.5,746.4 638.4,758.2 645.1,766.2 C651.7,774.1 663.6,775.1 671.5,768.5 C679.4,761.9 680.5,750.1 673.8,742.1 C667.2,734.2 655.3,733.2 647.4,739.8 Z M1272.5,264.2 C1280.4,257.6 1281.5,245.7 1274.8,237.8 C1268.2,229.9 1256.3,228.9 1248.4,235.5 C1240.5,242.1 1239.4,253.9 1246.1,261.9 C1252.8,269.8 1264.6,270.8 1272.5,264.2 Z M693.4,790.5 C686.8,798.4 687.8,810.2 695.7,816.9 C703.6,823.5 715.4,822.5 722.1,814.6 C728.7,806.7 727.7,794.9 719.8,788.2 C711.9,781.5 700.1,782.6 693.4,790.5 Z M1226.4,213.5 C1233,205.6 1232,193.8 1224.1,187.1 C1216.2,180.5 1204.4,181.5 1197.7,189.4 C1191,197.3 1192.1,209.1 1200,215.8 C1208,222.5 1219.8,221.5 1226.4,213.5 Z M773.2,825.5 C764.3,820.3 752.8,823.4 747.6,832.4 C742.4,841.4 745.5,852.8 754.5,858 C763.5,863.2 774.9,860.1 780.1,851.1 C785.2,842.1 782.1,830.7 773.2,825.5 Z M1146.7,178.5 C1155.7,183.7 1167.1,180.6 1172.3,171.6 C1177.5,162.7 1174.4,151.2 1165.4,146 C1156.5,140.8 1145,143.9 1139.8,152.9 C1134.7,161.9 1137.8,173.3 1146.7,178.5 Z M832.2,853 C822.5,849.5 811.8,854.5 808.2,864.2 C804.7,873.9 809.7,884.7 819.4,888.2 C829.1,891.7 839.9,886.7 843.4,877 C846.9,867.3 841.9,856.6 832.2,853 Z M1087.7,151 C1097.4,154.5 1108.2,149.5 1111.7,139.8 C1115.2,130.1 1110.2,119.3 1100.5,115.8 C1090.8,112.3 1080.1,117.3 1076.5,127 C1073,136.7 1078,147.4 1087.7,151 Z M895.1,869.9 C884.9,868.1 875.2,874.9 873.4,885.1 C871.6,895.3 878.4,905 888.6,906.8 C898.8,908.6 908.5,901.8 910.3,891.6 C912.1,881.4 905.3,871.7 895.1,869.9 Z M1024.8,134.1 C1035,135.9 1044.7,129.1 1046.5,118.9 C1048.3,108.7 1041.5,99 1031.3,97.2 C1021.1,95.4 1011.4,102.2 1009.6,112.4 C1007.8,122.6 1014.6,132.3 1024.8,134.1 Z M960,226.9 C973.5,226.9 984.5,215.9 984.5,202.4 C984.5,188.9 973.6,177.9 960,177.9 C946.5,177.9 935.5,188.9 935.5,202.4 C935.5,215.9 946.4,226.9 960,226.9 Z M960,777.1 C946.5,777.1 935.5,788.1 935.5,801.6 C935.5,815.1 946.4,826.1 960,826.1 C973.5,826.1 984.5,815.1 984.5,801.6 C984.4,788.1 973.5,777.1 960,777.1 Z M834.5,228.9 C839.1,241.6 853.2,248.2 865.9,243.5 C878.6,238.9 885.2,224.8 880.5,212.2 C875.9,199.5 861.8,192.9 849.1,197.6 C836.4,202.1 829.9,216.2 834.5,228.9 Z M1085.4,775.1 C1080.8,762.4 1066.7,755.8 1054,760.5 C1041.3,765.1 1034.7,779.2 1039.4,791.9 C1044,804.6 1058.1,811.2 1070.8,806.5 C1083.5,801.9 1090,787.8 1085.4,775.1 Z M783.1,291.3 C793.5,282.6 794.8,267.2 786.1,256.8 C777.4,246.4 762,245.1 751.6,253.8 C741.2,262.5 739.9,277.9 748.6,288.3 C757.3,298.6 772.8,299.9 783.1,291.3 Z M1136.8,712.7 C1126.4,721.4 1125.1,736.8 1133.8,747.2 C1142.5,757.6 1157.9,758.9 1168.3,750.2 C1178.6,741.5 1180,726.1 1171.3,715.7 C1162.6,705.4 1147.1,704 1136.8,712.7 Z M688.3,373.4 C700,380.1 715,376.1 721.7,364.4 C728.5,352.7 724.4,337.7 712.7,331 C701,324.2 686,328.2 679.3,340 C672.6,351.7 676.6,366.7 688.3,373.4 Z M1231.6,630.6 C1219.9,623.8 1204.9,627.9 1198.2,639.5 C1191.5,651.2 1195.5,666.2 1207.2,672.9 C1218.9,679.7 1233.9,675.7 1240.6,663.9 C1247.3,652.3 1243.3,637.3 1231.6,630.6 Z M660.7,474.1 C674,476.4 686.7,467.6 689,454.2 C691.3,440.9 682.5,428.2 669.2,425.9 C655.9,423.6 643.2,432.4 640.8,445.7 C638.5,459 647.4,471.7 660.7,474.1 Z M1259.2,529.9 C1245.9,527.6 1233.2,536.4 1230.9,549.8 C1228.5,563.1 1237.4,575.8 1250.7,578.1 C1264,580.4 1276.7,571.6 1279.1,558.3 C1281.4,545 1272.5,532.3 1259.2,529.9 Z M669.2,578.1 C682.5,575.7 691.4,563.1 689,549.7 C686.7,536.4 674,527.5 660.7,529.8 C647.4,532.2 638.5,544.8 640.8,558.2 C643.2,571.6 655.9,580.5 669.2,578.1 Z M1250.7,425.9 C1237.4,428.2 1228.5,440.9 1230.9,454.2 C1233.2,467.5 1245.9,476.4 1259.2,474.1 C1272.5,471.7 1281.4,459 1279.1,445.7 C1276.7,432.4 1264,423.5 1250.7,425.9 Z M712.8,673 C724.5,666.2 728.5,651.3 721.8,639.6 C715,627.9 700.1,623.9 688.4,630.6 C676.7,637.4 672.7,652.3 679.4,664 C686.1,675.7 701.1,679.7 712.8,673 Z M1207.2,331 C1195.5,337.7 1191.5,352.7 1198.2,364.4 C1205,376.1 1219.9,380.1 1231.6,373.4 C1243.3,366.6 1247.3,351.7 1240.6,340 C1233.8,328.3 1218.9,324.3 1207.2,331 Z M748.7,715.8 C740,726.1 741.4,741.6 751.7,750.3 C762,759 777.5,757.6 786.2,747.3 C794.9,736.9 793.5,721.5 783.2,712.8 C772.8,704.1 757.3,705.4 748.7,715.8 Z M1171.3,288.2 C1180,277.8 1178.6,262.4 1168.3,253.7 C1157.9,245 1142.5,246.4 1133.8,256.7 C1125.1,267.1 1126.5,282.5 1136.8,291.2 C1147.1,300 1162.6,298.6 1171.3,288.2 Z M880.5,791.9 C885.1,779.2 878.6,765.1 865.9,760.5 C853.2,755.9 839.2,762.4 834.5,775.1 C829.9,787.8 836.4,801.8 849.1,806.5 C861.8,811.1 875.9,804.6 880.5,791.9 Z M1039.4,212.1 C1034.8,224.8 1041.3,238.8 1054,243.5 C1066.7,248.1 1080.8,241.6 1085.4,228.9 C1090,216.2 1083.5,202.1 1070.8,197.5 C1058.1,192.9 1044,199.4 1039.4,212.1 Z M960,325.4 C976.7,325.4 990.2,311.9 990.2,295.2 C990.2,278.5 976.7,265 960,265 C943.3,265 929.8,278.5 929.8,295.2 C929.7,311.8 943.3,325.4 960,325.4 Z M960,678.6 C943.3,678.6 929.8,692.1 929.8,708.8 C929.8,725.5 943.3,739 960,739 C976.7,739 990.2,725.5 990.2,708.8 C990.2,692.2 976.6,678.6 960,678.6 Z M841.4,296.7 C826.9,305 822,323.5 830.3,338 C838.6,352.4 857.1,357.4 871.6,349.1 C886,340.7 891,322.3 882.7,307.8 C874.4,293.3 855.9,288.3 841.4,296.7 Z M1048.3,655 C1033.9,663.3 1028.9,681.8 1037.2,696.3 C1045.5,710.8 1064,715.7 1078.5,707.4 C1092.9,699.1 1097.9,680.6 1089.5,666.1 C1081.2,651.6 1062.7,646.6 1048.3,655 Z M754.6,383.5 C746.3,397.9 751.2,416.4 765.7,424.8 C780.1,433.1 798.6,428.2 807,413.7 C815.3,399.3 810.4,380.8 795.9,372.4 C781.5,364.1 763,369 754.6,383.5 Z M1165.3,620.5 C1173.6,606.1 1168.7,587.6 1154.2,579.2 C1139.8,570.9 1121.3,575.8 1112.9,590.3 C1104.6,604.8 1109.5,623.2 1124,631.6 C1138.4,639.9 1156.9,635 1165.3,620.5 Z M783.3,502 C783.3,485.3 769.8,471.8 753.1,471.8 C736.4,471.8 722.9,485.3 722.9,502 C722.9,518.7 736.4,532.2 753.1,532.2 C769.8,532.2 783.3,518.7 783.3,502 Z M1166.8,471.8 C1150.1,471.8 1136.6,485.3 1136.6,502 C1136.6,518.7 1150.1,532.2 1166.8,532.2 C1183.5,532.2 1197,518.7 1197,502 C1197,485.3 1183.5,471.8 1166.8,471.8 Z M807,590.3 C798.7,575.9 780.2,570.9 765.7,579.2 C751.2,587.5 746.3,606 754.6,620.5 C762.9,634.9 781.4,639.9 795.9,631.6 C810.4,623.3 815.3,604.8 807,590.3 Z M1112.9,413.7 C1121.2,428.2 1139.7,433.1 1154.2,424.8 C1168.6,416.5 1173.6,398 1165.3,383.5 C1157,369.1 1138.5,364.1 1124,372.5 C1109.5,380.7 1104.6,399.2 1112.9,413.7 Z M871.6,655 C857.1,646.7 838.7,651.6 830.3,666.1 C822,680.5 826.9,699 841.4,707.4 C855.8,715.7 874.3,710.8 882.7,696.3 C891,681.8 886.1,663.3 871.6,655 Z M1048.3,349 C1062.7,357.3 1081.2,352.4 1089.6,337.9 C1097.9,323.5 1093,305 1078.5,296.6 C1064.1,288.3 1045.6,293.2 1037.2,307.7 C1028.9,322.2 1033.8,340.7 1048.3,349 Z M960,423.8 C979.9,423.8 996,407.7 996,387.9 C996,368 979.9,351.9 960,351.9 C940.1,351.9 924,368 924,387.9 C924,407.7 940.1,423.8 960,423.8 Z M960,580.2 C940.1,580.2 924,596.3 924,616.2 C924,636.1 940.1,652.2 960,652.2 C979.9,652.2 996,636.1 996,616.2 C995.9,596.3 979.8,580.2 960,580.2 Z M879.1,413.8 C861.9,403.9 839.9,409.8 830,427 C820.1,444.2 826,466.2 843.2,476.1 C860.4,486 882.4,480.1 892.3,462.9 C902.2,445.7 896.3,423.7 879.1,413.8 Z M1076.8,527.9 C1059.6,518 1037.6,523.9 1027.7,541.1 C1017.8,558.3 1023.7,580.3 1040.9,590.2 C1058.1,600.1 1080.1,594.2 1090,577.1 C1099.9,559.8 1094,537.9 1076.8,527.9 Z M892.2,541.1 C882.3,523.9 860.3,518 843.1,527.9 C825.9,537.8 820,559.8 829.9,577 C839.8,594.2 861.8,600.1 879,590.2 C896.3,580.3 902.2,558.3 892.2,541.1 Z M1090,426.9 C1080.1,409.7 1058.1,403.8 1040.9,413.7 C1023.7,423.6 1017.8,445.6 1027.7,462.8 C1037.6,480 1059.6,485.9 1076.8,476 C1094,466.1 1099.9,444.1 1090,426.9 Z M960,340.2 C871.1,340.2 799,412.3 799,501.2 C799,590.1 871,662.1 960,662.1 C1048.9,662.1 1120.9,590 1120.9,501.2 C1120.9,412.2 1048.8,340.2 960,340.2 Z" id="Shape"></path>
            </g>
        </g>
    </g>
</svg>
