<?xml version="1.0" encoding="UTF-8"?>
<svg width="301px" height="220px" viewBox="0 0 301 220" version="1.1" xmlns="http://www.w3.org/2000/svg" xmlns:xlink="http://www.w3.org/1999/xlink">
    <!-- Generator: Sketch 57.1 (83088) - https://sketch.com -->
    <title>弹窗</title>
    <desc>Created with Sketch.</desc>
    <defs>
        <polygon id="path-1" points="0.000353467618 0.100818587 118.577251 0.100818587 118.577251 15.8402585 0.000353467618 15.8402585"></polygon>
        <polygon id="path-3" points="0 190.083102 284.57943 190.083102 284.57943 0.130449188 0 0.130449188"></polygon>
        <polygon id="path-5" points="1.38559306 12.1373652 0.341096251 13.0374646 0.341096251 23.205047 14.6565348 0.684858237"></polygon>
        <linearGradient x1="64.60394%" y1="100.854627%" x2="23.5223735%" y2="-42.2075378%" id="linearGradient-7">
            <stop stop-color="#FFFFFF" offset="0%"></stop>
            <stop stop-color="#FFFFFF" offset="100%"></stop>
        </linearGradient>
        <polygon id="path-8" points="10.2576303 4.95054668 0.322539201 8.04219244 9.47911784 11.735768 10.3954826 11.0434555 24.2054625 0.614042963"></polygon>
        <linearGradient x1="28.8262989%" y1="27.1418791%" x2="83.0144393%" y2="76.4261579%" id="linearGradient-10">
            <stop stop-color="#FFFFFF" offset="0%"></stop>
            <stop stop-color="#FFFFFF" offset="100%"></stop>
        </linearGradient>
        <polygon id="path-11" points="0.340212582 2.19713704 0.341096251 11.6556349 14.5001253 0.606588724"></polygon>
        <linearGradient x1="95.2326311%" y1="134.503444%" x2="29.4480766%" y2="11.5906417%" id="linearGradient-13">
            <stop stop-color="#FFFFFF" offset="0%"></stop>
            <stop stop-color="#FFFFFF" offset="100%"></stop>
        </linearGradient>
        <polygon id="path-14" points="0.827997894 12.1848859 8.44699239 15.2802588 14.6618368 0.679267557"></polygon>
        <linearGradient x1="10.8300704%" y1="-43.0489432%" x2="87.8828005%" y2="119.14383%" id="linearGradient-16">
            <stop stop-color="#FFFFFF" offset="0%"></stop>
            <stop stop-color="#FFFFFF" offset="100%"></stop>
        </linearGradient>
    </defs>
    <g id="Page-1" stroke="none" stroke-width="1" fill="none" fill-rule="evenodd" opacity="0.8">
        <g id="首页-copy-13" transform="translate(-810.000000, -425.000000)">
            <g id="Confirmation" transform="translate(710.000000, 386.000000)">
                <g id="Group-29" transform="translate(100.000000, 39.000000)">
                    <g id="Visual" transform="translate(0.000000, 1.000000)">
                        <g id="编组-3" transform="translate(0.000000, 17.450454)">
                            <g id="编组">
                                <g transform="translate(0.000000, 174.242844)">
                                    <mask id="mask-2" fill="white">
                                        <use xlink:href="#path-1"></use>
                                    </mask>
                                    <g id="Clip-2"></g>
                                    <path d="M118.577251,7.97063174 C118.577251,12.317385 92.0327171,15.8404449 59.2883606,15.8404449 C26.5448879,15.8404449 0.000353467618,12.317385 0.000353467618,7.97063174 C0.000353467618,3.62481022 26.5448879,0.100818587 59.2883606,0.100818587 C92.0327171,0.100818587 118.577251,3.62481022 118.577251,7.97063174" id="Fill-1" fill="#E6F1FF" mask="url(#mask-2)"></path>
                                </g>
                                <mask id="mask-4" fill="white">
                                    <use xlink:href="#path-3"></use>
                                </mask>
                                <g id="Clip-4"></g>
                                <polygon id="Fill-3" fill="#7AB3FF" mask="url(#mask-4)" points="50.1111041 105.833426 62.7670122 105.833426 62.7670122 37.8973527 50.1111041 37.8973527"></polygon>
                                <polygon id="Fill-5" fill="#BAD7FF" mask="url(#mask-4)" points="66.2177398 105.833426 78.8736479 105.833426 78.8736479 18.4874453 66.2177398 18.4874453"></polygon>
                                <polygon id="Fill-6" fill="#4E98FE" mask="url(#mask-4)" points="83.0922839 106.23875 95.7481919 106.23875 95.7481919 26.5752949 83.0922839 26.5752949"></polygon>
                                <polygon id="Fill-7" fill="#BAD7FF" mask="url(#mask-4)" points="38.2222208 79.5488466 45.5089558 79.5488466 45.5089558 72.6741744 38.2222208 72.6741744"></polygon>
                                <polygon id="Fill-8" fill="#7AB3FF" mask="url(#mask-4)" points="38.2222208 92.6916023 45.5089558 92.6916023 45.5089558 85.8169301 38.2222208 85.8169301"></polygon>
                                <polygon id="Fill-9" fill="#4E98FE" mask="url(#mask-4)" points="38.2222208 105.833426 45.5089558 105.833426 45.5089558 98.9596858 38.2222208 98.9596858"></polygon>
                                <path d="M268.945557,45.3646369 L111.14966,45.3646369 C107.335744,45.3646369 104.242902,48.6249348 104.242902,52.6474287 L104.242902,152.598528 C104.242902,156.621022 107.335744,159.88132 111.14966,159.88132 L268.945557,159.88132 C272.759473,159.88132 275.851431,156.621022 275.851431,152.598528 L275.851431,52.6474287 C275.851431,48.6249348 272.759473,45.3646369 268.945557,45.3646369" id="Fill-10" fill="#7DB5FF" mask="url(#mask-4)"></path>
                                <polygon id="Fill-11" fill="#E6F1FF" mask="url(#mask-4)" points="113.203307 150.628746 266.891027 150.628746 266.891027 58.7822677 113.203307 58.7822677"></polygon>
                                <path d="M276.646114,170.848742 L103.448749,170.848742 C99.580046,170.848742 96.4430209,167.540924 96.4430209,163.460659 L96.4430209,159.881693 L283.652726,159.881693 L283.652726,163.460659 C283.652726,167.540924 280.515701,170.848742 276.646114,170.848742" id="Fill-12" fill="#4E98FE" mask="url(#mask-4)"></path>
                                <polygon id="Fill-13" fill="#7AB3FF" mask="url(#mask-4)" points="121.56635 139.158535 129.001542 139.158535 129.001542 114.332191 121.56635 114.332191"></polygon>
                                <polygon id="Fill-14" fill="#7AB3FF" mask="url(#mask-4)" points="132.486732 139.158535 139.921924 139.158535 139.921924 90.813134 132.486732 90.813134"></polygon>
                                <polygon id="Fill-15" fill="#7AB3FF" mask="url(#mask-4)" points="143.407114 139.158535 150.842306 139.158535 150.842306 99.877489 143.407114 99.877489"></polygon>
                                <polygon id="Fill-16" fill="#7AB3FF" mask="url(#mask-4)" points="154.327497 139.158535 161.762688 139.158535 161.762688 83.6263155 154.327497 83.6263155"></polygon>
                                <polygon id="Fill-17" fill="#7AB3FF" mask="url(#mask-4)" points="171.110139 97.3579561 212.127405 97.3579561 212.127405 70.2301157 171.110139 70.2301157"></polygon>
                                <polygon id="Fill-18" fill="#7AB3FF" mask="url(#mask-4)" points="171.110139 109.791627 261.745422 109.791627 261.745422 102.444543 171.110139 102.444543"></polygon>
                                <polygon id="Fill-19" fill="#7AB3FF" mask="url(#mask-4)" points="171.110139 124.485797 261.745422 124.485797 261.745422 117.138712 171.110139 117.138712"></polygon>
                                <polygon id="Fill-20" fill="#7AB3FF" mask="url(#mask-4)" points="171.110139 139.179966 261.745422 139.179966 261.745422 131.832881 171.110139 131.832881"></polygon>
                                <polygon id="Fill-21" fill="#7AB3FF" mask="url(#mask-4)" points="220.672485 97.3579561 261.689751 97.3579561 261.689751 70.2301157 220.672485 70.2301157"></polygon>
                                <path d="M263.144712,48.2027453 L263.704958,48.2251081 C264.291714,48.2484026 264.784802,47.7666723 264.806893,47.1489023 L264.828101,46.557222 C264.850193,45.9394519 265.34328,45.4577217 265.929153,45.4810162 C266.515909,45.5043107 266.972766,46.0242439 266.950674,46.642014 L266.929466,47.2327625 C266.907375,47.8514643 267.364231,48.3713975 267.950104,48.394692 L268.511234,48.4170547 C269.097106,48.4403492 269.553963,48.9602824 269.532755,49.5789843 C269.50978,50.1967544 269.016693,50.6784846 268.43082,50.6551901 L267.870574,50.6328274 C267.284701,50.6095329 266.79073,51.0921949 266.768639,51.7099649 L266.74743,52.2997816 C266.725339,52.9184835 266.232251,53.4002137 265.646379,53.3769192 C265.059623,53.3536247 264.602766,52.8336915 264.624857,52.2149897 L264.646065,51.625173 C264.668157,51.0064711 264.2113,50.4865379 263.624544,50.4632434 L263.064298,50.4408807 C262.478425,50.4175862 262.021568,49.897653 262.04366,49.2798829 C262.065752,48.6611811 262.558839,48.1794508 263.144712,48.2027453" id="Fill-22" fill="#D9E9FF" mask="url(#mask-4)"></path>
                                <path d="M277.588459,54.5418305 L278.011737,54.5595343 C278.455338,54.5763063 278.828247,54.2119804 278.845036,53.7451586 L278.860942,53.2979043 C278.877732,52.8301508 279.250641,52.4658248 279.694242,52.4835286 C280.137844,52.5012324 280.483359,52.8944436 280.466569,53.3612653 L280.450663,53.8085197 C280.433873,54.2762732 280.779388,54.6694843 281.22299,54.6871881 L281.646267,54.7039602 C282.089869,54.721664 282.435384,55.1148751 282.418594,55.5826286 C282.401804,56.0494504 282.028896,56.4137763 281.585294,56.3960725 L281.162017,56.3793004 C280.718415,56.3615966 280.345506,56.7268544 280.328717,57.1936761 L280.312811,57.6399987 C280.296021,58.1077522 279.923113,58.4720781 279.480394,58.4543743 C279.036793,58.4366705 278.691278,58.0434594 278.708068,57.5757059 L278.723974,57.1293833 C278.740763,56.6625615 278.395249,56.2693504 277.951647,56.2516466 L277.527486,56.2339428 C277.084768,56.2171707 276.739253,55.8230278 276.756043,55.3562061 C276.771949,54.8893844 277.145741,54.5241266 277.588459,54.5418305" id="Fill-23" fill="#D9E9FF" mask="url(#mask-4)"></path>
                                <path d="M270.907037,45.0984274 L271.731501,45.1319715 C272.593078,45.1655155 273.31857,44.4573628 273.350382,43.5479456 L273.382194,42.6795267 C273.414006,41.7701095 274.139499,41.0619568 275.001076,41.0964326 C275.863537,41.1309085 276.536009,41.894968 276.503313,42.8043852 L276.471501,43.6728041 C276.439689,44.5812895 277.111278,45.3462808 277.973739,45.3807567 L278.797318,45.413369 C279.659779,45.4478448 280.332251,46.2128362 280.298672,47.1213216 C280.265976,48.029807 279.541368,48.7388915 278.678907,48.7044156 L277.855327,48.6718034 C276.99375,48.6373275 276.268257,49.346412 276.235562,50.2548974 L276.204633,51.1233163 C276.171938,52.0318017 275.446445,52.7408862 274.584868,52.7064104 C273.723291,52.6719345 273.050818,51.9069432 273.083514,50.9984578 L273.114443,50.1309707 C273.147138,49.2215535 272.474666,48.4565622 271.613089,48.4230181 L270.788626,48.389474 C269.927048,48.35593 269.254576,47.5909387 269.287272,46.6824532 C269.319968,45.773036 270.044576,45.0639515 270.907037,45.0984274" id="Fill-24" fill="#D9E9FF" mask="url(#mask-4)"></path>
                                <polygon id="Fill-25" fill="#4E98FE" mask="url(#mask-4)" points="284.579253 0.130076476 254.577805 7.32062207 261.74878 15.0376233 238.958955 35.9150841 210.276825 30.4977157 166.720778 71.9227871 141.448727 66.9545366 69.0886038 145.179324 76.347945 153.13952 144.826994 79.1114691 169.964727 84.052698 213.554354 42.5959461 242.115421 47.9890882 269.26085 23.1226776 276.548469 30.966401"></polygon>
                                <polygon id="Fill-27" fill="#4E98FE" mask="url(#mask-4)" points="44.0659242 183.688297 97.9662012 183.688297 97.9662012 168.706208 44.0659242 168.706208"></polygon>
                                <polygon id="Fill-28" fill="#7DB5FF" mask="url(#mask-4)" points="48.7414171 182.189995 51.4913952 182.189995 51.4913952 170.129967 48.7414171 170.129967"></polygon>
                                <polygon id="Fill-29" fill="#7DB5FF" mask="url(#mask-4)" points="55.7082639 182.189995 58.4582419 182.189995 58.4582419 170.129967 55.7082639 170.129967"></polygon>
                                <polygon id="Fill-30" fill="#7DB5FF" mask="url(#mask-4)" points="62.6742269 182.189995 65.424205 182.189995 65.424205 170.129967 62.6742269 170.129967"></polygon>
                                <polygon id="Fill-31" fill="#7DB5FF" mask="url(#mask-4)" points="69.6410737 182.189995 72.3910518 182.189995 72.3910518 170.129967 69.6410737 170.129967"></polygon>
                                <polygon id="Fill-32" fill="#7DB5FF" mask="url(#mask-4)" points="76.6079204 182.189995 79.3578985 182.189995 79.3578985 170.129967 76.6079204 170.129967"></polygon>
                                <polygon id="Fill-33" fill="#7DB5FF" mask="url(#mask-4)" points="83.5747672 182.189995 86.3247452 182.189995 86.3247452 170.129967 83.5747672 170.129967"></polygon>
                                <polygon id="Fill-34" fill="#7DB5FF" mask="url(#mask-4)" points="90.5416139 182.189995 93.291592 182.189995 93.291592 170.129967 90.5416139 170.129967"></polygon>
                                <polygon id="Fill-35" fill="#7DB5FF" mask="url(#mask-4)" points="38.2231045 168.681981 92.1224978 168.681981 92.1224978 153.699892 38.2231045 153.699892"></polygon>
                                <polygon id="Fill-36" fill="#4E98FE" mask="url(#mask-4)" points="42.8977137 167.183679 45.6476918 167.183679 45.6476918 155.123652 42.8977137 155.123652"></polygon>
                                <polygon id="Fill-37" fill="#4E98FE" mask="url(#mask-4)" points="49.8645605 167.183679 52.6145385 167.183679 52.6145385 155.123652 49.8645605 155.123652"></polygon>
                                <polygon id="Fill-38" fill="#4E98FE" mask="url(#mask-4)" points="56.8314072 167.183679 59.5813853 167.183679 59.5813853 155.123652 56.8314072 155.123652"></polygon>
                                <polygon id="Fill-39" fill="#4E98FE" mask="url(#mask-4)" points="63.7973703 167.183679 66.5473484 167.183679 66.5473484 155.123652 63.7973703 155.123652"></polygon>
                                <polygon id="Fill-40" fill="#4E98FE" mask="url(#mask-4)" points="70.764217 167.183679 73.5141951 167.183679 73.5141951 155.123652 70.764217 155.123652"></polygon>
                                <polygon id="Fill-41" fill="#4E98FE" mask="url(#mask-4)" points="77.7310638 167.183679 80.4810419 167.183679 80.4810419 155.123652 77.7310638 155.123652"></polygon>
                                <polygon id="Fill-42" fill="#4E98FE" mask="url(#mask-4)" points="84.6979105 167.183679 87.4478886 167.183679 87.4478886 155.123652 84.6979105 155.123652"></polygon>
                                <polygon id="Fill-43" fill="#4E98FE" mask="url(#mask-4)" points="44.0659242 153.724118 97.9662012 153.724118 97.9662012 138.742029 44.0659242 138.742029"></polygon>
                                <polygon id="Fill-44" fill="#7DB5FF" mask="url(#mask-4)" points="48.7414171 152.226748 51.4913952 152.226748 51.4913952 140.165789 48.7414171 140.165789"></polygon>
                                <polygon id="Fill-45" fill="#7DB5FF" mask="url(#mask-4)" points="55.7082639 152.226748 58.4582419 152.226748 58.4582419 140.165789 55.7082639 140.165789"></polygon>
                                <polygon id="Fill-46" fill="#7DB5FF" mask="url(#mask-4)" points="62.6742269 152.226748 65.424205 152.226748 65.424205 140.165789 62.6742269 140.165789"></polygon>
                                <polygon id="Fill-47" fill="#7DB5FF" mask="url(#mask-4)" points="69.6410737 152.226748 72.3910518 152.226748 72.3910518 140.165789 69.6410737 140.165789"></polygon>
                                <polygon id="Fill-48" fill="#7DB5FF" mask="url(#mask-4)" points="76.6079204 152.226748 79.3578985 152.226748 79.3578985 140.165789 76.6079204 140.165789"></polygon>
                                <polygon id="Fill-49" fill="#7DB5FF" mask="url(#mask-4)" points="83.5747672 152.226748 86.3247452 152.226748 86.3247452 140.165789 83.5747672 140.165789"></polygon>
                                <polygon id="Fill-50" fill="#7DB5FF" mask="url(#mask-4)" points="90.5416139 152.226748 93.291592 152.226748 93.291592 140.165789 90.5416139 140.165789"></polygon>
                                <polygon id="Fill-51" fill="#7DB5FF" mask="url(#mask-4)" points="38.2231045 138.717803 92.1224978 138.717803 92.1224978 123.735714 38.2231045 123.735714"></polygon>
                                <polygon id="Fill-52" fill="#4E98FE" mask="url(#mask-4)" points="42.8977137 137.220433 45.6476918 137.220433 45.6476918 125.160405 42.8977137 125.160405"></polygon>
                                <polygon id="Fill-53" fill="#4E98FE" mask="url(#mask-4)" points="49.8645605 137.220433 52.6145385 137.220433 52.6145385 125.160405 49.8645605 125.160405"></polygon>
                                <polygon id="Fill-54" fill="#4E98FE" mask="url(#mask-4)" points="56.8314072 137.220433 59.5813853 137.220433 59.5813853 125.160405 56.8314072 125.160405"></polygon>
                                <polygon id="Fill-55" fill="#4E98FE" mask="url(#mask-4)" points="63.7973703 137.220433 66.5473484 137.220433 66.5473484 125.160405 63.7973703 125.160405"></polygon>
                                <polygon id="Fill-56" fill="#4E98FE" mask="url(#mask-4)" points="70.764217 137.220433 73.5141951 137.220433 73.5141951 125.160405 70.764217 125.160405"></polygon>
                                <polygon id="Fill-57" fill="#4E98FE" mask="url(#mask-4)" points="77.7310638 137.220433 80.4810419 137.220433 80.4810419 125.160405 77.7310638 125.160405"></polygon>
                                <polygon id="Fill-58" fill="#4E98FE" mask="url(#mask-4)" points="84.6979105 137.220433 87.4478886 137.220433 87.4478886 125.160405 84.6979105 125.160405"></polygon>
                                <path d="M52.822024,161.419409 C52.822024,172.392981 44.3856357,181.288684 33.9786653,181.288684 C23.571695,181.288684 15.1353067,172.392981 15.1353067,161.419409 C15.1353067,150.445837 23.571695,141.550134 33.9786653,141.550134 C44.3856357,141.550134 52.822024,150.445837 52.822024,161.419409" id="Fill-59" fill="#7DB5FF" mask="url(#mask-4)"></path>
                                <path d="M33.9784002,143.851165 C24.7917769,143.851165 17.3177041,151.732159 17.3177041,161.418943 C17.3177041,171.106659 24.7917769,178.987654 33.9784002,178.987654 C43.1650236,178.987654 50.6390964,171.106659 50.6390964,161.418943 C50.6390964,151.732159 43.1650236,143.851165 33.9784002,143.851165 M33.9784002,183.590646 C22.3846624,183.590646 12.952379,173.645759 12.952379,161.418943 C12.952379,149.193059 22.3846624,139.248172 33.9784002,139.248172 C45.5730218,139.248172 55.0044215,149.193059 55.0044215,161.418943 C55.0044215,173.645759 45.5730218,183.590646 33.9784002,183.590646" id="Fill-60" fill="#4E98FE" mask="url(#mask-4)"></path>
                            </g>
                            <g id="编组" transform="translate(30.928417, 151.880126)">
                                <mask id="mask-6" fill="white">
                                    <use xlink:href="#path-5"></use>
                                </mask>
                                <g id="Clip-62"></g>
                                <polygon id="Fill-61" fill="url(#linearGradient-7)" mask="url(#mask-6)" points="1.38559306 12.1373652 0.341096251 13.0374646 0.341096251 23.205047 14.6565348 0.684858237"></polygon>
                            </g>
                            <g id="编组" transform="translate(21.208057, 151.880126)">
                                <mask id="mask-9" fill="white">
                                    <use xlink:href="#path-8"></use>
                                </mask>
                                <g id="Clip-64"></g>
                                <polygon id="Fill-63" fill="url(#linearGradient-10)" mask="url(#mask-9)" points="10.2576303 4.95054668 0.322539201 8.04219244 9.47911784 11.735768 10.3954826 11.0434555 24.2054625 0.614042963"></polygon>
                            </g>
                            <g id="编组" transform="translate(30.928417, 151.880126)">
                                <mask id="mask-12" fill="white">
                                    <use xlink:href="#path-11"></use>
                                </mask>
                                <g id="Clip-66"></g>
                                <polygon id="Fill-65" fill="url(#linearGradient-13)" mask="url(#mask-12)" points="0.340212582 2.19713704 0.341096251 11.6556349 14.5001253 0.606588724"></polygon>
                            </g>
                            <g id="编组" transform="translate(30.928417, 151.880126)">
                                <mask id="mask-15" fill="white">
                                    <use xlink:href="#path-14"></use>
                                </mask>
                                <g id="Clip-68"></g>
                                <polygon id="Fill-67" fill="url(#linearGradient-16)" mask="url(#mask-15)" points="0.827997894 12.1848859 8.44699239 15.2802588 14.6618368 0.679267557"></polygon>
                            </g>
                            <g id="编组" transform="translate(30.928417, 131.380968)">
                                <polygon id="Fill-69" fill-opacity="0.1" fill="#211815" points="4.07777917 37.8193627 0.341626452 33.5406293 1.16785701 32.8343401 6.0094797 34.7948051"></polygon>
                                <path d="M12.1805825,5.38084265 L12.5755825,5.39668291 C12.9891396,5.41345495 13.3373052,5.07335528 13.3523276,4.63728228 L13.36735,4.22077666 C13.383256,3.78470366 13.730538,3.44460399 14.1440951,3.46137603 C14.5576522,3.47814806 14.8801914,3.84433757 14.8642854,4.28041057 L14.8501467,4.69691619 C14.8342406,5.13298919 15.1567798,5.4991787 15.5694533,5.51595074 L15.965337,5.53179099 C16.3780104,5.54856303 16.7005496,5.91475254 16.6855273,6.35175732 C16.6696212,6.78689854 16.3223393,7.12699821 15.9078985,7.11022617 L15.5128984,7.09438591 C15.0993413,7.07854565 14.7520594,7.41864532 14.7361533,7.85378654 L14.721131,8.27029216 C14.7052249,8.70636516 14.357943,9.04646483 13.9443859,9.02969279 C13.5308288,9.01292075 13.2091732,8.64673125 13.2241956,8.21065825 L13.239218,7.79415263 C13.2542404,7.35901141 12.9325848,6.99189012 12.5190277,6.97511808 L12.1240277,6.95927782 C11.7104705,6.94250578 11.3879313,6.57631628 11.4038374,6.14024328 C11.4188598,5.70417028 11.7670254,5.36407061 12.1805825,5.38084265" id="Fill-71" fill="#E6F1FF"></path>
                                <path d="M22.3669006,9.8514295 L22.6655808,9.86354264 C22.9783996,9.87565578 23.241733,9.61848452 23.2532207,9.28863443 L23.2647084,8.9746246 C23.2761961,8.64477451 23.5395295,8.38760325 23.8523483,8.39971639 C24.1642835,8.41276131 24.4090598,8.68949995 24.3966884,9.01935004 L24.3852007,9.33429165 C24.373713,9.66414174 24.6176057,9.94181215 24.9295409,9.95392529 L25.2291047,9.96603843 C25.5410398,9.97815157 25.7849325,10.255822 25.7734448,10.5856721 C25.7619571,10.9145904 25.4986237,11.1717616 25.1858049,11.1596485 L24.8871248,11.1475354 C24.5743059,11.1344904 24.3118562,11.3925935 24.2994848,11.7215118 L24.2879971,12.0364534 C24.2765094,12.3663035 24.0131761,12.6234747 23.7012409,12.6104298 C23.3884221,12.5983167 23.1445294,12.3206463 23.1560171,11.991728 L23.1675048,11.6767864 C23.1789925,11.3469363 22.9359835,11.0701976 22.6231647,11.0571527 L22.3244845,11.0450396 C22.0116657,11.0329264 21.767773,10.755256 21.7792607,10.4263377 C21.7916321,10.0964876 22.0540818,9.83931636 22.3669006,9.8514295" id="Fill-73" fill="#E6F1FF"></path>
                                <path d="M17.6547355,3.19153256 L18.2361897,3.21482706 C18.844154,3.23905334 19.3549147,2.73868752 19.3778901,2.09855472 L19.3999818,1.48544354 C19.4229572,0.844378958 19.9346016,0.344944924 20.5425659,0.369171202 C21.1505302,0.39339748 21.6241768,0.93196627 21.6012014,1.57303085 L21.5791097,2.18614203 C21.557018,2.82627484 22.0306646,3.36577541 22.6386289,3.39000168 L23.2191994,3.41329618 C23.8271637,3.43845424 24.301694,3.97702303 24.2787186,4.61808761 C24.2557432,5.25915219 23.7440988,5.75858623 23.1361345,5.73435995 L22.5546803,5.71199723 C21.9475997,5.68777095 21.4359553,6.18720499 21.4129799,6.82826957 L21.3908882,7.44044897 C21.3679128,8.08151355 20.8562684,8.58187937 20.2483041,8.55672131 C19.6412235,8.53249503 19.1666932,7.99299446 19.1896686,7.35286166 L19.2117603,6.74068226 C19.2347357,6.09961767 18.7602054,5.5601171 18.1522411,5.53589083 L17.5716706,5.51259633 C16.9637063,5.48837005 16.489176,4.94886948 16.5121514,4.30873668 C16.5351268,3.6676721 17.0467712,3.16730628 17.6547355,3.19153256" id="Fill-75" fill="#E6F1FF"></path>
                            </g>
                        </g>
                    </g>
                </g>
            </g>
        </g>
    </g>
</svg>