<svg xmlns="http://www.w3.org/2000/svg" width="30" height="30" viewBox="0 0 30 30">
  <path fill="#FFF" d="M15,3.63636364 C21.2659091,3.63636364 26.3636364,8.73409091 26.3636364,15 C26.3636364,21.2659091 21.2659091,26.3636364 15,26.3636364 C8.73409091,26.3636364 3.63636364,21.2659091 3.63636364,15 C3.63636364,8.73409091 8.73409091,3.63636364 15,3.63636364 Z M15,1.36363636 C7.46931818,1.36363636 1.36363636,7.46931818 1.36363636,15 C1.36363636,22.5306818 7.46931818,28.6363636 15,28.6363636 C22.5306818,28.6363636 28.6363636,22.5306818 28.6363636,15 C28.6363636,7.46931818 22.5306818,1.36363636 15,1.36363636 Z M14.4318182,15.5647727 L14.4318182,18.4090909 C16.6863636,18.4090909 18.2318182,18.1954545 18.2318182,16.9795455 C18.2318182,15.675 16.5625,15.5647727 14.4318182,15.5647727 Z M17.6011364,13.0113636 C17.6011364,11.875 16.4204545,11.5909091 14.4318182,11.5909091 L14.4318182,14.4318182 C15.6875,14.4318182 17.6011364,14.3431818 17.6011364,13.0113636 Z M15,4.77272727 C9.35113636,4.77272727 4.77272727,9.35113636 4.77272727,15 C4.77272727,20.6488636 9.35113636,25.2272727 15,25.2272727 C20.6488636,25.2272727 25.2272727,20.6488636 25.2272727,15 C25.2272727,9.35113636 20.6488636,4.77272727 15,4.77272727 Z M16.1363636,20.1136364 L16.1363636,21.8181818 L15,21.8181818 L15,20.1011364 L14.4318182,20.1011364 L14.4318182,21.8181818 L13.2954545,21.8181818 L13.2954545,20.1011364 L10.4727273,20.1011364 L10.7568182,18.4090909 L11.3693182,18.4090909 C11.8715909,18.4090909 12.1590909,17.9261364 12.1590909,17.4386364 L12.1590909,12.3886364 C12.1590909,11.9159091 11.8840909,11.5909091 11.3829545,11.5909091 L10.4545455,11.5909091 L10.4545455,9.88636364 L13.2954545,9.88636364 L13.2954545,8.18181818 L14.4318182,8.18181818 L14.4318182,9.88636364 L15,9.88636364 L15,8.18181818 L16.1363636,8.18181818 L16.1363636,9.91590909 C18.5886364,9.99886364 19.5590909,10.9284091 19.8375,11.975 C20.1670455,13.2136364 19.35,14.2534091 18.6488636,14.5068182 C19.5011364,14.725 20.6818182,15.3545455 20.6818182,16.8090909 C20.6818182,18.7875 19.1545455,20.1136364 16.1363636,20.1136364 L16.1363636,20.1136364 Z"/>
</svg>
