<?xml version="1.0" encoding="UTF-8"?>
<svg width="22px" height="22px" viewBox="0 0 22 22" version="1.1" xmlns="http://www.w3.org/2000/svg" xmlns:xlink="http://www.w3.org/1999/xlink">
    <!-- Generator: Sketch 53.2 (72643) - https://sketchapp.com -->
    <title>github</title>
    <desc>Created with Sketch.</desc>
    <g id="Page-1" stroke="none" stroke-width="1" fill="none" fill-rule="evenodd">
        <g id="产品" transform="translate(-1211.000000, -3448.000000)" fill="#FFFFFF">
            <g id="Group-7">
                <g id="Group-4">
                    <g id="Group-15" transform="translate(375.000000, 3278.000000)">
                        <g id="Group-2-Copy" transform="translate(836.000000, 170.000000)">
                            <path d="M4.1345,6.91525 C4.157,6.694 4.07225,6.47575 3.90725,6.32725 L2.22725,4.30225 L2.22725,4 L7.44575,4 L11.47925,12.84625 L15.02525,4 L20,4 L20,4.30225 L18.563,5.68 C18.43925,5.7745 18.37775,5.92975 18.40325,6.0835 L18.40325,16.207 C18.37775,16.36 18.43925,16.51525 18.563,16.60975 L19.96625,17.9875 L19.96625,18.28975 L12.90725,18.28975 L12.90725,17.9875 L14.3615,16.576 C14.504,16.4335 14.504,16.3915 14.504,16.17325 L14.504,7.99075 L10.46225,18.25675 L9.91625,18.25675 L5.21,7.99075 L5.21,14.87125 C5.171,15.16 5.267,15.45175 5.47025,15.66025 L7.361,17.95375 L7.361,18.25675 L2,18.25675 L2,17.95375 L3.89075,15.66025 C4.09325,15.451 4.18325,15.15775 4.1345,14.87125 L4.1345,6.91525 L4.1345,6.91525 Z" id="Path"></path>
                        </g>
                    </g>
                </g>
            </g>
        </g>
    </g>
</svg>