<?xml version="1.0" encoding="UTF-8"?>
<svg width="21px" height="17px" viewBox="0 0 21 17" version="1.1" xmlns="http://www.w3.org/2000/svg" xmlns:xlink="http://www.w3.org/1999/xlink">
    <!-- Generator: Sketch 53.2 (72643) - https://sketchapp.com -->
    <title>twitter copy 3</title>
    <desc>Created with Sketch.</desc>
    <g id="Page-1" stroke="none" stroke-width="1" fill="none" fill-rule="evenodd">
        <g id="首页-copy-10" transform="translate(-1055.000000, -4489.000000)" fill="#FFFFFF">
            <g id="Group-15" transform="translate(375.000000, 4316.000000)">
                <g id="twitter-copy-3" transform="translate(680.000000, 170.000000)">
                    <g id="iconfinder_Weibo_104800" transform="translate(0.600000, 3.000000)">
                        <path d="M17.2296057,3.92289962 C17.8102046,4.70313014 17.5985145,5.92333185 17.5301133,6.14579152 C17.4608805,6.37078765 17.2098961,6.72555885 16.6821054,6.5870933 C16.154273,6.44866933 16.2494525,5.97277195 16.3186853,5.53147017 C16.3750694,5.17183396 16.1729846,4.7950247 16.0962256,4.66786925 C16.0962256,4.66782766 16.096184,4.66782766 16.096184,4.66782766 C16.0960593,4.66770292 16.0959761,4.6675366 16.0959345,4.66741185 C16.0786367,4.63880395 16.067784,4.62287834 16.067784,4.62287834 L16.0686572,4.6222962 C15.987449,4.49863357 15.8626221,4.38860959 15.8614163,4.38752848 C15.7697712,4.31937681 15.3842715,4.05271627 14.9954452,4.08340323 C14.5500685,4.11853939 14.0683082,4.17691946 13.9707586,3.63998081 C13.8732089,3.10304216 14.2462343,2.8801251 14.4758044,2.82835644 C14.705416,2.77658779 15.9643299,2.68718811 16.6943303,3.3508664 C16.8810716,3.48924879 17.1367963,3.80464255 17.2093972,3.89628762 L17.2098546,3.89599655 C17.2128068,3.89982203 17.215468,3.90381383 17.2183787,3.9076393 C17.2255307,3.91674559 17.2296057,3.92194325 17.2296057,3.92194325 L17.2296057,3.92289962 Z M19.1984777,2.06072504 C21.0428555,4.52661775 20.1329747,6.86219483 20.0905618,7.05999682 C20.044365,7.2758035 19.8285168,7.58408687 19.196565,7.52242188 C18.5646132,7.46075689 18.5800398,6.70551669 18.5800398,6.70551669 C19.4739951,4.25475955 17.568867,2.52339958 17.568867,2.52339958 C16.916291,1.97880998 15.6380834,1.22182337 13.9487621,1.71846979 C13.9487621,1.71846979 13.1940624,1.68574535 13.1727728,1.05109077 C13.1516496,0.416477773 13.4730726,0.220838005 13.6913326,0.188446213 C13.8913384,0.158715621 16.2779356,-0.599560005 18.6199994,1.39459345 C18.6199994,1.39459345 18.6655724,1.42977119 18.6852404,1.45072814 C18.8771794,1.61842531 19.1984777,2.06072504 19.1984777,2.06072504 Z M16.0116078,8.20834613 C17.4738955,8.80740716 17.8604763,10.0464868 17.793281,10.9877614 C17.7260442,11.9290361 16.9696813,13.2905309 15.1544519,14.6015045 C13.3391394,15.9124365 10.784346,16.4671719 9.01947152,16.4671719 C7.25459706,16.4671719 5.67467599,16.2654613 3.97707998,15.6435721 C2.27948398,15.021683 1.53987833,14.1812428 1.00206648,13.6266321 C0.464213045,13.0719383 0.144827485,12.1306636 0.144827485,12.1306636 C-0.561097352,8.92034183 2.3634781,5.9957248 3.23751592,5.13852738 C4.11151216,4.28128839 6.59911028,2.34842569 8.61605026,2.31478646 C10.6329487,2.28114723 10.0951368,4.48299902 9.97750346,5.03765128 C9.85987011,5.59230354 10.2003789,5.40743331 10.2003789,5.40743331 C10.2003789,5.40743331 11.1483066,5.09865097 11.3833654,4.99844016 C11.6183826,4.89827094 13.4641742,4.44353842 14.3234923,4.86359218 C15.1828103,5.28364594 15.2020624,5.84619863 15.2252232,6.09281701 C15.2483008,6.33939381 15.1751178,6.97907972 15.0672145,7.19488639 C14.9593111,7.41069306 14.9169398,7.65344439 14.9824303,7.76134772 C15.0479208,7.86925106 16.0116078,8.20834613 16.0116078,8.20834613 Z M8.61933518,15.2492572 C11.9775199,14.7808444 14.4512714,12.6181622 14.1445682,10.4187221 C13.8377401,8.21932358 10.8665521,6.81608123 7.50836741,7.28453556 C4.15014114,7.75290673 1.67638957,9.91558899 1.98317601,12.1150291 C2.28996245,14.3144691 5.26106732,15.7176699 8.61933518,15.2492572 Z M10.9401925,10.919485 C11.2547131,12.419778 10.0901886,13.9335018 8.33911916,14.3006226 C6.58804967,14.6676603 4.91357284,13.7490473 4.59905228,12.2487959 C4.28453173,10.7486277 5.4491393,9.23486239 7.20016721,8.86778313 C8.9512367,8.5006623 10.6257135,9.41927522 10.9401925,10.919485 Z M6.709259,12.3828123 C7.32216659,12.3828123 7.81902091,11.885958 7.81902091,11.273092 C7.81902091,10.6601844 7.32216659,10.1633301 6.709259,10.1633301 C6.09635142,10.1633301 5.59949709,10.6601844 5.59949709,11.273092 C5.59949709,11.885958 6.09635142,12.3828123 6.709259,12.3828123 Z M9.32185036,12.475289 C9.61549712,12.475289 9.85359135,12.2372364 9.85359135,11.943548 C9.85359135,11.6498597 9.61553871,11.4117654 9.32185036,11.4117654 C9.02816201,11.4117654 8.79006778,11.6498597 8.79006778,11.943548 C8.79006778,12.2371948 9.02816201,12.475289 9.32185036,12.475289 Z" id="Combined-Shape"></path>
                    </g>
                </g>
            </g>
        </g>
    </g>
</svg>