<?xml version="1.0" encoding="UTF-8"?>
<svg width="301px" height="220px" viewBox="0 0 301 220" version="1.1" xmlns="http://www.w3.org/2000/svg" xmlns:xlink="http://www.w3.org/1999/xlink">
    <!-- Generator: Sketch 53.2 (72643) - https://sketchapp.com -->
    <title>弹窗</title>
    <desc>Created with Sketch.</desc>
    <defs>
        <linearGradient x1="15.5284174%" y1="0%" x2="85.6195598%" y2="89.5095885%" id="linearGradient-1">
            <stop stop-color="#6FBFFF" offset="0%"></stop>
            <stop stop-color="#007AFF" offset="100%"></stop>
        </linearGradient>
    </defs>
    <g id="Page-1" stroke="none" stroke-width="1" fill="none" fill-rule="evenodd">
        <g id="首页-copy-13" transform="translate(-810.000000, -425.000000)">
            <g id="Confirmation" transform="translate(710.000000, 386.000000)">
                <g id="Group-29" transform="translate(100.000000, 39.000000)">
                    <g id="Visual" transform="translate(0.000000, 1.000000)">
                        <ellipse id="Oval-15" stroke-opacity="0.799470061" stroke="#007AFF" stroke-width="2" cx="72.8744939" cy="90.9298246" rx="9.71659919" ry="10.245614"></ellipse>
                        <ellipse id="Oval-15-Copy-2" stroke-opacity="0.799470061" stroke="#007AFF" stroke-width="1" cx="97.7732794" cy="150.482456" rx="6.68016194" ry="7.04385965"></ellipse>
                        <ellipse id="Oval-15-Copy-3" stroke-opacity="0.799470061" stroke="#007AFF" stroke-width="1" cx="265.384615" cy="112.061404" rx="6.68016194" ry="7.04385965"></ellipse>
                        <ellipse id="Oval-15-Copy-6" stroke-opacity="0.799470061" stroke="#007AFF" stroke-width="2" cx="276.315789" cy="58.2719298" rx="4.25101215" ry="4.48245614"></ellipse>
                        <ellipse id="Oval-15-Copy-5" stroke-opacity="0.448563156" stroke="#FF004F" stroke-width="2" cx="230.769231" cy="143.438596" rx="8.50202429" ry="8.96491228"></ellipse>
                        <ellipse id="Oval-15-Copy-4" stroke-opacity="0.448563156" stroke="#FF004F" stroke-width="1" cx="248.987854" cy="81.9649123" rx="2.4291498" ry="2.56140351"></ellipse>
                        <ellipse id="Oval-15-Copy" stroke-opacity="0.448563156" stroke="#FF004F" stroke-width="2" cx="40.0809717" cy="122.947368" rx="3.6437247" ry="3.84210526"></ellipse>
                        <path d="M0.607287449,109.5 L19.8114028,89.2503273" id="Line-20" stroke-opacity="0.448563156" stroke="#FF004F" stroke-width="1" stroke-linecap="square"></path>
                        <path d="M286.032389,127.429825 L299.611749,113.111144" id="Line-21" stroke-opacity="0.57345389" stroke="#FFCD68" stroke-width="1" fill="#D8D8D8" fill-rule="evenodd" stroke-linecap="square"></path>
                        <path d="M56.4777328,149.201754 L63.1854419,142.128848" id="Line-22" stroke-opacity="0.57345389" stroke="#FFCD68" stroke-width="1" fill="#D8D8D8" fill-rule="evenodd" stroke-linecap="square"></path>
                        <path d="M27.9352227,49.9473684 L44.9392713,32.0175439" id="Line-23" stroke-opacity="0.57345389" stroke="#FFCD68" stroke-width="1" fill="#D8D8D8" fill-rule="evenodd" stroke-linecap="square"></path>
                        <g id="Group-6" stroke-width="1" fill-rule="evenodd" transform="translate(99.595142, 0.000000)">
                            <path d="M122.347368,82.3778962 C128.976897,44.3226599 107.014281,8.13870062 73.2915876,1.5593604 C39.5685441,-5.01960875 6.85709366,20.4973665 0.227213985,58.5529739 L122.347368,82.3778962 Z" id="Fill-1730" fill="#FFFFFF"></path>
                            <path d="M125.396628,64.8751666 C130.342389,36.486154 107.014035,8.13870062 73.2913422,1.5593604 C39.5686493,-5.01960875 8.22223596,12.6604896 3.27647475,41.0495021 L125.396628,64.8751666 Z" id="Fill-1731" fill="#F3FCFF"></path>
                            <path d="M125.396628,64.8751666 C130.342389,36.486154 107.014035,8.13870062 73.2913422,1.5593604 C39.5686493,-5.01960875 8.22223596,12.6604896 3.27647475,41.0495021 L125.396628,64.8751666 Z" id="Stroke-1732" stroke="#3395FF" stroke-width="1.2" stroke-linecap="round" stroke-linejoin="round"></path>
                            <path d="M108.588895,48.3610263 L24.5439141,31.9644393 C28.257881,10.6442007 50.0830466,-2.96866243 73.2914825,1.55943462 C96.500269,6.08753166 112.303212,27.0415299 108.588895,48.3610263" id="Fill-1733" fill="#FFFFFF"></path>
                            <path d="M108.588895,48.3610263 L24.5439141,31.9644393 C28.257881,10.6442007 50.0830466,-2.96866243 73.2914825,1.55943462 C96.500269,6.08753166 112.303212,27.0415299 108.588895,48.3610263 Z" id="Stroke-1734" stroke="#3395FF" stroke-width="1.2" stroke-linecap="round" stroke-linejoin="round"></path>
                            <path d="M52.9421559,32.4353198 L81.8986147,38.084773 C85.1413229,19.4721902 81.2874512,3.11938872 73.2914825,1.55943462 C65.2955138,-0.00051948995 56.1848641,13.8234791 52.9421559,32.4353198" id="Fill-1735" fill="#F3FCFF"></path>
                            <path d="M52.9421559,32.4353198 L81.8986147,38.084773 C85.1413229,19.4721902 81.2874512,3.11938872 73.2914825,1.55943462 C65.2955138,-0.00051948995 56.1848641,13.8234791 52.9421559,32.4353198 Z" id="Stroke-1736" stroke="#3395FF" stroke-width="1.2" stroke-linecap="round" stroke-linejoin="round"></path>
                            <path d="M106.392948,88.0263104 C106.271277,88.0025623 106.151008,87.9780721 106.031089,87.9524686 L106.019869,87.9506133 L106.012856,87.9491291 L106.006895,87.9480159 C105.888029,87.9231546 105.768461,87.8964379 105.650646,87.8693502 L105.649945,87.8693502 L105.63662,87.8660107 C105.521611,87.8396651 105.406952,87.8129485 105.292994,87.7851187 L105.283878,87.7828923 L105.26319,87.7784395 C105.03247,87.7209245 104.803503,87.6608121 104.576639,87.5981023 L104.561912,87.5940206 L104.528602,87.585115 L104.238974,87.5023677 L104.206365,87.492349 L104.195845,87.4893804 C104.090303,87.45784 103.985111,87.4262995 103.88027,87.3936459 L103.854674,87.3854825 L103.809441,87.371382 L103.533138,87.2826977 L103.526125,87.2801002 L103.507191,87.2741632 L103.486503,87.267113 C103.387272,87.2348304 103.288392,87.2010635 103.190564,87.1672967 L103.176188,87.1621018 L103.163565,87.1580201 L103.137617,87.1487435 C103.041893,87.1153477 102.94722,87.0815808 102.852548,87.0470719 L102.830458,87.0389084 L102.824146,87.0370531 L102.761732,87.0140471 L102.556959,86.9372368 L102.488935,86.9120045 L102.488234,86.9116334 L102.420911,86.8849168 L102.205619,86.8003141 L102.111648,86.7628366 C102.026443,86.7286987 101.941939,86.6934476 101.857785,86.6581965 L101.819566,86.6422408 L101.819916,86.6585676 L101.819916,86.6752655 L101.819916,86.6915923 L101.818864,86.8251754 L101.818864,86.8411312 L101.817813,86.8578291 L101.815358,86.9405764 L101.814657,86.9572743 L101.81115,87.0392795 L101.8108,87.0403927 L101.809748,87.0570906 C101.806592,87.1064421 101.803436,87.1561647 101.798878,87.2062584 L101.798177,87.2225853 L101.795372,87.250044 C101.78906,87.319433 101.781346,87.3891931 101.771879,87.4585821 L101.769074,87.4793617 C101.759256,87.5539456 101.748386,87.6281585 101.735062,87.7023713 C100.869334,92.673148 93.6850947,95.4383188 85.6887754,93.8783647 C85.580428,93.857214 85.4724312,93.8349502 85.3647851,93.8126863 L85.2438147,93.7867118 L85.003627,93.7340207 L84.9187724,93.7147254 C84.8156846,93.6913483 84.7136487,93.6672291 84.6112622,93.6423678 L84.5011615,93.6152801 L84.2553637,93.5529414 L84.1726129,93.5310486 C84.0867064,93.5084136 84.0004492,93.4854077 83.9148934,93.4620306 L83.8342464,93.4390246 C83.7294054,93.4108237 83.6256163,93.3800254 83.5214766,93.3499692 L83.4555564,93.3303028 L83.191876,93.2501529 L83.1031644,93.2223231 L82.8720934,93.1484813 L82.7830311,93.1199094 C82.6841509,93.0872557 82.5859721,93.0534889 82.4881438,93.019351 L82.3959258,92.9874394 L82.175374,92.9087738 L82.0789483,92.8735227 L81.8524356,92.7889201 L81.724803,92.7403106 L81.5017967,92.6523684 L81.3776705,92.6026458 L81.1834166,92.5221249 L81.1006658,92.4876159 C81.0049414,92.4471699 80.909217,92.4059818 80.8148952,92.3647936 L80.8061292,92.3607119 L80.7801819,92.3492089 C80.6953273,92.3117314 80.6108233,92.2738829 80.5270206,92.2349211 L80.442166,92.1963305 L80.2068874,92.0857533 L80.1627069,92.0646026 C80.0708395,92.020446 79.9789721,91.9751762 79.887806,91.9299063 L79.8117174,91.8916867 C79.7436934,91.8568067 79.6760201,91.8226688 79.6086975,91.7877887 L79.521739,91.7425189 C79.4488061,91.7039282 79.3758732,91.6657086 79.3036416,91.6260047 L79.2584092,91.6011434 C79.1718014,91.5543893 79.0851936,91.506522 79.000339,91.4586547 L78.9133806,91.4093032 L78.7377105,91.3068895 L78.6553104,91.2586511 L78.4393168,91.1291497 L78.40811,91.1105965 L78.3912793,91.0998356 C78.315892,91.0538236 78.2426084,91.0074406 78.168273,90.9603154 L78.0620294,90.8920396 L77.9203713,90.8000157 L77.8281533,90.7391611 C77.7506621,90.6875832 77.6735216,90.6348921 77.5970823,90.582572 L77.5960304,90.5818299 C77.5202924,90.5298809 77.4459569,90.4771898 77.3716215,90.4241276 L77.2860656,90.3625309 L77.1384466,90.2541802 L77.0577997,90.1944388 C76.9880226,90.1421188 76.9189467,90.0894276 76.8505721,90.0367365 L76.8379491,90.0267178 L76.7976257,89.9944352 L76.634228,89.8645627 L76.5518278,89.7977711 L76.4154293,89.6857097 L76.3400419,89.6222578 C76.2751738,89.5677113 76.2110068,89.5120517 76.1478918,89.4567631 L76.0942441,89.4092669 L75.94382,89.2741995 L75.8733416,89.2096343 L75.734138,89.0797618 L75.6861005,89.0341209 C75.6268425,88.9773481 75.5679352,88.9198331 75.5104304,88.8623182 L75.4353937,88.7873632 L75.3259943,88.6760439 L75.2499057,88.595894 L75.1391038,88.4786377 L75.0591582,88.3918087 C75.0121726,88.3398597 74.9658882,88.2886528 74.9203052,88.2363328 L74.8628004,88.1699123 L74.7534011,88.0418951 L74.6944937,87.9713929 L74.58264,87.8340991 L74.4960322,87.7250062 L74.4006584,87.6014418 L74.3421017,87.5235184 L74.2558445,87.4051489 L74.1948334,87.3216594 C74.1517048,87.2600627 74.1099788,87.1992082 74.0682527,87.1379826 L74.0384484,87.0930838 C74.0047871,87.0433612 73.9725283,86.9932675 73.9402695,86.943916 L73.888375,86.8615397 L73.8196498,86.7498494 L73.7656514,86.6615361 L73.762145,86.6563412 C73.7295356,86.6010526 73.6983287,86.5461351 73.6664206,86.4912176 L73.6643168,86.4867648 L73.6131235,86.3936277 L73.5535149,86.2826795 L73.5033735,86.187316 L73.4500764,86.0815627 L73.4051946,85.9917651 C73.4269342,86.4233129 73.4023895,86.8537474 73.3280541,87.2826977 C72.4616255,92.2538454 65.2773857,95.0186451 57.2817677,93.458691 C49.2854483,91.8987369 43.5055173,86.6047633 44.3712446,81.6332445 C44.4459307,81.2046652 44.5686543,80.7924129 44.7338052,80.3979716 L44.661223,80.4655053 L44.5760177,80.5434287 L44.4978253,80.613931 L44.4052566,80.695194 L44.3253109,80.7627277 L44.3214539,80.7656962 C44.273767,80.8054001 44.2257295,80.8447329 44.1766401,80.8836947 L44.1717311,80.8877764 L44.0917855,80.9501152 L43.9890483,81.0284097 L43.9140116,81.0851826 C43.8663247,81.1196915 43.8193391,81.1545716 43.7713015,81.1883384 L43.728173,81.2191367 C43.668915,81.2603249 43.6089557,81.301513 43.5482952,81.341959 L43.4634406,81.3976187 L43.3424702,81.4755421 L43.2614726,81.5260069 L43.1306843,81.6054146 L43.0132203,81.6751747 L42.8627962,81.7612616 L42.7839025,81.8046761 L42.638738,81.8837128 L42.5622987,81.9234167 C42.5019888,81.9545861 42.441679,81.9857555 42.3799665,82.0158117 L42.2758268,82.0666475 L42.1331168,82.1356654 L42.0352885,82.1809353 L41.895033,82.2440162 L41.8000098,82.2855754 C41.7267263,82.3174869 41.6523909,82.3490274 41.5777048,82.3798257 L41.5177455,82.404316 L41.3438287,82.4729629 L41.256169,82.5067297 L41.0703304,82.5761187 L41.0040596,82.6002379 C40.9258671,82.6284388 40.8476747,82.6558975 40.7691316,82.6822431 L40.6769135,82.7134125 L40.5121133,82.7668457 L40.4121812,82.7980151 L40.2165247,82.8573854 L40.1681365,82.872228 L40.1520072,82.8766808 C40.0706589,82.9004289 39.9879082,82.9234348 39.905508,82.9456987 L39.8097836,82.9716732 L39.6351655,83.016572 L39.5341815,83.0421754 C39.447223,83.0636971 39.359914,83.0844767 39.2719036,83.1048853 L39.2712023,83.1052563 C39.1817894,83.1252938 39.0923765,83.1449602 39.0019117,83.1642555 L38.8956681,83.1861483 L38.7322704,83.218802 L38.6098974,83.2425501 C38.5243415,83.2588769 38.4401882,83.2740906 38.3546323,83.2889331 L38.3346459,83.2922727 L38.299582,83.2978387 L38.0548361,83.3379136 L37.9608649,83.3520141 L37.7627539,83.380586 L37.664575,83.3935733 C37.5688506,83.4065605 37.4724249,83.4188056 37.375298,83.4303086 L37.324806,83.4358746 C37.244159,83.4458933 37.1631615,83.4540567 37.081112,83.4622201 L36.9857382,83.4718678 C36.9107015,83.4796602 36.8356648,83.4859683 36.7606281,83.4922763 L36.6764747,83.4993266 C36.576192,83.50749 36.4755587,83.5152823 36.3745747,83.5215904 L36.3258359,83.5245589 L36.0688176,83.5394015 L35.9765995,83.5434832 C35.8854334,83.547936 35.7939167,83.5516466 35.7016987,83.5542441 L35.6739982,83.5557283 L35.6641803,83.5557283 C35.5617938,83.5586968 35.4587059,83.5612943 35.3552675,83.5627786 L35.2662052,83.5642628 L35.0579257,83.5657471 L34.9250336,83.5657471 L34.6869498,83.5631496 L34.5519538,83.5609232 L34.3117662,83.5542441 L34.2100809,83.5509045 L33.9772567,83.5412568 L33.8801298,83.5360619 C33.7773926,83.5312381 33.6736035,83.5253011 33.5708663,83.5186219 L33.4775964,83.5115717 L33.2374087,83.4937606 L33.1451907,83.4859683 L32.8716924,83.461478 L32.8033178,83.4547989 C32.6956717,83.444038 32.5887268,83.4329061 32.4814313,83.4206609 L32.3979793,83.4106422 C32.3103196,83.4006235 32.2219586,83.3894915 32.1339482,83.3783596 L32.0494443,83.3675988 L31.7987375,83.3327187 L31.6868837,83.316763 C31.5830946,83.3015493 31.4796561,83.2855936 31.3755164,83.2688957 L31.2899605,83.2544242 L31.0473184,83.213236 L30.925296,83.1920854 C30.8172993,83.1716768 30.7089519,83.1516394 30.6002538,83.1304887 C22.6042851,81.5705346 16.8243541,76.2761899 17.6904321,71.3050421 C17.7514432,70.9529021 17.8454144,70.6122652 17.9684887,70.2835022 L17.9274639,70.2838733 C17.8369991,70.2846154 17.7461836,70.2853576 17.6550175,70.2849865 L17.5550855,70.2849865 L17.3247157,70.2835022 L17.2524841,70.2816469 L17.2524841,70.282018 L17.1802525,70.2809048 L16.963207,70.2749678 L16.8969363,70.2727414 L16.8902742,70.2723703 L16.8667814,70.2716282 C16.7671999,70.2682886 16.6669172,70.2638358 16.5666345,70.2586409 L16.538934,70.2578988 L16.5259604,70.2567856 L16.5108829,70.2560435 C16.4074444,70.2508486 16.3047073,70.2449116 16.2005675,70.2374903 L16.1788279,70.2367481 L16.1591921,70.2352639 L16.1521794,70.2345218 L15.8639542,70.2133711 L15.8169686,70.2096605 L15.7899694,70.2074341 C15.6812714,70.1981575 15.5722227,70.1885098 15.463174,70.17812 L15.4526548,70.1762647 L15.4186428,70.1732962 L15.1198985,70.1417557 L15.0862372,70.137674 L15.0704585,70.1358187 C14.8376342,70.1083599 14.6034075,70.0786748 14.3684794,70.0445369 L14.3477917,70.0415683 L14.3383245,70.0400841 C14.2226137,70.0226441 14.1062016,70.004833 13.9904907,69.9862798 L13.9768158,69.9840534 L13.9764652,69.9840534 C13.8565467,69.964387 13.7362776,69.9443495 13.6163591,69.9220857 L13.6107489,69.9213435 L13.6033854,69.9202303 L13.5925156,69.918375 C13.4715452,69.8964822 13.3509255,69.8742184 13.2292538,69.8500992 C5.23328507,68.2901451 -0.546996631,62.9958004 0.319081368,58.0246526 C0.331353728,57.9556347 0.344678005,57.8866167 0.359404837,57.8179698 L0.376235503,57.7452412 C0.386754669,57.6981161 0.397624474,57.6506198 0.409896834,57.6038657 L0.427078139,57.5348478 C0.441103693,57.4832699 0.455129248,57.4324341 0.470557358,57.3812272 L0.485985468,57.3285361 C0.506322522,57.2613734 0.528062132,57.1956951 0.550503019,57.1303878 L0.569437518,57.0773256 C0.586969461,57.0283451 0.604852044,56.9797357 0.624137181,56.9314973 L0.650435096,56.8647058 C0.669018956,56.8186938 0.687602816,56.773795 0.707238592,56.7285252 L0.734939063,56.6643311 C0.759133144,56.6090425 0.785431059,56.554125 0.811378335,56.4999496 L0.822598779,56.4754594 L0.823650696,56.4739751 L0.830663473,56.4606168 C0.859766499,56.4016176 0.889570803,56.3433605 0.920427023,56.2851034 L0.949530049,56.2324123 C0.974776047,56.1871424 0.999671406,56.1411305 1.02596932,56.0962317 L1.06103321,56.0376035 C1.0880324,55.9912205 1.11608351,55.9455796 1.1448359,55.8999387 L1.17393892,55.8535557 C1.21285984,55.7930722 1.25283267,55.7337019 1.29350678,55.6739606 L1.31349319,55.6453886 C1.34890772,55.595666 1.38467288,55.5459434 1.42148996,55.4962208 L1.45865768,55.4457561 C1.48881262,55.4064233 1.51966884,55.3667194 1.5508757,55.3270155 L1.60241962,55.2628214 C1.64134053,55.2149541 1.68061208,55.1678289 1.72163683,55.1207038 L1.7367143,55.1014084 L1.73881814,55.0991821 C1.78685566,55.0435224 1.8359451,54.9882339 1.88573582,54.9340585 L1.92991632,54.8873044 L2.03686117,54.775614 L2.09296339,54.7173569 L2.20236272,54.6101194 L2.25916621,54.5555729 C2.31035949,54.5069635 2.36260468,54.4590962 2.41590179,54.4112289 L2.47515975,54.3592799 L2.5838578,54.2650296 L2.66450474,54.1971249 L2.76233298,54.1177171 L2.8436812,54.0531519 C2.89066681,54.0156745 2.9383537,53.9793102 2.98674186,53.9425748 L3.01829936,53.9188267 L3.02250702,53.9154871 C3.08421946,53.8698462 3.14698382,53.8245764 3.21044946,53.7796776 L3.2704087,53.7377473 L3.40540466,53.6453523 L3.48184394,53.5945165 L3.63086546,53.498782 L3.68030554,53.4676126 C3.74903075,53.4249402 3.81810661,53.3826388 3.88893566,53.3410796 L3.94153149,53.3102813 L4.10072154,53.2197416 L4.18662806,53.1722454 L4.31636444,53.1017432 L4.40753054,53.0535049 L4.55935717,52.9763235 L4.67822375,52.9176953 L4.84547849,52.8375455 L4.94225481,52.7933888 L5.08496483,52.7288236 L5.18068924,52.6872644 L5.32620437,52.6256678 L5.42788964,52.5829954 L5.43735689,52.5792847 C5.50713403,52.5510839 5.5772618,52.522883 5.64774021,52.4961663 L5.65089596,52.4946821 L5.74486718,52.4590599 L5.898447,52.401916 L6.01205399,52.36147 L6.1519589,52.3121185 L6.2620595,52.274641 L6.43632702,52.2186103 L6.56886851,52.17668 L6.75996669,52.118794 L6.88549541,52.0820586 L7.02469904,52.043468 L7.16355203,52.0059905 L7.2824186,51.9748211 L7.42863501,51.9373436 L7.43705034,51.9354883 C7.51559345,51.916564 7.59448719,51.8976397 7.67338094,51.8790865 L7.81433776,51.847546 L7.94056775,51.8200873 L8.09800461,51.7874336 L8.21371543,51.7636855 L8.37781442,51.7321451 L8.48581119,51.7132208 L8.64570251,51.6846488 L8.89430547,51.6445739 L8.90587655,51.6423475 L9.08365046,51.6160019 L9.17902423,51.6022726 L9.35294111,51.5785245 L9.49565112,51.5610844 L9.64677648,51.5425312 L9.65484117,51.5417891 L9.91326201,51.5143303 L10.093841,51.4968903 L10.1937731,51.4879848 L10.3785598,51.4731422 L10.4974264,51.4646077 L10.6773041,51.4523626 L10.7726779,51.4467966 C10.9031155,51.4397464 11.0346051,51.4334383 11.166796,51.4289856 L11.233768,51.4260171 C5.94122494,49.0790357 2.58596164,45.0125426 3.26024017,41.1423424 C4.12666881,36.1708236 11.3105579,33.4060239 19.3065266,34.9656069 C19.4239906,34.9886129 19.5418053,35.0127321 19.6582174,35.0372223 L19.6796063,35.0416751 L19.7080081,35.0479832 C19.8082908,35.0691338 19.9078722,35.0906556 20.007103,35.1132905 L20.049881,35.1229382 L20.0691661,35.127762 C20.1778642,35.1522522 20.2858609,35.1782267 20.3931564,35.2038302 L20.4443497,35.2168174 C20.6694599,35.272106 20.8924662,35.329992 21.113018,35.3912176 L21.138264,35.3975257 L21.1463287,35.4004942 L21.1624581,35.404947 C21.269403,35.4346321 21.3752959,35.4650594 21.4808382,35.4962288 L21.4931106,35.4995684 C21.6098733,35.5348195 21.726636,35.5693285 21.8416456,35.6056928 L21.8493596,35.6079191 C21.9566551,35.6413149 22.0639506,35.676195 22.1705448,35.7107039 L22.2105177,35.7240622 C22.3129042,35.7578291 22.4149401,35.7927091 22.5159241,35.8275892 L22.5362612,35.8342683 L22.5716757,35.8468845 C22.6670495,35.8799092 22.7610207,35.9136761 22.8553426,35.9481851 L22.8756796,35.9552353 L22.8911077,35.9611723 C22.9920917,35.9982787 23.0934263,36.0357562 23.1937091,36.0743469 L23.2066827,36.0791707 L23.2105397,36.080655 L23.2333312,36.0895605 C23.3227442,36.1236984 23.4125077,36.1589495 23.5008687,36.1945717 L23.5885284,36.2298228 C23.6730324,36.2635897 23.7564844,36.2980986 23.8406378,36.3333497 L23.8946361,36.3563557 C23.988958,36.3960596 24.0825786,36.4365056 24.1758485,36.4776937 L24.2003932,36.4884546 C24.2926113,36.5289006 24.384128,36.5704598 24.4749435,36.612019 L24.5257861,36.635396 C24.6173029,36.6773263 24.7081183,36.7203698 24.7985831,36.7634132 L24.8196215,36.7730609 L24.8220759,36.7745451 L24.833647,36.7801111 C24.9262157,36.8242677 25.019135,36.8702797 25.111353,36.9159206 L25.1124049,36.9162917 L25.1264305,36.9233419 L25.1471182,36.9344738 C25.2312715,36.9764041 25.3147236,37.0187054 25.3974743,37.0617489 L25.4290318,37.0780757 L25.4497195,37.0892076 C25.5363273,37.1344775 25.6215326,37.1797473 25.7063872,37.2257593 L25.7411004,37.2446835 C25.8227993,37.2892113 25.9034462,37.33411 25.9837425,37.3790088 L26.045455,37.4138888 C24.7940248,35.7043958 24.2172239,33.8383137 24.5345521,32.0160172 C25.4009807,27.0448694 32.5848698,24.2800697 40.5811891,25.8400238 C46.4614029,26.9869834 51.1434837,30.1540168 52.8644192,33.7269945 C52.8430303,33.2954467 52.8672244,32.8642701 52.9422611,32.4353198 C53.8079884,27.464172 60.9925788,24.6993723 68.9881968,26.2589554 C76.9841655,27.8192805 82.7644472,33.1136252 81.8987199,38.084773 C81.8240338,38.5133522 81.7009596,38.9259757 81.5361593,39.320417 C84.3479324,36.6324275 89.7887956,35.4401981 95.6693601,36.5875288 C103.665679,38.1474829 109.445961,43.4421986 108.579883,48.4133464 C108.262204,50.236014 107.094577,51.7610881 105.349447,52.8861549 L105.418874,52.8772493 C105.508988,52.8653753 105.599803,52.8538723 105.690969,52.8431114 L105.72954,52.8379165 C105.824563,52.8275267 105.919235,52.817508 106.015661,52.8074893 L106.038453,52.8052629 L106.073867,52.8019233 C106.165384,52.7926467 106.257602,52.7841122 106.34982,52.7763199 L106.373313,52.7744645 L106.388741,52.7737224 L106.390143,52.7737224 C106.492179,52.765559 106.593514,52.7577666 106.69555,52.7514586 L106.707822,52.7507164 L106.711679,52.7503454 L106.733769,52.7488611 C106.83265,52.742553 106.932231,52.736616 107.031462,52.7314211 L107.086863,52.7288236 C107.185743,52.7247419 107.285324,52.7206602 107.385256,52.7173206 L107.411554,52.7169496 C107.512889,52.7139811 107.613522,52.7117547 107.715558,52.7095283 L107.773764,52.7087862 C107.863879,52.7073019 107.953642,52.7065598 108.044107,52.7065598 L108.138078,52.7065598 C108.2324,52.7069308 108.327774,52.7084151 108.423148,52.7098994 L108.446991,52.7102704 L108.451199,52.7102704 L108.465224,52.7110125 C108.572169,52.7128679 108.678763,52.7154653 108.786059,52.7188049 L108.802188,52.719176 L108.821123,52.7202892 C108.921405,52.7236287 109.021688,52.7277104 109.122321,52.7329053 L109.160541,52.7343896 L109.181579,52.7358739 C109.287472,52.7418109 109.394768,52.7477479 109.501362,52.7544271 L109.543088,52.7570245 C109.654942,52.7648169 109.766445,52.7733513 109.878299,52.7822569 L109.886364,52.7826279 C110.006282,52.7926467 110.126551,52.8034075 110.247171,52.8156527 L110.260145,52.8171369 C110.369895,52.8278978 110.478943,52.8394008 110.589044,52.852017 L110.605524,52.8538723 L110.613939,52.8546144 L110.638484,52.8575829 C110.866049,52.8839285 111.093613,52.9139847 111.323282,52.9470094 L111.375176,52.9540596 C111.484575,52.9707575 111.593274,52.9878265 111.703374,53.0052665 L111.72301,53.008235 L111.766489,53.0152852 C111.866421,53.0319831 111.966704,53.0494231 112.067337,53.0668632 L112.09609,53.0720581 L112.117829,53.0761398 C112.234943,53.0976615 112.352407,53.1191832 112.470221,53.1418181 C120.46619,54.7021433 126.246121,59.996488 125.380744,64.9676358 C125.368472,65.0366537 125.354797,65.1060428 125.340421,65.1739475 L125.32359,65.2474182 L125.29028,65.3884227 L125.272397,65.4570695 C125.258722,65.5082764 125.244696,65.5598543 125.229268,65.6110612 L125.21384,65.6641234 C125.193153,65.730915 125.172114,65.7965933 125.148621,65.8622717 L125.129687,65.9153339 C125.112856,65.9639433 125.094272,66.0121817 125.075689,66.0607911 L125.04904,66.1275826 C125.030456,66.1732235 125.012223,66.2184934 124.992587,66.2641343 L124.964887,66.3279573 C124.939991,66.3828748 124.914395,66.4381634 124.888097,66.4927099 L124.876526,66.516829 L124.876175,66.5183133 L124.868812,66.5320427 C124.839358,66.5910419 124.809904,66.6489279 124.779048,66.707185 L124.750296,66.7595051 C124.72505,66.805146 124.699804,66.8511579 124.673155,66.8964278 L124.638793,66.9550559 C124.611793,67.0010679 124.583742,67.0467088 124.554639,67.0919786 L124.525536,67.1383617 C124.486966,67.1988451 124.446642,67.2589575 124.405968,67.3183278 L124.385631,67.3465287 C124.350567,67.3969934 124.314802,67.446345 124.278336,67.4960676 L124.240467,67.5461613 L124.148599,67.6645308 L124.097406,67.7298381 C124.058135,67.7769632 124.018863,67.8244595 123.978189,67.8719557 L123.96241,67.89088 L123.960657,67.8934774 C123.913671,67.9480238 123.865283,68.0018282 123.816194,68.0548904 L123.766052,68.1086947 L123.663315,68.2170454 L123.606161,68.2749315 L123.496762,68.3825401 L123.44066,68.4370865 C123.389817,68.4853249 123.33687,68.5339343 123.284275,68.5814305 L123.224666,68.6330085 L123.116319,68.7272588 L123.035672,68.7951635 L122.938194,68.8742002 L122.856495,68.9391365 C122.816522,68.9706769 122.776199,69.0014753 122.735525,69.0322736 L122.646813,69.0990652 C122.59562,69.1369137 122.543375,69.1747623 122.490428,69.2118687 L122.421002,69.2604781 L122.303538,69.3402569 L122.208865,69.4029668 L122.0907,69.479406 L122.012507,69.5287576 C121.947639,69.5688325 121.883472,69.6081653 121.816851,69.6474981 L121.742165,69.6909126 L121.599104,69.7732889 L121.513548,69.820043 L121.389072,69.8868346 L121.28388,69.9424942 L121.179039,69.9959274 C121.101548,70.0348892 121.023355,70.0734799 120.944111,70.1116995 L120.863814,70.1499191 L120.735831,70.2085473 L120.628886,70.2567856 L120.505462,70.310961 L120.399218,70.3558598 L120.262469,70.4126326 C120.192692,70.4412045 120.122564,70.4694054 120.052086,70.4961221 L119.913934,70.548071 L119.81295,70.5862907 L119.682512,70.6326737 L119.554529,70.6779435 L119.426195,70.720987 L119.315043,70.7566092 C119.230889,70.784439 119.146035,70.8107845 119.060128,70.8371301 L118.941262,70.8731233 L118.792591,70.9157957 L118.69336,70.9436255 L118.517339,70.9911218 L118.454224,71.0078197 L118.262775,71.0564291 L118.026094,71.1128308 L117.839204,71.15439 L117.775738,71.1684905 L117.576224,71.2100497 L117.51346,71.2226659 L117.305181,71.2623697 L117.283441,71.2664514 C117.049565,71.309866 116.812182,71.3480856 116.571644,71.3825945 L116.544294,71.3866763 L116.327599,71.4159903 L116.244147,71.4263801 C116.008167,71.4556942 115.769032,71.4812976 115.527442,71.5024483 L115.526039,71.5024483 L115.292163,71.5213726 L115.233957,71.5254543 L115.002185,71.541039 L114.993419,71.54141 C114.8188,71.5517998 114.64313,71.5599633 114.466058,71.5666424 L114.557224,71.6067174 C114.664169,71.6549557 114.770062,71.7039362 114.875253,71.7536588 L114.981848,71.8037525 L115.133674,71.8764811 L115.255346,71.9365935 L115.412432,72.0141459 L115.526039,72.0727741 L115.670152,72.1469869 L115.901924,72.2701802 L115.913495,72.2764883 L116.032712,72.3417956 L116.176825,72.4219455 L116.319535,72.5028375 L116.420168,72.5603525 L116.567436,72.6468104 L116.578306,72.6527475 L116.797105,72.7855885 L116.914218,72.8583171 L117.036241,72.9336431 L117.171237,73.0208432 L117.275727,73.0883769 L117.405113,73.1740927 L117.538005,73.2646324 L117.638288,73.3325372 C117.71087,73.3830019 117.7824,73.4338377 117.85358,73.4843025 L117.958421,73.5599996 L118.080443,73.649426 L118.183531,73.7266074 L118.313618,73.8256816 L118.412148,73.9021208 C118.479821,73.9548119 118.546793,74.0078741 118.613064,74.0609363 L118.62183,74.0683576 L118.658647,74.0987849 C118.716502,74.145539 118.774007,74.1930352 118.83046,74.2409025 L118.904094,74.3032413 L119.038739,74.4186422 L119.115178,74.4861759 L119.264901,74.6201301 L119.317146,74.6676264 C119.380261,74.7258834 119.443026,74.7841405 119.505089,74.8431397 L119.568204,74.9039943 L119.701797,75.0342378 L119.768419,75.1014005 L119.887987,75.2234806 L119.953907,75.2913854 C120.011762,75.3514978 120.068916,75.4127234 120.124668,75.473949 L120.130278,75.479886 L120.162887,75.5155082 L120.295429,75.6643049 L120.358193,75.7362914 L120.467593,75.8643086 L120.524396,75.9329554 L120.643964,76.0791548 L120.682885,76.1281352 C120.734429,76.1930715 120.784921,76.2583788 120.835062,76.3240572 L120.870126,76.3719245 L120.977071,76.5177527 L121.031771,76.5941919 L121.127144,76.7318568 L121.16887,76.7934534 C121.2127,76.8591318 121.25653,76.9251812 121.298607,76.9908596 L121.301762,76.9956835 C121.343839,77.0617329 121.384513,77.1277823 121.424135,77.1942028 L121.466212,77.2650761 L121.544054,77.3997724 L121.586481,77.4754695 C121.616285,77.5289028 121.645038,77.5827071 121.67344,77.6365114 L121.695881,77.6773285 C121.731295,77.7456043 121.765307,77.8146223 121.799319,77.8832691 L121.825617,77.9385577 C121.849811,77.9893935 121.873304,78.0398583 121.896446,78.0906941 L121.929757,78.1660201 C121.950795,78.2146295 121.971483,78.2628679 121.991469,78.3111062 L122.016715,78.3715897 C122.045467,78.4409787 122.072817,78.5111099 122.098765,78.5804989 L122.099816,78.5842095 L122.106479,78.6023917 C122.129621,78.6654726 122.151711,78.7285535 122.1731,78.7916344 L122.19519,78.8591681 L122.243578,79.0113045 L122.261461,79.072159 C122.279344,79.1319003 122.296174,79.1916417 122.311953,79.2524962 L122.320719,79.2866341 C122.339653,79.3571363 122.356133,79.4283807 122.372263,79.499254 L122.383483,79.5538004 C122.395405,79.6068626 122.406275,79.6602958 122.416093,79.7141002 L122.428716,79.7820049 C122.438183,79.8339539 122.446598,79.8859029 122.455014,79.9378519 L122.463429,79.9983354 C122.472546,80.0640137 122.480961,80.1296921 122.488324,80.1961126 L122.490428,80.2109552 L122.490779,80.2128105 L122.493233,80.2395271 C122.499545,80.3003817 122.504454,80.3616073 122.509363,80.4228329 L122.513921,80.492964 C122.516726,80.5419445 122.51883,80.591296 122.520934,80.6410186 L122.523038,80.7137472 C122.52444,80.7664384 122.524791,80.8180163 122.52444,80.8707074 L122.52444,80.9267381 C122.523739,80.9964982 122.521284,81.0666293 122.517778,81.1367605 L122.514973,81.1924201 C122.511467,81.2454823 122.50796,81.2989156 122.503402,81.3516067 L122.49674,81.4232221 C122.491831,81.4707183 122.486221,81.5193277 122.48061,81.567195 L122.471143,81.6417789 C122.462026,81.7111679 122.451507,81.7812991 122.439586,81.850317 C121.573157,86.8210937 114.388917,89.5866356 106.392948,88.0263104" id="Fill-1737" fill="#F6FBFF"></path>
                            <path d="M106.392948,88.0263104 C106.271277,88.0025623 106.151008,87.9780721 106.031089,87.9524686 L106.019869,87.9506133 L106.012856,87.9491291 L106.006895,87.9480159 C105.888029,87.9231546 105.768461,87.8964379 105.650646,87.8693502 L105.649945,87.8693502 L105.63662,87.8660107 C105.521611,87.8396651 105.406952,87.8129485 105.292994,87.7851187 L105.283878,87.7828923 L105.26319,87.7784395 C105.03247,87.7209245 104.803503,87.6608121 104.576639,87.5981023 L104.561912,87.5940206 L104.528602,87.585115 L104.238974,87.5023677 L104.206365,87.492349 L104.195845,87.4893804 C104.090303,87.45784 103.985111,87.4262995 103.88027,87.3936459 L103.854674,87.3854825 L103.809441,87.371382 L103.533138,87.2826977 L103.526125,87.2801002 L103.507191,87.2741632 L103.486503,87.267113 C103.387272,87.2348304 103.288392,87.2010635 103.190564,87.1672967 L103.176188,87.1621018 L103.163565,87.1580201 L103.137617,87.1487435 C103.041893,87.1153477 102.94722,87.0815808 102.852548,87.0470719 L102.830458,87.0389084 L102.824146,87.0370531 L102.761732,87.0140471 L102.556959,86.9372368 L102.488935,86.9120045 L102.488234,86.9116334 L102.420911,86.8849168 L102.205619,86.8003141 L102.111648,86.7628366 C102.026443,86.7286987 101.941939,86.6934476 101.857785,86.6581965 L101.819566,86.6422408 L101.819916,86.6585676 L101.819916,86.6752655 L101.819916,86.6915923 L101.818864,86.8251754 L101.818864,86.8411312 L101.817813,86.8578291 L101.815358,86.9405764 L101.814657,86.9572743 L101.81115,87.0392795 L101.8108,87.0403927 L101.809748,87.0570906 C101.806592,87.1064421 101.803436,87.1561647 101.798878,87.2062584 L101.798177,87.2225853 L101.795372,87.250044 C101.78906,87.319433 101.781346,87.3891931 101.771879,87.4585821 L101.769074,87.4793617 C101.759256,87.5539456 101.748386,87.6281585 101.735062,87.7023713 C100.869334,92.673148 93.6850947,95.4383188 85.6887754,93.8783647 C85.580428,93.857214 85.4724312,93.8349502 85.3647851,93.8126863 L85.2438147,93.7867118 L85.003627,93.7340207 L84.9187724,93.7147254 C84.8156846,93.6913483 84.7136487,93.6672291 84.6112622,93.6423678 L84.5011615,93.6152801 L84.2553637,93.5529414 L84.1726129,93.5310486 C84.0867064,93.5084136 84.0004492,93.4854077 83.9148934,93.4620306 L83.8342464,93.4390246 C83.7294054,93.4108237 83.6256163,93.3800254 83.5214766,93.3499692 L83.4555564,93.3303028 L83.191876,93.2501529 L83.1031644,93.2223231 L82.8720934,93.1484813 L82.7830311,93.1199094 C82.6841509,93.0872557 82.5859721,93.0534889 82.4881438,93.019351 L82.3959258,92.9874394 L82.175374,92.9087738 L82.0789483,92.8735227 L81.8524356,92.7889201 L81.724803,92.7403106 L81.5017967,92.6523684 L81.3776705,92.6026458 L81.1834166,92.5221249 L81.1006658,92.4876159 C81.0049414,92.4471699 80.909217,92.4059818 80.8148952,92.3647936 L80.8061292,92.3607119 L80.7801819,92.3492089 C80.6953273,92.3117314 80.6108233,92.2738829 80.5270206,92.2349211 L80.442166,92.1963305 L80.2068874,92.0857533 L80.1627069,92.0646026 C80.0708395,92.020446 79.9789721,91.9751762 79.887806,91.9299063 L79.8117174,91.8916867 C79.7436934,91.8568067 79.6760201,91.8226688 79.6086975,91.7877887 L79.521739,91.7425189 C79.4488061,91.7039282 79.3758732,91.6657086 79.3036416,91.6260047 L79.2584092,91.6011434 C79.1718014,91.5543893 79.0851936,91.506522 79.000339,91.4586547 L78.9133806,91.4093032 L78.7377105,91.3068895 L78.6553104,91.2586511 L78.4393168,91.1291497 L78.40811,91.1105965 L78.3912793,91.0998356 C78.315892,91.0538236 78.2426084,91.0074406 78.168273,90.9603154 L78.0620294,90.8920396 L77.9203713,90.8000157 L77.8281533,90.7391611 C77.7506621,90.6875832 77.6735216,90.6348921 77.5970823,90.582572 L77.5960304,90.5818299 C77.5202924,90.5298809 77.4459569,90.4771898 77.3716215,90.4241276 L77.2860656,90.3625309 L77.1384466,90.2541802 L77.0577997,90.1944388 C76.9880226,90.1421188 76.9189467,90.0894276 76.8505721,90.0367365 L76.8379491,90.0267178 L76.7976257,89.9944352 L76.634228,89.8645627 L76.5518278,89.7977711 L76.4154293,89.6857097 L76.3400419,89.6222578 C76.2751738,89.5677113 76.2110068,89.5120517 76.1478918,89.4567631 L76.0942441,89.4092669 L75.94382,89.2741995 L75.8733416,89.2096343 L75.734138,89.0797618 L75.6861005,89.0341209 C75.6268425,88.9773481 75.5679352,88.9198331 75.5104304,88.8623182 L75.4353937,88.7873632 L75.3259943,88.6760439 L75.2499057,88.595894 L75.1391038,88.4786377 L75.0591582,88.3918087 C75.0121726,88.3398597 74.9658882,88.2886528 74.9203052,88.2363328 L74.8628004,88.1699123 L74.7534011,88.0418951 L74.6944937,87.9713929 L74.58264,87.8340991 L74.4960322,87.7250062 L74.4006584,87.6014418 L74.3421017,87.5235184 L74.2558445,87.4051489 L74.1948334,87.3216594 C74.1517048,87.2600627 74.1099788,87.1992082 74.0682527,87.1379826 L74.0384484,87.0930838 C74.0047871,87.0433612 73.9725283,86.9932675 73.9402695,86.943916 L73.888375,86.8615397 L73.8196498,86.7498494 L73.7656514,86.6615361 L73.762145,86.6563412 C73.7295356,86.6010526 73.6983287,86.5461351 73.6664206,86.4912176 L73.6643168,86.4867648 L73.6131235,86.3936277 L73.5535149,86.2826795 L73.5033735,86.187316 L73.4500764,86.0815627 L73.4051946,85.9917651 C73.4269342,86.4233129 73.4023895,86.8537474 73.3280541,87.2826977 C72.4616255,92.2538454 65.2773857,95.0186451 57.2817677,93.458691 C49.2854483,91.8987369 43.5055173,86.6047633 44.3712446,81.6332445 C44.4459307,81.2046652 44.5686543,80.7924129 44.7338052,80.3979716 L44.661223,80.4655053 L44.5760177,80.5434287 L44.4978253,80.613931 L44.4052566,80.695194 L44.3253109,80.7627277 L44.3214539,80.7656962 C44.273767,80.8054001 44.2257295,80.8447329 44.1766401,80.8836947 L44.1717311,80.8877764 L44.0917855,80.9501152 L43.9890483,81.0284097 L43.9140116,81.0851826 C43.8663247,81.1196915 43.8193391,81.1545716 43.7713015,81.1883384 L43.728173,81.2191367 C43.668915,81.2603249 43.6089557,81.301513 43.5482952,81.341959 L43.4634406,81.3976187 L43.3424702,81.4755421 L43.2614726,81.5260069 L43.1306843,81.6054146 L43.0132203,81.6751747 L42.8627962,81.7612616 L42.7839025,81.8046761 L42.638738,81.8837128 L42.5622987,81.9234167 C42.5019888,81.9545861 42.441679,81.9857555 42.3799665,82.0158117 L42.2758268,82.0666475 L42.1331168,82.1356654 L42.0352885,82.1809353 L41.895033,82.2440162 L41.8000098,82.2855754 C41.7267263,82.3174869 41.6523909,82.3490274 41.5777048,82.3798257 L41.5177455,82.404316 L41.3438287,82.4729629 L41.256169,82.5067297 L41.0703304,82.5761187 L41.0040596,82.6002379 C40.9258671,82.6284388 40.8476747,82.6558975 40.7691316,82.6822431 L40.6769135,82.7134125 L40.5121133,82.7668457 L40.4121812,82.7980151 L40.2165247,82.8573854 L40.1681365,82.872228 L40.1520072,82.8766808 C40.0706589,82.9004289 39.9879082,82.9234348 39.905508,82.9456987 L39.8097836,82.9716732 L39.6351655,83.016572 L39.5341815,83.0421754 C39.447223,83.0636971 39.359914,83.0844767 39.2719036,83.1048853 L39.2712023,83.1052563 C39.1817894,83.1252938 39.0923765,83.1449602 39.0019117,83.1642555 L38.8956681,83.1861483 L38.7322704,83.218802 L38.6098974,83.2425501 C38.5243415,83.2588769 38.4401882,83.2740906 38.3546323,83.2889331 L38.3346459,83.2922727 L38.299582,83.2978387 L38.0548361,83.3379136 L37.9608649,83.3520141 L37.7627539,83.380586 L37.664575,83.3935733 C37.5688506,83.4065605 37.4724249,83.4188056 37.375298,83.4303086 L37.324806,83.4358746 C37.244159,83.4458933 37.1631615,83.4540567 37.081112,83.4622201 L36.9857382,83.4718678 C36.9107015,83.4796602 36.8356648,83.4859683 36.7606281,83.4922763 L36.6764747,83.4993266 C36.576192,83.50749 36.4755587,83.5152823 36.3745747,83.5215904 L36.3258359,83.5245589 L36.0688176,83.5394015 L35.9765995,83.5434832 C35.8854334,83.547936 35.7939167,83.5516466 35.7016987,83.5542441 L35.6739982,83.5557283 L35.6641803,83.5557283 C35.5617938,83.5586968 35.4587059,83.5612943 35.3552675,83.5627786 L35.2662052,83.5642628 L35.0579257,83.5657471 L34.9250336,83.5657471 L34.6869498,83.5631496 L34.5519538,83.5609232 L34.3117662,83.5542441 L34.2100809,83.5509045 L33.9772567,83.5412568 L33.8801298,83.5360619 C33.7773926,83.5312381 33.6736035,83.5253011 33.5708663,83.5186219 L33.4775964,83.5115717 L33.2374087,83.4937606 L33.1451907,83.4859683 L32.8716924,83.461478 L32.8033178,83.4547989 C32.6956717,83.444038 32.5887268,83.4329061 32.4814313,83.4206609 L32.3979793,83.4106422 C32.3103196,83.4006235 32.2219586,83.3894915 32.1339482,83.3783596 L32.0494443,83.3675988 L31.7987375,83.3327187 L31.6868837,83.316763 C31.5830946,83.3015493 31.4796561,83.2855936 31.3755164,83.2688957 L31.2899605,83.2544242 L31.0473184,83.213236 L30.925296,83.1920854 C30.8172993,83.1716768 30.7089519,83.1516394 30.6002538,83.1304887 C22.6042851,81.5705346 16.8243541,76.2761899 17.6904321,71.3050421 C17.7514432,70.9529021 17.8454144,70.6122652 17.9684887,70.2835022 L17.9274639,70.2838733 C17.8369991,70.2846154 17.7461836,70.2853576 17.6550175,70.2849865 L17.5550855,70.2849865 L17.3247157,70.2835022 L17.2524841,70.2816469 L17.2524841,70.282018 L17.1802525,70.2809048 L16.963207,70.2749678 L16.8969363,70.2727414 L16.8902742,70.2723703 L16.8667814,70.2716282 C16.7671999,70.2682886 16.6669172,70.2638358 16.5666345,70.2586409 L16.538934,70.2578988 L16.5259604,70.2567856 L16.5108829,70.2560435 C16.4074444,70.2508486 16.3047073,70.2449116 16.2005675,70.2374903 L16.1788279,70.2367481 L16.1591921,70.2352639 L16.1521794,70.2345218 L15.8639542,70.2133711 L15.8169686,70.2096605 L15.7899694,70.2074341 C15.6812714,70.1981575 15.5722227,70.1885098 15.463174,70.17812 L15.4526548,70.1762647 L15.4186428,70.1732962 L15.1198985,70.1417557 L15.0862372,70.137674 L15.0704585,70.1358187 C14.8376342,70.1083599 14.6034075,70.0786748 14.3684794,70.0445369 L14.3477917,70.0415683 L14.3383245,70.0400841 C14.2226137,70.0226441 14.1062016,70.004833 13.9904907,69.9862798 L13.9768158,69.9840534 L13.9764652,69.9840534 C13.8565467,69.964387 13.7362776,69.9443495 13.6163591,69.9220857 L13.6107489,69.9213435 L13.6033854,69.9202303 L13.5925156,69.918375 C13.4715452,69.8964822 13.3509255,69.8742184 13.2292538,69.8500992 C5.23328507,68.2901451 -0.546996631,62.9958004 0.319081368,58.0246526 C0.331353728,57.9556347 0.344678005,57.8866167 0.359404837,57.8179698 L0.376235503,57.7452412 C0.386754669,57.6981161 0.397624474,57.6506198 0.409896834,57.6038657 L0.427078139,57.5348478 C0.441103693,57.4832699 0.455129248,57.4324341 0.470557358,57.3812272 L0.485985468,57.3285361 C0.506322522,57.2613734 0.528062132,57.1956951 0.550503019,57.1303878 L0.569437518,57.0773256 C0.586969461,57.0283451 0.604852044,56.9797357 0.624137181,56.9314973 L0.650435096,56.8647058 C0.669018956,56.8186938 0.687602816,56.773795 0.707238592,56.7285252 L0.734939063,56.6643311 C0.759133144,56.6090425 0.785431059,56.554125 0.811378335,56.4999496 L0.822598779,56.4754594 L0.823650696,56.4739751 L0.830663473,56.4606168 C0.859766499,56.4016176 0.889570803,56.3433605 0.920427023,56.2851034 L0.949530049,56.2324123 C0.974776047,56.1871424 0.999671406,56.1411305 1.02596932,56.0962317 L1.06103321,56.0376035 C1.0880324,55.9912205 1.11608351,55.9455796 1.1448359,55.8999387 L1.17393892,55.8535557 C1.21285984,55.7930722 1.25283267,55.7337019 1.29350678,55.6739606 L1.31349319,55.6453886 C1.34890772,55.595666 1.38467288,55.5459434 1.42148996,55.4962208 L1.45865768,55.4457561 C1.48881262,55.4064233 1.51966884,55.3667194 1.5508757,55.3270155 L1.60241962,55.2628214 C1.64134053,55.2149541 1.68061208,55.1678289 1.72163683,55.1207038 L1.7367143,55.1014084 L1.73881814,55.0991821 C1.78685566,55.0435224 1.8359451,54.9882339 1.88573582,54.9340585 L1.92991632,54.8873044 L2.03686117,54.775614 L2.09296339,54.7173569 L2.20236272,54.6101194 L2.25916621,54.5555729 C2.31035949,54.5069635 2.36260468,54.4590962 2.41590179,54.4112289 L2.47515975,54.3592799 L2.5838578,54.2650296 L2.66450474,54.1971249 L2.76233298,54.1177171 L2.8436812,54.0531519 C2.89066681,54.0156745 2.9383537,53.9793102 2.98674186,53.9425748 L3.01829936,53.9188267 L3.02250702,53.9154871 C3.08421946,53.8698462 3.14698382,53.8245764 3.21044946,53.7796776 L3.2704087,53.7377473 L3.40540466,53.6453523 L3.48184394,53.5945165 L3.63086546,53.498782 L3.68030554,53.4676126 C3.74903075,53.4249402 3.81810661,53.3826388 3.88893566,53.3410796 L3.94153149,53.3102813 L4.10072154,53.2197416 L4.18662806,53.1722454 L4.31636444,53.1017432 L4.40753054,53.0535049 L4.55935717,52.9763235 L4.67822375,52.9176953 L4.84547849,52.8375455 L4.94225481,52.7933888 L5.08496483,52.7288236 L5.18068924,52.6872644 L5.32620437,52.6256678 L5.42788964,52.5829954 L5.43735689,52.5792847 C5.50713403,52.5510839 5.5772618,52.522883 5.64774021,52.4961663 L5.65089596,52.4946821 L5.74486718,52.4590599 L5.898447,52.401916 L6.01205399,52.36147 L6.1519589,52.3121185 L6.2620595,52.274641 L6.43632702,52.2186103 L6.56886851,52.17668 L6.75996669,52.118794 L6.88549541,52.0820586 L7.02469904,52.043468 L7.16355203,52.0059905 L7.2824186,51.9748211 L7.42863501,51.9373436 L7.43705034,51.9354883 C7.51559345,51.916564 7.59448719,51.8976397 7.67338094,51.8790865 L7.81433776,51.847546 L7.94056775,51.8200873 L8.09800461,51.7874336 L8.21371543,51.7636855 L8.37781442,51.7321451 L8.48581119,51.7132208 L8.64570251,51.6846488 L8.89430547,51.6445739 L8.90587655,51.6423475 L9.08365046,51.6160019 L9.17902423,51.6022726 L9.35294111,51.5785245 L9.49565112,51.5610844 L9.64677648,51.5425312 L9.65484117,51.5417891 L9.91326201,51.5143303 L10.093841,51.4968903 L10.1937731,51.4879848 L10.3785598,51.4731422 L10.4974264,51.4646077 L10.6773041,51.4523626 L10.7726779,51.4467966 C10.9031155,51.4397464 11.0346051,51.4334383 11.166796,51.4289856 L11.233768,51.4260171 C5.94122494,49.0790357 2.58596164,45.0125426 3.26024017,41.1423424 C4.12666881,36.1708236 11.3105579,33.4060239 19.3065266,34.9656069 C19.4239906,34.9886129 19.5418053,35.0127321 19.6582174,35.0372223 L19.6796063,35.0416751 L19.7080081,35.0479832 C19.8082908,35.0691338 19.9078722,35.0906556 20.007103,35.1132905 L20.049881,35.1229382 L20.0691661,35.127762 C20.1778642,35.1522522 20.2858609,35.1782267 20.3931564,35.2038302 L20.4443497,35.2168174 C20.6694599,35.272106 20.8924662,35.329992 21.113018,35.3912176 L21.138264,35.3975257 L21.1463287,35.4004942 L21.1624581,35.404947 C21.269403,35.4346321 21.3752959,35.4650594 21.4808382,35.4962288 L21.4931106,35.4995684 C21.6098733,35.5348195 21.726636,35.5693285 21.8416456,35.6056928 L21.8493596,35.6079191 C21.9566551,35.6413149 22.0639506,35.676195 22.1705448,35.7107039 L22.2105177,35.7240622 C22.3129042,35.7578291 22.4149401,35.7927091 22.5159241,35.8275892 L22.5362612,35.8342683 L22.5716757,35.8468845 C22.6670495,35.8799092 22.7610207,35.9136761 22.8553426,35.9481851 L22.8756796,35.9552353 L22.8911077,35.9611723 C22.9920917,35.9982787 23.0934263,36.0357562 23.1937091,36.0743469 L23.2066827,36.0791707 L23.2105397,36.080655 L23.2333312,36.0895605 C23.3227442,36.1236984 23.4125077,36.1589495 23.5008687,36.1945717 L23.5885284,36.2298228 C23.6730324,36.2635897 23.7564844,36.2980986 23.8406378,36.3333497 L23.8946361,36.3563557 C23.988958,36.3960596 24.0825786,36.4365056 24.1758485,36.4776937 L24.2003932,36.4884546 C24.2926113,36.5289006 24.384128,36.5704598 24.4749435,36.612019 L24.5257861,36.635396 C24.6173029,36.6773263 24.7081183,36.7203698 24.7985831,36.7634132 L24.8196215,36.7730609 L24.8220759,36.7745451 L24.833647,36.7801111 C24.9262157,36.8242677 25.019135,36.8702797 25.111353,36.9159206 L25.1124049,36.9162917 L25.1264305,36.9233419 L25.1471182,36.9344738 C25.2312715,36.9764041 25.3147236,37.0187054 25.3974743,37.0617489 L25.4290318,37.0780757 L25.4497195,37.0892076 C25.5363273,37.1344775 25.6215326,37.1797473 25.7063872,37.2257593 L25.7411004,37.2446835 C25.8227993,37.2892113 25.9034462,37.33411 25.9837425,37.3790088 L26.045455,37.4138888 C24.7940248,35.7043958 24.2172239,33.8383137 24.5345521,32.0160172 C25.4009807,27.0448694 32.5848698,24.2800697 40.5811891,25.8400238 C46.4614029,26.9869834 51.1434837,30.1540168 52.8644192,33.7269945 C52.8430303,33.2954467 52.8672244,32.8642701 52.9422611,32.4353198 C53.8079884,27.464172 60.9925788,24.6993723 68.9881968,26.2589554 C76.9841655,27.8192805 82.7644472,33.1136252 81.8987199,38.084773 C81.8240338,38.5133522 81.7009596,38.9259757 81.5361593,39.320417 C84.3479324,36.6324275 89.7887956,35.4401981 95.6693601,36.5875288 C103.665679,38.1474829 109.445961,43.4421986 108.579883,48.4133464 C108.262204,50.236014 107.094577,51.7610881 105.349447,52.8861549 L105.418874,52.8772493 C105.508988,52.8653753 105.599803,52.8538723 105.690969,52.8431114 L105.72954,52.8379165 C105.824563,52.8275267 105.919235,52.817508 106.015661,52.8074893 L106.038453,52.8052629 L106.073867,52.8019233 C106.165384,52.7926467 106.257602,52.7841122 106.34982,52.7763199 L106.373313,52.7744645 L106.388741,52.7737224 L106.390143,52.7737224 C106.492179,52.765559 106.593514,52.7577666 106.69555,52.7514586 L106.707822,52.7507164 L106.711679,52.7503454 L106.733769,52.7488611 C106.83265,52.742553 106.932231,52.736616 107.031462,52.7314211 L107.086863,52.7288236 C107.185743,52.7247419 107.285324,52.7206602 107.385256,52.7173206 L107.411554,52.7169496 C107.512889,52.7139811 107.613522,52.7117547 107.715558,52.7095283 L107.773764,52.7087862 C107.863879,52.7073019 107.953642,52.7065598 108.044107,52.7065598 L108.138078,52.7065598 C108.2324,52.7069308 108.327774,52.7084151 108.423148,52.7098994 L108.446991,52.7102704 L108.451199,52.7102704 L108.465224,52.7110125 C108.572169,52.7128679 108.678763,52.7154653 108.786059,52.7188049 L108.802188,52.719176 L108.821123,52.7202892 C108.921405,52.7236287 109.021688,52.7277104 109.122321,52.7329053 L109.160541,52.7343896 L109.181579,52.7358739 C109.287472,52.7418109 109.394768,52.7477479 109.501362,52.7544271 L109.543088,52.7570245 C109.654942,52.7648169 109.766445,52.7733513 109.878299,52.7822569 L109.886364,52.7826279 C110.006282,52.7926467 110.126551,52.8034075 110.247171,52.8156527 L110.260145,52.8171369 C110.369895,52.8278978 110.478943,52.8394008 110.589044,52.852017 L110.605524,52.8538723 L110.613939,52.8546144 L110.638484,52.8575829 C110.866049,52.8839285 111.093613,52.9139847 111.323282,52.9470094 L111.375176,52.9540596 C111.484575,52.9707575 111.593274,52.9878265 111.703374,53.0052665 L111.72301,53.008235 L111.766489,53.0152852 C111.866421,53.0319831 111.966704,53.0494231 112.067337,53.0668632 L112.09609,53.0720581 L112.117829,53.0761398 C112.234943,53.0976615 112.352407,53.1191832 112.470221,53.1418181 C120.46619,54.7021433 126.246121,59.996488 125.380744,64.9676358 C125.368472,65.0366537 125.354797,65.1060428 125.340421,65.1739475 L125.32359,65.2474182 L125.29028,65.3884227 L125.272397,65.4570695 C125.258722,65.5082764 125.244696,65.5598543 125.229268,65.6110612 L125.21384,65.6641234 C125.193153,65.730915 125.172114,65.7965933 125.148621,65.8622717 L125.129687,65.9153339 C125.112856,65.9639433 125.094272,66.0121817 125.075689,66.0607911 L125.04904,66.1275826 C125.030456,66.1732235 125.012223,66.2184934 124.992587,66.2641343 L124.964887,66.3279573 C124.939991,66.3828748 124.914395,66.4381634 124.888097,66.4927099 L124.876526,66.516829 L124.876175,66.5183133 L124.868812,66.5320427 C124.839358,66.5910419 124.809904,66.6489279 124.779048,66.707185 L124.750296,66.7595051 C124.72505,66.805146 124.699804,66.8511579 124.673155,66.8964278 L124.638793,66.9550559 C124.611793,67.0010679 124.583742,67.0467088 124.554639,67.0919786 L124.525536,67.1383617 C124.486966,67.1988451 124.446642,67.2589575 124.405968,67.3183278 L124.385631,67.3465287 C124.350567,67.3969934 124.314802,67.446345 124.278336,67.4960676 L124.240467,67.5461613 L124.148599,67.6645308 L124.097406,67.7298381 C124.058135,67.7769632 124.018863,67.8244595 123.978189,67.8719557 L123.96241,67.89088 L123.960657,67.8934774 C123.913671,67.9480238 123.865283,68.0018282 123.816194,68.0548904 L123.766052,68.1086947 L123.663315,68.2170454 L123.606161,68.2749315 L123.496762,68.3825401 L123.44066,68.4370865 C123.389817,68.4853249 123.33687,68.5339343 123.284275,68.5814305 L123.224666,68.6330085 L123.116319,68.7272588 L123.035672,68.7951635 L122.938194,68.8742002 L122.856495,68.9391365 C122.816522,68.9706769 122.776199,69.0014753 122.735525,69.0322736 L122.646813,69.0990652 C122.59562,69.1369137 122.543375,69.1747623 122.490428,69.2118687 L122.421002,69.2604781 L122.303538,69.3402569 L122.208865,69.4029668 L122.0907,69.479406 L122.012507,69.5287576 C121.947639,69.5688325 121.883472,69.6081653 121.816851,69.6474981 L121.742165,69.6909126 L121.599104,69.7732889 L121.513548,69.820043 L121.389072,69.8868346 L121.28388,69.9424942 L121.179039,69.9959274 C121.101548,70.0348892 121.023355,70.0734799 120.944111,70.1116995 L120.863814,70.1499191 L120.735831,70.2085473 L120.628886,70.2567856 L120.505462,70.310961 L120.399218,70.3558598 L120.262469,70.4126326 C120.192692,70.4412045 120.122564,70.4694054 120.052086,70.4961221 L119.913934,70.548071 L119.81295,70.5862907 L119.682512,70.6326737 L119.554529,70.6779435 L119.426195,70.720987 L119.315043,70.7566092 C119.230889,70.784439 119.146035,70.8107845 119.060128,70.8371301 L118.941262,70.8731233 L118.792591,70.9157957 L118.69336,70.9436255 L118.517339,70.9911218 L118.454224,71.0078197 L118.262775,71.0564291 L118.026094,71.1128308 L117.839204,71.15439 L117.775738,71.1684905 L117.576224,71.2100497 L117.51346,71.2226659 L117.305181,71.2623697 L117.283441,71.2664514 C117.049565,71.309866 116.812182,71.3480856 116.571644,71.3825945 L116.544294,71.3866763 L116.327599,71.4159903 L116.244147,71.4263801 C116.008167,71.4556942 115.769032,71.4812976 115.527442,71.5024483 L115.526039,71.5024483 L115.292163,71.5213726 L115.233957,71.5254543 L115.002185,71.541039 L114.993419,71.54141 C114.8188,71.5517998 114.64313,71.5599633 114.466058,71.5666424 L114.557224,71.6067174 C114.664169,71.6549557 114.770062,71.7039362 114.875253,71.7536588 L114.981848,71.8037525 L115.133674,71.8764811 L115.255346,71.9365935 L115.412432,72.0141459 L115.526039,72.0727741 L115.670152,72.1469869 L115.901924,72.2701802 L115.913495,72.2764883 L116.032712,72.3417956 L116.176825,72.4219455 L116.319535,72.5028375 L116.420168,72.5603525 L116.567436,72.6468104 L116.578306,72.6527475 L116.797105,72.7855885 L116.914218,72.8583171 L117.036241,72.9336431 L117.171237,73.0208432 L117.275727,73.0883769 L117.405113,73.1740927 L117.538005,73.2646324 L117.638288,73.3325372 C117.71087,73.3830019 117.7824,73.4338377 117.85358,73.4843025 L117.958421,73.5599996 L118.080443,73.649426 L118.183531,73.7266074 L118.313618,73.8256816 L118.412148,73.9021208 C118.479821,73.9548119 118.546793,74.0078741 118.613064,74.0609363 L118.62183,74.0683576 L118.658647,74.0987849 C118.716502,74.145539 118.774007,74.1930352 118.83046,74.2409025 L118.904094,74.3032413 L119.038739,74.4186422 L119.115178,74.4861759 L119.264901,74.6201301 L119.317146,74.6676264 C119.380261,74.7258834 119.443026,74.7841405 119.505089,74.8431397 L119.568204,74.9039943 L119.701797,75.0342378 L119.768419,75.1014005 L119.887987,75.2234806 L119.953907,75.2913854 C120.011762,75.3514978 120.068916,75.4127234 120.124668,75.473949 L120.130278,75.479886 L120.162887,75.5155082 L120.295429,75.6643049 L120.358193,75.7362914 L120.467593,75.8643086 L120.524396,75.9329554 L120.643964,76.0791548 L120.682885,76.1281352 C120.734429,76.1930715 120.784921,76.2583788 120.835062,76.3240572 L120.870126,76.3719245 L120.977071,76.5177527 L121.031771,76.5941919 L121.127144,76.7318568 L121.16887,76.7934534 C121.2127,76.8591318 121.25653,76.9251812 121.298607,76.9908596 L121.301762,76.9956835 C121.343839,77.0617329 121.384513,77.1277823 121.424135,77.1942028 L121.466212,77.2650761 L121.544054,77.3997724 L121.586481,77.4754695 C121.616285,77.5289028 121.645038,77.5827071 121.67344,77.6365114 L121.695881,77.6773285 C121.731295,77.7456043 121.765307,77.8146223 121.799319,77.8832691 L121.825617,77.9385577 C121.849811,77.9893935 121.873304,78.0398583 121.896446,78.0906941 L121.929757,78.1660201 C121.950795,78.2146295 121.971483,78.2628679 121.991469,78.3111062 L122.016715,78.3715897 C122.045467,78.4409787 122.072817,78.5111099 122.098765,78.5804989 L122.099816,78.5842095 L122.106479,78.6023917 C122.129621,78.6654726 122.151711,78.7285535 122.1731,78.7916344 L122.19519,78.8591681 L122.243578,79.0113045 L122.261461,79.072159 C122.279344,79.1319003 122.296174,79.1916417 122.311953,79.2524962 L122.320719,79.2866341 C122.339653,79.3571363 122.356133,79.4283807 122.372263,79.499254 L122.383483,79.5538004 C122.395405,79.6068626 122.406275,79.6602958 122.416093,79.7141002 L122.428716,79.7820049 C122.438183,79.8339539 122.446598,79.8859029 122.455014,79.9378519 L122.463429,79.9983354 C122.472546,80.0640137 122.480961,80.1296921 122.488324,80.1961126 L122.490428,80.2109552 L122.490779,80.2128105 L122.493233,80.2395271 C122.499545,80.3003817 122.504454,80.3616073 122.509363,80.4228329 L122.513921,80.492964 C122.516726,80.5419445 122.51883,80.591296 122.520934,80.6410186 L122.523038,80.7137472 C122.52444,80.7664384 122.524791,80.8180163 122.52444,80.8707074 L122.52444,80.9267381 C122.523739,80.9964982 122.521284,81.0666293 122.517778,81.1367605 L122.514973,81.1924201 C122.511467,81.2454823 122.50796,81.2989156 122.503402,81.3516067 L122.49674,81.4232221 C122.491831,81.4707183 122.486221,81.5193277 122.48061,81.567195 L122.471143,81.6417789 C122.462026,81.7111679 122.451507,81.7812991 122.439586,81.850317 C121.573157,86.8210937 114.388917,89.5866356 106.392948,88.0263104 Z" id="Stroke-1738" stroke="#3395FF" stroke-width="1.2" stroke-linecap="round" stroke-linejoin="round"></path>
                            <path d="M10.8178752,51.2354756 C5.76622108,48.8632618 2.60380915,44.9099433 3.26020511,41.1421569 C4.12663375,36.1710091 11.3105228,33.4058383 19.3064915,34.9657925 C19.4239555,34.9887984 19.5417702,35.0129176 19.6581823,35.0370368 L19.6795713,35.0414896 L19.707973,35.0477977 L19.7984379,35.067093 C16.6072735,40.0241403 13.5987921,45.4316596 10.8178752,51.2354756" id="Fill-1739" fill="#E6F6FF"></path>
                            <path d="M10.8178752,51.2354756 C5.76622108,48.8632618 2.60380915,44.9099433 3.26020511,41.1421569 C4.12663375,36.1710091 11.3105228,33.4058383 19.3064915,34.9657925 C19.4239555,34.9887984 19.5417702,35.0129176 19.6581823,35.0370368 L19.6795713,35.0414896 L19.707973,35.0477977 L19.7984379,35.067093 C16.6072735,40.0241403 13.5987921,45.4316596 10.8178752,51.2354756 Z" id="Stroke-1740" stroke="#3395FF" stroke-width="1.2" stroke-linecap="round" stroke-linejoin="round"></path>
                            <path d="M111.976136,53.050759 L112.067302,53.0667147 L112.096055,53.0722807 L112.117794,53.0759913 C112.234908,53.0975131 112.352372,53.1194059 112.470186,53.1420408 C120.466155,54.702366 126.246086,59.9967107 125.380709,64.9678584 C125.368437,65.0368764 125.354762,65.1058943 125.340386,65.1737991 L125.323555,65.2472698 L125.290244,65.3882742 L125.272362,65.4569211 C125.258687,65.508499 125.244661,65.5597059 125.229233,65.6109128 L125.213805,65.663975 C125.193117,65.7307665 125.172079,65.7964449 125.148586,65.8621233 L125.129652,65.9151855 C125.112821,65.9637949 125.094237,66.0124043 125.075653,66.0610137 L125.049005,66.1278053 C125.030421,66.1730751 125.012188,66.218716 124.992552,66.2639859 L124.964852,66.3278089 C124.939956,66.3827264 124.91436,66.438015 124.888062,66.4925614 L124.876491,66.5170517 L124.87614,66.5181649 L124.869127,66.5318942 C124.839674,66.5908935 124.81022,66.6487795 124.779013,66.7074076 L124.750261,66.7597277 C124.725015,66.8049975 124.699769,66.8510095 124.67312,66.8962793 L124.638757,66.9552786 C124.611758,67.0012905 124.583707,67.0465604 124.554604,67.0918302 L124.525501,67.1382132 C124.486931,67.1986967 124.446607,67.2588091 124.405933,67.3181794 L124.385947,67.3463803 C124.350532,67.3972161 124.314767,67.4461966 124.278301,67.4962902 L124.240782,67.5460128 L124.148564,67.6647534 L124.097371,67.7300607 C124.058099,67.7771859 124.018828,67.824311 123.978154,67.8718072 L123.962726,67.8911026 L123.960622,67.893329 C123.913636,67.9478754 123.865248,68.0016797 123.816509,68.055113 L123.766017,68.1085462 L123.66328,68.216897 L123.606126,68.274783 L123.496727,68.3823917 L123.440624,68.4369381 C123.389782,68.4855475 123.336835,68.5337859 123.28424,68.5812821 L123.224631,68.6332311 L123.116283,68.7271103 L123.035637,68.7953862 L122.938159,68.8744229 L122.85646,68.938988 C122.816487,68.9705285 122.776164,69.0013268 122.73584,69.0321252 L122.647129,69.0992878 C122.595585,69.1367653 122.54334,69.1749849 122.490393,69.2117203 L122.420967,69.2603297 L122.303503,69.3401085 L122.209181,69.4028183 L122.090665,69.4792576 L122.012472,69.5289802 C121.947604,69.5690551 121.883437,69.6080169 121.816816,69.6473497 L121.74248,69.6907642 L121.599069,69.7731405 L121.513513,69.8198946 L121.389036,69.8870572 L121.283845,69.9423458 L121.179004,69.995779 C121.101513,70.0347408 121.02332,70.0733314 120.944076,70.1115511 L120.863779,70.1501417 L120.735796,70.2083988 L120.628851,70.2566372 L120.505427,70.3108126 L120.399183,70.3560824 L120.262434,70.4124842 C120.193007,70.4414272 120.122529,70.469257 120.05205,70.4959736 L119.913899,70.5482937 L119.813265,70.5861422 L119.682828,70.6328963 L119.554494,70.6777951 L119.42616,70.7212096 L119.315008,70.7564607 C119.230854,70.7842905 119.146,70.8106361 119.060093,70.8369817 L118.941227,70.873346 L118.792556,70.9160184 L118.693325,70.9434771 L118.517304,70.9913444 L118.45454,71.0076712 L118.26274,71.0562806 L118.026059,71.1130535 L117.839169,71.1542416 L117.775703,71.1687131 L117.576189,71.2099012 L117.513425,71.2228885 L117.305146,71.2625924 L117.283406,71.2666741 C117.04953,71.3100886 116.812147,71.3479371 116.571609,71.3824461 L116.544259,71.3868989 L116.327564,71.416213 L116.244112,71.4262317 C116.008132,71.4559168 115.768997,71.4811492 115.527407,71.5022999 L115.526004,71.5022999 L115.292128,71.5212241 L115.233922,71.5253059 L115.00215,71.5412616 L114.993384,71.5416327 L114.918347,71.5460855 C114.276327,65.0743539 113.287876,58.8853732 111.976136,53.050759" id="Fill-1741" fill="#E6F6FF"></path>
                            <path d="M111.976136,53.050759 L112.067302,53.0667147 L112.096055,53.0722807 L112.117794,53.0759913 C112.234908,53.0975131 112.352372,53.1194059 112.470186,53.1420408 C120.466155,54.702366 126.246086,59.9967107 125.380709,64.9678584 C125.368437,65.0368764 125.354762,65.1058943 125.340386,65.1737991 L125.323555,65.2472698 L125.290244,65.3882742 L125.272362,65.4569211 C125.258687,65.508499 125.244661,65.5597059 125.229233,65.6109128 L125.213805,65.663975 C125.193117,65.7307665 125.172079,65.7964449 125.148586,65.8621233 L125.129652,65.9151855 C125.112821,65.9637949 125.094237,66.0124043 125.075653,66.0610137 L125.049005,66.1278053 C125.030421,66.1730751 125.012188,66.218716 124.992552,66.2639859 L124.964852,66.3278089 C124.939956,66.3827264 124.91436,66.438015 124.888062,66.4925614 L124.876491,66.5170517 L124.87614,66.5181649 L124.869127,66.5318942 C124.839674,66.5908935 124.81022,66.6487795 124.779013,66.7074076 L124.750261,66.7597277 C124.725015,66.8049975 124.699769,66.8510095 124.67312,66.8962793 L124.638757,66.9552786 C124.611758,67.0012905 124.583707,67.0465604 124.554604,67.0918302 L124.525501,67.1382132 C124.486931,67.1986967 124.446607,67.2588091 124.405933,67.3181794 L124.385947,67.3463803 C124.350532,67.3972161 124.314767,67.4461966 124.278301,67.4962902 L124.240782,67.5460128 L124.148564,67.6647534 L124.097371,67.7300607 C124.058099,67.7771859 124.018828,67.824311 123.978154,67.8718072 L123.962726,67.8911026 L123.960622,67.893329 C123.913636,67.9478754 123.865248,68.0016797 123.816509,68.055113 L123.766017,68.1085462 L123.66328,68.216897 L123.606126,68.274783 L123.496727,68.3823917 L123.440624,68.4369381 C123.389782,68.4855475 123.336835,68.5337859 123.28424,68.5812821 L123.224631,68.6332311 L123.116283,68.7271103 L123.035637,68.7953862 L122.938159,68.8744229 L122.85646,68.938988 C122.816487,68.9705285 122.776164,69.0013268 122.73584,69.0321252 L122.647129,69.0992878 C122.595585,69.1367653 122.54334,69.1749849 122.490393,69.2117203 L122.420967,69.2603297 L122.303503,69.3401085 L122.209181,69.4028183 L122.090665,69.4792576 L122.012472,69.5289802 C121.947604,69.5690551 121.883437,69.6080169 121.816816,69.6473497 L121.74248,69.6907642 L121.599069,69.7731405 L121.513513,69.8198946 L121.389036,69.8870572 L121.283845,69.9423458 L121.179004,69.995779 C121.101513,70.0347408 121.02332,70.0733314 120.944076,70.1115511 L120.863779,70.1501417 L120.735796,70.2083988 L120.628851,70.2566372 L120.505427,70.3108126 L120.399183,70.3560824 L120.262434,70.4124842 C120.193007,70.4414272 120.122529,70.469257 120.05205,70.4959736 L119.913899,70.5482937 L119.813265,70.5861422 L119.682828,70.6328963 L119.554494,70.6777951 L119.42616,70.7212096 L119.315008,70.7564607 C119.230854,70.7842905 119.146,70.8106361 119.060093,70.8369817 L118.941227,70.873346 L118.792556,70.9160184 L118.693325,70.9434771 L118.517304,70.9913444 L118.45454,71.0076712 L118.26274,71.0562806 L118.026059,71.1130535 L117.839169,71.1542416 L117.775703,71.1687131 L117.576189,71.2099012 L117.513425,71.2228885 L117.305146,71.2625924 L117.283406,71.2666741 C117.04953,71.3100886 116.812147,71.3479371 116.571609,71.3824461 L116.544259,71.3868989 L116.327564,71.416213 L116.244112,71.4262317 C116.008132,71.4559168 115.768997,71.4811492 115.527407,71.5022999 L115.526004,71.5022999 L115.292128,71.5212241 L115.233922,71.5253059 L115.00215,71.5412616 L114.993384,71.5416327 L114.918347,71.5460855 C114.276327,65.0743539 113.287876,58.8853732 111.976136,53.050759 Z" id="Stroke-1742" stroke="#3395FF" stroke-width="1.2" stroke-linecap="round" stroke-linejoin="round"></path>
                            <path d="M102.123324,86.7672523 C102.701878,67.9468735 101.233753,50.9532441 97.9840324,37.1604149 C97.2371716,36.9351789 96.4643636,36.7425965 95.6694653,36.5874916 C89.7889008,35.440161 84.3480376,36.6323904 81.5362645,39.3203799 C81.7010648,38.9259386 81.8237884,38.5133151 81.8984744,38.0847359 C82.7645524,33.1135881 76.9842707,27.8192434 68.988302,26.2589182 C60.9923333,24.6993352 53.8080936,27.4641349 52.9420156,32.4352827 C52.8673295,32.864233 52.8431355,33.2954096 52.8645244,33.7269573 C51.1435889,30.1539797 46.4615081,26.9869463 40.5809437,25.8399867 C39.7860454,25.6845108 38.9995624,25.5731915 38.2260531,25.5015761 C30.5425036,37.161528 23.4438198,52.4838841 17.6424997,70.2853205 L17.6551227,70.2853205 C17.7459382,70.2853205 17.8371043,70.2845783 17.9275691,70.2838362 L17.9685939,70.2834651 C17.8455196,70.6122281 17.7515484,70.952865 17.6901866,71.305005 C16.8244593,76.2761528 22.6043903,81.5704975 30.600359,83.1304516 C30.7090571,83.1516023 30.8174045,83.1720108 30.9250506,83.1920483 L31.0474236,83.2131989 L31.289715,83.2543871 L31.3756215,83.2688586 C31.4794106,83.2855565 31.5828491,83.3015122 31.6866382,83.3167258 L31.7988427,83.3326816 L32.0491988,83.3675617 L32.1340534,83.3783225 C32.2220638,83.3894544 32.3104248,83.4005864 32.3980845,83.4106051 L32.4815365,83.4206238 C32.588832,83.432869 32.6957769,83.4440009 32.803423,83.4547617 L32.8717976,83.4614409 L33.1449453,83.4859311 L33.2375139,83.4937235 L33.4777015,83.5115346 L33.5706208,83.5185848 C33.6737087,83.525264 33.7774978,83.531201 33.880235,83.5360248 L33.9770113,83.5412197 L34.2101861,83.5508674 L34.3118714,83.554207 L34.552059,83.5608861 L34.687055,83.5631125 L34.9251388,83.56571 L35.0580309,83.56571 L35.2663104,83.5642257 L35.3553727,83.5627414 C35.4588111,83.5612572 35.561899,83.5590308 35.6642855,83.5556912 L35.6737528,83.5556912 L35.7014532,83.554207 C35.7940219,83.5516095 35.8855386,83.5478989 35.9767047,83.5434461 L36.0685721,83.5393644 L36.325941,83.5245218 L36.3743292,83.5215533 C36.4753132,83.5152452 36.5762972,83.5074529 36.6765799,83.4992895 L36.7607332,83.4922392 C36.83577,83.4859311 36.9108067,83.4796231 36.9858434,83.4718307 L37.0812172,83.462183 C37.162916,83.4540196 37.2442642,83.4458562 37.3245605,83.4358375 L37.3754032,83.4302715 C37.4721795,83.4191396 37.5689558,83.4065234 37.6646802,83.3935361 L37.7625085,83.3805489 L37.9609701,83.351977 L38.0545907,83.3378765 L38.2996872,83.2978016 L38.3347511,83.2922356 L38.3547375,83.288896 C38.4402934,83.2740535 38.5244467,83.2588398 38.609652,83.242513 L38.7323756,83.2187649 L38.8957733,83.1861112 L39.0020169,83.1645895 C39.0921311,83.1449231 39.181544,83.1256278 39.2713075,83.1052192 L39.2720088,83.1048482 C39.3600192,83.0844396 39.4473282,83.0640311 39.5342867,83.0421383 L39.6352707,83.0165349 L39.8095382,82.9716361 L39.9056132,82.9456616 C39.9880134,82.9233977 40.0704135,82.9003918 40.1521124,82.8766436 L40.1682417,82.8721909 L40.2162793,82.8573483 L40.4122864,82.797978 L40.5122185,82.7668086 L40.6770187,82.7133754 L40.7692368,82.682206 C40.8477799,82.6558604 40.9259723,82.6284017 41.0041648,82.6005718 L41.0704355,82.5760816 L41.2562741,82.5066926 L41.3439339,82.4729257 L41.5175001,82.4042789 L41.57781,82.3797886 C41.6524961,82.3489903 41.7268315,82.3174498 41.800115,82.2855383 L41.8951382,82.2439791 L42.0353937,82.1808982 L42.1332219,82.1356283 L42.2755813,82.0666104 L42.3797211,82.0157746 C42.4417841,81.9857184 42.502094,81.954549 42.5624039,81.9233796 L42.6388432,81.8836757 L42.7840077,81.804639 L42.8625508,81.7612245 L43.0133255,81.6751376 L43.1307895,81.6053775 L43.2615778,81.5259698 L43.3422248,81.475505 L43.4635458,81.3975815 L43.5480498,81.3419219 C43.6090609,81.3014759 43.6690202,81.2602878 43.7282781,81.2190996 L43.7714067,81.1883013 C43.8194443,81.1545345 43.8664299,81.1196544 43.9137661,81.0851454 L43.9891535,81.0283726 L44.0918906,80.9500781 L44.1718363,80.8877393 L44.1763946,80.8840286 C44.2258347,80.8450669 44.2738722,80.805363 44.3212085,80.7656591 L44.3254161,80.7626906 L44.4053618,80.6951569 L44.4975798,80.6138939 L44.5761229,80.5437627 L44.6613282,80.4654682 L44.7339104,80.3979345 C44.5687595,80.7923758 44.4460359,81.2046281 44.3713498,81.6335784 C43.5052718,86.6047262 49.2855535,91.8986998 57.2815222,93.4586539 C65.2774909,95.018608 72.4617306,92.2538083 73.3281593,87.2826606 C73.4024947,86.8537103 73.4270394,86.4232757 73.4052998,85.991728 L73.4501816,86.0815256 L73.5034787,86.18765 L73.5536201,86.2826424 L73.612878,86.3935906 L73.664422,86.4867277 L73.6665258,86.4911805 C73.6984339,86.546098 73.7292901,86.6010155 73.7622502,86.6563041 L73.7657566,86.661499 L73.8194043,86.7498123 L73.8884802,86.8615026 L73.9403747,86.9438789 C73.9726335,86.9932304 74.0048923,87.0433241 74.038203,87.0930467 L74.0680073,87.1383166 C74.1097333,87.1995422 74.15181,87.2600256 74.1949386,87.3216223 L74.2555991,87.4051118 L74.3422069,87.5234813 L74.4007636,87.6014047 L74.4961373,87.7249691 L74.5827451,87.834062 L74.6942483,87.9713558 L74.7531556,88.0422291 L74.8629056,88.1698752 L74.9204104,88.2362957 C74.9659934,88.2886157 75.0122778,88.3398226 75.0589127,88.3917716 L75.139209,88.4786006 L75.2496603,88.5958569 L75.3260995,88.6760068 L75.4354989,88.7873261 L75.5105356,88.8622811 C75.5680404,88.919796 75.6269477,88.977311 75.6862057,89.0340838 L75.7342432,89.0797247 L75.8734468,89.2095972 L75.9439252,89.2741624 L76.0943493,89.4092298 L76.147997,89.4570971 C76.211112,89.5120146 76.2752789,89.5676742 76.3401471,89.6222206 L76.4155345,89.6856726 L76.5515824,89.797734 L76.6343331,89.8645256 L76.7973802,89.9943981 L76.8380543,90.0266807 L76.8506773,90.0366994 C76.9190519,90.0893905 76.9877771,90.1420817 77.0579049,90.1944017 L77.1385518,90.2541431 L77.2861708,90.3624938 L77.3717267,90.4240905 C77.4460621,90.4771527 77.5203976,90.5298438 77.5961356,90.5817928 L77.5971875,90.5825349 C77.6736267,90.634855 77.7507673,90.6875461 77.8282585,90.739124 L77.9204765,90.7999786 L78.0621346,90.8920025 L78.1683782,90.9602783 C78.2427136,91.0074035 78.3159971,91.0537865 78.3910339,91.0997985 L78.4082152,91.1105594 L78.439422,91.1291126 L78.6550649,91.258614 L78.7378157,91.3068523 L78.9134858,91.4092661 L79.0004442,91.4586176 C79.0852988,91.5064849 79.1719066,91.5543522 79.2585144,91.6011063 L79.3037468,91.6259676 C79.3759784,91.6656715 79.4489113,91.7038911 79.5218442,91.7424818 L79.6088026,91.7877516 C79.6757747,91.8226317 79.7437986,91.8567696 79.8118225,91.8916496 L79.8879112,91.9298692 C79.9790773,91.9751391 80.070594,92.0204089 80.1628121,92.0645655 L80.2069925,92.0857162 L80.4422712,92.1962934 L80.5271258,92.234884 C80.6105779,92.2738458 80.6954325,92.3116943 80.7802871,92.3491718 L80.8062344,92.3606748 L80.8146497,92.3647565 C80.9093222,92.4059447 81.004696,92.4471328 81.100771,92.4879499 L81.1835218,92.5220878 L81.3777757,92.6026087 L81.5015512,92.6523313 L81.7249082,92.7402735 L81.8521901,92.788883 L82.0790535,92.8734856 L82.1751285,92.9087367 L82.396031,92.9874023 L82.488249,93.0193139 C82.5860773,93.0534518 82.6842561,93.0872186 82.7831363,93.1198723 L82.8721986,93.1484442 L83.1032696,93.222286 L83.1919812,93.2501158 L83.4556616,93.3302657 L83.5215817,93.3499321 C83.6257215,93.3799883 83.7295106,93.4107866 83.8343516,93.4389875 L83.9146479,93.4619935 C84.0002038,93.4853706 84.0868116,93.5083765 84.1727181,93.5313825 L84.2554689,93.5529042 L84.5012667,93.615243 L84.6113673,93.6423307 C84.7137539,93.667192 84.8157898,93.6913112 84.9188776,93.7146883 L85.0037322,93.7339836 L85.2435692,93.7866747 L85.3648903,93.8126492 C85.4725364,93.8349131 85.5801825,93.8571769 85.6888806,93.8786987 C93.6851999,95.4382817 100.86944,92.673482 101.735167,87.7027053 C101.748491,87.6281214 101.759361,87.5539085 101.769179,87.4793246 L101.771984,87.458545 C101.781101,87.389156 101.789165,87.3193959 101.795126,87.2500069 L101.797931,87.2229192 L101.798983,87.2062213 C101.803542,87.1561276 101.806697,87.106405 101.809502,87.0570535 L101.810554,87.0403556 L101.810905,87.0392424 L101.814762,86.9572372 L101.815463,86.9405393 L101.817918,86.857792 L101.81897,86.8410941 L101.81897,86.8251383 L101.820022,86.6915552 L101.820022,86.6752284 L101.820022,86.6585305 L101.819671,86.6422037 L101.857891,86.6581594 C101.941693,86.6934105 102.026548,86.7286616 102.111753,86.7627995 L102.123324,86.7672523 Z" id="Fill-1743" fill="#E6F6FF"></path>
                            <path d="M102.123324,86.7672523 C102.701878,67.9468735 101.233753,50.9532441 97.9840324,37.1604149 C97.2371716,36.9351789 96.4643636,36.7425965 95.6694653,36.5874916 C89.7889008,35.440161 84.3480376,36.6323904 81.5362645,39.3203799 C81.7010648,38.9259386 81.8237884,38.5133151 81.8984744,38.0847359 C82.7645524,33.1135881 76.9842707,27.8192434 68.988302,26.2589182 C60.9923333,24.6993352 53.8080936,27.4641349 52.9420156,32.4352827 C52.8673295,32.864233 52.8431355,33.2954096 52.8645244,33.7269573 C51.1435889,30.1539797 46.4615081,26.9869463 40.5809437,25.8399867 C39.7860454,25.6845108 38.9995624,25.5731915 38.2260531,25.5015761 C30.5425036,37.161528 23.4438198,52.4838841 17.6424997,70.2853205 L17.6551227,70.2853205 C17.7459382,70.2853205 17.8371043,70.2845783 17.9275691,70.2838362 L17.9685939,70.2834651 C17.8455196,70.6122281 17.7515484,70.952865 17.6901866,71.305005 C16.8244593,76.2761528 22.6043903,81.5704975 30.600359,83.1304516 C30.7090571,83.1516023 30.8174045,83.1720108 30.9250506,83.1920483 L31.0474236,83.2131989 L31.289715,83.2543871 L31.3756215,83.2688586 C31.4794106,83.2855565 31.5828491,83.3015122 31.6866382,83.3167258 L31.7988427,83.3326816 L32.0491988,83.3675617 L32.1340534,83.3783225 C32.2220638,83.3894544 32.3104248,83.4005864 32.3980845,83.4106051 L32.4815365,83.4206238 C32.588832,83.432869 32.6957769,83.4440009 32.803423,83.4547617 L32.8717976,83.4614409 L33.1449453,83.4859311 L33.2375139,83.4937235 L33.4777015,83.5115346 L33.5706208,83.5185848 C33.6737087,83.525264 33.7774978,83.531201 33.880235,83.5360248 L33.9770113,83.5412197 L34.2101861,83.5508674 L34.3118714,83.554207 L34.552059,83.5608861 L34.687055,83.5631125 L34.9251388,83.56571 L35.0580309,83.56571 L35.2663104,83.5642257 L35.3553727,83.5627414 C35.4588111,83.5612572 35.561899,83.5590308 35.6642855,83.5556912 L35.6737528,83.5556912 L35.7014532,83.554207 C35.7940219,83.5516095 35.8855386,83.5478989 35.9767047,83.5434461 L36.0685721,83.5393644 L36.325941,83.5245218 L36.3743292,83.5215533 C36.4753132,83.5152452 36.5762972,83.5074529 36.6765799,83.4992895 L36.7607332,83.4922392 C36.83577,83.4859311 36.9108067,83.4796231 36.9858434,83.4718307 L37.0812172,83.462183 C37.162916,83.4540196 37.2442642,83.4458562 37.3245605,83.4358375 L37.3754032,83.4302715 C37.4721795,83.4191396 37.5689558,83.4065234 37.6646802,83.3935361 L37.7625085,83.3805489 L37.9609701,83.351977 L38.0545907,83.3378765 L38.2996872,83.2978016 L38.3347511,83.2922356 L38.3547375,83.288896 C38.4402934,83.2740535 38.5244467,83.2588398 38.609652,83.242513 L38.7323756,83.2187649 L38.8957733,83.1861112 L39.0020169,83.1645895 C39.0921311,83.1449231 39.181544,83.1256278 39.2713075,83.1052192 L39.2720088,83.1048482 C39.3600192,83.0844396 39.4473282,83.0640311 39.5342867,83.0421383 L39.6352707,83.0165349 L39.8095382,82.9716361 L39.9056132,82.9456616 C39.9880134,82.9233977 40.0704135,82.9003918 40.1521124,82.8766436 L40.1682417,82.8721909 L40.2162793,82.8573483 L40.4122864,82.797978 L40.5122185,82.7668086 L40.6770187,82.7133754 L40.7692368,82.682206 C40.8477799,82.6558604 40.9259723,82.6284017 41.0041648,82.6005718 L41.0704355,82.5760816 L41.2562741,82.5066926 L41.3439339,82.4729257 L41.5175001,82.4042789 L41.57781,82.3797886 C41.6524961,82.3489903 41.7268315,82.3174498 41.800115,82.2855383 L41.8951382,82.2439791 L42.0353937,82.1808982 L42.1332219,82.1356283 L42.2755813,82.0666104 L42.3797211,82.0157746 C42.4417841,81.9857184 42.502094,81.954549 42.5624039,81.9233796 L42.6388432,81.8836757 L42.7840077,81.804639 L42.8625508,81.7612245 L43.0133255,81.6751376 L43.1307895,81.6053775 L43.2615778,81.5259698 L43.3422248,81.475505 L43.4635458,81.3975815 L43.5480498,81.3419219 C43.6090609,81.3014759 43.6690202,81.2602878 43.7282781,81.2190996 L43.7714067,81.1883013 C43.8194443,81.1545345 43.8664299,81.1196544 43.9137661,81.0851454 L43.9891535,81.0283726 L44.0918906,80.9500781 L44.1718363,80.8877393 L44.1763946,80.8840286 C44.2258347,80.8450669 44.2738722,80.805363 44.3212085,80.7656591 L44.3254161,80.7626906 L44.4053618,80.6951569 L44.4975798,80.6138939 L44.5761229,80.5437627 L44.6613282,80.4654682 L44.7339104,80.3979345 C44.5687595,80.7923758 44.4460359,81.2046281 44.3713498,81.6335784 C43.5052718,86.6047262 49.2855535,91.8986998 57.2815222,93.4586539 C65.2774909,95.018608 72.4617306,92.2538083 73.3281593,87.2826606 C73.4024947,86.8537103 73.4270394,86.4232757 73.4052998,85.991728 L73.4501816,86.0815256 L73.5034787,86.18765 L73.5536201,86.2826424 L73.612878,86.3935906 L73.664422,86.4867277 L73.6665258,86.4911805 C73.6984339,86.546098 73.7292901,86.6010155 73.7622502,86.6563041 L73.7657566,86.661499 L73.8194043,86.7498123 L73.8884802,86.8615026 L73.9403747,86.9438789 C73.9726335,86.9932304 74.0048923,87.0433241 74.038203,87.0930467 L74.0680073,87.1383166 C74.1097333,87.1995422 74.15181,87.2600256 74.1949386,87.3216223 L74.2555991,87.4051118 L74.3422069,87.5234813 L74.4007636,87.6014047 L74.4961373,87.7249691 L74.5827451,87.834062 L74.6942483,87.9713558 L74.7531556,88.0422291 L74.8629056,88.1698752 L74.9204104,88.2362957 C74.9659934,88.2886157 75.0122778,88.3398226 75.0589127,88.3917716 L75.139209,88.4786006 L75.2496603,88.5958569 L75.3260995,88.6760068 L75.4354989,88.7873261 L75.5105356,88.8622811 C75.5680404,88.919796 75.6269477,88.977311 75.6862057,89.0340838 L75.7342432,89.0797247 L75.8734468,89.2095972 L75.9439252,89.2741624 L76.0943493,89.4092298 L76.147997,89.4570971 C76.211112,89.5120146 76.2752789,89.5676742 76.3401471,89.6222206 L76.4155345,89.6856726 L76.5515824,89.797734 L76.6343331,89.8645256 L76.7973802,89.9943981 L76.8380543,90.0266807 L76.8506773,90.0366994 C76.9190519,90.0893905 76.9877771,90.1420817 77.0579049,90.1944017 L77.1385518,90.2541431 L77.2861708,90.3624938 L77.3717267,90.4240905 C77.4460621,90.4771527 77.5203976,90.5298438 77.5961356,90.5817928 L77.5971875,90.5825349 C77.6736267,90.634855 77.7507673,90.6875461 77.8282585,90.739124 L77.9204765,90.7999786 L78.0621346,90.8920025 L78.1683782,90.9602783 C78.2427136,91.0074035 78.3159971,91.0537865 78.3910339,91.0997985 L78.4082152,91.1105594 L78.439422,91.1291126 L78.6550649,91.258614 L78.7378157,91.3068523 L78.9134858,91.4092661 L79.0004442,91.4586176 C79.0852988,91.5064849 79.1719066,91.5543522 79.2585144,91.6011063 L79.3037468,91.6259676 C79.3759784,91.6656715 79.4489113,91.7038911 79.5218442,91.7424818 L79.6088026,91.7877516 C79.6757747,91.8226317 79.7437986,91.8567696 79.8118225,91.8916496 L79.8879112,91.9298692 C79.9790773,91.9751391 80.070594,92.0204089 80.1628121,92.0645655 L80.2069925,92.0857162 L80.4422712,92.1962934 L80.5271258,92.234884 C80.6105779,92.2738458 80.6954325,92.3116943 80.7802871,92.3491718 L80.8062344,92.3606748 L80.8146497,92.3647565 C80.9093222,92.4059447 81.004696,92.4471328 81.100771,92.4879499 L81.1835218,92.5220878 L81.3777757,92.6026087 L81.5015512,92.6523313 L81.7249082,92.7402735 L81.8521901,92.788883 L82.0790535,92.8734856 L82.1751285,92.9087367 L82.396031,92.9874023 L82.488249,93.0193139 C82.5860773,93.0534518 82.6842561,93.0872186 82.7831363,93.1198723 L82.8721986,93.1484442 L83.1032696,93.222286 L83.1919812,93.2501158 L83.4556616,93.3302657 L83.5215817,93.3499321 C83.6257215,93.3799883 83.7295106,93.4107866 83.8343516,93.4389875 L83.9146479,93.4619935 C84.0002038,93.4853706 84.0868116,93.5083765 84.1727181,93.5313825 L84.2554689,93.5529042 L84.5012667,93.615243 L84.6113673,93.6423307 C84.7137539,93.667192 84.8157898,93.6913112 84.9188776,93.7146883 L85.0037322,93.7339836 L85.2435692,93.7866747 L85.3648903,93.8126492 C85.4725364,93.8349131 85.5801825,93.8571769 85.6888806,93.8786987 C93.6851999,95.4382817 100.86944,92.673482 101.735167,87.7027053 C101.748491,87.6281214 101.759361,87.5539085 101.769179,87.4793246 L101.771984,87.458545 C101.781101,87.389156 101.789165,87.3193959 101.795126,87.2500069 L101.797931,87.2229192 L101.798983,87.2062213 C101.803542,87.1561276 101.806697,87.106405 101.809502,87.0570535 L101.810554,87.0403556 L101.810905,87.0392424 L101.814762,86.9572372 L101.815463,86.9405393 L101.817918,86.857792 L101.81897,86.8410941 L101.81897,86.8251383 L101.820022,86.6915552 L101.820022,86.6752284 L101.820022,86.6585305 L101.819671,86.6422037 L101.857891,86.6581594 C101.941693,86.6934105 102.026548,86.7286616 102.111753,86.7627995 L102.123324,86.7672523 Z" id="Stroke-1744" stroke="#3395FF" stroke-width="1.2" stroke-linecap="round" stroke-linejoin="round"></path>
                            <path d="M78.6681788,30.8043069 C76.3339759,28.7055675 72.9313763,27.0283571 68.9884423,26.2587698 C65.0462095,25.4899247 61.3017371,25.7730467 58.4131741,26.8532148 C53.7047954,40.70393 48.8628233,59.3398898 44.6505986,80.4749674 L44.6614684,80.4653197 L44.7340507,80.397786 C44.6818055,80.5220926 44.6344692,80.6478833 44.59099,80.7751584 C44.4928111,81.2683028 44.3953335,81.7633025 44.2985572,82.2586732 C43.9935014,87.0409493 49.6202033,91.9638587 57.2816625,93.4588766 C64.9431217,94.9535234 71.8584214,92.4774116 73.1855895,87.894026 C73.2616782,87.3945735 73.3374161,86.8958632 73.4121022,86.3986371 C73.4142061,86.2628276 73.4121022,86.1277602 73.4050894,85.9915796 L73.4499712,86.0817482 L73.456984,86.0947355 C76.6442913,64.7596543 78.3999401,45.5225704 78.6681788,30.8043069" id="Fill-1745" fill="#F6FBFF"></path>
                            <path d="M78.6681788,30.8043069 C76.3339759,28.7055675 72.9313763,27.0283571 68.9884423,26.2587698 C65.0462095,25.4899247 61.3017371,25.7730467 58.4131741,26.8532148 C53.7047954,40.70393 48.8628233,59.3398898 44.6505986,80.4749674 L44.6614684,80.4653197 L44.7340507,80.397786 C44.6818055,80.5220926 44.6344692,80.6478833 44.59099,80.7751584 C44.4928111,81.2683028 44.3953335,81.7633025 44.2985572,82.2586732 C43.9935014,87.0409493 49.6202033,91.9638587 57.2816625,93.4588766 C64.9431217,94.9535234 71.8584214,92.4774116 73.1855895,87.894026 C73.2616782,87.3945735 73.3374161,86.8958632 73.4121022,86.3986371 C73.4142061,86.2628276 73.4121022,86.1277602 73.4050894,85.9915796 L73.4499712,86.0817482 L73.456984,86.0947355 C76.6442913,64.7596543 78.3999401,45.5225704 78.6681788,30.8043069 Z" id="Stroke-1746" stroke="#3395FF" stroke-width="1.2" stroke-linecap="round" stroke-linejoin="round"></path>
                            <path d="M25.3789957,37.4499563 C25.3600612,37.0607099 25.6430267,36.7289784 26.0111975,36.708941 C26.3793683,36.6892746 26.6931901,36.9887234 26.7114233,37.3779698 L32.6456355,148.76992 C32.6638687,149.159167 32.3812538,149.49164 32.013083,149.511307 C31.6449122,149.530973 31.331441,149.231895 31.3128572,148.842649 L25.3789957,37.4499563 Z" id="Fill-1747" fill="#3395FF"></path>
                            <path d="M10.5802473,51.5712145 C10.5041586,51.1897604 10.734879,50.8146145 11.0963877,50.7344646 C11.4564938,50.6539437 11.8113403,50.8981039 11.887429,51.2799291 L32.6326268,148.660494 C32.7083648,149.041948 32.4776444,149.416723 32.116837,149.496872 C31.7560296,149.577393 31.4015338,149.333233 31.3254451,148.951408 L10.5802473,51.5712145 Z" id="Fill-1748" fill="#3395FF"></path>
                            <path d="M104.809253,52.5864092 C104.96108,52.2305586 105.3566,52.071372 105.693214,52.2320428 C106.029476,52.3927136 106.17955,52.8116452 106.028074,53.1678669 L60.0403839,154.452398 C59.8889079,154.80862 59.4933873,154.966693 59.1567739,154.806765 C58.81981,154.646094 58.6700872,154.227162 58.8219138,153.870941 L104.809253,52.5864092 Z" id="Fill-1749" fill="#3395FF"></path>
                            <path d="M114.424437,71.4128363 C114.628158,71.0874129 115.043315,70.9979864 115.351175,71.2135748 C115.658686,71.4291631 115.742839,71.8685032 115.539469,72.1935555 L59.9884543,154.551955 C59.7854344,154.877749 59.3702779,154.966805 59.0620664,154.751587 C58.7545561,154.535999 58.6700521,154.09703 58.8737733,153.770865 L114.424437,71.4128363 Z" id="Fill-1750" fill="#3395FF"></path>
                            <path d="M52.2083389,33.5989031 C52.2749602,33.2152226 52.6234953,32.9614147 52.9860559,33.032288 C53.3482658,33.1035323 53.5877522,33.471257 53.5207801,33.8545663 L32.6353267,148.934153 C32.5683547,149.317463 32.220521,149.571271 31.8579604,149.500026 C31.4961011,149.429524 31.2559134,149.061057 31.3232361,148.678119 L52.2083389,33.5989031 Z" id="Fill-1751" fill="#3395FF"></path>
                            <path d="M80.8805698,39.1869451 C80.9499963,38.8043779 81.3002845,38.5531674 81.6621438,38.6270092 C82.0236525,38.7004799 82.261035,39.0711731 82.1916085,39.4537403 L60.0859319,154.294733 C60.016856,154.678043 59.6669184,154.928511 59.3054098,154.85504 C58.9431998,154.781569 58.7065186,154.410876 58.7762957,154.028309 L80.8805698,39.1869451 Z" id="Fill-1752" fill="#3395FF"></path>
                            <g id="Group" transform="translate(7.287449, 148.561404)">
                                <path d="M65.6385438,34.7312427 C65.6385438,53.912667 50.9450221,69.4624855 32.8190966,69.4624855 C14.6938723,69.4624855 0,53.912667 0,34.7312427 C0,15.5501895 14.6938723,0 32.8190966,0 C50.9450221,0 65.6385438,15.5501895 65.6385438,34.7312427 Z" id="Stroke-1754" stroke="#3395FF" stroke-width="1.2" stroke-linecap="round" stroke-linejoin="round"></path>
                                <path d="M59.9153811,34.7312427 C59.9153811,50.5678939 47.7839777,63.4056037 32.8194121,63.4056037 C17.8548466,63.4056037 5.72344314,50.5678939 5.72344314,34.7312427 C5.72344314,18.8949627 17.8548466,6.05725282 32.8194121,6.05725282 C47.7839777,6.05725282 59.9153811,18.8949627 59.9153811,34.7312427" id="Fill-1755" fill="url(#linearGradient-1)"></path>
                                <polygon id="Fill-1756" fill="#FFFFFF" points="18.4981988 25.2912198 23.1140088 51.5499525 29.0759215 25.0073556"></polygon>
                                <polygon id="Fill-1757" fill="#FFFFFF" points="31.4773419 25.0285063 23.4280761 51.651253 52.7088758 24.2221837"></polygon>
                            </g>
                        </g>
                    </g>
                </g>
            </g>
        </g>
    </g>
</svg>