<?xml version="1.0" encoding="UTF-8"?>
<svg width="60px" height="60px" viewBox="0 0 60 60" version="1.1" xmlns="http://www.w3.org/2000/svg" xmlns:xlink="http://www.w3.org/1999/xlink">
    <!-- Generator: Sketch 52.4 (67378) - http://www.bohemiancoding.com/sketch -->
    <title>dex</title>
    <desc>Created with Sketch.</desc>
    <g id="Page-1" stroke="none" stroke-width="1" fill="none" fill-rule="evenodd">
        <g id="首页" transform="translate(-1199.000000, -1462.000000)" fill="#007AFF" fill-rule="nonzero">
            <g id="Group-22" transform="translate(1199.000000, 1462.000000)">
                <path d="M42.5806452,19.3548387 L3.87096774,19.3548387 L3.87096774,38.7096774 L42.5806452,38.7096774 L42.5806452,19.3548387 Z M21.2903226,36.7741935 L5.80645161,36.7741935 L5.80645161,32.9032258 L21.2903226,32.9032258 L21.2903226,36.7741935 Z M21.2903226,30.9677419 L5.80645161,30.9677419 L5.80645161,27.0967742 L21.2903226,27.0967742 L21.2903226,30.9677419 Z M21.2903226,25.1612903 L5.80645161,25.1612903 L5.80645161,21.2903226 L21.2903226,21.2903226 L21.2903226,25.1612903 Z M30.9677419,36.7741935 L23.2258065,36.7741935 L23.2258065,32.9032258 L30.9677419,32.9032258 L30.9677419,36.7741935 Z M30.9677419,30.9677419 L23.2258065,30.9677419 L23.2258065,27.0967742 L30.9677419,27.0967742 L30.9677419,30.9677419 Z M30.9677419,25.1612903 L23.2258065,25.1612903 L23.2258065,21.2903226 L30.9677419,21.2903226 L30.9677419,25.1612903 Z M40.6451613,36.7741935 L32.9032258,36.7741935 L32.9032258,32.9032258 L40.6451613,32.9032258 L40.6451613,36.7741935 Z M40.6451613,30.9677419 L32.9032258,30.9677419 L32.9032258,27.0967742 L40.6451613,27.0967742 L40.6451613,30.9677419 Z M46.4516129,17.4193548 L60,17.4193548 L60,60 L54.1935484,60 L45.483871,60 L30,60 L29.0322581,60 L0,60 L0,0 L38.1425806,0 L46.4516129,8.30903226 L46.4516129,17.4193548 Z M46.4516129,31.0345161 L46.4516129,40.6451613 L50.3225806,40.6451613 L50.3225806,44.7241935 C52.136129,43.2735484 53.2258065,41.0951613 53.2258065,38.7096774 C53.2258065,34.7690323 50.2645161,31.5135484 46.4516129,31.0345161 Z M46.4516129,42.5806452 L46.4516129,44.516129 L44.516129,44.516129 L44.516129,42.5806452 L42.5806452,42.5806452 L42.5806452,44.516129 L40.6451613,44.516129 L40.6451613,42.5806452 L38.7096774,42.5806452 L38.7096774,44.516129 L36.7741935,44.516129 L36.7741935,42.5806452 L34.8387097,42.5806452 L34.8387097,44.516129 L32.9032258,44.516129 L32.9032258,42.5806452 L30.9677419,42.5806452 L30.9677419,44.516129 L29.0322581,44.516129 L29.0322581,42.5806452 L27.0967742,42.5806452 L27.0967742,46.4516129 L48.3870968,46.4516129 L48.3870968,42.5806452 L46.4516129,42.5806452 Z M38.7096774,3.30387097 L38.7096774,7.74193548 L43.1477419,7.74193548 L38.7096774,3.30387097 Z M40.6451613,25.1612903 L32.9032258,25.1612903 L32.9032258,21.2903226 L40.6451613,21.2903226 L40.6451613,25.1612903 Z M23.2258065,9.67741935 L23.2258065,15.483871 L3.87096774,15.483871 L3.87096774,9.67741935 L23.2258065,9.67741935 Z M21.2903226,13.5483871 L21.2903226,11.6129032 L5.80645161,11.6129032 L5.80645161,13.5483871 L21.2903226,13.5483871 Z M29.0322581,58.0645161 L29.0322581,54.1935484 L23.2258065,54.1935484 L23.2258065,46.4516129 L25.1612903,46.4516129 L25.1612903,40.6451613 L44.516129,40.6451613 L44.516129,9.67741935 L36.7741935,9.67741935 L36.7741935,1.93548387 L1.93548387,1.93548387 L1.93548387,58.0645161 L29.0322581,58.0645161 Z M29.0322581,52.2580645 L46.4516129,52.2580645 L46.4516129,48.3870968 L44.516129,48.3870968 L44.516129,50.3225806 L42.5806452,50.3225806 L42.5806452,48.3870968 L40.6451613,48.3870968 L40.6451613,50.3225806 L38.7096774,50.3225806 L38.7096774,48.3870968 L36.7741935,48.3870968 L36.7741935,50.3225806 L34.8387097,50.3225806 L34.8387097,48.3870968 L32.9032258,48.3870968 L32.9032258,50.3225806 L30.9677419,50.3225806 L30.9677419,48.3870968 L29.0322581,48.3870968 L29.0322581,50.3225806 L27.0967742,50.3225806 L27.0967742,48.3870968 L25.1612903,48.3870968 L25.1612903,52.2580645 L29.0322581,52.2580645 Z M52.2580645,58.0645161 L52.2580645,54.1935484 L50.3225806,54.1935484 L50.3225806,56.1290323 L48.3870968,56.1290323 L48.3870968,54.1935484 L46.4516129,54.1935484 L46.4516129,56.1290323 L44.516129,56.1290323 L44.516129,54.1935484 L42.5806452,54.1935484 L42.5806452,56.1290323 L40.6451613,56.1290323 L40.6451613,54.1935484 L38.7096774,54.1935484 L38.7096774,56.1290323 L36.7741935,56.1290323 L36.7741935,54.1935484 L34.8387097,54.1935484 L34.8387097,56.1290323 L32.9032258,56.1290323 L32.9032258,54.1935484 L30.9677419,54.1935484 L30.9677419,58.0645161 L45.483871,58.0645161 L52.2580645,58.0645161 Z M58.0645161,58.0645161 L58.0645161,19.3548387 L46.4516129,19.3548387 L46.4516129,29.0816129 C51.3348387,29.5683871 55.1612903,33.7006452 55.1612903,38.7096774 C55.1612903,42.1916129 53.313871,45.3241935 50.3225806,47.0554839 L50.3225806,48.3870968 L48.3870968,48.3870968 L48.3870968,52.2580645 L54.1935484,52.2580645 L54.1935484,58.0645161 L58.0645161,58.0645161 Z M3.87096774,40.6451613 L21.2903226,40.6451613 L21.2903226,42.5806452 L3.87096774,42.5806452 L3.87096774,40.6451613 Z M25.1612903,13.5483871 L38.7096774,13.5483871 L38.7096774,15.483871 L25.1612903,15.483871 L25.1612903,13.5483871 Z M40.6451613,13.5483871 L42.5806452,13.5483871 L42.5806452,15.483871 L40.6451613,15.483871 L40.6451613,13.5483871 Z" id="invoice"></path>
            </g>
        </g>
    </g>
</svg>