<svg xmlns="http://www.w3.org/2000/svg" width="60" height="60" viewBox="0 0 60 60">
  <g fill="#007AFF" fill-rule="evenodd" transform="translate(-1)">
    <path fill-rule="nonzero" d="M12 60C16.2677281 60.0030909 20.1515052 57.5356205 21.9619187 53.6709193 23.7723321 49.8062181 23.1821122 45.2429106 20.448 41.966L22.707 39.707 21.293 38.293 19.034 40.552C15.303654 37.4411982 9.9745762 37.1452836 5.92275057 39.8239545 1.87092495 42.5026254.0556083596 47.5217151 1.45648653 52.1725333 2.85736471 56.8233514 7.14278418 60.0048315 12 60zM12 40C16.9705627 40 21 44.0294373 21 49 21 53.9705627 16.9705627 58 12 58 7.02943725 58 3 53.9705627 3 49 3.00551113 44.0317218 7.03172183 40.0055111 12 40zM12 22C14.5715475 22.0014312 17.0616116 21.098013 19.034 19.448L21.293 21.707 22.707 20.293 20.448 18.034C23.7406877 14.0730732 23.8419888 8.35709695 20.6917195 4.28198507 17.5414502.206873202 11.9842385-1.134784 7.32167467 1.05410428 2.65911083 3.24299256.141288677 8.37555699 1.26406937 13.4024941 2.38685007 18.4294313 6.84920155 22.0029541 12 22zM12 2C16.9705627 2 21 6.02943725 21 11 21 15.9705627 16.9705627 20 12 20 7.02943725 20 3 15.9705627 3 11 3.00551113 6.03172183 7.03172183 2.00551113 12 2zM42 30C42.0036601 24.0491362 37.2741299 19.1743568 31.3258769 18.9980625 25.377624 18.8217682 20.3676916 23.4078895 20.0189115 29.3485246 19.6701315 35.2891597 24.1089834 40.4300277 30.037 40.951 30.356 40.982 30.677 41 31 41 31.323 41 31.644 40.982 31.963 40.951 37.6381773 40.4474967 41.9917603 35.697463 42 30zM36 37.232C34.7825751 38.2131138 33.3036039 38.8147174 31.747 38.962 31.5 38.983 31.252 39 31 39 30.748 39 30.5 38.983 30.253 38.962 28.6963961 38.8147174 27.2174249 38.2131138 26 37.232L26 37.166C26.6161956 35.3999554 27.6220619 33.7952859 28.943 32.471L29.586 31.828C29.9763819 31.4375001 29.9763819 30.8044999 29.586 30.414 29.0138788 29.8420515 28.8426566 28.9817685 29.1521832 28.2343456 29.4617098 27.4869226 30.1910205 26.9995729 31 26.9995729 31.8089795 26.9995729 32.5382902 27.4869226 32.8478168 28.2343456 33.1573434 28.9817685 32.9861212 29.8420515 32.414 30.414 32.0236181 30.8044999 32.0236181 31.4375001 32.414 31.828L33.057 32.471C34.3779381 33.7952859 35.3838044 35.3999554 36 37.166L36 37.232zM34.471 31.057L34.447 31.032C35.4361596 29.3518254 35.0698333 27.2032563 33.5798102 25.9457769 32.0897872 24.6882975 29.9102128 24.6882975 28.4201898 25.9457769 26.9301667 27.2032563 26.5638404 29.3518254 27.553 31.032L27.529 31.057C26.1300494 32.4697099 25.0376113 34.1558571 24.32 36.01 21.068735 32.4090938 21.2567586 26.8791807 24.7451021 23.5074291 28.2334456 20.1356775 33.7665544 20.1356775 37.2548979 23.5074291 40.7432414 26.8791807 40.931265 32.4090938 37.68 36.01 36.9623887 34.1558571 35.8699506 32.4697099 34.471 31.057z"/>
    <path fill-rule="nonzero" d="M12 16C14.7614237 16 17 13.7614237 17 11 17 8.23857625 14.7614237 6 12 6 9.23857625 6 7 8.23857625 7 11 7.00330612 13.7600532 9.23994685 15.9966939 12 16zM12 8C13.6568542 8 15 9.34314575 15 11 15 12.6568542 13.6568542 14 12 14 10.3431458 14 9 12.6568542 9 11 9 9.34314575 10.3431458 8 12 8zM8 54L16 54C16.5522847 54 17 53.5522847 17 53L17 45C17 44.4477153 16.5522847 44 16 44L8 44C7.44771525 44 7 44.4477153 7 45L7 53C7 53.5522847 7.44771525 54 8 54zM9 46L15 46 15 52 9 52 9 46zM50.868 6.5C50.6755182 6.20835395 50.3494377 6.03286648 50 6.03286648 49.6505623 6.03286648 49.3244818 6.20835395 49.132 6.5L45.132 13.5C44.9531898 13.8097067 44.9533777 14.1913257 45.1324927 14.5008562 45.3116076 14.8103867 45.6423818 15.0007066 46 15L54 15C54.3576182 15.0007066 54.6883924 14.8103867 54.8675073 14.5008562 55.0466223 14.1913257 55.0468102 13.8097067 54.868 13.5L50.868 6.5zM47.723 13L50 9.016 52.277 13 47.723 13zM50 60C54.8572158 60.0048315 59.1426353 56.8233514 60.5435135 52.1725333 61.9443916 47.5217151 60.1290751 42.5026254 56.0772494 39.8239545 52.0254238 37.1452836 46.696346 37.4411982 42.966 40.552L40.707 38.293 39.293 39.707 41.552 41.966C38.8178878 45.2429106 38.2276679 49.8062181 40.0380813 53.6709193 41.8484948 57.5356205 45.7322719 60.0030909 50 60zM50 40C54.9705627 40 59 44.0294373 59 49 59 53.9705627 54.9705627 58 50 58 45.0294373 58 41 53.9705627 41 49 41.0055111 44.0317218 45.0317218 40.0055111 50 40z"/>
    <path fill-rule="nonzero" d="M49.4,54.8 C49.7555556,55.0666667 50.2444444,55.0666667 50.6,54.8 L54.6,51.8 C54.8518058,51.6111456 55,51.3147573 55,51 L55,47 C55,46.6852427 54.8518058,46.3888544 54.6,46.2 L50.6,43.2 C50.2444444,42.9333333 49.7555556,42.9333333 49.4,43.2 L45.4,46.2 C45.1481942,46.3888544 45,46.6852427 45,47 L45,51 C45,51.3147573 45.1481942,51.6111456 45.4,51.8 L49.4,54.8 Z M47,47.5 L50,45.25 L53,47.5 L53,50.5 L50,52.75 L47,50.5 L47,47.5 Z"/>
    <rect width="2" height="2" x="9" y="25"/>
    <rect width="2" height="2" x="9" y="29"/>
    <rect width="2" height="2" x="9" y="33"/>
    <rect width="2" height="2" x="54" y="25"/>
    <rect width="2" height="2" x="54" y="29"/>
    <rect width="2" height="2" x="54" y="33"/>
    <rect width="2" height="2" x="26" y="5"/>
    <rect width="2" height="2" x="30" y="5"/>
    <rect width="2" height="2" x="34" y="5"/>
    <rect width="2" height="2" x="26" y="53"/>
    <rect width="2" height="2" x="30" y="53"/>
    <rect width="2" height="2" x="34" y="53"/>
    <path fill-rule="nonzero" d="M50,4.4408921e-16 C46.0119441,0.000376465904 42.3364605,2.15925136 40.394017,5.64228208 C38.4515736,9.12531281 38.5464579,13.3868756 40.642,16.78 L40.012,20.847 C39.9673399,21.1354591 40.050945,21.429032 40.2408766,21.6506829 C40.4308082,21.8723339 40.7081042,21.999934 41,22 C41.0702527,22.0001561 41.1403196,21.9927806 41.209,21.978 L45.546,21.048 C46.94677,21.6763344 48.4647605,22.0007904 50,22 C56.0751322,21.9999999 60.9999998,17.0751322 60.9999998,11 C60.9999998,4.92486782 56.0751322,9.05265241e-08 50,4.4408921e-16 Z M50,20 C48.6486006,19.9993706 47.3150169,19.6916205 46.1,19.1 C45.9645027,19.0339881 45.8157217,18.9997856 45.665,19 C45.5947737,19.000339 45.5247577,19.0077091 45.456,19.022 L42.213,19.722 L42.679,16.716 C42.7173238,16.4678907 42.6609228,16.2144431 42.521,16.006 C40.2243822,12.5746978 40.5571749,8.02080015 43.3282387,4.95983726 C46.0993025,1.89887436 50.5977477,1.11610667 54.2398933,3.06111663 C57.8820389,5.0061266 59.7335276,9.17994069 58.7309572,13.1853297 C57.7283869,17.1907187 54.1289573,20.0001387 50,20 Z"/>
  </g>
</svg>
