<?xml version="1.0" encoding="UTF-8"?>
<svg width="40px" height="40px" viewBox="0 0 40 40" version="1.1" xmlns="http://www.w3.org/2000/svg" xmlns:xlink="http://www.w3.org/1999/xlink">
    <!-- Generator: Sketch 52.4 (67378) - http://www.bohemiancoding.com/sketch -->
    <title>娱乐</title>
    <desc>Created with Sketch.</desc>
    <g id="Page-1" stroke="none" stroke-width="1" fill="none" fill-rule="evenodd">
        <g id="首页" transform="translate(-844.000000, -1855.000000)" fill="#007AFF" fill-rule="nonzero">
            <g id="Group-29" transform="translate(375.000000, 1810.000000)">
                <g id="iconfinder_thefreeforty_footage_1243679" transform="translate(469.000000, 45.000000)">
                    <path d="M32.8,36.1333333 C33.4666667,36.1333333 33.8666667,35.6 33.8666667,35.0666667 C33.8666667,34.5333333 33.3333333,34 32.8,34 C32.2666667,34 31.7333333,34.5333333 31.7333333,35.0666667 C31.7333333,35.6 32.2666667,36.1333333 32.8,36.1333333 Z M37.3333333,0 L2.4,0 C1.06666667,0 0,1.06666667 0,2.4 L0,37.2 C0,38.5333333 1.06666667,39.6 2.4,39.6 L37.2,39.6 C38.5333333,39.6 39.6,38.5333333 39.6,37.2 L39.6,2.4 C39.7333333,1.06666667 38.6666667,0 37.3333333,0 Z M37.7333333,37.3333333 C37.7333333,37.6 37.6,37.7333333 37.3333333,37.7333333 L2.4,37.7333333 C2.13333333,37.7333333 2,37.6 2,37.3333333 L2,32.4 L37.7333333,32.4 L37.7333333,37.3333333 Z M37.7333333,30.2666667 L2,30.2666667 L2,8.8 L37.7333333,8.8 L37.7333333,30.2666667 Z M37.7333333,6.8 L2,6.8 L2,2.4 C2,2.13333333 2.13333333,2 2.4,2 L37.2,2 C37.4666667,2 37.6,2.13333333 37.6,2.4 L37.6,6.8 L37.7333333,6.8 Z M13.2,36.1333333 C13.7333333,36.1333333 14.2666667,35.6 14.2666667,35.0666667 C14.2666667,34.5333333 13.7333333,34 13.2,34 C12.6666667,34 12.1333333,34.5333333 12.1333333,35.0666667 C12.1333333,35.6 12.6666667,36.1333333 13.2,36.1333333 Z M26.2666667,3.33333333 C25.6,3.33333333 25.2,3.86666667 25.2,4.4 C25.2,4.93333333 25.7333333,5.46666667 26.2666667,5.46666667 C26.8,5.46666667 27.3333333,4.93333333 27.3333333,4.4 C27.3333333,3.86666667 26.9333333,3.33333333 26.2666667,3.33333333 Z M26.2666667,36.1333333 C26.8,36.1333333 27.3333333,35.6 27.3333333,35.0666667 C27.3333333,34.5333333 26.8,34 26.2666667,34 C25.6,34 25.2,34.5333333 25.2,35.0666667 C25.2,35.6 25.7333333,36.1333333 26.2666667,36.1333333 Z M19.7333333,36.1333333 C20.4,36.1333333 20.8,35.6 20.8,35.0666667 C20.8,34.5333333 20.2666667,34 19.7333333,34 C19.2,34 18.6666667,34.5333333 18.6666667,35.0666667 C18.6666667,35.6 19.2,36.1333333 19.7333333,36.1333333 Z M6.66666667,36.1333333 C7.33333333,36.1333333 7.73333333,35.6 7.73333333,35.0666667 C7.73333333,34.5333333 7.2,34 6.66666667,34 C6.13333333,34 5.6,34.5333333 5.6,35.0666667 C5.6,35.6 6.13333333,36.1333333 6.66666667,36.1333333 Z M19.7333333,3.33333333 C19.2,3.33333333 18.6666667,3.86666667 18.6666667,4.4 C18.6666667,4.93333333 19.2,5.46666667 19.7333333,5.46666667 C20.4,5.46666667 20.8,4.93333333 20.8,4.4 C20.8,3.86666667 20.4,3.33333333 19.7333333,3.33333333 Z M13.2,3.33333333 C12.6666667,3.33333333 12.1333333,3.86666667 12.1333333,4.4 C12.1333333,4.93333333 12.6666667,5.46666667 13.2,5.46666667 C13.7333333,5.46666667 14.2666667,4.93333333 14.2666667,4.4 C14.2666667,3.86666667 13.8666667,3.33333333 13.2,3.33333333 Z M15.8666667,26.9333333 C16,27.0666667 16.1333333,27.0666667 16.2666667,27.0666667 C16.5333333,27.0666667 16.6666667,26.9333333 16.9333333,26.8 L25.4666667,20 C25.7333333,19.8666667 25.8666667,19.4666667 25.8666667,19.2 C25.8666667,18.9333333 25.7333333,18.6666667 25.4666667,18.4 L16.9333333,11.6 C16.6666667,11.3333333 16.2666667,11.3333333 15.8666667,11.4666667 C15.4666667,11.6 15.3333333,12 15.3333333,12.4 L15.3333333,26 C15.3333333,26.4 15.4666667,26.8 15.8666667,26.9333333 Z M17.3333333,14.5333333 L23.3333333,19.2 L17.3333333,23.8666667 L17.3333333,14.5333333 Z M32.8,3.33333333 C32.2666667,3.33333333 31.7333333,3.86666667 31.7333333,4.4 C31.7333333,4.93333333 32.2666667,5.46666667 32.8,5.46666667 C33.4666667,5.46666667 33.8666667,4.93333333 33.8666667,4.4 C33.8666667,3.86666667 33.4666667,3.33333333 32.8,3.33333333 Z M6.66666667,3.33333333 C6.13333333,3.33333333 5.6,3.86666667 5.6,4.4 C5.6,4.93333333 6.13333333,5.46666667 6.66666667,5.46666667 C7.33333333,5.46666667 7.73333333,4.93333333 7.73333333,4.4 C7.73333333,3.86666667 7.33333333,3.33333333 6.66666667,3.33333333 Z" id="Shape"></path>
                </g>
            </g>
        </g>
    </g>
</svg>