<?xml version="1.0" encoding="UTF-8"?>
<svg width="60px" height="60px" viewBox="0 0 60 60" version="1.1" xmlns="http://www.w3.org/2000/svg" xmlns:xlink="http://www.w3.org/1999/xlink">
    <!-- Generator: Sketch 52.4 (67378) - http://www.bohemiancoding.com/sketch -->
    <title>资产发行</title>
    <desc>Created with Sketch.</desc>
    <g id="Page-1" stroke="none" stroke-width="1" fill="none" fill-rule="evenodd">
        <g id="首页" transform="translate(-787.000000, -1462.000000)" fill="#007AFF" fill-rule="nonzero">
            <g id="Group-9" transform="translate(787.000000, 1462.000000)">
                <path d="M25.1612903,14.516129 C25.1612903,12.9154839 26.463871,11.6129032 28.0645161,11.6129032 L32.9032258,11.6129032 L32.9032258,9.67741935 L28.0645161,9.67741935 C25.3964516,9.67741935 23.2258065,11.8480645 23.2258065,14.516129 L22.0296774,14.516129 L0,25.5309677 L0,30.9677419 L1.93548387,30.9677419 L1.93548387,34.8387097 L3.87096774,34.8387097 L3.87096774,50.3225806 L1.93548387,50.3225806 L1.93548387,54.1935484 L0,54.1935484 L0,60 L48.3870968,60 L48.3870968,54.1935484 L46.4516129,54.1935484 L46.4516129,50.3225806 L44.516129,50.3225806 L44.516129,34.8387097 L46.4516129,34.8387097 L46.4516129,30.9677419 L48.3870968,30.9677419 L48.3870968,25.5309677 L26.3574194,14.516129 L25.1612903,14.516129 Z M3.87096774,52.2580645 L9.67741935,52.2580645 L9.67741935,54.1935484 L3.87096774,54.1935484 L3.87096774,52.2580645 Z M15.483871,34.8387097 L15.483871,50.3225806 L13.5483871,50.3225806 L13.5483871,54.1935484 L11.6129032,54.1935484 L11.6129032,50.3225806 L9.67741935,50.3225806 L9.67741935,34.8387097 L11.6129032,34.8387097 L11.6129032,30.9677419 L13.5483871,30.9677419 L13.5483871,34.8387097 L15.483871,34.8387097 Z M27.0967742,34.8387097 L27.0967742,50.3225806 L25.1612903,50.3225806 L25.1612903,54.1935484 L23.2258065,54.1935484 L23.2258065,50.3225806 L21.2903226,50.3225806 L21.2903226,34.8387097 L23.2258065,34.8387097 L23.2258065,30.9677419 L25.1612903,30.9677419 L25.1612903,34.8387097 L27.0967742,34.8387097 Z M38.7096774,34.8387097 L38.7096774,50.3225806 L36.7741935,50.3225806 L36.7741935,54.1935484 L34.8387097,54.1935484 L34.8387097,50.3225806 L32.9032258,50.3225806 L32.9032258,34.8387097 L34.8387097,34.8387097 L34.8387097,30.9677419 L36.7741935,30.9677419 L36.7741935,34.8387097 L38.7096774,34.8387097 Z M44.516129,52.2580645 L44.516129,54.1935484 L38.7096774,54.1935484 L38.7096774,52.2580645 L44.516129,52.2580645 Z M40.6451613,50.3225806 L40.6451613,34.8387097 L42.5806452,34.8387097 L42.5806452,50.3225806 L40.6451613,50.3225806 Z M32.9032258,32.9032258 L27.0967742,32.9032258 L27.0967742,30.9677419 L32.9032258,30.9677419 L32.9032258,32.9032258 Z M30.9677419,34.8387097 L30.9677419,50.3225806 L29.0322581,50.3225806 L29.0322581,34.8387097 L30.9677419,34.8387097 Z M32.9032258,52.2580645 L32.9032258,54.1935484 L27.0967742,54.1935484 L27.0967742,52.2580645 L32.9032258,52.2580645 Z M21.2903226,32.9032258 L15.483871,32.9032258 L15.483871,30.9677419 L21.2903226,30.9677419 L21.2903226,32.9032258 Z M19.3548387,34.8387097 L19.3548387,50.3225806 L17.4193548,50.3225806 L17.4193548,34.8387097 L19.3548387,34.8387097 Z M21.2903226,52.2580645 L21.2903226,54.1935484 L15.483871,54.1935484 L15.483871,52.2580645 L21.2903226,52.2580645 Z M9.67741935,32.9032258 L3.87096774,32.9032258 L3.87096774,30.9677419 L9.67741935,30.9677419 L9.67741935,32.9032258 Z M7.74193548,34.8387097 L7.74193548,50.3225806 L5.80645161,50.3225806 L5.80645161,34.8387097 L7.74193548,34.8387097 Z M46.4516129,56.1290323 L46.4516129,58.0645161 L1.93548387,58.0645161 L1.93548387,56.1290323 L46.4516129,56.1290323 Z M44.516129,32.9032258 L38.7096774,32.9032258 L38.7096774,30.9677419 L44.516129,30.9677419 L44.516129,32.9032258 Z M46.4516129,29.0322581 L36.7741935,29.0322581 L34.8387097,29.0322581 L25.1612903,29.0322581 L23.2258065,29.0322581 L13.5483871,29.0322581 L11.6129032,29.0322581 L1.93548387,29.0322581 L1.93548387,26.7270968 L22.4864516,16.4516129 L23.2258065,16.4516129 L23.2258065,23.2258065 L25.1612903,23.2258065 L25.1612903,16.4516129 L25.9006452,16.4516129 L46.4516129,26.7270968 L46.4516129,29.0322581 Z M7.74193548,25.1612903 L7.74193548,27.0967742 L40.6451613,27.0967742 L40.6451613,25.1612903 L7.74193548,25.1612903 Z M49.3548387,0 C55.2241935,0 60,4.77580645 60,10.6451613 C60,16.5145161 55.2241935,21.2903226 49.3548387,21.2903226 C43.4854839,21.2903226 38.7096774,16.5145161 38.7096774,10.6451613 C38.7096774,4.77580645 43.4854839,0 49.3548387,0 Z M49.3548387,19.3548387 C54.1577419,19.3548387 58.0645161,15.4480645 58.0645161,10.6451613 C58.0645161,5.84225806 54.1577419,1.93548387 49.3548387,1.93548387 C44.5519355,1.93548387 40.6451613,5.84225806 40.6451613,10.6451613 C40.6451613,15.4480645 44.5519355,19.3548387 49.3548387,19.3548387 Z M34.8387097,9.67741935 L36.7741935,9.67741935 L36.7741935,11.6129032 L34.8387097,11.6129032 L34.8387097,9.67741935 Z M54.1935484,37.7419355 L54.1935484,22.2580645 L56.1290323,22.2580645 L56.1290323,37.7419355 C56.1290323,40.41 53.9583871,42.5806452 51.2903226,42.5806452 L50.3225806,42.5806452 L50.3225806,40.6451613 L51.2903226,40.6451613 C52.8909677,40.6451613 54.1935484,39.3425806 54.1935484,37.7419355 Z M46.4516129,40.6451613 L48.3870968,40.6451613 L48.3870968,42.5806452 L46.4516129,42.5806452 L46.4516129,40.6451613 Z M53.5158773,6.45677419 L53.5158773,8.38422388 L50.3568712,8.38422388 L50.3568712,16.9354839 L48.1515159,16.9354839 L48.1515159,8.38422388 L44.9925098,8.38422388 L44.9925098,6.45677419 L53.5158773,6.45677419 Z" id="bank"></path>
            </g>
        </g>
    </g>
</svg>