<?xml version="1.0" encoding="UTF-8"?>
<svg width="18px" height="15px" viewBox="0 0 18 15" xmlns="http://www.w3.org/2000/svg" xmlns:xlink="http://www.w3.org/1999/xlink" version="1.1">
 <!-- Generated by Pixelmator Pro 1.1.2 -->
 <path id="path" d="M12.658 7.604 L3.676 7.604 C3.384 7.604 3.133 7.813 3.133 8.064 3.133 8.315 3.384 8.523 3.676 8.523 L12.658 8.523 C12.95 8.523 13.201 8.315 13.201 8.064 13.201 7.813 12.95 7.604 12.658 7.604" fill="#000000" fill-opacity="1" stroke="none"/>
 <path id="path-1" d="M5.612 0 C4.949 0 4.388 0.544 4.388 1.188 L4.388 8.017 C4.388 8.66 4.949 9.204 5.612 9.204 L9.638 9.204 10.861 10.392 C11.014 10.541 11.32 10.541 11.473 10.392 L12.696 9.204 16.774 9.204 C17.436 9.204 17.997 8.66 17.997 8.017 L17.997 1.188 C17.946 0.544 17.436 0 16.774 0 L5.612 0 Z" fill="#ffffff" fill-opacity="1" stroke="none"/>
 <path id="path-2" d="M15.352 1.234 L2.276 1.234 C1.482 1.234 0.855 1.861 0.855 2.655 L0.855 10.927 C0.855 11.72 1.482 12.347 2.276 12.347 L7.038 12.347 8.292 13.642 C8.584 13.935 9.043 13.935 9.336 13.642 L10.589 12.347 15.352 12.347 C16.145 12.347 16.772 11.72 16.772 10.927 L16.772 2.655 C16.772 1.861 16.145 1.234 15.352 1.234" fill="#2f88ff" fill-opacity="1" stroke="none"/>
 <path id="path-3" d="M14.496 2.09 L1.42 2.09 C0.627 2.09 0 2.717 0 3.51 L0 11.782 C0 12.576 0.627 13.203 1.42 13.203 L6.183 13.203 7.436 14.497 C7.729 14.79 8.188 14.79 8.481 14.497 L9.734 13.203 14.496 13.203 C15.29 13.203 15.917 12.576 15.917 11.782 L15.917 3.51 C15.917 2.717 15.29 2.09 14.496 2.09" fill="#ffffff" fill-opacity="1" stroke="none"/>
 <path id="path-4" d="M2.214 8.106 L9.609 8.106 C10.026 8.106 10.36 8.44 10.36 8.858 10.36 9.275 10.026 9.61 9.609 9.61 L2.214 9.61 C1.796 9.61 1.462 9.275 1.462 8.858 1.462 8.44 1.838 8.106 2.214 8.106 M2.214 5.474 L6.642 5.474 C7.06 5.474 7.394 5.808 7.394 6.226 7.394 6.643 7.06 6.978 6.642 6.978 L2.214 6.978 C1.796 6.978 1.462 6.643 1.462 6.226 1.462 5.808 1.838 5.474 2.214 5.474" fill="#2f88ff" fill-opacity="1" stroke="none"/>
</svg>
