<?xml version="1.0" encoding="UTF-8"?>
<svg width="40px" height="40px" viewBox="0 0 40 40" version="1.1" xmlns="http://www.w3.org/2000/svg" xmlns:xlink="http://www.w3.org/1999/xlink">
    <!-- Generator: Sketch 52.4 (67378) - http://www.bohemiancoding.com/sketch -->
    <title>知识</title>
    <desc>Created with Sketch.</desc>
    <g id="Page-1" stroke="none" stroke-width="1" fill="none" fill-rule="evenodd">
        <g id="首页" transform="translate(-1229.000000, -1855.000000)" fill="#FFFFFF" fill-rule="nonzero">
            <g id="Group-29" transform="translate(375.000000, 1810.000000)">
                <g id="Group-19" transform="translate(854.000000, 45.000000)">
                    <path d="M38.75,9.3 L35.95,9.3 L35.95,5.25 C35.95,4.72532949 35.5246705,4.3 35,4.3 L21.2513772,4.29999684 C20.864293,4.30177379 20.4838475,4.40068964 20.1449178,4.58767626 L20,4.66762707 L19.8550822,4.58767626 C19.5161525,4.40068964 19.135707,4.30177379 18.75,4.3 L5,4.3 C4.47532949,4.3 4.05,4.72532949 4.05,5.25 L4.05,9.3 L1.25,9.3 C0.725329488,9.3 0.3,9.72532949 0.3,10.25 L0.3,34 C0.3,35.2150264 1.28497355,36.2 2.5,36.2 L37.5,36.2 C38.7150264,36.2 39.7,35.2150264 39.7,34 L39.7,10.25 C39.7,9.72532949 39.2746705,9.3 38.75,9.3 Z M19.05,27.45 L19.05,28.6117641 L18.3617641,29.3 L5.95,29.3 L5.95,27.45 L19.05,27.45 Z M34.05,27.45 L34.05,29.3 L21.6382359,29.3 L20.95,28.6117641 L20.95,27.45 L34.05,27.45 Z M34.05,25.55 L20.95,25.55 L20.95,6.2 L34.05,6.2 L34.05,25.55 Z M19.05,6.2 L19.05,25.55 L5.95,25.55 L5.95,6.2 L19.05,6.2 Z M2.2,34.3 L2.2,11.2 L4.05,11.2 L4.05,30.25 C4.05,30.7746705 4.47532949,31.2 5,31.2 L18.7517344,31.200005 C19.0042473,31.2014649 19.2469516,31.1023322 19.425368,30.925368 L20,30.3507359 L20.212132,30.562868 L20.5737656,30.924505 C20.7530484,31.1023322 20.9957527,31.2014649 21.25,31.2 L35,31.2 C35.5246705,31.2 35.95,30.7746705 35.95,30.25 L35.95,11.2 L37.8,11.2 L37.8,34.3 L2.2,34.3 Z" id="Shape"></path>
                </g>
            </g>
        </g>
    </g>
</svg>