<?xml version="1.0" encoding="UTF-8"?>
<svg width="400px" height="469px" viewBox="0 0 400 469" version="1.1" xmlns="http://www.w3.org/2000/svg" xmlns:xlink="http://www.w3.org/1999/xlink">
    <!-- Generator: Sketch 52.4 (67378) - http://www.bohemiancoding.com/sketch -->
    <title>异步架构1</title>
    <desc>Created with Sketch.</desc>
    <defs>
        <linearGradient x1="11.3958739%" y1="0%" x2="89.8897258%" y2="89.5095885%" id="linearGradient-1">
            <stop stop-color="#6FBFFF" offset="0%"></stop>
            <stop stop-color="#007AFF" offset="100%"></stop>
        </linearGradient>
    </defs>
    <g id="Page-1" stroke="none" stroke-width="1" fill="none" fill-rule="evenodd">
        <g id="弹窗" transform="translate(-1572.000000, -894.000000)">
            <g id="Group-11" transform="translate(1572.000000, 894.000000)">
                <g id="Rectangle-8">
                    <g id="Group-2" transform="translate(0.000000, 136.097143)">
                        <g id="Combined-Shape-Copy-7" transform="translate(3.333333, 0.000000)" fill="url(#linearGradient-1)">
                            <path d="M0,24.3334358 C0,18.8126345 4.47894251,14.3334358 10,14.3334358 C15.5208013,14.3334358 20,18.8126345 20,24.3334358 C20,26.1760939 18.5093247,27.6667691 16.6666667,27.6667691 L3.33333333,27.6667691 C1.49067527,27.6667691 0,26.1760939 0,24.3334358 Z M10,0 C13.313608,0 16.0001025,2.68623834 16.0001025,6.00010247 C16.0001025,9.31396659 13.313608,12.0002049 10,12.0002049 C6.68613587,12.0002049 3.99989753,9.31396659 3.99989753,6.00010247 C3.99989753,2.68623834 6.68613587,0 10,0 Z"></path>
                        </g>
                        <g id="Rectangle-8-Copy-2" transform="translate(0.000000, 30.688571)">
                            <rect id="Rectangle-8" fill="#1B4366" fill-rule="evenodd" x="0" y="0" width="27" height="27"></rect>
                            <text id="10" font-family="PingFangSC-Semibold, PingFang SC" font-size="14" font-weight="500" fill="#FFFFFF">
                                <tspan x="9.3" y="18.5">8</tspan>
                            </text>
                        </g>
                        <g id="Combined-Shape-Copy-7" transform="translate(376.666667, 0.000000)" fill="url(#linearGradient-1)">
                            <path d="M0,24.3334358 C0,18.8126345 4.47894251,14.3334358 10,14.3334358 C15.5208013,14.3334358 20,18.8126345 20,24.3334358 C20,26.1760939 18.5093247,27.6667691 16.6666667,27.6667691 L3.33333333,27.6667691 C1.49067527,27.6667691 0,26.1760939 0,24.3334358 Z M10,0 C13.313608,0 16.0001025,2.68623834 16.0001025,6.00010247 C16.0001025,9.31396659 13.313608,12.0002049 10,12.0002049 C6.68613587,12.0002049 3.99989753,9.31396659 3.99989753,6.00010247 C3.99989753,2.68623834 6.68613587,0 10,0 Z"></path>
                        </g>
                        <g id="Rectangle-8-Copy-2" transform="translate(373.333333, 30.688571)">
                            <rect id="Rectangle-8" fill="#1B4366" fill-rule="evenodd" x="0" y="0" width="27" height="27"></rect>
                            <text id="10" font-family="PingFangSC-Semibold, PingFang SC" font-size="14" font-weight="500" fill="#FFFFFF">
                                <tspan x="6.43" y="18.5">10</tspan>
                            </text>
                        </g>
                        <g id="Rectangle-8-Copy-5" transform="translate(173.333333, 0.000000)">
                            <g>
                                <rect id="Rectangle-8" stroke="#1B4366" stroke-width="2" fill="#FFFFFF" x="1" y="1" width="51" height="41"></rect>
                                <text id="-2" font-family="PingFangSC-Semibold, PingFang SC" font-size="18" font-weight="500" fill="#1B4366">
                                    <tspan x="15.655" y="28.5375">-2</tspan>
                                </text>
                            </g>
                        </g>
                    </g>
                    <g id="Group-4" transform="translate(0.000000, 378.937143)">
                        <g id="Combined-Shape-Copy-7" transform="translate(3.333333, 0.000000)" fill="url(#linearGradient-1)">
                            <path d="M0,24.3334358 C0,18.8126345 4.47894251,14.3334358 10,14.3334358 C15.5208013,14.3334358 20,18.8126345 20,24.3334358 C20,26.1760939 18.5093247,27.6667691 16.6666667,27.6667691 L3.33333333,27.6667691 C1.49067527,27.6667691 0,26.1760939 0,24.3334358 Z M10,0 C13.313608,0 16.0001025,2.68623834 16.0001025,6.00010247 C16.0001025,9.31396659 13.313608,12.0002049 10,12.0002049 C6.68613587,12.0002049 3.99989753,9.31396659 3.99989753,6.00010247 C3.99989753,2.68623834 6.68613587,0 10,0 Z"></path>
                        </g>
                        <g id="Rectangle-8-Copy-2" transform="translate(0.000000, 30.688571)">
                            <rect id="Rectangle-8" fill="#1B4366" fill-rule="evenodd" x="0" y="0" width="27" height="27"></rect>
                            <text id="10" font-family="PingFangSC-Semibold, PingFang SC" font-size="14" font-weight="500" fill="#FFFFFF">
                                <tspan x="9.3" y="18.5">8</tspan>
                            </text>
                        </g>
                        <g id="Combined-Shape-Copy-7" transform="translate(376.666667, 0.000000)" fill="url(#linearGradient-1)">
                            <path d="M0,24.3334358 C0,18.8126345 4.47894251,14.3334358 10,14.3334358 C15.5208013,14.3334358 20,18.8126345 20,24.3334358 C20,26.1760939 18.5093247,27.6667691 16.6666667,27.6667691 L3.33333333,27.6667691 C1.49067527,27.6667691 0,26.1760939 0,24.3334358 Z M10,0 C13.313608,0 16.0001025,2.68623834 16.0001025,6.00010247 C16.0001025,9.31396659 13.313608,12.0002049 10,12.0002049 C6.68613587,12.0002049 3.99989753,9.31396659 3.99989753,6.00010247 C3.99989753,2.68623834 6.68613587,0 10,0 Z"></path>
                        </g>
                        <g id="Rectangle-8-Copy-2" transform="translate(373.333333, 30.688571)">
                            <rect id="Rectangle-8" fill="#1B4366" fill-rule="evenodd" x="0" y="0" width="27" height="27"></rect>
                            <text id="10" font-family="PingFangSC-Semibold, PingFang SC" font-size="14" font-weight="500" fill="#FFFFFF">
                                <tspan x="6.43" y="18.5">10</tspan>
                            </text>
                        </g>
                        <g id="Rectangle-8-Copy-5" transform="translate(173.333333, 0.000000)">
                            <g>
                                <rect id="Rectangle-8" stroke="#1B4366" stroke-width="2" fill="#FFFFFF" x="1" y="1" width="51" height="41"></rect>
                                <text id="-2" font-family="PingFangSC-Semibold, PingFang SC" font-size="18" font-weight="500" fill="#1B4366">
                                    <tspan x="15.655" y="28.5375">-2</tspan>
                                </text>
                            </g>
                        </g>
                        <g id="Rectangle-8-Copy-5" transform="translate(173.333333, 46.700000)">
                            <g>
                                <rect id="Rectangle-8" stroke="#1B4366" stroke-width="2" fill="#FFFFFF" x="1" y="1" width="51" height="41"></rect>
                                <text id="-2" font-family="PingFangSC-Semibold, PingFang SC" font-size="18" font-weight="500" fill="#1B4366">
                                    <tspan x="15.655" y="28.5375">+2</tspan>
                                </text>
                            </g>
                        </g>
                    </g>
                    <g id="Group" transform="translate(0.000000, 241.505714)">
                        <g id="Combined-Shape-Copy-7" transform="translate(3.333333, 0.000000)" fill="url(#linearGradient-1)">
                            <path d="M0,24.3334358 C0,18.8126345 4.47894251,14.3334358 10,14.3334358 C15.5208013,14.3334358 20,18.8126345 20,24.3334358 C20,26.1760939 18.5093247,27.6667691 16.6666667,27.6667691 L3.33333333,27.6667691 C1.49067527,27.6667691 0,26.1760939 0,24.3334358 Z M10,0 C13.313608,0 16.0001025,2.68623834 16.0001025,6.00010247 C16.0001025,9.31396659 13.313608,12.0002049 10,12.0002049 C6.68613587,12.0002049 3.99989753,9.31396659 3.99989753,6.00010247 C3.99989753,2.68623834 6.68613587,0 10,0 Z"></path>
                        </g>
                        <g id="Rectangle-8-Copy-2" transform="translate(0.000000, 30.688571)">
                            <rect id="Rectangle-8" fill="#1B4366" fill-rule="evenodd" x="0" y="0" width="27" height="27"></rect>
                            <text id="10" font-family="PingFangSC-Semibold, PingFang SC" font-size="14" font-weight="500" fill="#FFFFFF">
                                <tspan x="9.3" y="18.5">8</tspan>
                            </text>
                        </g>
                        <g id="Combined-Shape-Copy-7" transform="translate(376.666667, 0.000000)" fill="url(#linearGradient-1)">
                            <path d="M0,24.3334358 C0,18.8126345 4.47894251,14.3334358 10,14.3334358 C15.5208013,14.3334358 20,18.8126345 20,24.3334358 C20,26.1760939 18.5093247,27.6667691 16.6666667,27.6667691 L3.33333333,27.6667691 C1.49067527,27.6667691 0,26.1760939 0,24.3334358 Z M10,0 C13.313608,0 16.0001025,2.68623834 16.0001025,6.00010247 C16.0001025,9.31396659 13.313608,12.0002049 10,12.0002049 C6.68613587,12.0002049 3.99989753,9.31396659 3.99989753,6.00010247 C3.99989753,2.68623834 6.68613587,0 10,0 Z"></path>
                        </g>
                        <g id="Rectangle-8-Copy-2" transform="translate(373.333333, 30.688571)">
                            <rect id="Rectangle-8" fill="#1B4366" fill-rule="evenodd" x="0" y="0" width="27" height="27"></rect>
                            <text id="10" font-family="PingFangSC-Semibold, PingFang SC" font-size="14" font-weight="500" fill="#FFFFFF">
                                <tspan x="6.43" y="18.5">10</tspan>
                            </text>
                        </g>
                        <g id="Rectangle-8-Copy-3" transform="translate(373.333333, 60.710000)">
                            <rect id="Rectangle-8" fill="#007AFF" fill-rule="evenodd" x="0" y="0" width="27" height="27"></rect>
                            <text id="-2" font-family="PingFangSC-Semibold, PingFang SC" font-size="14" font-weight="500" fill="#FFFFFF">
                                <tspan x="5.065" y="18.5">+2</tspan>
                            </text>
                        </g>
                        <path id="Line-3-Copy-40" d="M359.333333,73.7185714 L228,73.7185714 L227,73.7185714 L227,71.7185714 L228,71.7185714 L359.333333,71.7185714 L359.333333,65.7185714 L373.333333,72.7185714 L359.333333,79.7185714 L359.333333,73.7185714 Z" fill="#007AFF" fill-rule="nonzero"></path>
                        <path id="Line-3-Copy-41" d="M359.826781,62.8772624 L227.660147,15.1172642 L226.719668,14.777411 L227.399375,12.896454 L228.339853,13.2363072 L360.506487,60.9963054 L362.545607,55.3534344 L373.333333,66.6947285 L357.787662,68.5201335 L359.826781,62.8772624 Z" fill="#007AFF" fill-rule="nonzero"></path>
                        <g id="Rectangle-8" transform="translate(173.333333, 46.700000)">
                            <rect fill="#007AFF" fill-rule="evenodd" x="0" y="0" width="53" height="43"></rect>
                            <text id="-2" font-family="PingFangSC-Semibold, PingFang SC" font-size="18" font-weight="500" fill="#FFFFFF">
                                <tspan x="15.655" y="28.5375">+2</tspan>
                            </text>
                        </g>
                        <g id="Rectangle-8-Copy-5" transform="translate(173.333333, 0.000000)">
                            <g>
                                <rect id="Rectangle-8" stroke="#1B4366" stroke-width="2" fill="#FFFFFF" x="1" y="1" width="51" height="41"></rect>
                                <text id="-2" font-family="PingFangSC-Semibold, PingFang SC" font-size="18" font-weight="500" fill="#1B4366">
                                    <tspan x="15.655" y="28.5375">-2</tspan>
                                </text>
                            </g>
                        </g>
                    </g>
                    <g id="Group-3">
                        <g id="Rectangle-8" transform="translate(173.333333, 0.000000)">
                            <rect fill="#007AFF" fill-rule="evenodd" x="0" y="0" width="53" height="43"></rect>
                            <text id="-2" font-family="PingFangSC-Semibold, PingFang SC" font-size="18" font-weight="500" fill="#FFFFFF">
                                <tspan x="15.655" y="28.5375">-2</tspan>
                            </text>
                        </g>
                        <g id="Combined-Shape-Copy-7" transform="translate(3.333333, 0.000000)" fill="url(#linearGradient-1)">
                            <path d="M0,24.3334358 C0,18.8126345 4.47894251,14.3334358 10,14.3334358 C15.5208013,14.3334358 20,18.8126345 20,24.3334358 C20,26.1760939 18.5093247,27.6667691 16.6666667,27.6667691 L3.33333333,27.6667691 C1.49067527,27.6667691 0,26.1760939 0,24.3334358 Z M10,0 C13.313608,0 16.0001025,2.68623834 16.0001025,6.00010247 C16.0001025,9.31396659 13.313608,12.0002049 10,12.0002049 C6.68613587,12.0002049 3.99989753,9.31396659 3.99989753,6.00010247 C3.99989753,2.68623834 6.68613587,0 10,0 Z"></path>
                        </g>
                        <g id="Rectangle-8-Copy-2" transform="translate(0.000000, 30.688571)">
                            <rect id="Rectangle-8" fill="#1B4366" fill-rule="evenodd" x="0" y="0" width="27" height="27"></rect>
                            <text id="10" font-family="PingFangSC-Semibold, PingFang SC" font-size="14" font-weight="500" fill="#FFFFFF">
                                <tspan x="6.43" y="18.5">10</tspan>
                            </text>
                        </g>
                        <g id="Rectangle-8-Copy-3" transform="translate(0.000000, 61.377143)">
                            <rect id="Rectangle-8" fill="#007AFF" fill-rule="evenodd" x="0" y="0" width="27" height="27"></rect>
                            <text id="-2" font-family="PingFangSC-Semibold, PingFang SC" font-size="14" font-weight="500" fill="#FFFFFF">
                                <tspan x="5.065" y="18.5">-2</tspan>
                            </text>
                        </g>
                        <g id="Combined-Shape-Copy-7" transform="translate(376.666667, 0.000000)" fill="url(#linearGradient-1)">
                            <path d="M0,24.3334358 C0,18.8126345 4.47894251,14.3334358 10,14.3334358 C15.5208013,14.3334358 20,18.8126345 20,24.3334358 C20,26.1760939 18.5093247,27.6667691 16.6666667,27.6667691 L3.33333333,27.6667691 C1.49067527,27.6667691 0,26.1760939 0,24.3334358 Z M10,0 C13.313608,0 16.0001025,2.68623834 16.0001025,6.00010247 C16.0001025,9.31396659 13.313608,12.0002049 10,12.0002049 C6.68613587,12.0002049 3.99989753,9.31396659 3.99989753,6.00010247 C3.99989753,2.68623834 6.68613587,0 10,0 Z"></path>
                        </g>
                        <g id="Rectangle-8-Copy-2" transform="translate(373.333333, 30.688571)">
                            <rect id="Rectangle-8" fill="#1B4366" fill-rule="evenodd" x="0" y="0" width="27" height="27"></rect>
                            <text id="10" font-family="PingFangSC-Semibold, PingFang SC" font-size="14" font-weight="500" fill="#FFFFFF">
                                <tspan x="6.43" y="18.5">10</tspan>
                            </text>
                        </g>
                        <path id="Line-3-Copy-35" d="M161.333333,16.3442857 L28,16.3442857 L27,16.3442857 L27,14.3442857 L28,14.3442857 L161.333333,14.3442857 L161.333333,8.34428571 L175.333333,15.3442857 L161.333333,22.3442857 L161.333333,16.3442857 Z" fill="#007AFF" fill-rule="nonzero"></path>
                        <path id="Line-3-Copy-36" d="M41.3052324,58.2425596 L172.416621,24.3831944 L173.384855,24.1331491 L173.884946,26.0696174 L172.916712,26.3196627 L41.8053231,60.1790278 L43.3055952,65.9884326 L28,62.7114286 L39.8049603,52.4331548 L41.3052324,58.2425596 Z" fill="#007AFF" fill-rule="nonzero"></path>
                    </g>
                </g>
            </g>
        </g>
    </g>
</svg>