<svg xmlns="http://www.w3.org/2000/svg" width="60" height="60" viewBox="0 0 60 60">
  <g fill="#007AFF" fill-rule="evenodd" transform="translate(0 3)">
    <path fill-rule="nonzero" d="M60,0 L0,0 L0,52 L2,52 L2,56 L12,56 L12,52 L48,52 L48,56 L58,56 L58,52 L60,52 L60,0 Z M10,54 L4,54 L4,52 L10,52 L10,54 Z M56,54 L50,54 L50,52 L56,52 L56,54 Z M58,50 L48,50 L12,50 L2,50 L2,2 L58,2 L58,50 Z"/>
    <path fill-rule="nonzero" d="M6.008,48 L53.992,48 C55.1,48 56,47.1 56,45.992 L56,41 C56.553,41 57,40.553 57,40 C57,39.447 56.553,39 56,39 L56,38 C56.553,38 57,37.553 57,37 C57,36.447 56.553,36 56,36 L56,16 C56.553,16 57,15.553 57,15 C57,14.447 56.553,14 56,14 L56,13 C56.553,13 57,12.553 57,12 C57,11.447 56.553,11 56,11 L56,6.008 C56,4.9 55.1,4 53.992,4 L6.008,4 C4.9,4 4,4.9 4,6.008 L4,45.992 C4,47.1 4.9,48 6.008,48 Z M6.008,6 L54,6.008 L54,11 L53,11 C52.447,11 52,11.447 52,12 C52,12.553 52.447,13 53,13 L53.999,13 L53.999,14 L53,14 C52.447,14 52,14.447 52,15 C52,15.553 52.447,16 53,16 L53.999,16 L53.996,36 L53,36 C52.447,36 52,36.447 52,37 C52,37.553 52.447,38 53,38 L53.996,38 L53.996,39 L53,39 C52.447,39 52,39.447 52,40 C52,40.553 52.447,41 53,41 L53.996,41 L53.996,46 C53.996,46 53.995,46 53.993,46 L6,45.992 L6.008,6 Z"/>
    <path fill-rule="nonzero" d="M45.506,17.545 C45.497,17.536 45.495,17.524 45.486,17.514 C45.477,17.504 45.465,17.502 45.456,17.494 C43.284,15.336 40.296,14 37,14 C33.704,14 30.716,15.336 28.545,17.494 C28.536,17.503 28.524,17.505 28.515,17.514 C28.506,17.523 28.503,17.535 28.495,17.545 C26.336,19.716 25,22.704 25,26 C25,29.296 26.336,32.284 28.494,34.455 C28.503,34.464 28.505,34.476 28.514,34.486 C28.523,34.496 28.535,34.498 28.544,34.506 C30.716,36.664 33.704,38 37,38 C40.296,38 43.284,36.664 45.455,34.506 C45.464,34.497 45.476,34.495 45.485,34.486 C45.494,34.477 45.497,34.465 45.505,34.455 C47.664,32.284 49,29.296 49,26 C49,22.704 47.664,19.716 45.506,17.545 Z M46,27 L46.949,27 C46.749,29.008 45.951,30.842 44.738,32.324 L44.071,31.657 C43.68,31.266 43.048,31.266 42.657,31.657 C42.266,32.048 42.266,32.68 42.657,33.071 L43.324,33.738 C41.842,34.951 40.008,35.749 38,35.949 L38,35 C38,34.447 37.553,34 37,34 C36.447,34 36,34.447 36,35 L36,35.949 C33.992,35.749 32.158,34.951 30.676,33.738 L31.343,33.071 C31.734,32.68 31.734,32.048 31.343,31.657 C30.952,31.266 30.32,31.266 29.929,31.657 L29.262,32.324 C28.049,30.842 27.251,29.008 27.051,27 L28,27 C28.553,27 29,26.553 29,26 C29,25.447 28.553,25 28,25 L27.051,25 C27.251,22.992 28.049,21.158 29.262,19.676 L29.929,20.343 C30.124,20.538 30.38,20.636 30.636,20.636 C30.892,20.636 31.148,20.538 31.343,20.343 C31.734,19.952 31.734,19.32 31.343,18.929 L30.676,18.262 C32.158,17.049 33.992,16.251 36,16.051 L36,17 C36,17.553 36.447,18 37,18 C37.553,18 38,17.553 38,17 L38,16.051 C40.008,16.251 41.842,17.049 43.324,18.262 L42.657,18.929 C42.266,19.32 42.266,19.952 42.657,20.343 C42.852,20.538 43.108,20.636 43.364,20.636 C43.62,20.636 43.876,20.538 44.071,20.343 L44.738,19.676 C45.951,21.158 46.749,22.992 46.949,25 L46,25 C45.447,25 45,25.447 45,26 C45,26.553 45.447,27 46,27 Z"/>
    <path fill-rule="nonzero" d="M37,22 C34.794,22 33,23.794 33,26 C33,28.206 34.794,30 37,30 C39.206,30 41,28.206 41,26 C41,23.794 39.206,22 37,22 Z M37,28 C35.897,28 35,27.103 35,26 C35,24.897 35.897,24 37,24 C38.103,24 39,24.897 39,26 C39,27.103 38.103,28 37,28 Z"/>
    <path d="M16 16C15.447 16 15 16.447 15 17L15 18C14.447 18 14 18.447 14 19 14 19.553 14.447 20 15 20L15 34C14.447 34 14 34.447 14 35 14 35.553 14.447 36 15 36L15 37C15 37.553 15.447 38 16 38 16.553 38 17 37.553 17 37L17 17C17 16.447 16.553 16 16 16zM13 19C13 18.447 12.553 18 12 18L12 17C12 16.447 11.553 16 11 16 10.447 16 10 16.447 10 17L10 37C10 37.553 10.447 38 11 38 11.553 38 12 37.553 12 37L12 36C12.553 36 13 35.553 13 35 13 34.447 12.553 34 12 34L12 20C12.553 20 13 19.553 13 19z"/>
  </g>
</svg>
