<?xml version="1.0" encoding="UTF-8"?>
<svg width="400px" height="359px" viewBox="0 0 400 359" version="1.1" xmlns="http://www.w3.org/2000/svg" xmlns:xlink="http://www.w3.org/1999/xlink">
    <!-- Generator: Sketch 52.4 (67378) - http://www.bohemiancoding.com/sketch -->
    <title>快照链</title>
    <desc>Created with Sketch.</desc>
    <defs>
        <linearGradient x1="11.3958739%" y1="0%" x2="89.8897258%" y2="89.5095885%" id="linearGradient-1">
            <stop stop-color="#6FBFFF" offset="0%"></stop>
            <stop stop-color="#007AFF" offset="100%"></stop>
        </linearGradient>
    </defs>
    <g id="Page-1" stroke="none" stroke-width="1" fill="none" fill-rule="evenodd">
        <g id="弹窗" transform="translate(-2184.000000, -187.000000)">
            <g id="Group-10" transform="translate(2184.000000, 181.000000)">
                <g id="Group-54">
                    <text id="SNAPSHOT-chain" font-family="PingFangSC-Semibold, PingFang SC" font-size="16" font-weight="500" letter-spacing="-1" fill="#171C34">
                        <tspan x="268.796" y="17.3229927">SNAPSHOT CHAI</tspan>
                        <tspan x="387.492" y="17.3229927">N</tspan>
                    </text>
                    <g id="Group-124" transform="translate(268.000000, 181.833942)">
                        <path d="M1.5,1.5 L1.5,58.5 L130.5,58.5 L130.5,1.5 L1.5,1.5 Z" id="Clip-123" stroke="url(#linearGradient-1)" stroke-width="3" fill="#F9FCFF" fill-rule="evenodd"></path>
                        <text id="Type-something" font-family="PingFangSC-Semibold, PingFang SC" font-size="14" font-weight="500" letter-spacing="-0.875" fill="#007AFF">
                            <tspan x="18.8459535" y="35.8411215">SNAPSHOT N-1</tspan>
                        </text>
                    </g>
                    <g id="Group-124" transform="translate(268.000000, 293.065693)">
                        <path d="M1.5,1.5 L1.5,58.5 L130.5,58.5 L130.5,1.5 L1.5,1.5 Z" id="Clip-123" stroke="url(#linearGradient-1)" stroke-width="3" fill="#F9FCFF" fill-rule="evenodd"></path>
                        <text id="Type-something" font-family="PingFangSC-Semibold, PingFang SC" font-size="14" font-weight="500" letter-spacing="-0.875" fill="#007AFF">
                            <tspan x="25.0759535" y="35.8411215">SNAPSHOT N</tspan>
                        </text>
                    </g>
                    <g id="Group-124" transform="translate(268.000000, 70.602190)">
                        <path d="M1.5,1.5 L1.5,58.5 L130.5,58.5 L130.5,1.5 L1.5,1.5 Z" id="Clip-123" stroke="url(#linearGradient-1)" stroke-width="3" fill="#F9FCFF" fill-rule="evenodd"></path>
                        <text id="Type-something" font-family="PingFangSC-Semibold, PingFang SC" font-size="14" font-weight="500" letter-spacing="-0.875" fill="#007AFF">
                            <tspan x="17.5159535" y="35.8411215">SNAPSHOT N-2</tspan>
                        </text>
                    </g>
                    <path id="Line-3-Copy-11" d="M335.208333,156.203467 L335.208333,180.501825 L335.208333,181.501825 L333.208333,181.501825 L333.208333,180.501825 L333.208333,156.203467 L327.208333,156.203467 L334.208333,142.203467 L341.208333,156.203467 L335.208333,156.203467 Z" fill="#007AFF" fill-rule="nonzero"></path>
                    <path id="Line-3-Copy-12" d="M335.208333,260.774635 L335.208333,285.072993 L335.208333,286.072993 L333.208333,286.072993 L333.208333,285.072993 L333.208333,260.774635 L327.208333,260.774635 L334.208333,246.774635 L341.208333,260.774635 L335.208333,260.774635 Z" fill="#007AFF" fill-rule="nonzero"></path>
                    <path d="M334,25.310219 L334,65.2737226" id="Line-3-Copy-3" stroke="#007AFF" stroke-width="2" stroke-linecap="square" stroke-dasharray="10,10"></path>
                    <g id="Group-41" stroke-width="1" fill-rule="evenodd" transform="translate(40.666667, 85.255474)" stroke="#007AFF" stroke-dasharray="2,2.5">
                        <path d="M228,135.209854 C230.209139,135.209854 232,133.420627 232,131.213504 C232,129.00638 230.209139,127.217153 228,127.217153 C225.790861,127.217153 224,129.00638 224,131.213504 C224,133.420627 225.790861,135.209854 228,135.209854 Z" id="Oval-2-Copy" stroke-width="2"></path>
                        <path d="M4,7.99270073 C6.209139,7.99270073 8,6.20347373 8,3.99635036 C8,1.789227 6.209139,0 4,0 C1.790861,0 0,1.789227 0,3.99635036 C0,6.20347373 1.790861,7.99270073 4,7.99270073 Z" id="Oval-2" stroke-width="2"></path>
                        <path d="M7.53983968,5.59404846 L224.58455,130.989486" id="Line-4" stroke-width="2"></path>
                        <path d="M91.8088316,7.99270073 C94.0179706,7.99270073 95.8088316,6.20347373 95.8088316,3.99635036 C95.8088316,1.789227 94.0179706,-3.79647652e-14 91.8088316,-3.79647652e-14 C89.5996926,-3.79647652e-14 87.8088316,1.789227 87.8088316,3.99635036 C87.8088316,6.20347373 89.5996926,7.99270073 91.8088316,7.99270073 Z" id="Oval-2" stroke-width="2"></path>
                        <path d="M95.3486713,5.59404846 L224.58455,130.989486" id="Line-4" stroke-width="2"></path>
                        <path d="M91.8088316,7.99270073 C94.0179706,7.99270073 95.8088316,6.20347373 95.8088316,3.99635036 C95.8088316,1.789227 94.0179706,-3.79647652e-14 91.8088316,-3.79647652e-14 C89.5996926,-3.79647652e-14 87.8088316,1.789227 87.8088316,3.99635036 C87.8088316,6.20347373 89.5996926,7.99270073 91.8088316,7.99270073 Z" id="Oval-2" stroke-width="2"></path>
                        <path d="M95.3486713,5.59404846 L224.58455,130.989486" id="Line-4" stroke-width="2"></path>
                        <path d="M180.064579,7.99270073 C182.273718,7.99270073 184.064579,6.20347373 184.064579,3.99635036 C184.064579,1.789227 182.273718,0 180.064579,0 C177.85544,0 176.064579,1.789227 176.064579,3.99635036 C176.064579,6.20347373 177.85544,7.99270073 180.064579,7.99270073 Z" id="Oval-2" stroke-width="2"></path>
                        <path d="M183.604418,5.59404846 L224.58455,130.989486" id="Line-4" stroke-width="2"></path>
                        <path d="M228,248.439781 C230.209139,248.439781 232,246.650554 232,244.443431 C232,242.236307 230.209139,240.44708 228,240.44708 C225.790861,240.44708 224,242.236307 224,244.443431 C224,246.650554 225.790861,248.439781 228,248.439781 Z" id="Oval-2-Copy" stroke-width="2"></path>
                        <path d="M4,91.1160508 C6.209139,91.1160508 8,89.3268238 8,87.1197004 C8,84.9125771 6.209139,83.1233501 4,83.1233501 C1.790861,83.1233501 0,84.9125771 0,87.1197004 C0,89.3268238 1.790861,91.1160508 4,91.1160508 Z" id="Oval-2" stroke-width="2"></path>
                        <path d="M7.53983968,88.7173985 L224.58455,244.219413" id="Line-4" stroke-width="2"></path>
                        <path d="M91.8088316,176.520846 C94.0179706,176.520846 95.8088316,174.731619 95.8088316,172.524495 C95.8088316,170.317372 94.0179706,168.528145 91.8088316,168.528145 C89.5996926,168.528145 87.8088316,170.317372 87.8088316,172.524495 C87.8088316,174.731619 89.5996926,176.520846 91.8088316,176.520846 Z" id="Oval-2" stroke-width="2"></path>
                        <path d="M95.3486713,174.122193 L224.58455,244.219413" id="Line-4" stroke-width="2"></path>
                        <path d="M91.8088316,176.520846 C94.0179706,176.520846 95.8088316,174.731619 95.8088316,172.524495 C95.8088316,170.317372 94.0179706,168.528145 91.8088316,168.528145 C89.5996926,168.528145 87.8088316,170.317372 87.8088316,172.524495 C87.8088316,174.731619 89.5996926,176.520846 91.8088316,176.520846 Z" id="Oval-2" stroke-width="2"></path>
                        <path d="M95.3486713,174.122193 L224.58455,244.219413" id="Line-4" stroke-width="2"></path>
                        <path d="M180.064579,260.796272 C182.273718,260.796272 184.064579,259.007045 184.064579,256.799922 C184.064579,254.592798 182.273718,252.803571 180.064579,252.803571 C177.85544,252.803571 176.064579,254.592798 176.064579,256.799922 C176.064579,259.007045 177.85544,260.796272 180.064579,260.796272 Z" id="Oval-2" stroke-width="2"></path>
                        <path d="M183.604418,258.39762 L224.58455,244.219413" id="Line-4" stroke-width="2"></path>
                    </g>
                    <path id="Line-3-Copy-4" d="M35.3983731,118.945655 L90.553241,172.607615 L91.2699814,173.304955 L89.8753014,174.738436 L89.1585609,174.041096 L34.003693,120.379136 L29.8196528,124.679579 L24.6666667,109.899635 L39.5824133,114.645212 L35.3983731,118.945655 Z" fill="#007AFF" fill-rule="nonzero"></path>
                    <text id="a" font-family="PingFangSC-Semibold, PingFang SC" font-size="16" font-weight="500" fill="#171C34">
                        <tspan x="17.568" y="17.3229927">A</tspan>
                    </text>
                    <g id="Group-55" transform="translate(0.000000, 63.275547)">
                        <path d="M22.9763379,44.2945053 C34.6381443,44.2945053 44.1283945,34.8042551 44.1283945,23.1427664 C44.1283945,11.4808013 34.6383031,1.99070986 22.9763379,1.99070986 C11.3143728,1.99070986 1.8242814,11.4808013 1.8242814,23.1427664 C1.8242814,34.8042551 11.3145316,44.2945053 22.9763379,44.2945053 Z" id="Clip-54" stroke="#007AFF" stroke-width="3"></path>
                        <path d="M6.62569478,23.1427664 C6.62569478,32.1724631 13.9466413,39.4927743 22.9763379,39.4927743 C32.0066698,39.4927743 39.3266635,32.1724631 39.3266635,23.1427664 C39.3266635,14.1127521 32.0066698,6.79212323 22.9763379,6.79212323 C13.9466413,6.79212323 6.62569478,14.1127521 6.62569478,23.1427664" id="Fill-83" fill="#007AFF" fill-rule="evenodd"></path>
                    </g>
                    <g id="Group-55" transform="translate(0.000000, 147.864964)">
                        <path d="M22.9763379,45.290038 C34.6308381,45.290038 44.1283945,35.5860131 44.1283945,23.64587 C44.1283945,11.7052402 34.6309969,2.00137747 22.9763379,2.00137747 C11.321679,2.00137747 1.8242814,11.7052402 1.8242814,23.64587 C1.8242814,35.5860131 11.3218378,45.290038 22.9763379,45.290038 Z" id="Clip-54" stroke="#007AFF" stroke-width="3"></path>
                        <path d="M6.62569478,23.64587 C6.62569478,32.8718644 13.9466413,40.3513129 22.9763379,40.3513129 C32.0066698,40.3513129 39.3266635,32.8718644 39.3266635,23.64587 C39.3266635,14.4195511 32.0066698,6.93977809 22.9763379,6.93977809 C13.9466413,6.93977809 6.62569478,14.4195511 6.62569478,23.64587" id="Fill-83" fill="#007AFF" fill-rule="evenodd"></path>
                    </g>
                    <g id="Group-55" transform="translate(0.000000, 233.120438)">
                        <path d="M22.9763379,45.290038 C34.6308381,45.290038 44.1283945,35.5860131 44.1283945,23.64587 C44.1283945,11.7052402 34.6309969,2.00137747 22.9763379,2.00137747 C11.321679,2.00137747 1.8242814,11.7052402 1.8242814,23.64587 C1.8242814,35.5860131 11.3218378,45.290038 22.9763379,45.290038 Z" id="Clip-54" stroke="#007AFF" stroke-width="3"></path>
                        <path d="M6.62569478,23.64587 C6.62569478,32.8718644 13.9466413,40.3513129 22.9763379,40.3513129 C32.0066698,40.3513129 39.3266635,32.8718644 39.3266635,23.64587 C39.3266635,14.4195511 32.0066698,6.93977809 22.9763379,6.93977809 C13.9466413,6.93977809 6.62569478,14.4195511 6.62569478,23.64587" id="Fill-83" fill="#007AFF" fill-rule="evenodd"></path>
                    </g>
                    <path d="M22.6666667,25.310219 L22.6666667,65.2737226" id="Line-3" stroke="#007AFF" stroke-width="2" stroke-linecap="square" stroke-dasharray="10,10"></path>
                    <path id="Line-3-Copy-4" d="M23.8333333,123.566606 L23.8333333,147.864964 L23.8333333,148.864964 L21.8333333,148.864964 L21.8333333,147.864964 L21.8333333,123.566606 L15.8333333,123.566606 L22.8333333,109.566606 L29.8333333,123.566606 L23.8333333,123.566606 Z" fill="#007AFF" fill-rule="nonzero"></path>
                    <path id="Line-3-Copy-7" d="M23.8333333,208.82208 L23.8333333,233.120438 L23.8333333,234.120438 L21.8333333,234.120438 L21.8333333,233.120438 L21.8333333,208.82208 L15.8333333,208.82208 L22.8333333,194.82208 L29.8333333,208.82208 L23.8333333,208.82208 Z" fill="#007AFF" fill-rule="nonzero"></path>
                    <text id="B" font-family="PingFangSC-Semibold, PingFang SC" font-size="16" font-weight="500" fill="#171C34">
                        <tspan x="105.813333" y="17.3229927">B</tspan>
                    </text>
                    <g id="Group-55" transform="translate(87.333333, 63.275547)">
                        <path d="M23.4758235,44.2945053 C35.4162911,44.2945053 45.1203161,34.7969489 45.1203161,23.1427664 C45.1203161,11.4881074 35.4164534,1.99070986 23.4758235,1.99070986 C11.5351937,1.99070986 1.831331,11.4881074 1.831331,23.1427664 C1.831331,34.7969489 11.535356,44.2945053 23.4758235,44.2945053 Z" id="Clip-54" stroke="#007AFF" stroke-width="3"></path>
                        <path d="M6.76973162,23.1427664 C6.76973162,32.1724631 14.2498291,39.4927743 23.4758235,39.4927743 C32.702467,39.4927743 40.181591,32.1724631 40.181591,23.1427664 C40.181591,14.1127521 32.702467,6.79212323 23.4758235,6.79212323 C14.2498291,6.79212323 6.76973162,14.1127521 6.76973162,23.1427664" id="Fill-83" fill="#007AFF" fill-rule="evenodd"></path>
                    </g>
                    <g id="Group-55" transform="translate(87.333333, 147.864964)">
                        <path d="M23.4758235,45.290038 C35.4091567,45.290038 45.1203161,35.5788786 45.1203161,23.64587 C45.1203161,11.7123746 35.4093189,2.00137747 23.4758235,2.00137747 C11.5423282,2.00137747 1.831331,11.7123746 1.831331,23.64587 C1.831331,35.5788786 11.5424904,45.290038 23.4758235,45.290038 Z" id="Clip-54" stroke="#007AFF" stroke-width="3"></path>
                        <path d="M6.76973162,23.64587 C6.76973162,32.8718644 14.2498291,40.3513129 23.4758235,40.3513129 C32.702467,40.3513129 40.181591,32.8718644 40.181591,23.64587 C40.181591,14.4195511 32.702467,6.93977809 23.4758235,6.93977809 C14.2498291,6.93977809 6.76973162,14.4195511 6.76973162,23.64587" id="Fill-83" fill="#007AFF" fill-rule="evenodd"></path>
                    </g>
                    <g id="Group-55" transform="translate(87.333333, 233.120438)">
                        <path d="M23.4758235,45.290038 C35.4091567,45.290038 45.1203161,35.5788786 45.1203161,23.64587 C45.1203161,11.7123746 35.4093189,2.00137747 23.4758235,2.00137747 C11.5423282,2.00137747 1.831331,11.7123746 1.831331,23.64587 C1.831331,35.5788786 11.5424904,45.290038 23.4758235,45.290038 Z" id="Clip-54" stroke="#007AFF" stroke-width="3"></path>
                        <path d="M6.76973162,23.64587 C6.76973162,32.8718644 14.2498291,40.3513129 23.4758235,40.3513129 C32.702467,40.3513129 40.181591,32.8718644 40.181591,23.64587 C40.181591,14.4195511 32.702467,6.93977809 23.4758235,6.93977809 C14.2498291,6.93977809 6.76973162,14.4195511 6.76973162,23.64587" id="Fill-83" fill="#007AFF" fill-rule="evenodd"></path>
                    </g>
                    <path id="Line-3-Copy-5" d="M111.208333,123.566606 L111.208333,147.864964 L111.208333,148.864964 L109.208333,148.864964 L109.208333,147.864964 L109.208333,123.566606 L103.208333,123.566606 L110.208333,109.566606 L117.208333,123.566606 L111.208333,123.566606 Z" fill="#007AFF" fill-rule="nonzero"></path>
                    <path id="Line-3-Copy-8" d="M111.208333,208.82208 L111.208333,233.120438 L111.208333,234.120438 L109.208333,234.120438 L109.208333,233.120438 L109.208333,208.82208 L103.208333,208.82208 L110.208333,194.82208 L117.208333,208.82208 L111.208333,208.82208 Z" fill="#007AFF" fill-rule="nonzero"></path>
                    <path d="M111.333333,25.310219 L111.333333,65.2737226" id="Line-3-Copy" stroke="#007AFF" stroke-width="2" stroke-linecap="square" stroke-dasharray="10,10"></path>
                    <text id="C" font-family="PingFangSC-Semibold, PingFang SC" font-size="16" font-weight="500" fill="#171C34">
                        <tspan x="193.144" y="17.3229927">C</tspan>
                    </text>
                    <g id="Group-55" transform="translate(175.333333, 63.275547)">
                        <path d="M23.4758235,44.2945053 C35.4162911,44.2945053 45.1203161,34.7969489 45.1203161,23.1427664 C45.1203161,11.4881074 35.4164534,1.99070986 23.4758235,1.99070986 C11.5351937,1.99070986 1.831331,11.4881074 1.831331,23.1427664 C1.831331,34.7969489 11.535356,44.2945053 23.4758235,44.2945053 Z" id="Clip-54" stroke="#007AFF" stroke-width="3"></path>
                        <path d="M6.76973162,23.1427664 C6.76973162,32.1724631 14.2498291,39.4927743 23.4758235,39.4927743 C32.702467,39.4927743 40.181591,32.1724631 40.181591,23.1427664 C40.181591,14.1127521 32.702467,6.79212323 23.4758235,6.79212323 C14.2498291,6.79212323 6.76973162,14.1127521 6.76973162,23.1427664" id="Fill-83" fill="#007AFF" fill-rule="evenodd"></path>
                    </g>
                    <g id="Group-55" transform="translate(175.333333, 319.041971)">
                        <path d="M22.9763379,44.2945053 C34.6381443,44.2945053 44.1283945,34.8042551 44.1283945,23.1427664 C44.1283945,11.4808013 34.6383031,1.99070986 22.9763379,1.99070986 C11.3143728,1.99070986 1.8242814,11.4808013 1.8242814,23.1427664 C1.8242814,34.8042551 11.3145316,44.2945053 22.9763379,44.2945053 Z" id="Clip-54" stroke="#007AFF" stroke-width="3"></path>
                        <path d="M6.62569478,23.1427664 C6.62569478,32.1724631 13.9466413,39.4927743 22.9763379,39.4927743 C32.0066698,39.4927743 39.3266635,32.1724631 39.3266635,23.1427664 C39.3266635,14.1127521 32.0066698,6.79212323 22.9763379,6.79212323 C13.9466413,6.79212323 6.62569478,14.1127521 6.62569478,23.1427664" id="Fill-83" fill="#007AFF" fill-rule="evenodd"></path>
                    </g>
                    <g id="Group-55" transform="translate(175.333333, 233.120438)">
                        <path d="M23.4758235,45.290038 C35.4091567,45.290038 45.1203161,35.5788786 45.1203161,23.64587 C45.1203161,11.7123746 35.4093189,2.00137747 23.4758235,2.00137747 C11.5423282,2.00137747 1.831331,11.7123746 1.831331,23.64587 C1.831331,35.5788786 11.5424904,45.290038 23.4758235,45.290038 Z" id="Clip-54" stroke="#007AFF" stroke-width="3"></path>
                        <path d="M6.76973162,23.64587 C6.76973162,32.8718644 14.2498291,40.3513129 23.4758235,40.3513129 C32.702467,40.3513129 40.181591,32.8718644 40.181591,23.64587 C40.181591,14.4195511 32.702467,6.93977809 23.4758235,6.93977809 C14.2498291,6.93977809 6.76973162,14.4195511 6.76973162,23.64587" id="Fill-83" fill="#007AFF" fill-rule="evenodd"></path>
                    </g>
                    <g id="Group-55" transform="translate(175.333333, 147.864964)">
                        <path d="M23.4758235,45.290038 C35.4091567,45.290038 45.1203161,35.5788786 45.1203161,23.64587 C45.1203161,11.7123746 35.4093189,2.00137747 23.4758235,2.00137747 C11.5423282,2.00137747 1.831331,11.7123746 1.831331,23.64587 C1.831331,35.5788786 11.5424904,45.290038 23.4758235,45.290038 Z" id="Clip-54" stroke="#007AFF" stroke-width="3"></path>
                        <path d="M6.76973162,23.64587 C6.76973162,32.8718644 14.2498291,40.3513129 23.4758235,40.3513129 C32.702467,40.3513129 40.181591,32.8718644 40.181591,23.64587 C40.181591,14.4195511 32.702467,6.93977809 23.4758235,6.93977809 C14.2498291,6.93977809 6.76973162,14.4195511 6.76973162,23.64587" id="Fill-83" fill="#007AFF" fill-rule="evenodd"></path>
                    </g>
                    <path id="Line-3-Copy-10" d="M199.875,294.743613 L199.875,319.041971 L199.875,320.041971 L197.875,320.041971 L197.875,319.041971 L197.875,294.743613 L191.875,294.743613 L198.875,280.743613 L205.875,294.743613 L199.875,294.743613 Z" fill="#007AFF" fill-rule="nonzero"></path>
                    <path id="Line-3-Copy-9" d="M199.208333,208.82208 L199.208333,233.120438 L199.208333,234.120438 L197.208333,234.120438 L197.208333,233.120438 L197.208333,208.82208 L191.208333,208.82208 L198.208333,194.82208 L205.208333,208.82208 L199.208333,208.82208 Z" fill="#007AFF" fill-rule="nonzero"></path>
                    <path id="Line-3-Copy-13" d="M199.208333,123.233577 L199.208333,147.531934 L199.208333,148.531934 L197.208333,148.531934 L197.208333,147.531934 L197.208333,123.233577 L191.208333,123.233577 L198.208333,109.233577 L205.208333,123.233577 L199.208333,123.233577 Z" fill="#007AFF" fill-rule="nonzero"></path>
                    <path d="M199.333333,25.310219 L199.333333,65.2737226" id="Line-3-Copy-2" stroke="#007AFF" stroke-width="2" stroke-linecap="square" stroke-dasharray="10,10"></path>
                </g>
            </g>
        </g>
    </g>
</svg>