<svg xmlns="http://www.w3.org/2000/svg" xmlns:xlink="http://www.w3.org/1999/xlink" width="50" height="50" viewBox="0 0 50 50">
  <defs>
    <path id="telegramblue-a" d="M1.1809313,10.5657928 L6.62141064,12.5391797 L8.72720969,19.1207311 C8.86195061,19.5422558 9.39233557,19.6980615 9.74437769,19.4183454 L12.7769928,17.0157086 C13.0948774,16.763987 13.5476605,16.751443 13.8798692,16.9858018 L19.3496264,20.8451501 C19.7262241,21.1111749 20.2597572,20.9106237 20.3542018,20.4683708 L24.3610913,1.7371809 C24.4641933,1.25408354 23.9757574,0.851068978 23.5024327,1.02897975 L1.17455629,9.39988827 C0.623550936,9.60640551 0.628351868,10.3645532 1.1809313,10.5657928 Z M8.38783888,11.4886954 L19.0205658,5.12436955 C19.2116586,5.01032614 19.4082607,5.2614358 19.2441633,5.40936334 L10.4690823,13.3365657 C10.1606421,13.6155935 9.9616789,13.9890072 9.90532698,14.3943164 L9.60640992,16.5471439 C9.5668219,16.8345853 9.15134451,16.8631153 9.06972866,16.5849289 L7.92010216,12.6591892 C7.78843069,12.2114292 7.98031057,11.7331506 8.38783888,11.4886954 Z"/>
  </defs>
  <g fill="none" fill-rule="evenodd" transform="translate(11.25 13.75)">
    <mask id="telegramblue-b" fill="#fff">
      <use xlink:href="#telegramblue-a"/>
    </mask>
    <use fill="#007AFF" fill-rule="nonzero" xlink:href="#telegramblue-a"/>
    <g fill="#1B4366" mask="url(#telegramblue-b)">
      <rect width="50" height="50" transform="translate(-11.25 -13.75)"/>
    </g>
  </g>
</svg>
