<svg xmlns="http://www.w3.org/2000/svg" xmlns:xlink="http://www.w3.org/1999/xlink" width="50" height="50" viewBox="0 0 50 50">
  <defs>
    <path id="twitterblue-a" d="M37.4560686,17.1927338 C37.0790376,17.3544321 36.6914001,17.4909025 36.295324,17.6016958 C36.7642515,17.0889025 37.1217729,16.4855283 37.3400174,15.8252602 C37.3889462,15.6772614 37.3382367,15.5152636 37.2124307,15.4184692 C37.0867795,15.3216 36.9121994,15.3099966 36.7738515,15.3892737 C35.9326929,15.8716736 35.0251862,16.2183518 34.0736281,16.4210736 C33.1151022,15.5154133 31.8132226,15 30.4673689,15 C27.626475,15 25.3152052,17.2348053 25.3152052,19.9817301 C25.3152052,20.1980765 25.3293728,20.4132251 25.3573986,20.6253792 C21.8321198,20.3260876 18.554737,18.6506387 16.3041637,15.9811943 C16.2239575,15.8860468 16.1003966,15.8347675 15.9738938,15.8445742 C15.8473136,15.8541563 15.7335849,15.9231775 15.6696368,16.0292546 C15.2131737,16.7866165 14.9718584,17.6528254 14.9718584,18.534156 C14.9718584,19.7345413 15.4150828,20.8734663 16.1980221,21.7634059 C15.9599584,21.6836797 15.7289398,21.5840406 15.5084502,21.4656864 C15.3900764,21.4019803 15.2456123,21.4029534 15.1280127,21.4681568 C15.0103357,21.5333601 14.9365553,21.6532864 14.9334585,21.7843668 C14.9329166,21.8064506 14.9329166,21.8285344 14.9329166,21.8509176 C14.9329166,23.6426995 15.9302294,25.2558647 17.4549986,26.1350992 C17.3240055,26.1224479 17.1930898,26.1041071 17.0630257,26.0800769 C16.9289359,26.0552981 16.7910524,26.1007384 16.7006269,26.1996289 C16.6100466,26.2984445 16.5800854,26.4361875 16.6218143,26.5619528 C17.1861995,28.2657739 18.6392786,29.5190106 20.395918,29.9010977 C18.938968,30.7834764 17.2728315,31.245664 15.5237792,31.245664 C15.1588255,31.245664 14.7917816,31.2249277 14.4325569,31.1838294 C14.2541059,31.1633177 14.0834742,31.2652026 14.0227002,31.4292964 C13.9619262,31.5934651 14.0263389,31.7764986 14.1781578,31.870598 C16.4250923,33.2636738 19.0232,34 21.6914493,34 C26.9369031,34 30.2183117,31.6082126 32.0473379,29.6017312 C34.3281047,27.0998243 35.6361778,23.788228 35.6361778,20.516158 C35.6361778,20.3794631 35.63401,20.2414206 35.6296746,20.1038273 C36.5295168,19.4482755 37.3042497,18.6549057 37.9346735,17.7430321 C38.0304409,17.6045405 38.0200667,17.421507 37.9091252,17.2940198 C37.7983384,17.1664578 37.6136939,17.1252098 37.4560686,17.1927338 Z"/>
  </defs>
  <g fill="none" fill-rule="evenodd">
    <mask id="twitterblue-b" fill="#fff">
      <use xlink:href="#twitterblue-a"/>
    </mask>
    <use fill="#007AFF" fill-rule="nonzero" xlink:href="#twitterblue-a"/>
    <g fill="#1B4366" mask="url(#twitterblue-b)">
      <rect width="50" height="50"/>
    </g>
  </g>
</svg>
