<?xml version="1.0" encoding="UTF-8"?>
<svg width="320px" height="254px" viewBox="0 0 320 254" version="1.1" xmlns="http://www.w3.org/2000/svg" xmlns:xlink="http://www.w3.org/1999/xlink">
    <!-- Generator: Sketch 52.4 (67378) - http://www.bohemiancoding.com/sketch -->
    <title>Solidity++</title>
    <desc>Created with Sketch.</desc>
    <defs>
        <rect id="path-1" x="20" y="183" width="84" height="30"></rect>
        <mask id="mask-2" maskContentUnits="userSpaceOnUse" maskUnits="objectBoundingBox" x="0" y="0" width="84" height="30" fill="white">
            <use xlink:href="#path-1"></use>
        </mask>
        <rect id="path-3" x="216" y="113" width="84" height="30"></rect>
        <mask id="mask-4" maskContentUnits="userSpaceOnUse" maskUnits="objectBoundingBox" x="0" y="0" width="84" height="30" fill="white">
            <use xlink:href="#path-3"></use>
        </mask>
    </defs>
    <g id="Page-1" stroke="none" stroke-width="1" fill="none" fill-rule="evenodd">
        <g id="弹窗" transform="translate(-606.000000, -1572.000000)">
            <g id="Group-62" transform="translate(606.000000, 1572.000000)">
                <rect id="Rectangle" stroke="#007AFF" stroke-width="2" x="1" y="1" width="122" height="252"></rect>
                <rect id="Rectangle-Copy-19" stroke="#1B4366" stroke-width="2" x="197" y="1" width="122" height="252"></rect>
                <text id="A" font-family="PingFangSC-Semibold, PingFang SC" font-size="16" font-weight="500" line-spacing="20" fill="#007AFF">
                    <tspan x="56" y="26">A</tspan>
                </text>
                <text id="B" font-family="PingFangSC-Semibold, PingFang SC" font-size="16" font-weight="500" line-spacing="20" fill="#1B4366">
                    <tspan x="252" y="26">B</tspan>
                </text>
                <rect id="Rectangle" fill="#007AFF" x="10" y="37" width="104" height="30"></rect>
                <rect id="Rectangle-Copy-20" fill="#1B4366" x="206" y="37" width="104" height="30"></rect>
                <rect id="Rectangle-Copy-18" stroke="#1B4366" stroke-width="2" x="11" y="78" width="102" height="156"></rect>
                <rect id="Rectangle-Copy-21" fill="#E5E7EA" x="206" y="77" width="104" height="74"></rect>
                <rect id="Rectangle-Copy-23" stroke="#007AFF" stroke-width="2" x="207" y="162" width="102" height="72"></rect>
                <path id="Line-3-Copy-56" d="M193.451327,199.5 L191.5,199.5 L191.5,197.5 L193.451327,197.5 L193.451327,191.5 L207.451327,198.5 L193.451327,205.5 L193.451327,199.5 Z M115,199.5 L115,197.5 L117,197.5 L117,199.5 L115,199.5 Z M119.5,199.5 L119.5,197.5 L121.5,197.5 L121.5,199.5 L119.5,199.5 Z M124,199.5 L124,197.5 L126,197.5 L126,199.5 L124,199.5 Z M128.5,199.5 L128.5,197.5 L130.5,197.5 L130.5,199.5 L128.5,199.5 Z M133,199.5 L133,197.5 L135,197.5 L135,199.5 L133,199.5 Z M137.5,199.5 L137.5,197.5 L139.5,197.5 L139.5,199.5 L137.5,199.5 Z M142,199.5 L142,197.5 L144,197.5 L144,199.5 L142,199.5 Z M146.5,199.5 L146.5,197.5 L148.5,197.5 L148.5,199.5 L146.5,199.5 Z M151,199.5 L151,197.5 L153,197.5 L153,199.5 L151,199.5 Z M155.5,199.5 L155.5,197.5 L157.5,197.5 L157.5,199.5 L155.5,199.5 Z M160,199.5 L160,197.5 L162,197.5 L162,199.5 L160,199.5 Z M164.5,199.5 L164.5,197.5 L166.5,197.5 L166.5,199.5 L164.5,199.5 Z M169,199.5 L169,197.5 L171,197.5 L171,199.5 L169,199.5 Z M173.5,199.5 L173.5,197.5 L175.5,197.5 L175.5,199.5 L173.5,199.5 Z M178,199.5 L178,197.5 L180,197.5 L180,199.5 L178,199.5 Z M182.5,199.5 L182.5,197.5 L184.5,197.5 L184.5,199.5 L182.5,199.5 Z M187,199.5 L187,197.5 L189,197.5 L189,199.5 L187,199.5 Z" fill="#007AFF" fill-rule="nonzero"></path>
                <path id="Line-3-Copy-57" d="M136,126.5 L137,126.5 L137,128.5 L136,128.5 L136,134.5 L122,127.5 L136,120.5 L136,126.5 Z M139.5,128.5 L139.5,126.5 L141.5,126.5 L141.5,128.5 L139.5,128.5 Z M144,128.5 L144,126.5 L146,126.5 L146,128.5 L144,128.5 Z M148.5,128.5 L148.5,126.5 L150.5,126.5 L150.5,128.5 L148.5,128.5 Z M153,128.5 L153,126.5 L155,126.5 L155,128.5 L153,128.5 Z M157.5,128.5 L157.5,126.5 L159.5,126.5 L159.5,128.5 L157.5,128.5 Z M162,128.5 L162,126.5 L164,126.5 L164,128.5 L162,128.5 Z M166.5,128.5 L166.5,126.5 L168.5,126.5 L168.5,128.5 L166.5,128.5 Z M171,128.5 L171,126.5 L173,126.5 L173,128.5 L171,128.5 Z M175.5,128.5 L175.5,126.5 L177.5,126.5 L177.5,128.5 L175.5,128.5 Z M180,128.5 L180,126.5 L182,126.5 L182,128.5 L180,128.5 Z M184.5,128.5 L184.5,126.5 L186.5,126.5 L186.5,128.5 L184.5,128.5 Z M189,128.5 L189,126.5 L191,126.5 L191,128.5 L189,128.5 Z M193.5,128.5 L193.5,126.5 L195.5,126.5 L195.5,128.5 L193.5,128.5 Z M198,128.5 L198,126.5 L200,126.5 L200,128.5 L198,128.5 Z M202.5,128.5 L202.5,126.5 L204.5,126.5 L204.5,128.5 L202.5,128.5 Z M207,128.5 L207,126.5 L209,126.5 L209,128.5 L207,128.5 Z M211.5,128.5 L211.5,126.5 L213.5,126.5 L213.5,128.5 L211.5,128.5 Z" fill="#1B4366" fill-rule="nonzero"></path>
                <text id="Send" font-family="PingFangSC-Semibold, PingFang SC" font-size="14" font-weight="500" fill="#007AFF">
                    <tspan x="143.193" y="186">Send</tspan>
                </text>
                <text id="Send-Copy" font-family="PingFangSC-Semibold, PingFang SC" font-size="14" font-weight="500" fill="#007AFF">
                    <tspan x="143.193" y="115">Send</tspan>
                </text>
                <use id="Rectangle" stroke="#007AFF" mask="url(#mask-2)" stroke-width="4" stroke-dasharray="2,2.5" xlink:href="#path-1"></use>
                <text id="Send-M1" font-family="PingFangSC-Semibold, PingFang SC" font-size="14" font-weight="500" fill="#007AFF">
                    <tspan x="33.171" y="203">Send M1</tspan>
                </text>
                <text id="Message-M1" font-family="PingFangSC-Semibold, PingFang SC" font-size="14" font-weight="500" fill="#FFFFFF">
                    <tspan x="21.151" y="57">Message M1</tspan>
                </text>
                <text id="Message-M2" font-family="PingFangSC-Semibold, PingFang SC" font-size="14" font-weight="500" fill="#FFFFFF">
                    <tspan x="216.321" y="58">Message M2</tspan>
                </text>
                <use id="Rectangle-Copy-22" stroke="#1B4366" mask="url(#mask-4)" stroke-width="4" stroke-dasharray="2,2.5" xlink:href="#path-3"></use>
                <text id="Send-M2" font-family="PingFangSC-Semibold, PingFang SC" font-size="14" font-weight="500" fill="#1B4366">
                    <tspan x="228.341" y="133">Send M2</tspan>
                </text>
                <text id="On-M1" font-family="PingFangSC-Semibold, PingFang SC" font-size="14" font-weight="500" fill="#1B4366">
                    <tspan x="41.486" y="100">On M1</tspan>
                </text>
                <text id="Method-2" font-family="PingFangSC-Semibold, PingFang SC" font-size="14" font-weight="500" fill="#1B4366">
                    <tspan x="226.692" y="100">Method 2</tspan>
                </text>
                <text id="On-M1" font-family="PingFangSC-Semibold, PingFang SC" font-size="14" font-weight="500" fill="#007AFF">
                    <tspan x="237.486" y="184">On M1</tspan>
                </text>
            </g>
        </g>
    </g>
</svg>