<?xml version="1.0" encoding="UTF-8"?>
<svg width="298px" height="244px" viewBox="0 0 298 244" version="1.1" xmlns="http://www.w3.org/2000/svg" xmlns:xlink="http://www.w3.org/1999/xlink">
    <!-- Generator: Sketch 52.4 (67378) - http://www.bohemiancoding.com/sketch -->
    <title>合约升级</title>
    <desc>Created with Sketch.</desc>
    <defs>
        <linearGradient x1="11.3958739%" y1="0%" x2="89.8897258%" y2="89.5095885%" id="linearGradient-1">
            <stop stop-color="#6FBFFF" offset="0%"></stop>
            <stop stop-color="#007AFF" offset="100%"></stop>
        </linearGradient>
    </defs>
    <g id="Page-1" stroke="none" stroke-width="1" fill="none" fill-rule="evenodd">
        <g id="弹窗" transform="translate(-143.000000, -1585.000000)">
            <g id="Group-61" transform="translate(142.000000, 1585.000000)">
                <path id="Line-3-Copy-54" d="M193.037488,31.5 L193,31.5 L193,29.5 L193.037488,29.5 L193.037488,23.5 L207.037488,30.5 L193.037488,37.5 L193.037488,31.5 Z M91,31.5 L91,29.5 L93,29.5 L93,31.5 L91,31.5 Z M97,31.5 L97,29.5 L99,29.5 L99,31.5 L97,31.5 Z M103,31.5 L103,29.5 L105,29.5 L105,31.5 L103,31.5 Z M109,31.5 L109,29.5 L111,29.5 L111,31.5 L109,31.5 Z M115,31.5 L115,29.5 L117,29.5 L117,31.5 L115,31.5 Z M121,31.5 L121,29.5 L123,29.5 L123,31.5 L121,31.5 Z M127,31.5 L127,29.5 L129,29.5 L129,31.5 L127,31.5 Z M133,31.5 L133,29.5 L135,29.5 L135,31.5 L133,31.5 Z M139,31.5 L139,29.5 L141,29.5 L141,31.5 L139,31.5 Z M145,31.5 L145,29.5 L147,29.5 L147,31.5 L145,31.5 Z M151,31.5 L151,29.5 L153,29.5 L153,31.5 L151,31.5 Z M157,31.5 L157,29.5 L159,29.5 L159,31.5 L157,31.5 Z M163,31.5 L163,29.5 L165,29.5 L165,31.5 L163,31.5 Z M169,31.5 L169,29.5 L171,29.5 L171,31.5 L169,31.5 Z M175,31.5 L175,29.5 L177,29.5 L177,31.5 L175,31.5 Z M181,31.5 L181,29.5 L183,29.5 L183,31.5 L181,31.5 Z M187,31.5 L187,29.5 L189,29.5 L189,31.5 L187,31.5 Z" fill="#007AFF" fill-rule="nonzero"></path>
                <path id="Line-3-Copy-55" d="M197.195752,169.861759 L89.7125652,30.6110215 L91.2957932,29.3889785 L198.77898,168.639716 L203.528664,164.973587 L206.541667,180.333333 L192.446068,173.527888 L197.195752,169.861759 Z" fill="#007AFF" fill-rule="nonzero"></path>
                <text id="MyContract" font-family="PingFangSC-Semibold, PingFang SC" font-size="16" font-weight="500" fill="#1B4366">
                    <tspan x="0.17084582" y="73">MyContract</tspan>
                </text>
                <text id="MyContract-Version-1" font-family="PingFangSC-Semibold, PingFang SC" font-size="16" font-weight="500" line-spacing="20" fill="#1B4366">
                    <tspan x="209.809211" y="74">MyContract</tspan>
                    <tspan x="209.809211" y="94">Version 1.0</tspan>
                </text>
                <text id="MyContract-Version-1" font-family="PingFangSC-Semibold, PingFang SC" font-size="16" font-weight="500" line-spacing="20" fill="#1B4366">
                    <tspan x="209" y="224">MyContract</tspan>
                    <tspan x="209" y="244">Version 1.1</tspan>
                </text>
                <g id="iconfinder_content-form-contract-article-paper_3209382" transform="translate(25.170846, 0.000000)" fill="#007AFF">
                    <path d="M0,6 L0,48 L34,48 L34,42 L40,42 L40,0 L6,0 L6,6 L0,6 Z M32,46 L2,46 L2,8 L6,8 L25,8 L25,15 L32,15 L32,42 L32,46 Z M27,9.414 L30.586,13 L27,13 L27,9.414 Z M8,2 L38,2 L38,40 L34,40 L34,13.586 L26.414,6 L8,6 L8,2 Z" id="Shape" fill-rule="nonzero"></path>
                    <rect id="Rectangle" x="6" y="19" width="22" height="2"></rect>
                    <rect id="Rectangle" x="6" y="25" width="22" height="2"></rect>
                    <rect id="Rectangle" x="6" y="31" width="22" height="2"></rect>
                    <rect id="Rectangle" x="6" y="39" width="9" height="2"></rect>
                    <rect id="Rectangle" x="19" y="39" width="9" height="2"></rect>
                    <rect id="Rectangle" x="13" y="13" width="8" height="2"></rect>
                </g>
                <g id="iconfinder_content-form-contract-article-paper_3209382-copy" transform="translate(234.809211, 0.000000)" fill="#007AFF">
                    <path d="M0,6 L0,48 L34,48 L34,42 L40,42 L40,0 L6,0 L6,6 L0,6 Z M32,46 L2,46 L2,8 L6,8 L25,8 L25,15 L32,15 L32,42 L32,46 Z M27,9.414 L30.586,13 L27,13 L27,9.414 Z M8,2 L38,2 L38,40 L34,40 L34,13.586 L26.414,6 L8,6 L8,2 Z" id="Shape" fill-rule="nonzero"></path>
                    <rect id="Rectangle" x="6" y="19" width="22" height="2"></rect>
                    <rect id="Rectangle" x="6" y="25" width="22" height="2"></rect>
                    <rect id="Rectangle" x="6" y="31" width="22" height="2"></rect>
                    <rect id="Rectangle" x="6" y="39" width="9" height="2"></rect>
                    <rect id="Rectangle" x="19" y="39" width="9" height="2"></rect>
                    <rect id="Rectangle" x="13" y="13" width="8" height="2"></rect>
                </g>
                <g id="iconfinder_content-form-contract-article-paper_3209382-copy-2" transform="translate(234.000000, 150.000000)" fill="#007AFF">
                    <path d="M0,6 L0,48 L34,48 L34,42 L40,42 L40,0 L6,0 L6,6 L0,6 Z M32,46 L2,46 L2,8 L6,8 L25,8 L25,15 L32,15 L32,42 L32,46 Z M27,9.414 L30.586,13 L27,13 L27,9.414 Z M8,2 L38,2 L38,40 L34,40 L34,13.586 L26.414,6 L8,6 L8,2 Z" id="Shape" fill-rule="nonzero"></path>
                    <rect id="Rectangle" x="6" y="19" width="22" height="2"></rect>
                    <rect id="Rectangle" x="6" y="25" width="22" height="2"></rect>
                    <rect id="Rectangle" x="6" y="31" width="22" height="2"></rect>
                    <rect id="Rectangle" x="6" y="39" width="9" height="2"></rect>
                    <rect id="Rectangle" x="19" y="39" width="9" height="2"></rect>
                    <rect id="Rectangle" x="13" y="13" width="8" height="2"></rect>
                </g>
            </g>
        </g>
    </g>
</svg>