<svg xmlns="http://www.w3.org/2000/svg" width="215" height="222" viewBox="0 0 215 222">
  <defs>
    <linearGradient id="命名服务-a" x1="11.396%" x2="89.89%" y1="0%" y2="89.51%">
      <stop offset="0%" stop-color="#6FBFFF"/>
      <stop offset="44.855%" stop-color="#3DA0FF"/>
      <stop offset="100%" stop-color="#007AFF"/>
    </linearGradient>
  </defs>
  <g fill="none" fill-rule="evenodd" transform="translate(0 -5)">
    <text fill="#919AA3" font-family="PingFang-SC-Regular, PingFang SC" font-size="16">
      <tspan x="8" y="222">* VNS: Vite Naming Service</tspan>
    </text>
    <g transform="translate(38 73)">
      <rect width="140" height="48" fill="url(#命名服务-a)"/>
      <text fill="#FFF" font-family="PingFangSC-Semibold, PingFang SC" font-size="18" font-weight="500">
        <tspan x="52" y="31">VNS</tspan>
      </text>
    </g>
    <text fill="#007AFF" font-family="PingFangSC-Semibold, PingFang SC" font-size="16" font-weight="500">
      <tspan x=".328" y="188">vite_413b8ad9... ...b778a945</tspan>
    </text>
    <text fill="#1B4366" font-family="PingFangSC-Semibold, PingFang SC" font-size="16" font-weight="500">
      <tspan x="49.056" y="17">vite.mycontract</tspan>
    </text>
    <path fill="#007AFF" d="M114.470655,47.6722054 L114.470655,58 L101.7,58 L101.7,47.6722054 L99,47.6722054 L108.047404,38 L117,47.6722054 L114.470655,47.6722054 Z" transform="matrix(1 0 0 -1 0 96)"/>
    <path fill="#007AFF" d="M114.470655,143.672205 L114.470655,154 L101.7,154 L101.7,143.672205 L99,143.672205 L108.047404,134 L117,143.672205 L114.470655,143.672205 Z" transform="matrix(1 0 0 -1 0 288)"/>
  </g>
</svg>
