<?xml version="1.0" encoding="utf-8"?>
<!-- Generator: Adobe Illustrator 21.0.0, SVG Export Plug-In . SVG Version: 6.00 Build 0)  -->
<svg version="1.1" id="图层_1" xmlns="http://www.w3.org/2000/svg" xmlns:xlink="http://www.w3.org/1999/xlink" x="0px" y="0px"
	 viewBox="0 0 160 168" style="enable-background:new 0 0 160 168;" xml:space="preserve">
<style type="text/css">
	.st0{fill:#1B4366;stroke:#1B4366;stroke-width:2;}
	.st1{fill:#FFFFFF;}
	.st2{fill:#1B4366;}
	.st3{font-family:'PingFangHK-Medium-B5pc-H';}
	.st4{font-size:15px;}
	.st5{fill:#007AFF;}
	.st6{fill:url(#Rectangle_1_);}
	.st7{font-size:16px;}
</style>
<title>无手续费</title>
<desc>Created with Sketch.</desc>
<g id="Oval-Copy-19" transform="translate(68.000000, 0.000000)">
	<circle id="Oval" class="st0" cx="14.6" cy="13.7" r="11"/>
	<circle id="Oval_1_" class="st1" cx="14.6" cy="13.7" r="9.3"/>
	<text transform="matrix(1 0 0 1 10.0051 19.4143)" class="st2 st3 st4">T</text>
</g>
<g id="Oval-Copy-20" transform="translate(68.000000, 144.000000)">
	<circle id="Oval_2_" class="st5" cx="14.3" cy="12" r="12"/>
	<circle id="Oval_3_" class="st1" cx="14.3" cy="12" r="9.3"/>
	<text transform="matrix(1 0 0 1 9.6541 17.6714)" class="st5 st3 st4">T</text>
</g>
<path id="Combined-Shape-Copy-8" class="st5" d="M0,95.4c0-6,4.9-10.8,11-10.8c6.1,0,11,4.9,11,10.8c0,2-1.6,3.6-3.7,3.6H3.7
	C1.6,99,0,97.4,0,95.4z M11,69c3.6,0,6.6,2.9,6.6,6.5S14.6,82,11,82c-3.6,0-6.6-2.9-6.6-6.5S7.4,69,11,69z"/>
<path id="Combined-Shape-Copy-9" class="st2" d="M138,95.4c0-6,4.9-10.8,11-10.8c6.1,0,11,4.9,11,10.8c0,2-1.6,3.6-3.7,3.6h-14.7
	C139.6,99,138,97.4,138,95.4z M149,69c3.6,0,6.6,2.9,6.6,6.5s-3,6.5-6.6,6.5c-3.6,0-6.6-2.9-6.6-6.5S145.4,69,149,69z"/>
<g id="Group-49-Copy" transform="translate(50.000000, 69.000000)">
	
		<linearGradient id="Rectangle_1_" gradientUnits="userSpaceOnUse" x1="-155.1323" y1="199.574" x2="-154.3474" y2="198.6789" gradientTransform="matrix(60 0 0 -30 9313 5988)">
		<stop  offset="0" style="stop-color:#6FBFFF"/>
		<stop  offset="1" style="stop-color:#007AFF"/>
	</linearGradient>
	<path id="Rectangle" class="st6" d="M6,0h48c3.3,0,6,2.7,6,6v18c0,3.3-2.7,6-6,6H6c-3.3,0-6-2.7-6-6V6C0,2.7,2.7,0,6,0z"/>
	<text transform="matrix(1 0 0 1 10.496 21)" class="st1 st3 st7">FREE</text>
</g>
<path id="Path-3-Copy-2" class="st2" d="M40.5,45c27.1-21.5,66.1-21.1,92.8,1.8l0.8,0.7l-1.3,1.5l-0.8-0.7
	c-25.9-22.2-63.7-22.7-90.1-1.9l4.1,4.2l-14.9,4.8l5.1-14.8L40.5,45z"/>
<path id="Path-3-Copy-3" class="st5" d="M124.1,119.6c-27.9,20.5-66.9,18.6-92.7-5.2l0,0l-0.7-0.7l1.4-1.5l0.7,0.7l0,0
	c25.1,23.1,62.9,25,90,5.2l-4-4.4l15.1-4.2l-5.7,14.6L124.1,119.6z"/>
</svg>
