<?xml version="1.0" encoding="UTF-8"?>
<svg width="262px" height="374px" viewBox="0 0 262 374" version="1.1" xmlns="http://www.w3.org/2000/svg" xmlns:xlink="http://www.w3.org/1999/xlink">
    <!-- Generator: Sketch 52.4 (67378) - http://www.bohemiancoding.com/sketch -->
    <title>内置DEX</title>
    <desc>Created with Sketch.</desc>
    <defs>
        <linearGradient x1="11.3958739%" y1="0%" x2="89.8897258%" y2="89.5095885%" id="linearGradient-1">
            <stop stop-color="#6FBFFF" offset="0%"></stop>
            <stop stop-color="#007AFF" offset="100%"></stop>
        </linearGradient>
        <linearGradient x1="24.4636581%" y1="50%" x2="100%" y2="100%" id="linearGradient-2">
            <stop stop-color="#E8F4FF" offset="0%"></stop>
            <stop stop-color="#CDE5FE" offset="100%"></stop>
        </linearGradient>
    </defs>
    <g id="Page-1" stroke="none" stroke-width="1" fill="none" fill-rule="evenodd">
        <g id="弹窗" transform="translate(-1007.000000, -1027.000000)">
            <g id="Group-8" transform="translate(1007.000000, 1027.000000)">
                <g id="Combined-Shape-Copy-7" transform="translate(12.000000, 19.000000)" stroke="#1B4366" stroke-width="2">
                    <path d="M1,26.9405896 C1,28.4298343 2.19348164,29.6310658 3.66666667,29.6310658 L18.3333333,29.6310658 C19.8065184,29.6310658 21,28.4298343 21,26.9405896 C21,21.3791149 16.5191426,16.8691611 11,16.8691611 C5.4806769,16.8691611 1,21.3790131 1,26.9405896 Z M11,1 C7.9084883,1 5.39988728,3.52489063 5.39988728,6.64297059 C5.39988728,9.76105055 7.9084883,12.2859412 11,12.2859412 C14.0913339,12.2859412 16.6001127,9.76094604 16.6001127,6.64297059 C16.6001127,3.52499514 14.0913339,1 11,1 Z"></path>
                </g>
                <path d="M13,45.3855556 C13,46.8280899 14.1888421,48 15.6666667,48 L30.3333333,48 C31.8111579,48 33,46.8280899 33,45.3855556 C33,39.9546878 28.5237822,35.5422222 23,35.5422222 C17.4760372,35.5422222 13,39.9545879 13,45.3855556 Z M23,20 C19.9038487,20 17.3998873,22.468299 17.3998873,25.5061111 C17.3998873,28.5439233 19.9038487,31.0122222 23,31.0122222 C26.0959733,31.0122222 28.6001127,28.5438206 28.6001127,25.5061111 C28.6001127,22.4684016 26.0959733,20 23,20 Z" id="Combined-Shape-Copy-7" stroke="#1B4366" stroke-width="2" fill="#1B4366"></path>
                <g id="Combined-Shape-Copy-7" transform="translate(227.000000, 19.000000)" fill="url(#linearGradient-1)">
                    <path d="M0,26.0715384 C0,20.1563941 4.92683677,15.3572526 11,15.3572526 C17.0728814,15.3572526 22,20.1563941 22,26.0715384 C22,28.0458149 20.3602572,29.6429669 18.3333333,29.6429669 L3.66666667,29.6429669 C1.6397428,29.6429669 0,28.0458149 0,26.0715384 Z M11,0 C14.6449687,0 17.6001127,2.87811251 17.6001127,6.42868122 C17.6001127,9.97924992 14.6449687,12.8573624 11,12.8573624 C7.35474946,12.8573624 4.39988728,9.97924992 4.39988728,6.42868122 C4.39988728,2.87811251 7.35474946,0 11,0 Z"></path>
                </g>
                <path id="Line-3-Copy-4" d="M93,126 L46,126 L45,126 L45,124 L46,124 L93,124 L93,118 L107,125 L93,132 L93,126 Z" fill="#1B4366" fill-rule="nonzero"></path>
                <path id="Line-3-Copy-38" d="M203,352.5 L153,352.5 L152,352.5 L152,350.5 L153,350.5 L203,350.5 L203,344.5 L217,351.5 L203,358.5 L203,352.5 Z" fill="#1B4366" fill-rule="nonzero"></path>
                <path id="Line-3-Copy-27" d="M160.764019,182.992453 L221.414509,139.189321 L222.225189,138.60383 L223.39617,140.225189 L222.585491,140.810679 L161.935,184.613811 L165.447943,189.477887 L150,192 L157.251075,178.128378 L160.764019,182.992453 Z" fill="#007AFF" fill-rule="nonzero"></path>
                <path id="Line-3-Copy-32" d="M53.5135596,330.701341 L110.39255,287.205642 L111.186908,286.598192 L112.401808,288.186908 L111.60745,288.794358 L54.7284598,332.290056 L58.3731604,337.056203 L43,340 L49.8688589,325.935194 L53.5135596,330.701341 Z" fill="#007AFF" fill-rule="nonzero"></path>
                <g id="Oval-Copy-19" transform="translate(58.000000, 91.000000)">
                    <circle id="Oval" stroke="#1B4366" stroke-width="2" fill="#1B4366" cx="14" cy="14" r="13"></circle>
                    <circle id="Oval" fill="#FFFFFF" cx="14" cy="14" r="10.8"></circle>
                    <text id="T1" font-family="PingFangSC-Semibold, PingFang SC" font-size="14" font-weight="500" fill="#1B4366">
                        <tspan x="6.825" y="19.7833333">T1</tspan>
                    </text>
                </g>
                <g id="Oval-Copy-35" transform="translate(167.000000, 318.000000)">
                    <circle id="Oval" stroke="#1B4366" stroke-width="2" fill="#1B4366" cx="14" cy="14" r="13"></circle>
                    <circle id="Oval" fill="#FFFFFF" cx="14" cy="14" r="10.8"></circle>
                    <text id="T1" font-family="PingFangSC-Semibold, PingFang SC" font-size="14" font-weight="500" fill="#1B4366">
                        <tspan x="6.825" y="19.7833333">T1</tspan>
                    </text>
                </g>
                <g id="Oval-Copy-33" transform="translate(170.000000, 132.000000)">
                    <circle id="Oval" fill="#007AFF" cx="14" cy="14" r="14"></circle>
                    <circle id="Oval" fill="#FFFFFF" cx="14" cy="14" r="10.8"></circle>
                    <text id="T2" font-family="PingFangSC-Semibold, PingFang SC" font-size="14" font-weight="500" fill="#007AFF">
                        <tspan x="5.495" y="19.7833333">T2</tspan>
                    </text>
                </g>
                <g id="Oval-Copy-34" transform="translate(59.000000, 281.000000)">
                    <circle id="Oval" fill="#007AFF" cx="14" cy="14" r="14"></circle>
                    <circle id="Oval" fill="#FFFFFF" cx="14" cy="14" r="10.8"></circle>
                    <text id="T2" font-family="PingFangSC-Semibold, PingFang SC" font-size="14" font-weight="500" fill="#007AFF">
                        <tspan x="5.495" y="19.7833333">T2</tspan>
                    </text>
                </g>
                <g id="Group-55" transform="translate(0.000000, 102.000000)">
                    <path d="M22.9763379,44.2945053 C34.6381443,44.2945053 44.1283945,34.8042551 44.1283945,23.1427664 C44.1283945,11.4808013 34.6383031,1.99070986 22.9763379,1.99070986 C11.3143728,1.99070986 1.8242814,11.4808013 1.8242814,23.1427664 C1.8242814,34.8042551 11.3145316,44.2945053 22.9763379,44.2945053 Z" id="Clip-54" stroke="#007AFF" stroke-width="3"></path>
                    <path d="M6.62569478,23.1427664 C6.62569478,32.1724631 13.9466413,39.4927743 22.9763379,39.4927743 C32.0066698,39.4927743 39.3266635,32.1724631 39.3266635,23.1427664 C39.3266635,14.1127521 32.0066698,6.79212323 22.9763379,6.79212323 C13.9466413,6.79212323 6.62569478,14.1127521 6.62569478,23.1427664" id="Fill-83" fill="#007AFF" fill-rule="evenodd"></path>
                </g>
                <g id="Group-55" transform="translate(0.000000, 177.000000)">
                    <path d="M22.9763379,45.290038 C34.6308381,45.290038 44.1283945,35.5860131 44.1283945,23.64587 C44.1283945,11.7052402 34.6309969,2.00137747 22.9763379,2.00137747 C11.321679,2.00137747 1.8242814,11.7052402 1.8242814,23.64587 C1.8242814,35.5860131 11.3218378,45.290038 22.9763379,45.290038 Z" id="Clip-54" stroke="#007AFF" stroke-width="3"></path>
                    <path d="M6.62569478,23.64587 C6.62569478,32.8718644 13.9466413,40.3513129 22.9763379,40.3513129 C32.0066698,40.3513129 39.3266635,32.8718644 39.3266635,23.64587 C39.3266635,14.4195511 32.0066698,6.93977809 22.9763379,6.93977809 C13.9466413,6.93977809 6.62569478,14.4195511 6.62569478,23.64587" id="Fill-83" fill="#007AFF" fill-rule="evenodd"></path>
                </g>
                <g id="Group-55" transform="translate(0.000000, 252.000000)">
                    <path d="M22.9763379,45.290038 C34.6308381,45.290038 44.1283945,35.5860131 44.1283945,23.64587 C44.1283945,11.7052402 34.6309969,2.00137747 22.9763379,2.00137747 C11.321679,2.00137747 1.8242814,11.7052402 1.8242814,23.64587 C1.8242814,35.5860131 11.3218378,45.290038 22.9763379,45.290038 Z" id="Clip-54" stroke="#007AFF" stroke-width="3"></path>
                    <path d="M6.62569478,23.64587 C6.62569478,32.8718644 13.9466413,40.3513129 22.9763379,40.3513129 C32.0066698,40.3513129 39.3266635,32.8718644 39.3266635,23.64587 C39.3266635,14.4195511 32.0066698,6.93977809 22.9763379,6.93977809 C13.9466413,6.93977809 6.62569478,14.4195511 6.62569478,23.64587" id="Fill-83" fill="#007AFF" fill-rule="evenodd"></path>
                </g>
                <g id="Group-55" transform="translate(0.000000, 327.000000)">
                    <path d="M22.9763379,45.290038 C34.6308381,45.290038 44.1283945,35.5860131 44.1283945,23.64587 C44.1283945,11.7052402 34.6309969,2.00137747 22.9763379,2.00137747 C11.321679,2.00137747 1.8242814,11.7052402 1.8242814,23.64587 C1.8242814,35.5860131 11.3218378,45.290038 22.9763379,45.290038 Z" id="Clip-54" stroke="#007AFF" stroke-width="3"></path>
                    <path d="M6.62569478,23.64587 C6.62569478,32.8718644 13.9466413,40.3513129 22.9763379,40.3513129 C32.0066698,40.3513129 39.3266635,32.8718644 39.3266635,23.64587 C39.3266635,14.4195511 32.0066698,6.93977809 22.9763379,6.93977809 C13.9466413,6.93977809 6.62569478,14.4195511 6.62569478,23.64587" id="Fill-83" fill="#007AFF" fill-rule="evenodd"></path>
                </g>
                <path d="M22.5,64 L22.5,104" id="Line-3" stroke="#007AFF" stroke-width="2" stroke-linecap="square" stroke-dasharray="10,10"></path>
                <g id="Group-55" transform="translate(107.000000, 102.000000)">
                    <path d="M23.4758235,44.2945053 C35.4162911,44.2945053 45.1203161,34.7969489 45.1203161,23.1427664 C45.1203161,11.4881074 35.4164534,1.99070986 23.4758235,1.99070986 C11.5351937,1.99070986 1.831331,11.4881074 1.831331,23.1427664 C1.831331,34.7969489 11.535356,44.2945053 23.4758235,44.2945053 Z" id="Clip-54" stroke="#007AFF" stroke-width="3"></path>
                    <path d="M6.76973162,23.1427664 C6.76973162,32.1724631 14.2498291,39.4927743 23.4758235,39.4927743 C32.702467,39.4927743 40.181591,32.1724631 40.181591,23.1427664 C40.181591,14.1127521 32.702467,6.79212323 23.4758235,6.79212323 C14.2498291,6.79212323 6.76973162,14.1127521 6.76973162,23.1427664" id="Fill-83" fill="#007AFF" fill-rule="evenodd"></path>
                </g>
                <g id="Group-55" transform="translate(107.000000, 177.000000)">
                    <path d="M23.4758235,45.290038 C35.4091567,45.290038 45.1203161,35.5788786 45.1203161,23.64587 C45.1203161,11.7123746 35.4093189,2.00137747 23.4758235,2.00137747 C11.5423282,2.00137747 1.831331,11.7123746 1.831331,23.64587 C1.831331,35.5788786 11.5424904,45.290038 23.4758235,45.290038 Z" id="Clip-54" stroke="#007AFF" stroke-width="3"></path>
                    <path d="M6.76973162,23.64587 C6.76973162,32.8718644 14.2498291,40.3513129 23.4758235,40.3513129 C32.702467,40.3513129 40.181591,32.8718644 40.181591,23.64587 C40.181591,14.4195511 32.702467,6.93977809 23.4758235,6.93977809 C14.2498291,6.93977809 6.76973162,14.4195511 6.76973162,23.64587" id="Fill-83" fill="#007AFF" fill-rule="evenodd"></path>
                </g>
                <g id="Group-55" transform="translate(107.000000, 252.000000)">
                    <path d="M23.4758235,45.290038 C35.4091567,45.290038 45.1203161,35.5788786 45.1203161,23.64587 C45.1203161,11.7123746 35.4093189,2.00137747 23.4758235,2.00137747 C11.5423282,2.00137747 1.831331,11.7123746 1.831331,23.64587 C1.831331,35.5788786 11.5424904,45.290038 23.4758235,45.290038 Z" id="Clip-54" stroke="#007AFF" stroke-width="3"></path>
                    <path d="M6.76973162,23.64587 C6.76973162,32.8718644 14.2498291,40.3513129 23.4758235,40.3513129 C32.702467,40.3513129 40.181591,32.8718644 40.181591,23.64587 C40.181591,14.4195511 32.702467,6.93977809 23.4758235,6.93977809 C14.2498291,6.93977809 6.76973162,14.4195511 6.76973162,23.64587" id="Fill-83" fill="#007AFF" fill-rule="evenodd"></path>
                </g>
                <g id="Group-55" transform="translate(107.000000, 326.000000)">
                    <path d="M23.4758235,45.290038 C35.4091567,45.290038 45.1203161,35.5788786 45.1203161,23.64587 C45.1203161,11.7123746 35.4093189,2.00137747 23.4758235,2.00137747 C11.5423282,2.00137747 1.831331,11.7123746 1.831331,23.64587 C1.831331,35.5788786 11.5424904,45.290038 23.4758235,45.290038 Z" id="Clip-54" stroke="#007AFF" stroke-width="3"></path>
                    <path d="M6.76973162,23.64587 C6.76973162,32.8718644 14.2498291,40.3513129 23.4758235,40.3513129 C32.702467,40.3513129 40.181591,32.8718644 40.181591,23.64587 C40.181591,14.4195511 32.702467,6.93977809 23.4758235,6.93977809 C14.2498291,6.93977809 6.76973162,14.4195511 6.76973162,23.64587" id="Fill-83" fill="#007AFF" fill-rule="evenodd"></path>
                </g>
                <path d="M131.5,64 L131.5,104" id="Line-3-Copy" stroke="#007AFF" stroke-width="2" stroke-linecap="square" stroke-dasharray="10,10"></path>
                <g id="Group-59" transform="translate(99.000000, 0.000000)">
                    <polygon id="Polygon" fill="url(#linearGradient-2)" transform="translate(32.000000, 27.500000) scale(-1, 1) rotate(90.000000) translate(-32.000000, -27.500000) " points="32 -4.5 59.5 11.5 59.5 43.5 32 59.5 4.5 43.5 4.5 11.5"></polygon>
                    <g id="Group-29" transform="translate(14.000000, 6.000000)" fill="#007AFF" fill-rule="nonzero">
                        <path d="M16.3548387,9.43548387 C16.3548387,8.39506452 17.2015161,7.5483871 18.2419355,7.5483871 L21.3870968,7.5483871 L21.3870968,6.29032258 L18.2419355,6.29032258 C16.5076935,6.29032258 15.0967742,7.70124194 15.0967742,9.43548387 L14.3192903,9.43548387 L0,16.595129 L0,20.1290323 L1.25806452,20.1290323 L1.25806452,22.6451613 L2.51612903,22.6451613 L2.51612903,32.7096774 L1.25806452,32.7096774 L1.25806452,35.2258065 L0,35.2258065 L0,39 L31.4516129,39 L31.4516129,35.2258065 L30.1935484,35.2258065 L30.1935484,32.7096774 L28.9354839,32.7096774 L28.9354839,22.6451613 L30.1935484,22.6451613 L30.1935484,20.1290323 L31.4516129,20.1290323 L31.4516129,16.595129 L17.1323226,9.43548387 L16.3548387,9.43548387 Z M2.51612903,33.9677419 L6.29032258,33.9677419 L6.29032258,35.2258065 L2.51612903,35.2258065 L2.51612903,33.9677419 Z M10.0645161,22.6451613 L10.0645161,32.7096774 L8.80645161,32.7096774 L8.80645161,35.2258065 L7.5483871,35.2258065 L7.5483871,32.7096774 L6.29032258,32.7096774 L6.29032258,22.6451613 L7.5483871,22.6451613 L7.5483871,20.1290323 L8.80645161,20.1290323 L8.80645161,22.6451613 L10.0645161,22.6451613 Z M17.6129032,22.6451613 L17.6129032,32.7096774 L16.3548387,32.7096774 L16.3548387,35.2258065 L15.0967742,35.2258065 L15.0967742,32.7096774 L13.8387097,32.7096774 L13.8387097,22.6451613 L15.0967742,22.6451613 L15.0967742,20.1290323 L16.3548387,20.1290323 L16.3548387,22.6451613 L17.6129032,22.6451613 Z M25.1612903,22.6451613 L25.1612903,32.7096774 L23.9032258,32.7096774 L23.9032258,35.2258065 L22.6451613,35.2258065 L22.6451613,32.7096774 L21.3870968,32.7096774 L21.3870968,22.6451613 L22.6451613,22.6451613 L22.6451613,20.1290323 L23.9032258,20.1290323 L23.9032258,22.6451613 L25.1612903,22.6451613 Z M28.9354839,33.9677419 L28.9354839,35.2258065 L25.1612903,35.2258065 L25.1612903,33.9677419 L28.9354839,33.9677419 Z M26.4193548,32.7096774 L26.4193548,22.6451613 L27.6774194,22.6451613 L27.6774194,32.7096774 L26.4193548,32.7096774 Z M21.3870968,21.3870968 L17.6129032,21.3870968 L17.6129032,20.1290323 L21.3870968,20.1290323 L21.3870968,21.3870968 Z M20.1290323,22.6451613 L20.1290323,32.7096774 L18.8709677,32.7096774 L18.8709677,22.6451613 L20.1290323,22.6451613 Z M21.3870968,33.9677419 L21.3870968,35.2258065 L17.6129032,35.2258065 L17.6129032,33.9677419 L21.3870968,33.9677419 Z M13.8387097,21.3870968 L10.0645161,21.3870968 L10.0645161,20.1290323 L13.8387097,20.1290323 L13.8387097,21.3870968 Z M12.5806452,22.6451613 L12.5806452,32.7096774 L11.3225806,32.7096774 L11.3225806,22.6451613 L12.5806452,22.6451613 Z M13.8387097,33.9677419 L13.8387097,35.2258065 L10.0645161,35.2258065 L10.0645161,33.9677419 L13.8387097,33.9677419 Z M6.29032258,21.3870968 L2.51612903,21.3870968 L2.51612903,20.1290323 L6.29032258,20.1290323 L6.29032258,21.3870968 Z M5.03225806,22.6451613 L5.03225806,32.7096774 L3.77419355,32.7096774 L3.77419355,22.6451613 L5.03225806,22.6451613 Z M30.1935484,36.483871 L30.1935484,37.7419355 L1.25806452,37.7419355 L1.25806452,36.483871 L30.1935484,36.483871 Z M28.9354839,21.3870968 L25.1612903,21.3870968 L25.1612903,20.1290323 L28.9354839,20.1290323 L28.9354839,21.3870968 Z M30.1935484,18.8709677 L23.9032258,18.8709677 L22.6451613,18.8709677 L16.3548387,18.8709677 L15.0967742,18.8709677 L8.80645161,18.8709677 L7.5483871,18.8709677 L1.25806452,18.8709677 L1.25806452,17.3726129 L14.6161935,10.6935484 L15.0967742,10.6935484 L15.0967742,15.0967742 L16.3548387,15.0967742 L16.3548387,10.6935484 L16.8354194,10.6935484 L30.1935484,17.3726129 L30.1935484,18.8709677 Z M5.03225806,16.3548387 L5.03225806,17.6129032 L26.4193548,17.6129032 L26.4193548,16.3548387 L5.03225806,16.3548387 Z M32.0806452,0 C35.8957258,0 39,3.10427419 39,6.91935484 C39,10.7344355 35.8957258,13.8387097 32.0806452,13.8387097 C28.2655645,13.8387097 25.1612903,10.7344355 25.1612903,6.91935484 C25.1612903,3.10427419 28.2655645,0 32.0806452,0 Z M32.0806452,12.5806452 C35.2025323,12.5806452 37.7419355,10.0412419 37.7419355,6.91935484 C37.7419355,3.79746774 35.2025323,1.25806452 32.0806452,1.25806452 C28.9587581,1.25806452 26.4193548,3.79746774 26.4193548,6.91935484 C26.4193548,10.0412419 28.9587581,12.5806452 32.0806452,12.5806452 Z M22.6451613,6.29032258 L23.9032258,6.29032258 L23.9032258,7.5483871 L22.6451613,7.5483871 L22.6451613,6.29032258 Z M35.2258065,24.5322581 L35.2258065,14.4677419 L36.483871,14.4677419 L36.483871,24.5322581 C36.483871,26.2665 35.0729516,27.6774194 33.3387097,27.6774194 L32.7096774,27.6774194 L32.7096774,26.4193548 L33.3387097,26.4193548 C34.379129,26.4193548 35.2258065,25.5726774 35.2258065,24.5322581 Z M30.1935484,26.4193548 L31.4516129,26.4193548 L31.4516129,27.6774194 L30.1935484,27.6774194 L30.1935484,26.4193548 Z M34.7853202,4.19690323 L34.7853202,5.44974552 L32.7319663,5.44974552 L32.7319663,11.0080645 L31.2984853,11.0080645 L31.2984853,5.44974552 L29.2451314,5.44974552 L29.2451314,4.19690323 L34.7853202,4.19690323 Z" id="bank"></path>
                    </g>
                </g>
                <g id="Group-55" transform="translate(215.000000, 102.000000)">
                    <path d="M23.4758235,44.2945053 C35.4162911,44.2945053 45.1203161,34.7969489 45.1203161,23.1427664 C45.1203161,11.4881074 35.4164534,1.99070986 23.4758235,1.99070986 C11.5351937,1.99070986 1.831331,11.4881074 1.831331,23.1427664 C1.831331,34.7969489 11.535356,44.2945053 23.4758235,44.2945053 Z" id="Clip-54" stroke="#007AFF" stroke-width="3"></path>
                    <path d="M6.76973162,23.1427664 C6.76973162,32.1724631 14.2498291,39.4927743 23.4758235,39.4927743 C32.702467,39.4927743 40.181591,32.1724631 40.181591,23.1427664 C40.181591,14.1127521 32.702467,6.79212323 23.4758235,6.79212323 C14.2498291,6.79212323 6.76973162,14.1127521 6.76973162,23.1427664" id="Fill-83" fill="#007AFF" fill-rule="evenodd"></path>
                </g>
                <g id="Group-55" transform="translate(215.000000, 328.000000)">
                    <path d="M22.9763379,44.2945053 C34.6381443,44.2945053 44.1283945,34.8042551 44.1283945,23.1427664 C44.1283945,11.4808013 34.6383031,1.99070986 22.9763379,1.99070986 C11.3143728,1.99070986 1.8242814,11.4808013 1.8242814,23.1427664 C1.8242814,34.8042551 11.3145316,44.2945053 22.9763379,44.2945053 Z" id="Clip-54" stroke="#007AFF" stroke-width="3"></path>
                    <path d="M6.62569478,23.1427664 C6.62569478,32.1724631 13.9466413,39.4927743 22.9763379,39.4927743 C32.0066698,39.4927743 39.3266635,32.1724631 39.3266635,23.1427664 C39.3266635,14.1127521 32.0066698,6.79212323 22.9763379,6.79212323 C13.9466413,6.79212323 6.62569478,14.1127521 6.62569478,23.1427664" id="Fill-83" fill="#007AFF" fill-rule="evenodd"></path>
                </g>
                <g id="Group-55" transform="translate(215.000000, 252.000000)">
                    <path d="M23.4758235,45.290038 C35.4091567,45.290038 45.1203161,35.5788786 45.1203161,23.64587 C45.1203161,11.7123746 35.4093189,2.00137747 23.4758235,2.00137747 C11.5423282,2.00137747 1.831331,11.7123746 1.831331,23.64587 C1.831331,35.5788786 11.5424904,45.290038 23.4758235,45.290038 Z" id="Clip-54" stroke="#007AFF" stroke-width="3"></path>
                    <path d="M6.76973162,23.64587 C6.76973162,32.8718644 14.2498291,40.3513129 23.4758235,40.3513129 C32.702467,40.3513129 40.181591,32.8718644 40.181591,23.64587 C40.181591,14.4195511 32.702467,6.93977809 23.4758235,6.93977809 C14.2498291,6.93977809 6.76973162,14.4195511 6.76973162,23.64587" id="Fill-83" fill="#007AFF" fill-rule="evenodd"></path>
                </g>
                <g id="Group-55" transform="translate(215.000000, 177.000000)">
                    <path d="M23.4758235,45.290038 C35.4091567,45.290038 45.1203161,35.5788786 45.1203161,23.64587 C45.1203161,11.7123746 35.4093189,2.00137747 23.4758235,2.00137747 C11.5423282,2.00137747 1.831331,11.7123746 1.831331,23.64587 C1.831331,35.5788786 11.5424904,45.290038 23.4758235,45.290038 Z" id="Clip-54" stroke="#007AFF" stroke-width="3"></path>
                    <path d="M6.76973162,23.64587 C6.76973162,32.8718644 14.2498291,40.3513129 23.4758235,40.3513129 C32.702467,40.3513129 40.181591,32.8718644 40.181591,23.64587 C40.181591,14.4195511 32.702467,6.93977809 23.4758235,6.93977809 C14.2498291,6.93977809 6.76973162,14.4195511 6.76973162,23.64587" id="Fill-83" fill="#007AFF" fill-rule="evenodd"></path>
                </g>
                <path d="M238.208333,297.284483 L238.208333,330" id="Line-3-Copy-10" stroke="#007AFF" stroke-width="2" stroke-linecap="square"></path>
                <path d="M238.208333,222.284483 L238,253" id="Line-3-Copy-9" stroke="#007AFF" stroke-width="2" stroke-linecap="square"></path>
                <path d="M238.208333,146.284483 L238.208333,179" id="Line-3-Copy-13" stroke="#007AFF" stroke-width="2" stroke-linecap="square"></path>
                <path d="M23.2083333,297.284483 L23.2083333,330" id="Line-3-Copy-10" stroke="#007AFF" stroke-width="2" stroke-linecap="square"></path>
                <path d="M130.333333,297.284483 L130.208333,327" id="Line-3-Copy-31" stroke="#007AFF" stroke-width="2" stroke-linecap="square"></path>
                <path d="M130.208333,222.284483 L130.208333,253" id="Line-3-Copy-35" stroke="#007AFF" stroke-width="2" stroke-linecap="square"></path>
                <path d="M130.208333,147.275862 L130.208333,179" id="Line-3-Copy-36" stroke="#007AFF" stroke-width="2" stroke-linecap="square"></path>
                <path d="M23.2083333,222.284483 L23.2083333,255" id="Line-3-Copy-9" stroke="#007AFF" stroke-width="2" stroke-linecap="square"></path>
                <path d="M23.2083333,147.284483 L23,179" id="Line-3-Copy-13" stroke="#007AFF" stroke-width="2" stroke-linecap="square"></path>
                <path d="M238.5,64 L238.5,104" id="Line-3-Copy-2" stroke="#007AFF" stroke-width="2" stroke-linecap="square" stroke-dasharray="10,10"></path>
            </g>
        </g>
    </g>
</svg>