<?xml version="1.0" encoding="UTF-8"?>
<svg width="160px" height="168px" viewBox="0 0 160 168" version="1.1" xmlns="http://www.w3.org/2000/svg" xmlns:xlink="http://www.w3.org/1999/xlink">
    <!-- Generator: Sketch 52.4 (67378) - http://www.bohemiancoding.com/sketch -->
    <title>无手续费</title>
    <desc>Created with Sketch.</desc>
    <defs>
        <linearGradient x1="11.3958739%" y1="0%" x2="89.8897258%" y2="89.5095885%" id="linearGradient-1">
            <stop stop-color="#6FBFFF" offset="0%"></stop>
            <stop stop-color="#007AFF" offset="100%"></stop>
        </linearGradient>
    </defs>
    <g id="Page-1" stroke="none" stroke-width="1" fill="none" fill-rule="evenodd">
        <g id="弹窗" transform="translate(-1049.000000, -182.000000)">
            <g id="Group-5" transform="translate(1049.000000, 182.000000)">
                <g id="Oval-Copy-19" transform="translate(68.000000, 0.000000)">
                    <circle id="Oval" stroke="#1B4366" stroke-width="2" fill="#1B4366" cx="12" cy="12" r="11"></circle>
                    <circle id="Oval" fill="#FFFFFF" cx="12" cy="12" r="9.25714286"></circle>
                    <text id="VITE" font-family="PingFangSC-Semibold, PingFang SC" font-size="15" font-weight="500" fill="#1B4366">
                        <tspan x="7.3875" y="17.6714286">T</tspan>
                    </text>
                </g>
                <g id="Oval-Copy-20" transform="translate(68.000000, 144.000000)">
                    <circle id="Oval" fill="#007AFF" cx="12" cy="12" r="12"></circle>
                    <circle id="Oval" fill="#FFFFFF" cx="12" cy="12" r="9.25714286"></circle>
                    <text id="VITE" font-family="PingFangSC-Semibold, PingFang SC" font-size="15" font-weight="500" fill="#007AFF">
                        <tspan x="7.3875" y="17.6714286">T</tspan>
                    </text>
                </g>
                <path d="M0,95.3855556 C0,89.3991667 4.92683677,84.5422222 11,84.5422222 C17.0728814,84.5422222 22,89.3991667 22,95.3855556 C22,97.3836111 20.3602572,99 18.3333333,99 L3.66666667,99 C1.6397428,99 0,97.3836111 0,95.3855556 Z M11,69 C14.6449687,69 17.6001127,71.9127778 17.6001127,75.5061111 C17.6001127,79.0994444 14.6449687,82.0122222 11,82.0122222 C7.35474946,82.0122222 4.39988728,79.0994444 4.39988728,75.5061111 C4.39988728,71.9127778 7.35474946,69 11,69 Z" id="Combined-Shape-Copy-8" fill="#007AFF"></path>
                <path d="M138,95.3855556 C138,89.3991667 142.926837,84.5422222 149,84.5422222 C155.072881,84.5422222 160,89.3991667 160,95.3855556 C160,97.3836111 158.360257,99 156.333333,99 L141.666667,99 C139.639743,99 138,97.3836111 138,95.3855556 Z M149,69 C152.644969,69 155.600113,71.9127778 155.600113,75.5061111 C155.600113,79.0994444 152.644969,82.0122222 149,82.0122222 C145.354749,82.0122222 142.399887,79.0994444 142.399887,75.5061111 C142.399887,71.9127778 145.354749,69 149,69 Z" id="Combined-Shape-Copy-9" fill="#1B4366"></path>
                <g id="Group-49-Copy" transform="translate(50.000000, 69.000000)">
                    <rect id="Rectangle" fill="url(#linearGradient-1)" x="0" y="0" width="60" height="30" rx="6"></rect>
                    <text id="FREE" font-family="PingFangSC-Semibold, PingFang SC" font-size="16" font-weight="500" fill="#FFFFFF">
                        <tspan x="10.496" y="21">FREE</tspan>
                    </text>
                </g>
                <path id="Path-3-Copy-2" d="M57.9445148,16.2652239 C91.9659709,22.8786993 116.959973,52.816817 116.959973,87.9599725 L116.959973,88.9599725 L114.959973,88.9599725 L114.959973,87.9599725 C114.959973,53.8496419 90.7493992,24.7799062 57.7663891,18.2683461 L57.2449247,24.1325025 L43.9199725,15.9199725 L58.4849678,10.1875287 L57.9445148,16.2652239 Z" fill="#1B4366" fill-rule="nonzero"></path>
                <path id="Path-3-Copy-3" d="M57.9446183,80.2649863 C91.965679,86.878452 116.959367,116.816248 116.959367,151.959012 L116.959367,151.959722 L116.959367,152.959722 L114.959367,152.959722 L114.959367,151.959722 L114.959367,151.959012 C114.959367,117.849073 90.7491061,88.779658 57.7664908,82.2681086 L57.2450214,88.1322633 L43.9200765,79.9197216 L58.4850768,74.1872906 L57.9446183,80.2649863 Z" fill="#007AFF" fill-rule="nonzero"></path>
            </g>
        </g>
    </g>
</svg>