<?xml version="1.0" encoding="UTF-8"?>
<svg width="331px" height="290px" viewBox="0 0 331 290" version="1.1" xmlns="http://www.w3.org/2000/svg" xmlns:xlink="http://www.w3.org/1999/xlink">
    <!-- Generator: Sketch 52.4 (67378) - http://www.bohemiancoding.com/sketch -->
    <title>HDPoS共识</title>
    <desc>Created with Sketch.</desc>
    <defs>
        <linearGradient x1="11.3958739%" y1="0%" x2="89.8897258%" y2="89.5095885%" id="linearGradient-1">
            <stop stop-color="#6FBFFF" offset="0%"></stop>
            <stop stop-color="#007AFF" offset="100%"></stop>
        </linearGradient>
    </defs>
    <g id="Page-1" stroke="none" stroke-width="1" fill="none" fill-rule="evenodd">
        <g id="弹窗" transform="translate(-542.000000, -167.000000)">
            <g id="Group-4" transform="translate(542.000000, 167.000000)">
                <text id="SNAPSHOT-chain" font-family="PingFangSC-Semibold, PingFang SC" font-size="16" font-weight="500" letter-spacing="-1" fill="#1B4366">
                    <tspan x="201.296" y="20">SNAPSHOT CHAI</tspan>
                    <tspan x="319.992" y="20">N</tspan>
                </text>
                <g id="Group-124" transform="translate(212.000000, 74.000000)">
                    <path d="M1.5,1.5 L1.5,44.5 L98.5,44.5 L98.5,1.5 L1.5,1.5 Z" id="Clip-123" stroke="url(#linearGradient-1)" stroke-width="3" fill="#F9FCFF" fill-rule="evenodd"></path>
                    <text id="Type-something" font-family="PingFangSC-Semibold, PingFang SC" font-size="14" font-weight="500" letter-spacing="-0.875"></text>
                </g>
                <g id="Group-124" transform="translate(212.000000, 159.000000)">
                    <path d="M1.5,1.5 L1.5,44.5 L98.5,44.5 L98.5,1.5 L1.5,1.5 Z" id="Clip-123" stroke="url(#linearGradient-1)" stroke-width="3" fill="#F9FCFF" fill-rule="evenodd"></path>
                    <text id="Type-something" font-family="PingFangSC-Semibold, PingFang SC" font-size="14" font-weight="500" letter-spacing="-0.875"></text>
                </g>
                <g id="Group-124" transform="translate(212.000000, 244.000000)">
                    <path d="M1.5,1.5 L1.5,44.5 L98.5,44.5 L98.5,1.5 L1.5,1.5 Z" id="Clip-123" stroke="url(#linearGradient-1)" stroke-width="3" fill="#F9FCFF" fill-rule="evenodd"></path>
                    <text id="Type-something" font-family="PingFangSC-Semibold, PingFang SC" font-size="14" font-weight="500" letter-spacing="-0.875"></text>
                </g>
                <path id="Line-3-Copy-11" d="M263.158333,134.336207 L263.158333,159 L263.158333,160 L261.158333,160 L261.158333,159 L261.158333,134.336207 L255.158333,134.336207 L262.158333,120.336207 L269.158333,134.336207 L263.158333,134.336207 Z" fill="#007AFF" fill-rule="nonzero"></path>
                <path id="Line-3-Copy-12" d="M263.158333,219.336207 L263.158333,244 L263.158333,245 L261.158333,245 L261.158333,244 L261.158333,219.336207 L255.158333,219.336207 L262.158333,205.336207 L269.158333,219.336207 L263.158333,219.336207 Z" fill="#007AFF" fill-rule="nonzero"></path>
                <path d="M262.5,35 L262.5,75" id="Line-3-Copy-3" stroke="#007AFF" stroke-width="2" stroke-linecap="square" stroke-dasharray="10,10"></path>
                <path d="M214,185 C216.209139,185 218,183.209139 218,181 C218,178.790861 216.209139,177 214,177 C211.790861,177 210,178.790861 210,181 C210,183.209139 211.790861,185 214,185 Z" id="Oval-2-Copy" stroke="#007AFF" stroke-width="2" stroke-dasharray="2,2.5"></path>
                <path d="M45,102 C47.209139,102 49,100.209139 49,98 C49,95.790861 47.209139,94 45,94 C42.790861,94 41,95.790861 41,98 C41,100.209139 42.790861,102 45,102 Z" id="Oval-2" stroke="#007AFF" stroke-width="2" stroke-dasharray="2,2.5"></path>
                <path d="M45,102 C47.209139,102 49,100.209139 49,98 C49,95.790861 47.209139,94 45,94 C42.790861,94 41,95.790861 41,98 C41,100.209139 42.790861,102 45,102 Z" id="Oval-2" stroke="#007AFF" stroke-width="2" stroke-dasharray="2,2.5"></path>
                <path d="M49,99 L211,180" id="Line-4" stroke="#007AFF" stroke-width="2" stroke-dasharray="2,2.5"></path>
                <path d="M148,102 C150.209139,102 152,100.209139 152,98 C152,95.790861 150.209139,94 148,94 C145.790861,94 144,95.790861 144,98 C144,100.209139 145.790861,102 148,102 Z" id="Oval-2" stroke="#007AFF" stroke-width="2" stroke-dasharray="2,2.5"></path>
                <path d="M152,99 L211,180" id="Line-4" stroke="#007AFF" stroke-width="2" stroke-dasharray="2,2.5"></path>
                <path d="M213,272 C215.209139,272 217,270.209139 217,268 C217,265.790861 215.209139,264 213,264 C210.790861,264 209,265.790861 209,268 C209,270.209139 210.790861,272 213,272 Z" id="Oval-2-Copy" stroke="#007AFF" stroke-width="2" stroke-dasharray="2,2.5"></path>
                <path d="M45,185 C47.209139,185 49,183.209139 49,181 C49,178.790861 47.209139,177 45,177 C42.790861,177 41,178.790861 41,181 C41,183.209139 42.790861,185 45,185 Z" id="Oval-2" stroke="#007AFF" stroke-width="2" stroke-dasharray="2,2.5"></path>
                <path d="M49,182 L210,267" id="Line-4" stroke="#007AFF" stroke-width="2" stroke-dasharray="2,2.5"></path>
                <path d="M184,271 C186.209139,271 188,269.209139 188,267 C188,264.790861 186.209139,263 184,263 C181.790861,263 180,264.790861 180,267 C180,269.209139 181.790861,271 184,271 Z" id="Oval-2" stroke="#007AFF" stroke-width="2" stroke-dasharray="2,2.5"></path>
                <path d="M190,267.124745 L210,267.875255" id="Line-4" stroke="#007AFF" stroke-width="2" stroke-dasharray="2,2.5"></path>
                <g id="Combined-Shape-Copy-7" transform="translate(15.000000, 0.000000)" fill="url(#linearGradient-1)">
                    <path d="M0,24.3334358 C0,18.8126345 4.47894251,14.3334358 10,14.3334358 C15.5208013,14.3334358 20,18.8126345 20,24.3334358 C20,26.1760939 18.5093247,27.6667691 16.6666667,27.6667691 L3.33333333,27.6667691 C1.49067527,27.6667691 0,26.1760939 0,24.3334358 Z M10,0 C13.313608,0 16.0001025,2.68623834 16.0001025,6.00010247 C16.0001025,9.31396659 13.313608,12.0002049 10,12.0002049 C6.68613587,12.0002049 3.99989753,9.31396659 3.99989753,6.00010247 C3.99989753,2.68623834 6.68613587,0 10,0 Z"></path>
                </g>
                <g id="Combined-Shape-Copy-7" transform="translate(118.000000, 0.000000)" fill="url(#linearGradient-1)">
                    <path d="M0,24.3334358 C0,18.8126345 4.47894251,14.3334358 10,14.3334358 C15.5208013,14.3334358 20,18.8126345 20,24.3334358 C20,26.1760939 18.5093247,27.6667691 16.6666667,27.6667691 L3.33333333,27.6667691 C1.49067527,27.6667691 0,26.1760939 0,24.3334358 Z M10,0 C13.313608,0 16.0001025,2.68623834 16.0001025,6.00010247 C16.0001025,9.31396659 13.313608,12.0002049 10,12.0002049 C6.68613587,12.0002049 3.99989753,9.31396659 3.99989753,6.00010247 C3.99989753,2.68623834 6.68613587,0 10,0 Z"></path>
                </g>
                <g id="Group-55" transform="translate(0.000000, 72.000000)">
                    <path d="M23.4758235,44.2945053 C35.4162911,44.2945053 45.1203161,34.7969489 45.1203161,23.1427664 C45.1203161,11.4881074 35.4164534,1.99070986 23.4758235,1.99070986 C11.5351937,1.99070986 1.831331,11.4881074 1.831331,23.1427664 C1.831331,34.7969489 11.535356,44.2945053 23.4758235,44.2945053 Z" id="Clip-54" stroke="#007AFF" stroke-width="3"></path>
                    <path d="M6.76973162,23.1427664 C6.76973162,32.1724631 14.2498291,39.4927743 23.4758235,39.4927743 C32.702467,39.4927743 40.181591,32.1724631 40.181591,23.1427664 C40.181591,14.1127521 32.702467,6.79212323 23.4758235,6.79212323 C14.2498291,6.79212323 6.76973162,14.1127521 6.76973162,23.1427664" id="Fill-83" fill="#007AFF" fill-rule="evenodd"></path>
                </g>
                <g id="Group-55" transform="translate(0.000000, 157.000000)">
                    <path d="M23.4758235,45.290038 C35.4091567,45.290038 45.1203161,35.5788786 45.1203161,23.64587 C45.1203161,11.7123746 35.4093189,2.00137747 23.4758235,2.00137747 C11.5423282,2.00137747 1.831331,11.7123746 1.831331,23.64587 C1.831331,35.5788786 11.5424904,45.290038 23.4758235,45.290038 Z" id="Clip-54" stroke="#007AFF" stroke-width="3"></path>
                    <path d="M6.76973162,23.64587 C6.76973162,32.8718644 14.2498291,40.3513129 23.4758235,40.3513129 C32.702467,40.3513129 40.181591,32.8718644 40.181591,23.64587 C40.181591,14.4195511 32.702467,6.93977809 23.4758235,6.93977809 C14.2498291,6.93977809 6.76973162,14.4195511 6.76973162,23.64587" id="Fill-83" fill="#007AFF" fill-rule="evenodd"></path>
                </g>
                <g id="Group-55" transform="translate(0.000000, 242.000000)">
                    <path d="M23.4758235,45.290038 C35.4091567,45.290038 45.1203161,35.5788786 45.1203161,23.64587 C45.1203161,11.7123746 35.4093189,2.00137747 23.4758235,2.00137747 C11.5423282,2.00137747 1.831331,11.7123746 1.831331,23.64587 C1.831331,35.5788786 11.5424904,45.290038 23.4758235,45.290038 Z" id="Clip-54" stroke="#007AFF" stroke-width="3"></path>
                    <path d="M6.76973162,23.64587 C6.76973162,32.8718644 14.2498291,40.3513129 23.4758235,40.3513129 C32.702467,40.3513129 40.181591,32.8718644 40.181591,23.64587 C40.181591,14.4195511 32.702467,6.93977809 23.4758235,6.93977809 C14.2498291,6.93977809 6.76973162,14.4195511 6.76973162,23.64587" id="Fill-83" fill="#007AFF" fill-rule="evenodd"></path>
                </g>
                <path id="Line-3-Copy-5" d="M23.5,132 L23.5,156 L23.5,157 L21.5,157 L21.5,156 L21.5,132 L15.5,132 L22.5,118 L29.5,132 L23.5,132 Z" fill="#007AFF" fill-rule="nonzero"></path>
                <path id="Line-3-Copy-8" d="M23.5,218 L23.5,242 L23.5,243 L21.5,243 L21.5,242 L21.5,218 L15.5,218 L22.5,204 L29.5,218 L23.5,218 Z" fill="#007AFF" fill-rule="nonzero"></path>
                <path d="M23.5,34 L23.5,74" id="Line-3-Copy" stroke="#007AFF" stroke-width="2" stroke-linecap="square" stroke-dasharray="10,10"></path>
                <g id="Group-55" transform="translate(103.000000, 72.000000)">
                    <path d="M23.4758235,44.2945053 C35.4162911,44.2945053 45.1203161,34.7969489 45.1203161,23.1427664 C45.1203161,11.4881074 35.4164534,1.99070986 23.4758235,1.99070986 C11.5351937,1.99070986 1.831331,11.4881074 1.831331,23.1427664 C1.831331,34.7969489 11.535356,44.2945053 23.4758235,44.2945053 Z" id="Clip-54" stroke="#007AFF" stroke-width="3"></path>
                    <path d="M6.76973162,23.1427664 C6.76973162,32.1724631 14.2498291,39.4927743 23.4758235,39.4927743 C32.702467,39.4927743 40.181591,32.1724631 40.181591,23.1427664 C40.181591,14.1127521 32.702467,6.79212323 23.4758235,6.79212323 C14.2498291,6.79212323 6.76973162,14.1127521 6.76973162,23.1427664" id="Fill-83" fill="#007AFF" fill-rule="evenodd"></path>
                </g>
                <g id="Group-55" transform="translate(103.000000, 157.000000)">
                    <path d="M23.4758235,45.290038 C35.4091567,45.290038 45.1203161,35.5788786 45.1203161,23.64587 C45.1203161,11.7123746 35.4093189,2.00137747 23.4758235,2.00137747 C11.5423282,2.00137747 1.831331,11.7123746 1.831331,23.64587 C1.831331,35.5788786 11.5424904,45.290038 23.4758235,45.290038 Z" id="Clip-54" stroke="#007AFF" stroke-width="3"></path>
                    <path d="M6.76973162,23.64587 C6.76973162,32.8718644 14.2498291,40.3513129 23.4758235,40.3513129 C32.702467,40.3513129 40.181591,32.8718644 40.181591,23.64587 C40.181591,14.4195511 32.702467,6.93977809 23.4758235,6.93977809 C14.2498291,6.93977809 6.76973162,14.4195511 6.76973162,23.64587" id="Fill-83" fill="#007AFF" fill-rule="evenodd"></path>
                </g>
                <path id="Line-3-Copy-10" d="M133.651893,212.766415 L152.875034,247.515939 L153.359095,248.390973 L151.609027,249.359095 L151.124966,248.484061 L131.901825,213.734538 L126.651621,216.638906 L126,201 L138.902098,209.862047 L133.651893,212.766415 Z" fill="#007AFF" fill-rule="nonzero"></path>
                <g id="Group-55" transform="translate(139.000000, 243.000000)">
                    <path d="M22.9763379,44.2945053 C34.6381443,44.2945053 44.1283945,34.8042551 44.1283945,23.1427664 C44.1283945,11.4808013 34.6383031,1.99070986 22.9763379,1.99070986 C11.3143728,1.99070986 1.8242814,11.4808013 1.8242814,23.1427664 C1.8242814,34.8042551 11.3145316,44.2945053 22.9763379,44.2945053 Z" id="Clip-54" stroke="#007AFF" stroke-width="3"></path>
                    <path d="M6.62569478,23.1427664 C6.62569478,32.1724631 13.9466413,39.4927743 22.9763379,39.4927743 C32.0066698,39.4927743 39.3266635,32.1724631 39.3266635,23.1427664 C39.3266635,14.1127521 32.0066698,6.79212323 22.9763379,6.79212323 C13.9466413,6.79212323 6.62569478,14.1127521 6.62569478,23.1427664" id="Fill-83" fill="#007AFF" fill-rule="evenodd"></path>
                </g>
                <path id="Line-3-Copy-10" d="M111.942511,214.198424 L127.902134,247.568545 L128.33359,248.470679 L126.529321,249.33359 L126.097866,248.431455 L110.138243,215.061335 L104.725437,217.650068 L105,202 L117.355317,211.609691 L111.942511,214.198424 Z" fill="#1B4366" fill-rule="nonzero"></path>
                <g id="Group-55-Copy-12" transform="translate(71.000000, 243.000000)">
                    <path d="M22.9763379,44.2945053 C34.6381443,44.2945053 44.1283945,34.8042551 44.1283945,23.1427664 C44.1283945,11.4808013 34.6383031,1.99070986 22.9763379,1.99070986 C11.3143728,1.99070986 1.8242814,11.4808013 1.8242814,23.1427664 C1.8242814,34.8042551 11.3145316,44.2945053 22.9763379,44.2945053 Z" id="Clip-54" stroke="#1B4366" stroke-width="3"></path>
                    <path d="M6.62569478,23.1427664 C6.62569478,32.1724631 13.9466413,39.4927743 22.9763379,39.4927743 C32.0066698,39.4927743 39.3266635,32.1724631 39.3266635,23.1427664 C39.3266635,14.1127521 32.0066698,6.79212323 22.9763379,6.79212323 C13.9466413,6.79212323 6.62569478,14.1127521 6.62569478,23.1427664" id="Fill-83" fill="#1B4366"></path>
                </g>
                <path id="Line-3-Copy-22" d="M126.158333,132.336207 L126.158333,157 L126.158333,158 L124.158333,158 L124.158333,157 L124.158333,132.336207 L118.158333,132.336207 L125.158333,118.336207 L132.158333,132.336207 L126.158333,132.336207 Z" fill="#007AFF" fill-rule="nonzero"></path>
                <path d="M126.5,34 L126.5,74" id="Line-3-Copy-2" stroke="#007AFF" stroke-width="2" stroke-linecap="square" stroke-dasharray="10,10"></path>
            </g>
        </g>
    </g>
</svg>