<?xml version="1.0" encoding="UTF-8"?>
<svg width="400px" height="467px" viewBox="0 0 400 467" version="1.1" xmlns="http://www.w3.org/2000/svg" xmlns:xlink="http://www.w3.org/1999/xlink">
    <!-- Generator: Sketch 52.4 (67378) - http://www.bohemiancoding.com/sketch -->
    <title>DAG账本</title>
    <desc>Created with Sketch.</desc>
    <defs>
        <linearGradient x1="11.3958739%" y1="0%" x2="89.8897258%" y2="89.5095885%" id="linearGradient-1">
            <stop stop-color="#6FBFFF" offset="0%"></stop>
            <stop stop-color="#007AFF" offset="100%"></stop>
        </linearGradient>
    </defs>
    <g id="Page-1" stroke="none" stroke-width="1" fill="none" fill-rule="evenodd">
        <g id="弹窗" transform="translate(-1572.000000, -181.000000)">
            <g id="Group-9" transform="translate(1572.000000, 181.000000)">
                <g id="Group-51">
                    <g id="Group-60" stroke-width="1" fill-rule="evenodd" transform="translate(22.666667, 122.754286)" fill="#007AFF">
                        <path id="Line-3-Copy-15" d="M8.3234648,14.6370387 L94.8453909,151.574423 L95.379539,152.419814 L93.6887572,153.48811 L93.1546091,152.64272 L6.63268301,15.705335 L1.56033762,18.9102238 L0,3.33571429 L13.3958102,11.4321499 L8.3234648,14.6370387 Z" fill-rule="nonzero"></path>
                        <path id="Line-3-Copy-21" d="M211.96944,9.81773272 L143.980124,67.4769536 L143.217456,68.1237439 L141.923875,66.5984082 L142.686543,65.9516179 L210.67586,8.29239702 L206.795118,3.71638994 L222,0 L215.850183,14.3937398 L211.96944,9.81773272 Z" fill-rule="nonzero"></path>
                        <path id="Line-3-Copy-33" d="M218.539124,183.095631 L25.2494312,321.708355 L24.4367902,322.29112 L23.2712611,320.665838 L24.0839021,320.083073 L217.373594,181.470349 L213.877007,176.594503 L229.333333,174.124286 L222.035711,187.971477 L218.539124,183.095631 Z" fill-rule="nonzero"></path>
                        <path id="Line-3-Copy-34" d="M349.032285,18.0304259 L261.594306,235.207763 L261.220828,236.135403 L259.36555,235.388447 L259.739028,234.460808 L347.177006,17.2834705 L341.611171,15.0426043 L353.333333,4.67 L354.59812,20.2712921 L349.032285,18.0304259 Z" fill-rule="nonzero"></path>
                    </g>
                    <g id="Combined-Shape-Copy-7" transform="translate(12.666667, 0.000000)" fill="url(#linearGradient-1)" fill-rule="evenodd">
                        <path d="M0,24.3334358 C0,18.8126345 4.47894251,14.3334358 10,14.3334358 C15.5208013,14.3334358 20,18.8126345 20,24.3334358 C20,26.1760939 18.5093247,27.6667691 16.6666667,27.6667691 L3.33333333,27.6667691 C1.49067527,27.6667691 0,26.1760939 0,24.3334358 Z M10,0 C13.313608,0 16.0001025,2.68623834 16.0001025,6.00010247 C16.0001025,9.31396659 13.313608,12.0002049 10,12.0002049 C6.68613587,12.0002049 3.99989753,9.31396659 3.99989753,6.00010247 C3.99989753,2.68623834 6.68613587,0 10,0 Z"></path>
                    </g>
                    <g id="Group-55-Copy" transform="translate(0.000000, 79.390000)" fill-rule="evenodd" stroke-width="1">
                        <g>
                            <path d="M22.9763379,44.2945053 C34.6381443,44.2945053 44.1283945,34.8042551 44.1283945,23.1427664 C44.1283945,11.4808013 34.6383031,1.99070986 22.9763379,1.99070986 C11.3143728,1.99070986 1.8242814,11.4808013 1.8242814,23.1427664 C1.8242814,34.8042551 11.3145316,44.2945053 22.9763379,44.2945053 Z" id="Clip-54" stroke="#1B4366" stroke-width="3"></path>
                            <path d="M6.62569478,23.1427664 C6.62569478,32.1724631 13.9466413,39.4927743 22.9763379,39.4927743 C32.0066698,39.4927743 39.3266635,32.1724631 39.3266635,23.1427664 C39.3266635,14.1127521 32.0066698,6.79212323 22.9763379,6.79212323 C13.9466413,6.79212323 6.62569478,14.1127521 6.62569478,23.1427664" id="Fill-83" fill="#1B4366"></path>
                        </g>
                    </g>
                    <g id="Group-55-Copy" transform="translate(0.000000, 164.117143)" fill-rule="evenodd" stroke-width="1">
                        <g>
                            <path d="M22.9763379,45.290038 C34.6308381,45.290038 44.1283945,35.5860131 44.1283945,23.64587 C44.1283945,11.7052402 34.6309969,2.00137747 22.9763379,2.00137747 C11.321679,2.00137747 1.8242814,11.7052402 1.8242814,23.64587 C1.8242814,35.5860131 11.3218378,45.290038 22.9763379,45.290038 Z" id="Clip-54" stroke="#1B4366" stroke-width="3"></path>
                            <path d="M6.62569478,23.64587 C6.62569478,32.8718644 13.9466413,40.3513129 22.9763379,40.3513129 C32.0066698,40.3513129 39.3266635,32.8718644 39.3266635,23.64587 C39.3266635,14.4195511 32.0066698,6.93977809 22.9763379,6.93977809 C13.9466413,6.93977809 6.62569478,14.4195511 6.62569478,23.64587" id="Fill-83" fill="#1B4366"></path>
                        </g>
                    </g>
                    <g id="Group-55-Copy" transform="translate(0.000000, 249.511429)" fill-rule="evenodd" stroke-width="1">
                        <g>
                            <path d="M22.9763379,45.290038 C34.6308381,45.290038 44.1283945,35.5860131 44.1283945,23.64587 C44.1283945,11.7052402 34.6309969,2.00137747 22.9763379,2.00137747 C11.321679,2.00137747 1.8242814,11.7052402 1.8242814,23.64587 C1.8242814,35.5860131 11.3218378,45.290038 22.9763379,45.290038 Z" id="Clip-54" stroke="#1B4366" stroke-width="3"></path>
                            <path d="M6.62569478,23.64587 C6.62569478,32.8718644 13.9466413,40.3513129 22.9763379,40.3513129 C32.0066698,40.3513129 39.3266635,32.8718644 39.3266635,23.64587 C39.3266635,14.4195511 32.0066698,6.93977809 22.9763379,6.93977809 C13.9466413,6.93977809 6.62569478,14.4195511 6.62569478,23.64587" id="Fill-83" fill="#1B4366"></path>
                        </g>
                    </g>
                    <g id="Group-55" transform="translate(0.000000, 420.300000)">
                        <path d="M22.9763379,45.290038 C34.6308381,45.290038 44.1283945,35.5860131 44.1283945,23.64587 C44.1283945,11.7052402 34.6309969,2.00137747 22.9763379,2.00137747 C11.321679,2.00137747 1.8242814,11.7052402 1.8242814,23.64587 C1.8242814,35.5860131 11.3218378,45.290038 22.9763379,45.290038 Z" id="Clip-54" stroke="#007AFF" stroke-width="3"></path>
                        <path d="M6.62569478,23.64587 C6.62569478,32.8718644 13.9466413,40.3513129 22.9763379,40.3513129 C32.0066698,40.3513129 39.3266635,32.8718644 39.3266635,23.64587 C39.3266635,14.4195511 32.0066698,6.93977809 22.9763379,6.93977809 C13.9466413,6.93977809 6.62569478,14.4195511 6.62569478,23.64587" id="Fill-83" fill="#007AFF" fill-rule="evenodd"></path>
                    </g>
                    <g id="Group-55-Copy" transform="translate(0.000000, 335.572857)" fill-rule="evenodd" stroke-width="1">
                        <g>
                            <path d="M22.9763379,45.290038 C34.6308381,45.290038 44.1283945,35.5860131 44.1283945,23.64587 C44.1283945,11.7052402 34.6309969,2.00137747 22.9763379,2.00137747 C11.321679,2.00137747 1.8242814,11.7052402 1.8242814,23.64587 C1.8242814,35.5860131 11.3218378,45.290038 22.9763379,45.290038 Z" id="Clip-54" stroke="#1B4366" stroke-width="3"></path>
                            <path d="M6.62569478,23.64587 C6.62569478,32.8718644 13.9466413,40.3513129 22.9763379,40.3513129 C32.0066698,40.3513129 39.3266635,32.8718644 39.3266635,23.64587 C39.3266635,14.4195511 32.0066698,6.93977809 22.9763379,6.93977809 C13.9466413,6.93977809 6.62569478,14.4195511 6.62569478,23.64587" id="Fill-83" fill="#1B4366"></path>
                        </g>
                    </g>
                    <path d="M23.3333333,41.3628571 L23.3333333,81.3914286" id="Line-3-Copy-13" stroke="#007AFF" stroke-width="2" stroke-linecap="square" stroke-dasharray="10,10"></path>
                    <path id="Line-3-Copy-14" d="M23.8333333,139.756429 L23.8333333,164.117143 L23.8333333,165.117143 L21.8333333,165.117143 L21.8333333,164.117143 L21.8333333,139.756429 L15.8333333,139.756429 L22.8333333,125.756429 L29.8333333,139.756429 L23.8333333,139.756429 Z" fill="#007AFF" fill-rule="nonzero"></path>
                    <path id="Line-3-Copy-16" d="M23.8333333,225.150714 L23.8333333,249.511429 L23.8333333,250.511429 L21.8333333,250.511429 L21.8333333,249.511429 L21.8333333,225.150714 L15.8333333,225.150714 L22.8333333,211.150714 L29.8333333,225.150714 L23.8333333,225.150714 Z" fill="#007AFF" fill-rule="nonzero"></path>
                    <path id="Line-3-Copy-30" d="M23.8333333,395.939286 L23.8333333,420.3 L23.8333333,421.3 L21.8333333,421.3 L21.8333333,420.3 L21.8333333,395.939286 L15.8333333,395.939286 L22.8333333,381.939286 L29.8333333,395.939286 L23.8333333,395.939286 Z" fill="#007AFF" fill-rule="nonzero"></path>
                    <path id="Line-3-Copy-29" d="M23.8333333,311.212143 L23.8333333,335.572857 L23.8333333,336.572857 L21.8333333,336.572857 L21.8333333,335.572857 L21.8333333,311.212143 L15.8333333,311.212143 L22.8333333,297.212143 L29.8333333,311.212143 L23.8333333,311.212143 Z" fill="#007AFF" fill-rule="nonzero"></path>
                    <g id="Combined-Shape-Copy-7" transform="translate(131.333333, 0.000000)" fill="url(#linearGradient-1)" fill-rule="evenodd">
                        <path d="M0,24.3334358 C0,18.8126345 4.47894251,14.3334358 10,14.3334358 C15.5208013,14.3334358 20,18.8126345 20,24.3334358 C20,26.1760939 18.5093247,27.6667691 16.6666667,27.6667691 L3.33333333,27.6667691 C1.49067527,27.6667691 0,26.1760939 0,24.3334358 Z M10,0 C13.313608,0 16.0001025,2.68623834 16.0001025,6.00010247 C16.0001025,9.31396659 13.313608,12.0002049 10,12.0002049 C6.68613587,12.0002049 3.99989753,9.31396659 3.99989753,6.00010247 C3.99989753,2.68623834 6.68613587,0 10,0 Z"></path>
                    </g>
                    <g id="Group-55-Copy" transform="translate(117.333333, 79.390000)" fill-rule="evenodd" stroke-width="1">
                        <g>
                            <path d="M23.4758235,44.2945053 C35.4162911,44.2945053 45.1203161,34.7969489 45.1203161,23.1427664 C45.1203161,11.4881074 35.4164534,1.99070986 23.4758235,1.99070986 C11.5351937,1.99070986 1.831331,11.4881074 1.831331,23.1427664 C1.831331,34.7969489 11.535356,44.2945053 23.4758235,44.2945053 Z" id="Clip-54" stroke="#1B4366" stroke-width="3"></path>
                            <path d="M6.76973162,23.1427664 C6.76973162,32.1724631 14.2498291,39.4927743 23.4758235,39.4927743 C32.702467,39.4927743 40.181591,32.1724631 40.181591,23.1427664 C40.181591,14.1127521 32.702467,6.79212323 23.4758235,6.79212323 C14.2498291,6.79212323 6.76973162,14.1127521 6.76973162,23.1427664" id="Fill-83" fill="#1B4366"></path>
                        </g>
                    </g>
                    <g id="Group-55" transform="translate(117.333333, 164.117143)">
                        <path d="M23.4758235,45.290038 C35.4091567,45.290038 45.1203161,35.5788786 45.1203161,23.64587 C45.1203161,11.7123746 35.4093189,2.00137747 23.4758235,2.00137747 C11.5423282,2.00137747 1.831331,11.7123746 1.831331,23.64587 C1.831331,35.5788786 11.5424904,45.290038 23.4758235,45.290038 Z" id="Clip-54" stroke="#007AFF" stroke-width="3"></path>
                        <path d="M6.76973162,23.64587 C6.76973162,32.8718644 14.2498291,40.3513129 23.4758235,40.3513129 C32.702467,40.3513129 40.181591,32.8718644 40.181591,23.64587 C40.181591,14.4195511 32.702467,6.93977809 23.4758235,6.93977809 C14.2498291,6.93977809 6.76973162,14.4195511 6.76973162,23.64587" id="Fill-83" fill="#007AFF" fill-rule="evenodd"></path>
                    </g>
                    <g id="Group-55" transform="translate(117.333333, 249.511429)">
                        <path d="M23.4758235,45.290038 C35.4091567,45.290038 45.1203161,35.5788786 45.1203161,23.64587 C45.1203161,11.7123746 35.4093189,2.00137747 23.4758235,2.00137747 C11.5423282,2.00137747 1.831331,11.7123746 1.831331,23.64587 C1.831331,35.5788786 11.5424904,45.290038 23.4758235,45.290038 Z" id="Clip-54" stroke="#007AFF" stroke-width="3"></path>
                        <path d="M6.76973162,23.64587 C6.76973162,32.8718644 14.2498291,40.3513129 23.4758235,40.3513129 C32.702467,40.3513129 40.181591,32.8718644 40.181591,23.64587 C40.181591,14.4195511 32.702467,6.93977809 23.4758235,6.93977809 C14.2498291,6.93977809 6.76973162,14.4195511 6.76973162,23.64587" id="Fill-83" fill="#007AFF" fill-rule="evenodd"></path>
                    </g>
                    <path id="Line-3-Copy-18" d="M141.208333,139.756429 L141.208333,164.117143 L141.208333,165.117143 L139.208333,165.117143 L139.208333,164.117143 L139.208333,139.756429 L133.208333,139.756429 L140.208333,125.756429 L147.208333,139.756429 L141.208333,139.756429 Z" fill="#007AFF" fill-rule="nonzero"></path>
                    <path id="Line-3-Copy-19" d="M141.208333,225.150714 L141.208333,249.511429 L141.208333,250.511429 L139.208333,250.511429 L139.208333,249.511429 L139.208333,225.150714 L133.208333,225.150714 L140.208333,211.150714 L147.208333,225.150714 L141.208333,225.150714 Z" fill="#007AFF" fill-rule="nonzero"></path>
                    <path d="M141.333333,41.3628571 L141.333333,81.3914286" id="Line-3-Copy-24" stroke="#007AFF" stroke-width="2" stroke-linecap="square" stroke-dasharray="10,10"></path>
                    <g id="Combined-Shape-Copy-7" transform="translate(249.333333, 0.000000)" fill="url(#linearGradient-1)" fill-rule="evenodd">
                        <path d="M0,24.3334358 C0,18.8126345 4.47894251,14.3334358 10,14.3334358 C15.5208013,14.3334358 20,18.8126345 20,24.3334358 C20,26.1760939 18.5093247,27.6667691 16.6666667,27.6667691 L3.33333333,27.6667691 C1.49067527,27.6667691 0,26.1760939 0,24.3334358 Z M10,0 C13.313608,0 16.0001025,2.68623834 16.0001025,6.00010247 C16.0001025,9.31396659 13.313608,12.0002049 10,12.0002049 C6.68613587,12.0002049 3.99989753,9.31396659 3.99989753,6.00010247 C3.99989753,2.68623834 6.68613587,0 10,0 Z"></path>
                    </g>
                    <g id="Group-55-Copy" transform="translate(235.333333, 79.390000)" fill-rule="evenodd" stroke-width="1">
                        <g>
                            <path d="M23.4758235,44.2945053 C35.4162911,44.2945053 45.1203161,34.7969489 45.1203161,23.1427664 C45.1203161,11.4881074 35.4164534,1.99070986 23.4758235,1.99070986 C11.5351937,1.99070986 1.831331,11.4881074 1.831331,23.1427664 C1.831331,34.7969489 11.535356,44.2945053 23.4758235,44.2945053 Z" id="Clip-54" stroke="#1B4366" stroke-width="3"></path>
                            <path d="M6.76973162,23.1427664 C6.76973162,32.1724631 14.2498291,39.4927743 23.4758235,39.4927743 C32.702467,39.4927743 40.181591,32.1724631 40.181591,23.1427664 C40.181591,14.1127521 32.702467,6.79212323 23.4758235,6.79212323 C14.2498291,6.79212323 6.76973162,14.1127521 6.76973162,23.1427664" id="Fill-83" fill="#1B4366"></path>
                        </g>
                    </g>
                    <g id="Group-55" transform="translate(235.333333, 335.572857)">
                        <path d="M22.9763379,44.2945053 C34.6381443,44.2945053 44.1283945,34.8042551 44.1283945,23.1427664 C44.1283945,11.4808013 34.6383031,1.99070986 22.9763379,1.99070986 C11.3143728,1.99070986 1.8242814,11.4808013 1.8242814,23.1427664 C1.8242814,34.8042551 11.3145316,44.2945053 22.9763379,44.2945053 Z" id="Clip-54" stroke="#007AFF" stroke-width="3"></path>
                        <path d="M6.62569478,23.1427664 C6.62569478,32.1724631 13.9466413,39.4927743 22.9763379,39.4927743 C32.0066698,39.4927743 39.3266635,32.1724631 39.3266635,23.1427664 C39.3266635,14.1127521 32.0066698,6.79212323 22.9763379,6.79212323 C13.9466413,6.79212323 6.62569478,14.1127521 6.62569478,23.1427664" id="Fill-83" fill="#007AFF" fill-rule="evenodd"></path>
                    </g>
                    <g id="Group-55-Copy" transform="translate(235.333333, 249.511429)" fill-rule="evenodd" stroke-width="1">
                        <g>
                            <path d="M23.4758235,45.290038 C35.4091567,45.290038 45.1203161,35.5788786 45.1203161,23.64587 C45.1203161,11.7123746 35.4093189,2.00137747 23.4758235,2.00137747 C11.5423282,2.00137747 1.831331,11.7123746 1.831331,23.64587 C1.831331,35.5788786 11.5424904,45.290038 23.4758235,45.290038 Z" id="Clip-54" stroke="#1B4366" stroke-width="3"></path>
                            <path d="M6.76973162,23.64587 C6.76973162,32.8718644 14.2498291,40.3513129 23.4758235,40.3513129 C32.702467,40.3513129 40.181591,32.8718644 40.181591,23.64587 C40.181591,14.4195511 32.702467,6.93977809 23.4758235,6.93977809 C14.2498291,6.93977809 6.76973162,14.4195511 6.76973162,23.64587" id="Fill-83" fill="#1B4366"></path>
                        </g>
                    </g>
                    <g id="Group-55-Copy" transform="translate(235.333333, 164.117143)" fill-rule="evenodd" stroke-width="1">
                        <g>
                            <path d="M23.4758235,45.290038 C35.4091567,45.290038 45.1203161,35.5788786 45.1203161,23.64587 C45.1203161,11.7123746 35.4093189,2.00137747 23.4758235,2.00137747 C11.5423282,2.00137747 1.831331,11.7123746 1.831331,23.64587 C1.831331,35.5788786 11.5424904,45.290038 23.4758235,45.290038 Z" id="Clip-54" stroke="#1B4366" stroke-width="3"></path>
                            <path d="M6.76973162,23.64587 C6.76973162,32.8718644 14.2498291,40.3513129 23.4758235,40.3513129 C32.702467,40.3513129 40.181591,32.8718644 40.181591,23.64587 C40.181591,14.4195511 32.702467,6.93977809 23.4758235,6.93977809 C14.2498291,6.93977809 6.76973162,14.4195511 6.76973162,23.64587" id="Fill-83" fill="#1B4366"></path>
                        </g>
                    </g>
                    <path id="Line-3-Copy-17" d="M259.875,311.212143 L259.875,335.572857 L259.875,336.572857 L257.875,336.572857 L257.875,335.572857 L257.875,311.212143 L251.875,311.212143 L258.875,297.212143 L265.875,311.212143 L259.875,311.212143 Z" fill="#007AFF" fill-rule="nonzero"></path>
                    <path id="Line-3-Copy-20" d="M259.208333,139.756429 L259.208333,164.117143 L259.208333,165.117143 L257.208333,165.117143 L257.208333,164.117143 L257.208333,139.756429 L251.208333,139.756429 L258.208333,125.756429 L265.208333,139.756429 L259.208333,139.756429 Z" fill="#007AFF" fill-rule="nonzero"></path>
                    <path id="Line-3-Copy-23" d="M259.208333,225.150714 L259.208333,249.511429 L259.208333,250.511429 L257.208333,250.511429 L257.208333,249.511429 L257.208333,225.150714 L251.208333,225.150714 L258.208333,211.150714 L265.208333,225.150714 L259.208333,225.150714 Z" fill="#007AFF" fill-rule="nonzero"></path>
                    <path d="M259.333333,41.3628571 L259.333333,81.3914286" id="Line-3-Copy-25" stroke="#007AFF" stroke-width="2" stroke-linecap="square" stroke-dasharray="10,10"></path>
                    <g id="Combined-Shape-Copy-7" transform="translate(368.000000, 0.000000)" fill="url(#linearGradient-1)" fill-rule="evenodd">
                        <path d="M0,24.3334358 C0,18.8126345 4.47894251,14.3334358 10,14.3334358 C15.5208013,14.3334358 20,18.8126345 20,24.3334358 C20,26.1760939 18.5093247,27.6667691 16.6666667,27.6667691 L3.33333333,27.6667691 C1.49067527,27.6667691 0,26.1760939 0,24.3334358 Z M10,0 C13.313608,0 16.0001025,2.68623834 16.0001025,6.00010247 C16.0001025,9.31396659 13.313608,12.0002049 10,12.0002049 C6.68613587,12.0002049 3.99989753,9.31396659 3.99989753,6.00010247 C3.99989753,2.68623834 6.68613587,0 10,0 Z"></path>
                    </g>
                    <g id="Group-55-Copy" transform="translate(353.333333, 79.390000)" fill-rule="evenodd" stroke-width="1">
                        <g>
                            <path d="M23.4758235,44.2945053 C35.4162911,44.2945053 45.1203161,34.7969489 45.1203161,23.1427664 C45.1203161,11.4881074 35.4164534,1.99070986 23.4758235,1.99070986 C11.5351937,1.99070986 1.831331,11.4881074 1.831331,23.1427664 C1.831331,34.7969489 11.535356,44.2945053 23.4758235,44.2945053 Z" id="Clip-54" stroke="#1B4366" stroke-width="3"></path>
                            <path d="M6.76973162,23.1427664 C6.76973162,32.1724631 14.2498291,39.4927743 23.4758235,39.4927743 C32.702467,39.4927743 40.181591,32.1724631 40.181591,23.1427664 C40.181591,14.1127521 32.702467,6.79212323 23.4758235,6.79212323 C14.2498291,6.79212323 6.76973162,14.1127521 6.76973162,23.1427664" id="Fill-83" fill="#1B4366"></path>
                        </g>
                    </g>
                    <g id="Group-55-Copy" transform="translate(353.333333, 164.117143)" fill-rule="evenodd" stroke-width="1">
                        <g>
                            <path d="M23.4758235,45.290038 C35.4091567,45.290038 45.1203161,35.5788786 45.1203161,23.64587 C45.1203161,11.7123746 35.4093189,2.00137747 23.4758235,2.00137747 C11.5423282,2.00137747 1.831331,11.7123746 1.831331,23.64587 C1.831331,35.5788786 11.5424904,45.290038 23.4758235,45.290038 Z" id="Clip-54" stroke="#1B4366" stroke-width="3"></path>
                            <path d="M6.76973162,23.64587 C6.76973162,32.8718644 14.2498291,40.3513129 23.4758235,40.3513129 C32.702467,40.3513129 40.181591,32.8718644 40.181591,23.64587 C40.181591,14.4195511 32.702467,6.93977809 23.4758235,6.93977809 C14.2498291,6.93977809 6.76973162,14.4195511 6.76973162,23.64587" id="Fill-83" fill="#1B4366"></path>
                        </g>
                    </g>
                    <path id="Line-3-Copy-26" d="M377.208333,139.756429 L377.208333,164.117143 L377.208333,165.117143 L375.208333,165.117143 L375.208333,164.117143 L375.208333,139.756429 L369.208333,139.756429 L376.208333,125.756429 L383.208333,139.756429 L377.208333,139.756429 Z" fill="#007AFF" fill-rule="nonzero"></path>
                    <path d="M377.333333,41.3628571 L377.333333,81.3914286" id="Line-3-Copy-28" stroke="#007AFF" stroke-width="2" stroke-linecap="square" stroke-dasharray="10,10"></path>
                </g>
            </g>
        </g>
    </g>
</svg>