<?xml version="1.0" encoding="utf-8"?>
<!-- Generator: Adobe Illustrator 21.0.0, SVG Export Plug-In . SVG Version: 6.00 Build 0)  -->
<svg version="1.1" id="图层_1" xmlns="http://www.w3.org/2000/svg" xmlns:xlink="http://www.w3.org/1999/xlink" x="0px" y="0px"
	 viewBox="0 0 400 467" style="enable-background:new 0 0 400 467;" xml:space="preserve">
<style type="text/css">
	.st0{fill:#007AFF;}
	.st1{fill:url(#SVGID_1_);}
	.st2{fill:none;stroke:#1B4366;stroke-width:2;}
	.st3{fill:none;stroke:#007AFF;stroke-width:3;}
	.st4{fill:none;stroke:#007AFF;stroke-width:2;stroke-linecap:square;stroke-dasharray:10,10;}
	.st5{opacity:0.16;fill:none;stroke:#0099FF;stroke-width:2;enable-background:new    ;}
	.st6{fill:#007AFF;fill-opacity:0.2;}
	.st7{font-family:'PingFangHK-Medium-B5pc-H';}
	.st8{font-size:14px;}
	.st9{fill:#1B4366;}
	.st10{fill:url(#SVGID_2_);}
	.st11{fill:#1B4366;stroke:#1B4366;stroke-width:2;}
	.st12{fill:none;stroke:#1B4366;stroke-width:3;}
	.st13{fill:url(#SVGID_3_);}
</style>
<title>异步架构3</title>
<desc>Created with Sketch.</desc>
<path id="Line-3-Copy-70" class="st0" d="M74.9,39.2L36.5,64.4L35.7,65l-1.1-1.7l0.8-0.5l38.3-25.2l-3.3-5L86,30.7l-7.8,13.5
	L74.9,39.2z"/>
<path id="Line-3-Copy-75" class="st0" d="M99.8,259.7l-7.8-13.5l15.5,1.9l-3.3,5l38.3,25.2l0.8,0.5l-1.1,1.7l-0.8-0.5l-38.3-25.2
	L99.8,259.7z"/>
<g id="Combined-Shape" transform="translate(70.666667, 0.000000)">
	<path class="st0" d="M0,25.6V5.4L10.6,12L0,25.6z M26.4,13l10.9,14H1.2l10.9-14l7.2,4.5L26.4,13z M19.3,15.3L0,3.3V0h38.6v3.2
		L19.3,15.3z M28,12l10.6-6.7v20.3L28,12z"/>
</g>
<g id="Combined-Shape-Copy-7" transform="translate(26.000000, 66.714286)">
	
		<linearGradient id="SVGID_1_" gradientUnits="userSpaceOnUse" x1="-25.9892" y1="368.4242" x2="-25.2042" y2="367.5291" gradientTransform="matrix(20 0 0 -27.6668 520 10195.6094)">
		<stop  offset="0" style="stop-color:#6FBFFF"/>
		<stop  offset="1" style="stop-color:#007AFF"/>
	</linearGradient>
	<path class="st1" d="M0,24.3c0-5.5,4.5-10,10-10c5.5,0,10,4.5,10,10c0,1.8-1.5,3.3-3.3,3.3H3.3C1.5,27.7,0,26.2,0,24.3z M10,0
		c3.3,0,6,2.7,6,6s-2.7,6-6,6c-3.3,0-6-2.7-6-6S6.7,0,10,0z"/>
</g>
<g id="Combined-Shape-Copy-7_1_" transform="translate(134.666667, 66.714286)">
	<path class="st2" d="M1,24.3c0,1.3,1,2.3,2.3,2.3h13.3c1.3,0,2.3-1,2.3-2.3c0-5-4-9-9-9C5,15.3,1,19.4,1,24.3z M10,1
		C7.2,1,5,3.2,5,6s2.2,5,5,5c2.8,0,5-2.2,5-5S12.8,1,10,1z"/>
</g>
<g id="Group-55" transform="translate(12.666667, 145.437143)">
	<path id="Clip-54" class="st3" d="M23,44.3c11.7,0,21.2-9.5,21.2-21.2C44.1,11.5,34.6,2,23,2S1.8,11.5,1.8,23.1
		C1.8,34.8,11.3,44.3,23,44.3z"/>
	<path id="Fill-83" class="st0" d="M6.6,23.1c0,9,7.3,16.4,16.4,16.4c9,0,16.4-7.3,16.4-16.4c0-9-7.3-16.4-16.4-16.4
		C13.9,6.8,6.6,14.1,6.6,23.1"/>
</g>
<path id="Line-3-Copy-13" class="st4" d="M36,107.4v40"/>
<path id="Line-3-Copy-71" class="st4" d="M144.9,107.4v40"/>
<path id="Line-5" class="st5" d="M0,203.7h400"/>
<path id="Line-6" class="st5" d="M194.2,0v467"/>
<g id="Oval-3" transform="translate(164.000000, 2.668571)">
	<circle class="st6" cx="10" cy="10" r="10"/>
	<text transform="matrix(1 0 0 1 7.7967 15)" class="st0 st7 st8">1</text>
</g>
<g id="Oval-3_1_" transform="translate(164.000000, 212.818571)">
	<circle class="st6" cx="10" cy="10" r="10"/>
	<text transform="matrix(1 0 0 1 6.4667 15)" class="st0 st7 st8">3</text>
</g>
<g id="Oval-3_2_" transform="translate(376.666667, 2.668571)">
	<circle class="st6" cx="10" cy="10" r="10"/>
	<text transform="matrix(1 0 0 1 6.4667 15)" class="st0 st7 st8">2</text>
</g>
<g id="Oval-3_3_" transform="translate(376.666667, 212.818571)">
	<circle class="st6" cx="10" cy="10" r="10"/>
	<text transform="matrix(1 0 0 1 6.4667 15)" class="st0 st7 st8">4</text>
</g>
<path id="Line-3-Copy-72" class="st0" d="M282.9,39.2l-38.3,25.2l-0.8,0.5l-1.1-1.7l0.8-0.5l38.3-25.2l-3.3-5l15.5-1.9l-7.8,13.5
	L282.9,39.2z"/>
<path id="Line-3-Copy-79" class="st9" d="M253.8,272l38.3-25.2l0.8-0.5l1.1,1.7l-0.8,0.5l-38.3,25.2l3.3,5l-15.5,1.9l7.8-13.5
	L253.8,272z"/>
<path id="Line-3-Copy-86" class="st9" d="M283.3,167.8h1v2h-1v6l-14-7l14-7V167.8z M286.8,169.8v-2h2v2H286.8z M291.3,169.8v-2h2v2
	H291.3z M295.8,169.8v-2h2v2H295.8z M300.3,169.8v-2h2v2H300.3z M304.8,169.8v-2h2v2H304.8z M309.3,169.8v-2h2v2H309.3z
	 M313.8,169.8v-2h2v2H313.8z M318.3,169.8v-2h2v2H318.3z M322.8,169.8v-2h2v2H322.8z M327.3,169.8v-2h0.2v2H327.3z"/>
<g id="Combined-Shape-Copy-5" transform="translate(278.666667, 0.000000)">
	<g id="Combined-Shape_1_">
		<path class="st9" d="M0,25.6V5.4L10.6,12L0,25.6z M26.4,13l10.9,14H1.2l10.9-14l7.2,4.5L26.4,13z M19.3,15.3L0,3.3V0h38.6v3.2
			L19.3,15.3z M28,12l10.6-6.7v20.3L28,12z"/>
	</g>
</g>
<g id="Combined-Shape-Copy-7_2_" transform="translate(234.000000, 66.714286)">
	
		<linearGradient id="SVGID_2_" gradientUnits="userSpaceOnUse" x1="-233.9892" y1="368.4242" x2="-233.2042" y2="367.5291" gradientTransform="matrix(20 0 0 -27.6668 4680 10195.6094)">
		<stop  offset="0" style="stop-color:#6FBFFF"/>
		<stop  offset="1" style="stop-color:#007AFF"/>
	</linearGradient>
	<path class="st10" d="M0,24.3c0-5.5,4.5-10,10-10c5.5,0,10,4.5,10,10c0,1.8-1.5,3.3-3.3,3.3H3.3C1.5,27.7,0,26.2,0,24.3z M10,0
		c3.3,0,6,2.7,6,6s-2.7,6-6,6c-3.3,0-6-2.7-6-6S6.7,0,10,0z"/>
</g>
<path id="Combined-Shape-Copy-7_3_" class="st11" d="M343.7,91.1c0,1.3,1,2.3,2.3,2.3h13.3c1.3,0,2.3-1,2.3-2.3c0-5-4-9-9-9
	C347.7,82.1,343.7,86.1,343.7,91.1z M352.7,67.7c-2.8,0-5,2.2-5,5s2.2,5,5,5c2.8,0,5-2.2,5-5S355.4,67.7,352.7,67.7z"/>
<g id="Group-55_1_" transform="translate(220.666667, 145.437143)">
	<path id="Clip-54_1_" class="st3" d="M23,44.3c11.7,0,21.2-9.5,21.2-21.2C44.1,11.5,34.6,2,23,2S1.8,11.5,1.8,23.1
		C1.8,34.8,11.3,44.3,23,44.3z"/>
	<path id="Fill-83_1_" class="st0" d="M6.6,23.1c0,9,7.3,16.4,16.4,16.4c9,0,16.4-7.3,16.4-16.4c0-9-7.3-16.4-16.4-16.4
		C13.9,6.8,6.6,14.1,6.6,23.1"/>
</g>
<g id="Group-55-Copy" transform="translate(329.333333, 145.437143)">
	<g>
		<path id="Clip-54_2_" class="st12" d="M23,44.3c11.7,0,21.2-9.5,21.2-21.2C44.1,11.5,34.6,2,23,2S1.8,11.5,1.8,23.1
			C1.8,34.8,11.3,44.3,23,44.3z"/>
		<path id="Fill-83_2_" class="st9" d="M6.6,23.1c0,9,7.3,16.4,16.4,16.4c9,0,16.4-7.3,16.4-16.4c0-9-7.3-16.4-16.4-16.4
			C13.9,6.8,6.6,14.1,6.6,23.1"/>
	</g>
</g>
<path id="Line-3-Copy-73" class="st4" d="M244,107.4v40"/>
<path id="Line-3-Copy-74" class="st4" d="M352.9,107.4v40"/>
<path id="Line-3-Copy-78" class="st9" d="M75.3,385.3h1v2h-1v6l-14-7l14-7V385.3z M78.8,387.3v-2h2v2H78.8z M83.3,387.3v-2h2v2H83.3
	z M87.8,387.3v-2h2v2H87.8z M92.3,387.3v-2h2v2H92.3z M96.8,387.3v-2h2v2H96.8z M101.3,387.3v-2h2v2H101.3z M105.8,387.3v-2h2v2
	H105.8z M110.3,387.3v-2h2v2H110.3z M114.8,387.3v-2h2v2H114.8z M119.3,387.3v-2h0.2v2H119.3z"/>
<g id="Combined-Shape_2_" transform="translate(70.666667, 216.821429)">
	<path class="st0" d="M0,25.6V5.4L10.6,12L0,25.6z M26.4,13l10.9,14H1.2l10.9-14l7.2,4.5L26.4,13z M19.3,15.3L0,3.3V0h38.6v3.2
		L19.3,15.3z M28,12l10.6-6.7v20.3L28,12z"/>
</g>
<g id="Group-43" transform="translate(90.333333, 297.545714) scale(-1, 1) translate(-90.333333, -297.545714) translate(26.000000, 283.535714)">
	<g id="Combined-Shape-Copy-7_4_">
		
			<linearGradient id="SVGID_3_" gradientUnits="userSpaceOnUse" x1="154.6558" y1="151.6028" x2="155.4408" y2="150.7077" gradientTransform="matrix(-20 0 0 -27.6668 3093.3335 4196.8608)">
			<stop  offset="0" style="stop-color:#6FBFFF"/>
			<stop  offset="1" style="stop-color:#007AFF"/>
		</linearGradient>
		<path class="st13" d="M0,24.3c0-5.5,4.5-10,10-10c5.5,0,10,4.5,10,10c0,1.8-1.5,3.3-3.3,3.3H3.3C1.5,27.7,0,26.2,0,24.3z M10,0
			c3.3,0,6,2.7,6,6s-2.7,6-6,6c-3.3,0-6-2.7-6-6S6.7,0,10,0z"/>
	</g>
	<g id="Combined-Shape-Copy-7_5_" transform="translate(108.666667, 0.000000)">
		<path class="st2" d="M1,24.3c0,1.3,1,2.3,2.3,2.3h13.3c1.3,0,2.3-1,2.3-2.3c0-5-4-9-9-9C5,15.3,1,19.4,1,24.3z M10,1
			C7.2,1,5,3.2,5,6s2.2,5,5,5c2.8,0,5-2.2,5-5S12.8,1,10,1z"/>
	</g>
</g>
<g id="Group-55_2_" transform="translate(12.666667, 362.258571)">
	<path id="Clip-54_3_" class="st3" d="M23,44.3c11.7,0,21.2-9.5,21.2-21.2C44.1,11.5,34.6,2,23,2S1.8,11.5,1.8,23.1
		C1.8,34.8,11.3,44.3,23,44.3z"/>
	<path id="Fill-83_3_" class="st0" d="M6.6,23.1c0,9,7.3,16.4,16.4,16.4c9,0,16.4-7.3,16.4-16.4c0-9-7.3-16.4-16.4-16.4
		C13.9,6.8,6.6,14.1,6.6,23.1"/>
</g>
<g id="Group-55-Copy_1_" transform="translate(121.333333, 362.258571)">
	<g>
		<path id="Clip-54_4_" class="st12" d="M23,44.3c11.7,0,21.2-9.5,21.2-21.2C44.1,11.5,34.6,2,23,2S1.8,11.5,1.8,23.1
			C1.8,34.8,11.3,44.3,23,44.3z"/>
		<path id="Fill-83_4_" class="st9" d="M6.6,23.1c0,9,7.3,16.4,16.4,16.4c9,0,16.4-7.3,16.4-16.4c0-9-7.3-16.4-16.4-16.4
			C13.9,6.8,6.6,14.1,6.6,23.1"/>
	</g>
</g>
<path id="Line-3-Copy-76" class="st4" d="M36,324.2v40"/>
<path id="Line-3-Copy-77" class="st4" d="M144.9,324.2v40"/>
<g id="Group-55_3_" transform="translate(120.000000, 420.967143)">
	<path id="Clip-54_5_" class="st3" d="M23.5,44.3c11.9,0,21.6-9.5,21.6-21.2C45.1,11.5,35.4,2,23.5,2S1.8,11.5,1.8,23.1
		C1.8,34.8,11.5,44.3,23.5,44.3z"/>
	<path id="Fill-83_5_" class="st0" d="M6.8,23.1c0,9,7.5,16.4,16.7,16.4c9.2,0,16.7-7.3,16.7-16.4c0-9-7.5-16.4-16.7-16.4
		C14.2,6.8,6.8,14.1,6.8,23.1"/>
</g>
<path id="Line-3-Copy-44" class="st4" d="M36,412.3V423"/>
<path id="Line-3-Copy-45" class="st4" d="M144,412.3V423"/>
<path id="Line-3-Copy-80" class="st9" d="M283.3,385.3h1v2h-1v6l-14-7l14-7V385.3z M286.8,387.3v-2h2v2H286.8z M291.3,387.3v-2h2v2
	H291.3z M295.8,387.3v-2h2v2H295.8z M300.3,387.3v-2h2v2H300.3z M304.8,387.3v-2h2v2H304.8z M309.3,387.3v-2h2v2H309.3z
	 M313.8,387.3v-2h2v2H313.8z M318.3,387.3v-2h2v2H318.3z M322.8,387.3v-2h2v2H322.8z M327.3,387.3v-2h0.2v2H327.3z"/>
<path id="Line-3-Copy-85" class="st9" d="M313.5,438l14,7l-14,7v-6h-1v-2h1V438z M308,446v-2h2v2H308z M303.5,446v-2h2v2H303.5z
	 M299,446v-2h2v2H299z M294.5,446v-2h2v2H294.5z M290,446v-2h2v2H290z M285.5,446v-2h2v2H285.5z M281,446v-2h2v2H281z M276.5,446v-2
	h2v2H276.5z M272,446v-2h2v2H272z M269.3,446v-2h0.2v2H269.3z"/>
<g id="Combined-Shape-Copy-5_1_" transform="translate(278.666667, 216.821429)">
	<g id="Combined-Shape_3_">
		<path class="st9" d="M0,25.6V5.4L10.6,12L0,25.6z M26.4,13l10.9,14H1.2l10.9-14l7.2,4.5L26.4,13z M19.3,15.3L0,3.3V0h38.6v3.2
			L19.3,15.3z M28,12l10.6-6.7v20.3L28,12z"/>
	</g>
</g>
<g id="Group-44" transform="translate(298.333333, 297.545714) scale(-1, 1) translate(-298.333333, -297.545714) translate(234.000000, 283.535714)">
	<g id="Group-43-Copy" transform="translate(64.333333, 14.010000) scale(-1, 1) translate(-64.333333, -14.010000) ">
		<path id="Combined-Shape-Copy-7_6_" class="st11" d="M1,24.4c0,1.3,1,2.3,2.3,2.3h13.3c1.3,0,2.3-1,2.3-2.3c0-5-4-9-9-9
			C5,15.3,1,19.4,1,24.4z M10,1C7.2,1,5,3.2,5,6s2.2,5,5,5c2.8,0,5-2.2,5-5S12.8,1,10,1z"/>
		<g id="Combined-Shape-Copy-7_7_" transform="translate(108.666667, 0.000000)">
			<path class="st2" d="M1,24.3c0,1.3,1,2.3,2.3,2.3h13.3c1.3,0,2.3-1,2.3-2.3c0-5-4-9-9-9C5,15.3,1,19.4,1,24.3z M10,1
				C7.2,1,5,3.2,5,6s2.2,5,5,5c2.8,0,5-2.2,5-5S12.8,1,10,1z"/>
		</g>
	</g>
</g>
<g id="Group-55_4_" transform="translate(220.666667, 362.258571)">
	<path id="Clip-54_6_" class="st3" d="M23,44.3c11.7,0,21.2-9.5,21.2-21.2C44.1,11.5,34.6,2,23,2S1.8,11.5,1.8,23.1
		C1.8,34.8,11.3,44.3,23,44.3z"/>
	<path id="Fill-83_6_" class="st0" d="M6.6,23.1c0,9,7.3,16.4,16.4,16.4c9,0,16.4-7.3,16.4-16.4c0-9-7.3-16.4-16.4-16.4
		C13.9,6.8,6.6,14.1,6.6,23.1"/>
</g>
<g id="Group-55-Copy_2_" transform="translate(329.333333, 362.258571)">
	<g>
		<path id="Clip-54_7_" class="st12" d="M23,44.3c11.7,0,21.2-9.5,21.2-21.2C44.1,11.5,34.6,2,23,2S1.8,11.5,1.8,23.1
			C1.8,34.8,11.3,44.3,23,44.3z"/>
		<path id="Fill-83_7_" class="st9" d="M6.6,23.1c0,9,7.3,16.4,16.4,16.4c9,0,16.4-7.3,16.4-16.4c0-9-7.3-16.4-16.4-16.4
			C13.9,6.8,6.6,14.1,6.6,23.1"/>
	</g>
</g>
<g id="Group-55-Copy_3_" transform="translate(220.666667, 420.967143)">
	<g>
		<path id="Clip-54_8_" class="st12" d="M23,44.3c11.7,0,21.2-9.5,21.2-21.2C44.1,11.5,34.6,2,23,2S1.8,11.5,1.8,23.1
			C1.8,34.8,11.3,44.3,23,44.3z"/>
		<path id="Fill-83_8_" class="st9" d="M6.6,23.1c0,9,7.3,16.4,16.4,16.4c9,0,16.4-7.3,16.4-16.4c0-9-7.3-16.4-16.4-16.4
			C13.9,6.8,6.6,14.1,6.6,23.1"/>
	</g>
</g>
<path id="Line-3-Copy-81" class="st4" d="M244,324.2v40"/>
<path id="Line-3-Copy-82" class="st4" d="M352.9,324.2v40"/>
<g id="Group-55_5_" transform="translate(328.000000, 420.967143)">
	<path id="Clip-54_9_" class="st3" d="M23.5,44.3c11.9,0,21.6-9.5,21.6-21.2C45.1,11.5,35.4,2,23.5,2S1.8,11.5,1.8,23.1
		C1.8,34.8,11.5,44.3,23.5,44.3z"/>
	<path id="Fill-83_9_" class="st0" d="M6.8,23.1c0,9,7.5,16.4,16.7,16.4c9.2,0,16.7-7.3,16.7-16.4c0-9-7.5-16.4-16.7-16.4
		C14.2,6.8,6.8,14.1,6.8,23.1"/>
</g>
<path id="Line-3-Copy-83" class="st4" d="M244,412.3V423"/>
<path id="Line-3-Copy-84" class="st4" d="M352,412.3V423"/>
</svg>
