<?xml version="1.0" encoding="UTF-8"?>
<svg width="400px" height="467px" viewBox="0 0 400 467" version="1.1" xmlns="http://www.w3.org/2000/svg" xmlns:xlink="http://www.w3.org/1999/xlink">
    <!-- Generator: Sketch 52.4 (67378) - http://www.bohemiancoding.com/sketch -->
    <title>异步架构3</title>
    <desc>Created with Sketch.</desc>
    <defs>
        <linearGradient x1="11.3958739%" y1="0%" x2="89.8897258%" y2="89.5095885%" id="linearGradient-1">
            <stop stop-color="#6FBFFF" offset="0%"></stop>
            <stop stop-color="#007AFF" offset="100%"></stop>
        </linearGradient>
    </defs>
    <g id="Page-1" stroke="none" stroke-width="1" fill="none" fill-rule="evenodd">
        <g id="弹窗" transform="translate(-2917.000000, -894.000000)">
            <g id="Group-13" transform="translate(2917.000000, 894.000000)">
                <g id="Group-71">
                    <path id="Line-3-Copy-70" d="M74.862961,39.2227938 L36.5499294,64.4493025 L35.7147182,64.9992318 L34.6148595,63.3288095 L35.4500706,62.7788801 L73.7631022,37.5523715 L70.463526,32.5411046 L86.0059878,30.6885714 L78.1625372,44.2340608 L74.862961,39.2227938 Z" fill="#007AFF" fill-rule="nonzero"></path>
                    <path id="Line-3-Copy-75" d="M132.196294,254.709937 L93.8832627,279.936445 L93.0480515,280.486375 L91.9481928,278.815952 L92.783404,278.266023 L131.096436,253.039514 L127.796859,248.028247 L143.339321,246.175714 L135.495871,259.721204 L132.196294,254.709937 Z" fill="#007AFF" fill-rule="nonzero"></path>
                    <g id="Combined-Shape" transform="translate(70.666667, 0.000000)" fill="#007AFF" fill-rule="nonzero">
                        <path d="M0,25.5773077 L0,5.43946154 L10.5538983,12.0274615 L0,25.5773077 Z M26.4040678,12.9724615 L37.32,27 L1.2040678,27 L12.1098305,12.9973846 L19.2630508,17.4627692 L26.4040678,12.9724615 Z M19.2610169,15.2944615 L0,3.27323077 L0,0 L38.5708475,0 L38.5708475,3.15069231 L19.2610169,15.2944615 Z M27.9559322,11.9963077 L38.5708475,5.32107692 L38.5708475,25.6354615 L27.9559322,11.9963077 Z"></path>
                    </g>
                    <g id="Combined-Shape-Copy-7" transform="translate(26.000000, 66.714286)" fill="url(#linearGradient-1)" fill-rule="evenodd">
                        <path d="M0,24.3334358 C0,18.8126345 4.47894251,14.3334358 10,14.3334358 C15.5208013,14.3334358 20,18.8126345 20,24.3334358 C20,26.1760939 18.5093247,27.6667691 16.6666667,27.6667691 L3.33333333,27.6667691 C1.49067527,27.6667691 0,26.1760939 0,24.3334358 Z M10,0 C13.313608,0 16.0001025,2.68623834 16.0001025,6.00010247 C16.0001025,9.31396659 13.313608,12.0002049 10,12.0002049 C6.68613587,12.0002049 3.99989753,9.31396659 3.99989753,6.00010247 C3.99989753,2.68623834 6.68613587,0 10,0 Z"></path>
                    </g>
                    <g id="Combined-Shape-Copy-7" transform="translate(134.666667, 66.714286)" stroke="#1B4366" stroke-width="2">
                        <path d="M1,24.3334358 C1,25.6238091 2.04296002,26.6667691 3.33333333,26.6667691 L16.6666667,26.6667691 C17.95704,26.6667691 19,25.6238091 19,24.3334358 C19,19.3649192 14.9685166,15.3334358 10,15.3334358 C5.03131969,15.3334358 1,19.3648268 1,24.3334358 Z M10,1 C7.23842062,1 4.99989753,3.23852309 4.99989753,6.00010247 C4.99989753,8.76168185 7.23842062,11.0002049 10,11.0002049 C12.7614183,11.0002049 15.0001025,8.76158677 15.0001025,6.00010247 C15.0001025,3.23861817 12.7614183,1 10,1 Z"></path>
                    </g>
                    <g id="Group-55" transform="translate(12.666667, 145.437143)">
                        <path d="M22.9763379,44.2945053 C34.6381443,44.2945053 44.1283945,34.8042551 44.1283945,23.1427664 C44.1283945,11.4808013 34.6383031,1.99070986 22.9763379,1.99070986 C11.3143728,1.99070986 1.8242814,11.4808013 1.8242814,23.1427664 C1.8242814,34.8042551 11.3145316,44.2945053 22.9763379,44.2945053 Z" id="Clip-54" stroke="#007AFF" stroke-width="3"></path>
                        <path d="M6.62569478,23.1427664 C6.62569478,32.1724631 13.9466413,39.4927743 22.9763379,39.4927743 C32.0066698,39.4927743 39.3266635,32.1724631 39.3266635,23.1427664 C39.3266635,14.1127521 32.0066698,6.79212323 22.9763379,6.79212323 C13.9466413,6.79212323 6.62569478,14.1127521 6.62569478,23.1427664" id="Fill-83" fill="#007AFF" fill-rule="evenodd"></path>
                    </g>
                    <path d="M36,107.41 L36,147.438571" id="Line-3-Copy-13" stroke="#007AFF" stroke-width="2" stroke-linecap="square" stroke-dasharray="10,10"></path>
                    <path d="M144.916667,107.41 L144.916667,147.438571" id="Line-3-Copy-71" stroke="#007AFF" stroke-width="2" stroke-linecap="square" stroke-dasharray="10,10"></path>
                    <path d="M0,203.728571 L400,203.728571" id="Line-5" stroke="#0099FF" stroke-width="2" opacity="0.16"></path>
                    <path d="M194.166667,0 L194.166667,467" id="Line-6" stroke="#0099FF" stroke-width="2" opacity="0.16"></path>
                    <g id="Oval-3" transform="translate(164.000000, 2.668571)" fill="#007AFF">
                        <circle fill-opacity="0.2" fill-rule="evenodd" cx="10" cy="10" r="10"></circle>
                        <text id="1" font-family="PingFangSC-Semibold, PingFang SC" font-size="14" font-weight="500">
                            <tspan x="7.79666667" y="15">1</tspan>
                        </text>
                    </g>
                    <g id="Oval-3" transform="translate(164.000000, 212.818571)" fill="#007AFF">
                        <circle fill-opacity="0.2" fill-rule="evenodd" cx="10" cy="10" r="10"></circle>
                        <text id="1" font-family="PingFangSC-Semibold, PingFang SC" font-size="14" font-weight="500">
                            <tspan x="6.46666667" y="15">3</tspan>
                        </text>
                    </g>
                    <g id="Oval-3" transform="translate(376.666667, 2.668571)" fill="#007AFF">
                        <circle fill-opacity="0.2" fill-rule="evenodd" cx="10" cy="10" r="10"></circle>
                        <text id="1" font-family="PingFangSC-Semibold, PingFang SC" font-size="14" font-weight="500">
                            <tspan x="6.46666667" y="15">2</tspan>
                        </text>
                    </g>
                    <g id="Oval-3" transform="translate(376.666667, 212.818571)" fill="#007AFF">
                        <circle fill-opacity="0.2" fill-rule="evenodd" cx="10" cy="10" r="10"></circle>
                        <text id="1" font-family="PingFangSC-Semibold, PingFang SC" font-size="14" font-weight="500">
                            <tspan x="6.46666667" y="15">4</tspan>
                        </text>
                    </g>
                    <path id="Line-3-Copy-72" d="M282.862961,39.2227938 L244.549929,64.4493025 L243.714718,64.9992318 L242.614859,63.3288095 L243.450071,62.7788801 L281.763102,37.5523715 L278.463526,32.5411046 L294.005988,30.6885714 L286.162537,44.2340608 L282.862961,39.2227938 Z" fill="#007AFF" fill-rule="nonzero"></path>
                    <path id="Line-3-Copy-79" d="M282.862961,254.709937 L244.549929,279.936445 L243.714718,280.486375 L242.614859,278.815952 L243.450071,278.266023 L281.763102,253.039514 L278.463526,248.028247 L294.005988,246.175714 L286.162537,259.721204 L282.862961,254.709937 Z" fill="#1B4366" fill-rule="nonzero"></path>
                    <path id="Line-3-Copy-86" d="M283.333333,167.787143 L284.333333,167.787143 L284.333333,169.787143 L283.333333,169.787143 L283.333333,175.787143 L269.333333,168.787143 L283.333333,161.787143 L283.333333,167.787143 Z M286.833333,169.787143 L286.833333,167.787143 L288.833333,167.787143 L288.833333,169.787143 L286.833333,169.787143 Z M291.333333,169.787143 L291.333333,167.787143 L293.333333,167.787143 L293.333333,169.787143 L291.333333,169.787143 Z M295.833333,169.787143 L295.833333,167.787143 L297.833333,167.787143 L297.833333,169.787143 L295.833333,169.787143 Z M300.333333,169.787143 L300.333333,167.787143 L302.333333,167.787143 L302.333333,169.787143 L300.333333,169.787143 Z M304.833333,169.787143 L304.833333,167.787143 L306.833333,167.787143 L306.833333,169.787143 L304.833333,169.787143 Z M309.333333,169.787143 L309.333333,167.787143 L311.333333,167.787143 L311.333333,169.787143 L309.333333,169.787143 Z M313.833333,169.787143 L313.833333,167.787143 L315.833333,167.787143 L315.833333,169.787143 L313.833333,169.787143 Z M318.333333,169.787143 L318.333333,167.787143 L320.333333,167.787143 L320.333333,169.787143 L318.333333,169.787143 Z M322.833333,169.787143 L322.833333,167.787143 L324.833333,167.787143 L324.833333,169.787143 L322.833333,169.787143 Z M327.333333,169.787143 L327.333333,167.787143 L327.542569,167.787143 L327.542569,169.787143 L327.333333,169.787143 Z" fill="#1B4366" fill-rule="nonzero"></path>
                    <g id="Combined-Shape-Copy-5" transform="translate(278.666667, 0.000000)" fill="#1B4366" fill-rule="evenodd" stroke-width="1">
                        <g id="Combined-Shape">
                            <path d="M0,25.5773077 L0,5.43946154 L10.5538983,12.0274615 L0,25.5773077 Z M26.4040678,12.9724615 L37.32,27 L1.2040678,27 L12.1098305,12.9973846 L19.2630508,17.4627692 L26.4040678,12.9724615 Z M19.2610169,15.2944615 L0,3.27323077 L0,0 L38.5708475,0 L38.5708475,3.15069231 L19.2610169,15.2944615 Z M27.9559322,11.9963077 L38.5708475,5.32107692 L38.5708475,25.6354615 L27.9559322,11.9963077 Z" fill-rule="nonzero"></path>
                        </g>
                    </g>
                    <g id="Combined-Shape-Copy-7" transform="translate(234.000000, 66.714286)" fill="url(#linearGradient-1)" fill-rule="evenodd">
                        <path d="M0,24.3334358 C0,18.8126345 4.47894251,14.3334358 10,14.3334358 C15.5208013,14.3334358 20,18.8126345 20,24.3334358 C20,26.1760939 18.5093247,27.6667691 16.6666667,27.6667691 L3.33333333,27.6667691 C1.49067527,27.6667691 0,26.1760939 0,24.3334358 Z M10,0 C13.313608,0 16.0001025,2.68623834 16.0001025,6.00010247 C16.0001025,9.31396659 13.313608,12.0002049 10,12.0002049 C6.68613587,12.0002049 3.99989753,9.31396659 3.99989753,6.00010247 C3.99989753,2.68623834 6.68613587,0 10,0 Z"></path>
                    </g>
                    <path d="M343.666667,91.0651025 C343.666667,92.3569518 344.709787,93.4008168 346,93.4008168 L359.333333,93.4008168 C360.623547,93.4008168 361.666667,92.3569518 361.666667,91.0651025 C361.666667,86.0924828 357.635023,82.0579597 352.666667,82.0579597 C347.698146,82.0579597 343.666667,86.0923903 343.666667,91.0651025 Z M352.666667,67.7142857 C349.905247,67.7142857 347.666564,69.9545678 347.666564,72.718674 C347.666564,75.4827802 349.905247,77.7230622 352.666667,77.7230622 C355.427925,77.7230622 357.666769,75.482685 357.666769,72.718674 C357.666769,69.9546629 355.427925,67.7142857 352.666667,67.7142857 Z" id="Combined-Shape-Copy-7" stroke="#1B4366" stroke-width="2" fill="#1B4366" fill-rule="evenodd"></path>
                    <g id="Group-55" transform="translate(220.666667, 145.437143)">
                        <path d="M22.9763379,44.2945053 C34.6381443,44.2945053 44.1283945,34.8042551 44.1283945,23.1427664 C44.1283945,11.4808013 34.6383031,1.99070986 22.9763379,1.99070986 C11.3143728,1.99070986 1.8242814,11.4808013 1.8242814,23.1427664 C1.8242814,34.8042551 11.3145316,44.2945053 22.9763379,44.2945053 Z" id="Clip-54" stroke="#007AFF" stroke-width="3"></path>
                        <path d="M6.62569478,23.1427664 C6.62569478,32.1724631 13.9466413,39.4927743 22.9763379,39.4927743 C32.0066698,39.4927743 39.3266635,32.1724631 39.3266635,23.1427664 C39.3266635,14.1127521 32.0066698,6.79212323 22.9763379,6.79212323 C13.9466413,6.79212323 6.62569478,14.1127521 6.62569478,23.1427664" id="Fill-83" fill="#007AFF" fill-rule="evenodd"></path>
                    </g>
                    <g id="Group-55-Copy" transform="translate(329.333333, 145.437143)" fill-rule="evenodd" stroke-width="1">
                        <g>
                            <path d="M22.9763379,44.2945053 C34.6381443,44.2945053 44.1283945,34.8042551 44.1283945,23.1427664 C44.1283945,11.4808013 34.6383031,1.99070986 22.9763379,1.99070986 C11.3143728,1.99070986 1.8242814,11.4808013 1.8242814,23.1427664 C1.8242814,34.8042551 11.3145316,44.2945053 22.9763379,44.2945053 Z" id="Clip-54" stroke="#1B4366" stroke-width="3"></path>
                            <path d="M6.62569478,23.1427664 C6.62569478,32.1724631 13.9466413,39.4927743 22.9763379,39.4927743 C32.0066698,39.4927743 39.3266635,32.1724631 39.3266635,23.1427664 C39.3266635,14.1127521 32.0066698,6.79212323 22.9763379,6.79212323 C13.9466413,6.79212323 6.62569478,14.1127521 6.62569478,23.1427664" id="Fill-83" fill="#1B4366"></path>
                        </g>
                    </g>
                    <path d="M244,107.41 L244,147.438571" id="Line-3-Copy-73" stroke="#007AFF" stroke-width="2" stroke-linecap="square" stroke-dasharray="10,10"></path>
                    <path d="M352.916667,107.41 L352.916667,147.438571" id="Line-3-Copy-74" stroke="#007AFF" stroke-width="2" stroke-linecap="square" stroke-dasharray="10,10"></path>
                    <path id="Line-3-Copy-78" d="M75.3333333,385.275714 L76.3333333,385.275714 L76.3333333,387.275714 L75.3333333,387.275714 L75.3333333,393.275714 L61.3333333,386.275714 L75.3333333,379.275714 L75.3333333,385.275714 Z M78.8333333,387.275714 L78.8333333,385.275714 L80.8333333,385.275714 L80.8333333,387.275714 L78.8333333,387.275714 Z M83.3333333,387.275714 L83.3333333,385.275714 L85.3333333,385.275714 L85.3333333,387.275714 L83.3333333,387.275714 Z M87.8333333,387.275714 L87.8333333,385.275714 L89.8333333,385.275714 L89.8333333,387.275714 L87.8333333,387.275714 Z M92.3333333,387.275714 L92.3333333,385.275714 L94.3333333,385.275714 L94.3333333,387.275714 L92.3333333,387.275714 Z M96.8333333,387.275714 L96.8333333,385.275714 L98.8333333,385.275714 L98.8333333,387.275714 L96.8333333,387.275714 Z M101.333333,387.275714 L101.333333,385.275714 L103.333333,385.275714 L103.333333,387.275714 L101.333333,387.275714 Z M105.833333,387.275714 L105.833333,385.275714 L107.833333,385.275714 L107.833333,387.275714 L105.833333,387.275714 Z M110.333333,387.275714 L110.333333,385.275714 L112.333333,385.275714 L112.333333,387.275714 L110.333333,387.275714 Z M114.833333,387.275714 L114.833333,385.275714 L116.833333,385.275714 L116.833333,387.275714 L114.833333,387.275714 Z M119.333333,387.275714 L119.333333,385.275714 L119.542569,385.275714 L119.542569,387.275714 L119.333333,387.275714 Z" fill="#1B4366" fill-rule="nonzero"></path>
                    <g id="Combined-Shape" transform="translate(70.666667, 216.821429)" fill="#007AFF" fill-rule="nonzero">
                        <path d="M0,25.5773077 L0,5.43946154 L10.5538983,12.0274615 L0,25.5773077 Z M26.4040678,12.9724615 L37.32,27 L1.2040678,27 L12.1098305,12.9973846 L19.2630508,17.4627692 L26.4040678,12.9724615 Z M19.2610169,15.2944615 L0,3.27323077 L0,0 L38.5708475,0 L38.5708475,3.15069231 L19.2610169,15.2944615 Z M27.9559322,11.9963077 L38.5708475,5.32107692 L38.5708475,25.6354615 L27.9559322,11.9963077 Z"></path>
                    </g>
                    <g id="Group-43" stroke-width="1" fill-rule="evenodd" transform="translate(90.333333, 297.545714) scale(-1, 1) translate(-90.333333, -297.545714) translate(26.000000, 283.535714)">
                        <g id="Combined-Shape-Copy-7" fill="url(#linearGradient-1)">
                            <path d="M0,24.3334358 C0,18.8126345 4.47894251,14.3334358 10,14.3334358 C15.5208013,14.3334358 20,18.8126345 20,24.3334358 C20,26.1760939 18.5093247,27.6667691 16.6666667,27.6667691 L3.33333333,27.6667691 C1.49067527,27.6667691 0,26.1760939 0,24.3334358 Z M10,0 C13.313608,0 16.0001025,2.68623834 16.0001025,6.00010247 C16.0001025,9.31396659 13.313608,12.0002049 10,12.0002049 C6.68613587,12.0002049 3.99989753,9.31396659 3.99989753,6.00010247 C3.99989753,2.68623834 6.68613587,0 10,0 Z"></path>
                        </g>
                        <g id="Combined-Shape-Copy-7" transform="translate(108.666667, 0.000000)" stroke="#1B4366" stroke-width="2">
                            <path d="M1,24.3334358 C1,25.6238091 2.04296002,26.6667691 3.33333333,26.6667691 L16.6666667,26.6667691 C17.95704,26.6667691 19,25.6238091 19,24.3334358 C19,19.3649192 14.9685166,15.3334358 10,15.3334358 C5.03131969,15.3334358 1,19.3648268 1,24.3334358 Z M10,1 C7.23842062,1 4.99989753,3.23852309 4.99989753,6.00010247 C4.99989753,8.76168185 7.23842062,11.0002049 10,11.0002049 C12.7614183,11.0002049 15.0001025,8.76158677 15.0001025,6.00010247 C15.0001025,3.23861817 12.7614183,1 10,1 Z"></path>
                        </g>
                    </g>
                    <g id="Group-55" transform="translate(12.666667, 362.258571)">
                        <path d="M22.9763379,44.2945053 C34.6381443,44.2945053 44.1283945,34.8042551 44.1283945,23.1427664 C44.1283945,11.4808013 34.6383031,1.99070986 22.9763379,1.99070986 C11.3143728,1.99070986 1.8242814,11.4808013 1.8242814,23.1427664 C1.8242814,34.8042551 11.3145316,44.2945053 22.9763379,44.2945053 Z" id="Clip-54" stroke="#007AFF" stroke-width="3"></path>
                        <path d="M6.62569478,23.1427664 C6.62569478,32.1724631 13.9466413,39.4927743 22.9763379,39.4927743 C32.0066698,39.4927743 39.3266635,32.1724631 39.3266635,23.1427664 C39.3266635,14.1127521 32.0066698,6.79212323 22.9763379,6.79212323 C13.9466413,6.79212323 6.62569478,14.1127521 6.62569478,23.1427664" id="Fill-83" fill="#007AFF" fill-rule="evenodd"></path>
                    </g>
                    <g id="Group-55-Copy" transform="translate(121.333333, 362.258571)" fill-rule="evenodd" stroke-width="1">
                        <g>
                            <path d="M22.9763379,44.2945053 C34.6381443,44.2945053 44.1283945,34.8042551 44.1283945,23.1427664 C44.1283945,11.4808013 34.6383031,1.99070986 22.9763379,1.99070986 C11.3143728,1.99070986 1.8242814,11.4808013 1.8242814,23.1427664 C1.8242814,34.8042551 11.3145316,44.2945053 22.9763379,44.2945053 Z" id="Clip-54" stroke="#1B4366" stroke-width="3"></path>
                            <path d="M6.62569478,23.1427664 C6.62569478,32.1724631 13.9466413,39.4927743 22.9763379,39.4927743 C32.0066698,39.4927743 39.3266635,32.1724631 39.3266635,23.1427664 C39.3266635,14.1127521 32.0066698,6.79212323 22.9763379,6.79212323 C13.9466413,6.79212323 6.62569478,14.1127521 6.62569478,23.1427664" id="Fill-83" fill="#1B4366"></path>
                        </g>
                    </g>
                    <path d="M36,324.231429 L36,364.26" id="Line-3-Copy-76" stroke="#007AFF" stroke-width="2" stroke-linecap="square" stroke-dasharray="10,10"></path>
                    <path d="M144.916667,324.231429 L144.916667,364.26" id="Line-3-Copy-77" stroke="#007AFF" stroke-width="2" stroke-linecap="square" stroke-dasharray="10,10"></path>
                    <g id="Group-55" transform="translate(120.000000, 420.967143)">
                        <path d="M23.4758235,44.2945053 C35.4162911,44.2945053 45.1203161,34.7969489 45.1203161,23.1427664 C45.1203161,11.4881074 35.4164534,1.99070986 23.4758235,1.99070986 C11.5351937,1.99070986 1.831331,11.4881074 1.831331,23.1427664 C1.831331,34.7969489 11.535356,44.2945053 23.4758235,44.2945053 Z" id="Clip-54" stroke="#007AFF" stroke-width="3"></path>
                        <path d="M6.76973162,23.1427664 C6.76973162,32.1724631 14.2498291,39.4927743 23.4758235,39.4927743 C32.702467,39.4927743 40.181591,32.1724631 40.181591,23.1427664 C40.181591,14.1127521 32.702467,6.79212323 23.4758235,6.79212323 C14.2498291,6.79212323 6.76973162,14.1127521 6.76973162,23.1427664" id="Fill-83" fill="#007AFF" fill-rule="evenodd"></path>
                    </g>
                    <path d="M36,412.294286 L36,422.968571" id="Line-3-Copy-44" stroke="#007AFF" stroke-width="2" stroke-linecap="square" stroke-dasharray="10,10"></path>
                    <path d="M144,412.294286 L144,422.968571" id="Line-3-Copy-45" stroke="#007AFF" stroke-width="2" stroke-linecap="square" stroke-dasharray="10,10"></path>
                    <path id="Line-3-Copy-80" d="M283.333333,385.275714 L284.333333,385.275714 L284.333333,387.275714 L283.333333,387.275714 L283.333333,393.275714 L269.333333,386.275714 L283.333333,379.275714 L283.333333,385.275714 Z M286.833333,387.275714 L286.833333,385.275714 L288.833333,385.275714 L288.833333,387.275714 L286.833333,387.275714 Z M291.333333,387.275714 L291.333333,385.275714 L293.333333,385.275714 L293.333333,387.275714 L291.333333,387.275714 Z M295.833333,387.275714 L295.833333,385.275714 L297.833333,385.275714 L297.833333,387.275714 L295.833333,387.275714 Z M300.333333,387.275714 L300.333333,385.275714 L302.333333,385.275714 L302.333333,387.275714 L300.333333,387.275714 Z M304.833333,387.275714 L304.833333,385.275714 L306.833333,385.275714 L306.833333,387.275714 L304.833333,387.275714 Z M309.333333,387.275714 L309.333333,385.275714 L311.333333,385.275714 L311.333333,387.275714 L309.333333,387.275714 Z M313.833333,387.275714 L313.833333,385.275714 L315.833333,385.275714 L315.833333,387.275714 L313.833333,387.275714 Z M318.333333,387.275714 L318.333333,385.275714 L320.333333,385.275714 L320.333333,387.275714 L318.333333,387.275714 Z M322.833333,387.275714 L322.833333,385.275714 L324.833333,385.275714 L324.833333,387.275714 L322.833333,387.275714 Z M327.333333,387.275714 L327.333333,385.275714 L327.542569,385.275714 L327.542569,387.275714 L327.333333,387.275714 Z" fill="#1B4366" fill-rule="nonzero"></path>
                    <path id="Line-3-Copy-85" d="M283.333333,443.984286 L284.333333,443.984286 L284.333333,445.984286 L283.333333,445.984286 L283.333333,451.984286 L269.333333,444.984286 L283.333333,437.984286 L283.333333,443.984286 Z M286.833333,445.984286 L286.833333,443.984286 L288.833333,443.984286 L288.833333,445.984286 L286.833333,445.984286 Z M291.333333,445.984286 L291.333333,443.984286 L293.333333,443.984286 L293.333333,445.984286 L291.333333,445.984286 Z M295.833333,445.984286 L295.833333,443.984286 L297.833333,443.984286 L297.833333,445.984286 L295.833333,445.984286 Z M300.333333,445.984286 L300.333333,443.984286 L302.333333,443.984286 L302.333333,445.984286 L300.333333,445.984286 Z M304.833333,445.984286 L304.833333,443.984286 L306.833333,443.984286 L306.833333,445.984286 L304.833333,445.984286 Z M309.333333,445.984286 L309.333333,443.984286 L311.333333,443.984286 L311.333333,445.984286 L309.333333,445.984286 Z M313.833333,445.984286 L313.833333,443.984286 L315.833333,443.984286 L315.833333,445.984286 L313.833333,445.984286 Z M318.333333,445.984286 L318.333333,443.984286 L320.333333,443.984286 L320.333333,445.984286 L318.333333,445.984286 Z M322.833333,445.984286 L322.833333,443.984286 L324.833333,443.984286 L324.833333,445.984286 L322.833333,445.984286 Z M327.333333,445.984286 L327.333333,443.984286 L327.542569,443.984286 L327.542569,445.984286 L327.333333,445.984286 Z" fill="#1B4366" fill-rule="nonzero"></path>
                    <g id="Combined-Shape-Copy-5" transform="translate(278.666667, 216.821429)" fill="#1B4366" fill-rule="evenodd" stroke-width="1">
                        <g id="Combined-Shape">
                            <path d="M0,25.5773077 L0,5.43946154 L10.5538983,12.0274615 L0,25.5773077 Z M26.4040678,12.9724615 L37.32,27 L1.2040678,27 L12.1098305,12.9973846 L19.2630508,17.4627692 L26.4040678,12.9724615 Z M19.2610169,15.2944615 L0,3.27323077 L0,0 L38.5708475,0 L38.5708475,3.15069231 L19.2610169,15.2944615 Z M27.9559322,11.9963077 L38.5708475,5.32107692 L38.5708475,25.6354615 L27.9559322,11.9963077 Z" fill-rule="nonzero"></path>
                        </g>
                    </g>
                    <g id="Group-44" stroke-width="1" fill-rule="evenodd" transform="translate(298.333333, 297.545714) scale(-1, 1) translate(-298.333333, -297.545714) translate(234.000000, 283.535714)" stroke="#1B4366">
                        <g id="Group-43-Copy" transform="translate(64.333333, 14.010000) scale(-1, 1) translate(-64.333333, -14.010000) " stroke-width="2">
                            <path d="M1,24.3508168 C1,25.6426661 2.04311993,26.6865311 3.33333333,26.6865311 L16.6666667,26.6865311 C17.9568801,26.6865311 19,25.6426661 19,24.3508168 C19,19.3781971 14.9683567,15.343674 10,15.343674 C5.0314796,15.343674 1,19.3781046 1,24.3508168 Z M10,1 C7.23858053,1 4.99989753,3.24028206 4.99989753,6.00438826 C4.99989753,8.76849446 7.23858053,11.0087765 10,11.0087765 C12.7612584,11.0087765 15.0001025,8.76839932 15.0001025,6.00438826 C15.0001025,3.24037719 12.7612584,1 10,1 Z" id="Combined-Shape-Copy-7" fill="#1B4366"></path>
                            <g id="Combined-Shape-Copy-7" transform="translate(108.666667, 0.000000)">
                                <path d="M1,24.3334358 C1,25.6238091 2.04296002,26.6667691 3.33333333,26.6667691 L16.6666667,26.6667691 C17.95704,26.6667691 19,25.6238091 19,24.3334358 C19,19.3649192 14.9685166,15.3334358 10,15.3334358 C5.03131969,15.3334358 1,19.3648268 1,24.3334358 Z M10,1 C7.23842062,1 4.99989753,3.23852309 4.99989753,6.00010247 C4.99989753,8.76168185 7.23842062,11.0002049 10,11.0002049 C12.7614183,11.0002049 15.0001025,8.76158677 15.0001025,6.00010247 C15.0001025,3.23861817 12.7614183,1 10,1 Z"></path>
                            </g>
                        </g>
                    </g>
                    <g id="Group-55" transform="translate(220.666667, 362.258571)">
                        <path d="M22.9763379,44.2945053 C34.6381443,44.2945053 44.1283945,34.8042551 44.1283945,23.1427664 C44.1283945,11.4808013 34.6383031,1.99070986 22.9763379,1.99070986 C11.3143728,1.99070986 1.8242814,11.4808013 1.8242814,23.1427664 C1.8242814,34.8042551 11.3145316,44.2945053 22.9763379,44.2945053 Z" id="Clip-54" stroke="#007AFF" stroke-width="3"></path>
                        <path d="M6.62569478,23.1427664 C6.62569478,32.1724631 13.9466413,39.4927743 22.9763379,39.4927743 C32.0066698,39.4927743 39.3266635,32.1724631 39.3266635,23.1427664 C39.3266635,14.1127521 32.0066698,6.79212323 22.9763379,6.79212323 C13.9466413,6.79212323 6.62569478,14.1127521 6.62569478,23.1427664" id="Fill-83" fill="#007AFF" fill-rule="evenodd"></path>
                    </g>
                    <g id="Group-55-Copy" transform="translate(329.333333, 362.258571)" fill-rule="evenodd" stroke-width="1">
                        <g>
                            <path d="M22.9763379,44.2945053 C34.6381443,44.2945053 44.1283945,34.8042551 44.1283945,23.1427664 C44.1283945,11.4808013 34.6383031,1.99070986 22.9763379,1.99070986 C11.3143728,1.99070986 1.8242814,11.4808013 1.8242814,23.1427664 C1.8242814,34.8042551 11.3145316,44.2945053 22.9763379,44.2945053 Z" id="Clip-54" stroke="#1B4366" stroke-width="3"></path>
                            <path d="M6.62569478,23.1427664 C6.62569478,32.1724631 13.9466413,39.4927743 22.9763379,39.4927743 C32.0066698,39.4927743 39.3266635,32.1724631 39.3266635,23.1427664 C39.3266635,14.1127521 32.0066698,6.79212323 22.9763379,6.79212323 C13.9466413,6.79212323 6.62569478,14.1127521 6.62569478,23.1427664" id="Fill-83" fill="#1B4366"></path>
                        </g>
                    </g>
                    <g id="Group-55-Copy" transform="translate(220.666667, 420.967143)" fill-rule="evenodd" stroke-width="1">
                        <g>
                            <path d="M22.9763379,44.2945053 C34.6381443,44.2945053 44.1283945,34.8042551 44.1283945,23.1427664 C44.1283945,11.4808013 34.6383031,1.99070986 22.9763379,1.99070986 C11.3143728,1.99070986 1.8242814,11.4808013 1.8242814,23.1427664 C1.8242814,34.8042551 11.3145316,44.2945053 22.9763379,44.2945053 Z" id="Clip-54" stroke="#1B4366" stroke-width="3"></path>
                            <path d="M6.62569478,23.1427664 C6.62569478,32.1724631 13.9466413,39.4927743 22.9763379,39.4927743 C32.0066698,39.4927743 39.3266635,32.1724631 39.3266635,23.1427664 C39.3266635,14.1127521 32.0066698,6.79212323 22.9763379,6.79212323 C13.9466413,6.79212323 6.62569478,14.1127521 6.62569478,23.1427664" id="Fill-83" fill="#1B4366"></path>
                        </g>
                    </g>
                    <path d="M244,324.231429 L244,364.26" id="Line-3-Copy-81" stroke="#007AFF" stroke-width="2" stroke-linecap="square" stroke-dasharray="10,10"></path>
                    <path d="M352.916667,324.231429 L352.916667,364.26" id="Line-3-Copy-82" stroke="#007AFF" stroke-width="2" stroke-linecap="square" stroke-dasharray="10,10"></path>
                    <g id="Group-55" transform="translate(328.000000, 420.967143)">
                        <path d="M23.4758235,44.2945053 C35.4162911,44.2945053 45.1203161,34.7969489 45.1203161,23.1427664 C45.1203161,11.4881074 35.4164534,1.99070986 23.4758235,1.99070986 C11.5351937,1.99070986 1.831331,11.4881074 1.831331,23.1427664 C1.831331,34.7969489 11.535356,44.2945053 23.4758235,44.2945053 Z" id="Clip-54" stroke="#007AFF" stroke-width="3"></path>
                        <path d="M6.76973162,23.1427664 C6.76973162,32.1724631 14.2498291,39.4927743 23.4758235,39.4927743 C32.702467,39.4927743 40.181591,32.1724631 40.181591,23.1427664 C40.181591,14.1127521 32.702467,6.79212323 23.4758235,6.79212323 C14.2498291,6.79212323 6.76973162,14.1127521 6.76973162,23.1427664" id="Fill-83" fill="#007AFF" fill-rule="evenodd"></path>
                    </g>
                    <path d="M244,412.294286 L244,422.968571" id="Line-3-Copy-83" stroke="#007AFF" stroke-width="2" stroke-linecap="square" stroke-dasharray="10,10"></path>
                    <path d="M352,412.294286 L352,422.968571" id="Line-3-Copy-84" stroke="#007AFF" stroke-width="2" stroke-linecap="square" stroke-dasharray="10,10"></path>
                </g>
            </g>
        </g>
    </g>
</svg>