<?xml version="1.0" encoding="UTF-8"?>
<svg width="400px" height="462px" viewBox="0 0 400 462" version="1.1" xmlns="http://www.w3.org/2000/svg" xmlns:xlink="http://www.w3.org/1999/xlink">
    <!-- Generator: Sketch 57.1 (83088) - https://sketch.com -->
    <title>异步架构2</title>
    <desc>Created with Sketch.</desc>
    <defs>
        <linearGradient x1="11.3958739%" y1="35.0302599%" x2="89.8897258%" y2="61.8289654%" id="linearGradient-1">
            <stop stop-color="#6FBFFF" offset="0%"></stop>
            <stop stop-color="#007AFF" offset="100%"></stop>
        </linearGradient>
        <path d="M11.857088,19.6079278 L6.36711777,14.084685 C6.16748248,13.8850497 6.16748248,13.5523243 6.36711777,13.352689 L7.0991138,12.620693 C7.29874908,12.4210577 7.63147455,12.4210577 7.83110983,12.620693 L11.9569057,16.7797613 C12.0899958,16.9128515 12.3229037,16.9128515 12.4559939,16.7797613 L20.5412228,8.62798733 C20.740858,8.42835205 21.0735835,8.42835205 21.2732188,8.62798733 L22.0052148,9.35998336 C22.2048501,9.55961865 22.2048501,9.89234411 22.0052148,10.0919794 L12.589084,19.6079278 C12.3894488,19.8408357 12.0567233,19.8408357 11.857088,19.6079278 L11.857088,19.6079278 Z" id="path-2"></path>
        <path d="M11.857088,19.6079278 L6.36711777,14.084685 C6.16748248,13.8850497 6.16748248,13.5523243 6.36711777,13.352689 L7.0991138,12.620693 C7.29874908,12.4210577 7.63147455,12.4210577 7.83110983,12.620693 L11.9569057,16.7797613 C12.0899958,16.9128515 12.3229037,16.9128515 12.4559939,16.7797613 L20.5412228,8.62798733 C20.740858,8.42835205 21.0735835,8.42835205 21.2732188,8.62798733 L22.0052148,9.35998336 C22.2048501,9.55961865 22.2048501,9.89234411 22.0052148,10.0919794 L12.589084,19.6079278 C12.3894488,19.8408357 12.0567233,19.8408357 11.857088,19.6079278 L11.857088,19.6079278 Z" id="path-4"></path>
        <linearGradient x1="29.8267057%" y1="0%" x2="70.845108%" y2="89.5095885%" id="linearGradient-6">
            <stop stop-color="#6FBFFF" offset="0%"></stop>
            <stop stop-color="#007AFF" offset="100%"></stop>
        </linearGradient>
        <path d="M16.9440445,25.2601017 L11.4540743,19.7368589 C11.254439,19.5372237 11.254439,19.2044982 11.4540743,19.0048629 L12.1860703,18.2728669 C12.3857056,18.0732316 12.7184311,18.0732316 12.9180664,18.2728669 L17.0438622,22.4319352 C17.1769524,22.5650254 17.4098602,22.5650254 17.5429504,22.4319352 L25.6281793,14.2801612 C25.8278146,14.080526 26.16054,14.080526 26.3601753,14.2801612 L27.0921714,15.0121573 C27.2918066,15.2117926 27.2918066,15.544518 27.0921714,15.7441533 L17.6760406,25.2601017 C17.4764053,25.4930096 17.1436798,25.4930096 16.9440445,25.2601017 L16.9440445,25.2601017 Z" id="path-7"></path>
        <path d="M24.7334484,14.8342443 C24.0139532,14.0935874 19.9932443,16.379043 17.5384957,20.3151054 C17.4326875,20.5055601 17.4961724,20.7383379 17.686627,20.8229844 C18.2368293,21.076924 18.6812235,21.5424797 18.9140013,22.1138436 C18.9986478,22.3254599 19.2314257,22.3889448 19.4218804,22.261975 C23.230973,19.7437415 25.4529437,15.5749012 24.7334484,14.8342443 L24.7334484,14.8342443 Z M16.7978387,21.7117727 C16.4804144,21.7117727 16.1841516,21.8810657 15.9725353,22.092682 L15.9513737,22.092682 C15.8455656,22.092682 15.7397575,22.261975 15.655111,22.4101064 C15.3165249,22.9814703 15.2530401,23.6586423 14.745161,24.3992992 C14.6605145,24.526269 14.6816762,24.7167236 14.8298075,24.7590469 C15.5493028,24.9918247 16.840162,24.7802085 17.4750108,24.3146527 L17.4750108,24.3358143 C17.686627,24.2934911 17.6231422,24.2088446 17.686627,24.2088446 C17.9194049,23.7856121 18.1098596,23.5739958 18.1098596,23.1719249 C18.0886979,22.3889448 17.5384957,21.7117727 16.7978387,21.7117727 Z" id="path-9"></path>
        <path d="M24.7334484,14.8342443 C24.0139532,14.0935874 19.9932443,16.379043 17.5384957,20.3151054 C17.4326875,20.5055601 17.4961724,20.7383379 17.686627,20.8229844 C18.2368293,21.076924 18.6812235,21.5424797 18.9140013,22.1138436 C18.9986478,22.3254599 19.2314257,22.3889448 19.4218804,22.261975 C23.230973,19.7437415 25.4529437,15.5749012 24.7334484,14.8342443 L24.7334484,14.8342443 Z M16.7978387,21.7117727 C16.4804144,21.7117727 16.1841516,21.8810657 15.9725353,22.092682 L15.9513737,22.092682 C15.8455656,22.092682 15.7397575,22.261975 15.655111,22.4101064 C15.3165249,22.9814703 15.2530401,23.6586423 14.745161,24.3992992 C14.6605145,24.526269 14.6816762,24.7167236 14.8298075,24.7590469 C15.5493028,24.9918247 16.840162,24.7802085 17.4750108,24.3146527 L17.4750108,24.3358143 C17.686627,24.2934911 17.6231422,24.2088446 17.686627,24.2088446 C17.9194049,23.7856121 18.1098596,23.5739958 18.1098596,23.1719249 C18.0886979,22.3889448 17.5384957,21.7117727 16.7978387,21.7117727 Z" id="path-11"></path>
        <path d="M16.9440445,25.2601017 L11.4540743,19.7368589 C11.254439,19.5372237 11.254439,19.2044982 11.4540743,19.0048629 L12.1860703,18.2728669 C12.3857056,18.0732316 12.7184311,18.0732316 12.9180664,18.2728669 L17.0438622,22.4319352 C17.1769524,22.5650254 17.4098602,22.5650254 17.5429504,22.4319352 L25.6281793,14.2801612 C25.8278146,14.080526 26.16054,14.080526 26.3601753,14.2801612 L27.0921714,15.0121573 C27.2918066,15.2117926 27.2918066,15.544518 27.0921714,15.7441533 L17.6760406,25.2601017 C17.4764053,25.4930096 17.1436798,25.4930096 16.9440445,25.2601017 L16.9440445,25.2601017 Z" id="path-13"></path>
        <path d="M24.7334484,14.8342443 C24.0139532,14.0935874 19.9932443,16.379043 17.5384957,20.3151054 C17.4326875,20.5055601 17.4961724,20.7383379 17.686627,20.8229844 C18.2368293,21.076924 18.6812235,21.5424797 18.9140013,22.1138436 C18.9986478,22.3254599 19.2314257,22.3889448 19.4218804,22.261975 C23.230973,19.7437415 25.4529437,15.5749012 24.7334484,14.8342443 L24.7334484,14.8342443 Z M16.7978387,21.7117727 C16.4804144,21.7117727 16.1841516,21.8810657 15.9725353,22.092682 L15.9513737,22.092682 C15.8455656,22.092682 15.7397575,22.261975 15.655111,22.4101064 C15.3165249,22.9814703 15.2530401,23.6586423 14.745161,24.3992992 C14.6605145,24.526269 14.6816762,24.7167236 14.8298075,24.7590469 C15.5493028,24.9918247 16.840162,24.7802085 17.4750108,24.3146527 L17.4750108,24.3358143 C17.686627,24.2934911 17.6231422,24.2088446 17.686627,24.2088446 C17.9194049,23.7856121 18.1098596,23.5739958 18.1098596,23.1719249 C18.0886979,22.3889448 17.5384957,21.7117727 16.7978387,21.7117727 Z" id="path-15"></path>
        <path d="M16.9440445,25.2601017 L11.4540743,19.7368589 C11.254439,19.5372237 11.254439,19.2044982 11.4540743,19.0048629 L12.1860703,18.2728669 C12.3857056,18.0732316 12.7184311,18.0732316 12.9180664,18.2728669 L17.0438622,22.4319352 C17.1769524,22.5650254 17.4098602,22.5650254 17.5429504,22.4319352 L25.6281793,14.2801612 C25.8278146,14.080526 26.16054,14.080526 26.3601753,14.2801612 L27.0921714,15.0121573 C27.2918066,15.2117926 27.2918066,15.544518 27.0921714,15.7441533 L17.6760406,25.2601017 C17.4764053,25.4930096 17.1436798,25.4930096 16.9440445,25.2601017 L16.9440445,25.2601017 Z" id="path-17"></path>
        <path d="M16.9440445,25.2601017 L11.4540743,19.7368589 C11.254439,19.5372237 11.254439,19.2044982 11.4540743,19.0048629 L12.1860703,18.2728669 C12.3857056,18.0732316 12.7184311,18.0732316 12.9180664,18.2728669 L17.0438622,22.4319352 C17.1769524,22.5650254 17.4098602,22.5650254 17.5429504,22.4319352 L25.6281793,14.2801612 C25.8278146,14.080526 26.16054,14.080526 26.3601753,14.2801612 L27.0921714,15.0121573 C27.2918066,15.2117926 27.2918066,15.544518 27.0921714,15.7441533 L17.6760406,25.2601017 C17.4764053,25.4930096 17.1436798,25.4930096 16.9440445,25.2601017 L16.9440445,25.2601017 Z" id="path-19"></path>
        <path d="M16.9440445,25.2601017 L11.4540743,19.7368589 C11.254439,19.5372237 11.254439,19.2044982 11.4540743,19.0048629 L12.1860703,18.2728669 C12.3857056,18.0732316 12.7184311,18.0732316 12.9180664,18.2728669 L17.0438622,22.4319352 C17.1769524,22.5650254 17.4098602,22.5650254 17.5429504,22.4319352 L25.6281793,14.2801612 C25.8278146,14.080526 26.16054,14.080526 26.3601753,14.2801612 L27.0921714,15.0121573 C27.2918066,15.2117926 27.2918066,15.544518 27.0921714,15.7441533 L17.6760406,25.2601017 C17.4764053,25.4930096 17.1436798,25.4930096 16.9440445,25.2601017 L16.9440445,25.2601017 Z" id="path-21"></path>
        <path d="M16.9440445,25.2601017 L11.4540743,19.7368589 C11.254439,19.5372237 11.254439,19.2044982 11.4540743,19.0048629 L12.1860703,18.2728669 C12.3857056,18.0732316 12.7184311,18.0732316 12.9180664,18.2728669 L17.0438622,22.4319352 C17.1769524,22.5650254 17.4098602,22.5650254 17.5429504,22.4319352 L25.6281793,14.2801612 C25.8278146,14.080526 26.16054,14.080526 26.3601753,14.2801612 L27.0921714,15.0121573 C27.2918066,15.2117926 27.2918066,15.544518 27.0921714,15.7441533 L17.6760406,25.2601017 C17.4764053,25.4930096 17.1436798,25.4930096 16.9440445,25.2601017 L16.9440445,25.2601017 Z" id="path-23"></path>
        <path d="M16.9440445,25.2601017 L11.4540743,19.7368589 C11.254439,19.5372237 11.254439,19.2044982 11.4540743,19.0048629 L12.1860703,18.2728669 C12.3857056,18.0732316 12.7184311,18.0732316 12.9180664,18.2728669 L17.0438622,22.4319352 C17.1769524,22.5650254 17.4098602,22.5650254 17.5429504,22.4319352 L25.6281793,14.2801612 C25.8278146,14.080526 26.16054,14.080526 26.3601753,14.2801612 L27.0921714,15.0121573 C27.2918066,15.2117926 27.2918066,15.544518 27.0921714,15.7441533 L17.6760406,25.2601017 C17.4764053,25.4930096 17.1436798,25.4930096 16.9440445,25.2601017 L16.9440445,25.2601017 Z" id="path-25"></path>
        <path d="M24.7334484,14.8342443 C24.0139532,14.0935874 19.9932443,16.379043 17.5384957,20.3151054 C17.4326875,20.5055601 17.4961724,20.7383379 17.686627,20.8229844 C18.2368293,21.076924 18.6812235,21.5424797 18.9140013,22.1138436 C18.9986478,22.3254599 19.2314257,22.3889448 19.4218804,22.261975 C23.230973,19.7437415 25.4529437,15.5749012 24.7334484,14.8342443 L24.7334484,14.8342443 Z M16.7978387,21.7117727 C16.4804144,21.7117727 16.1841516,21.8810657 15.9725353,22.092682 L15.9513737,22.092682 C15.8455656,22.092682 15.7397575,22.261975 15.655111,22.4101064 C15.3165249,22.9814703 15.2530401,23.6586423 14.745161,24.3992992 C14.6605145,24.526269 14.6816762,24.7167236 14.8298075,24.7590469 C15.5493028,24.9918247 16.840162,24.7802085 17.4750108,24.3146527 L17.4750108,24.3358143 C17.686627,24.2934911 17.6231422,24.2088446 17.686627,24.2088446 C17.9194049,23.7856121 18.1098596,23.5739958 18.1098596,23.1719249 C18.0886979,22.3889448 17.5384957,21.7117727 16.7978387,21.7117727 Z" id="path-27"></path>
        <path d="M16.9440445,25.2601017 L11.4540743,19.7368589 C11.254439,19.5372237 11.254439,19.2044982 11.4540743,19.0048629 L12.1860703,18.2728669 C12.3857056,18.0732316 12.7184311,18.0732316 12.9180664,18.2728669 L17.0438622,22.4319352 C17.1769524,22.5650254 17.4098602,22.5650254 17.5429504,22.4319352 L25.6281793,14.2801612 C25.8278146,14.080526 26.16054,14.080526 26.3601753,14.2801612 L27.0921714,15.0121573 C27.2918066,15.2117926 27.2918066,15.544518 27.0921714,15.7441533 L17.6760406,25.2601017 C17.4764053,25.4930096 17.1436798,25.4930096 16.9440445,25.2601017 L16.9440445,25.2601017 Z" id="path-29"></path>
        <path d="M16.9440445,25.2601017 L11.4540743,19.7368589 C11.254439,19.5372237 11.254439,19.2044982 11.4540743,19.0048629 L12.1860703,18.2728669 C12.3857056,18.0732316 12.7184311,18.0732316 12.9180664,18.2728669 L17.0438622,22.4319352 C17.1769524,22.5650254 17.4098602,22.5650254 17.5429504,22.4319352 L25.6281793,14.2801612 C25.8278146,14.080526 26.16054,14.080526 26.3601753,14.2801612 L27.0921714,15.0121573 C27.2918066,15.2117926 27.2918066,15.544518 27.0921714,15.7441533 L17.6760406,25.2601017 C17.4764053,25.4930096 17.1436798,25.4930096 16.9440445,25.2601017 L16.9440445,25.2601017 Z" id="path-31"></path>
        <path d="M16.9440445,25.2601017 L11.4540743,19.7368589 C11.254439,19.5372237 11.254439,19.2044982 11.4540743,19.0048629 L12.1860703,18.2728669 C12.3857056,18.0732316 12.7184311,18.0732316 12.9180664,18.2728669 L17.0438622,22.4319352 C17.1769524,22.5650254 17.4098602,22.5650254 17.5429504,22.4319352 L25.6281793,14.2801612 C25.8278146,14.080526 26.16054,14.080526 26.3601753,14.2801612 L27.0921714,15.0121573 C27.2918066,15.2117926 27.2918066,15.544518 27.0921714,15.7441533 L17.6760406,25.2601017 C17.4764053,25.4930096 17.1436798,25.4930096 16.9440445,25.2601017 L16.9440445,25.2601017 Z" id="path-33"></path>
        <path d="M16.9440445,25.2601017 L11.4540743,19.7368589 C11.254439,19.5372237 11.254439,19.2044982 11.4540743,19.0048629 L12.1860703,18.2728669 C12.3857056,18.0732316 12.7184311,18.0732316 12.9180664,18.2728669 L17.0438622,22.4319352 C17.1769524,22.5650254 17.4098602,22.5650254 17.5429504,22.4319352 L25.6281793,14.2801612 C25.8278146,14.080526 26.16054,14.080526 26.3601753,14.2801612 L27.0921714,15.0121573 C27.2918066,15.2117926 27.2918066,15.544518 27.0921714,15.7441533 L17.6760406,25.2601017 C17.4764053,25.4930096 17.1436798,25.4930096 16.9440445,25.2601017 L16.9440445,25.2601017 Z" id="path-35"></path>
        <path d="M16.9440445,25.2601017 L11.4540743,19.7368589 C11.254439,19.5372237 11.254439,19.2044982 11.4540743,19.0048629 L12.1860703,18.2728669 C12.3857056,18.0732316 12.7184311,18.0732316 12.9180664,18.2728669 L17.0438622,22.4319352 C17.1769524,22.5650254 17.4098602,22.5650254 17.5429504,22.4319352 L25.6281793,14.2801612 C25.8278146,14.080526 26.16054,14.080526 26.3601753,14.2801612 L27.0921714,15.0121573 C27.2918066,15.2117926 27.2918066,15.544518 27.0921714,15.7441533 L17.6760406,25.2601017 C17.4764053,25.4930096 17.1436798,25.4930096 16.9440445,25.2601017 L16.9440445,25.2601017 Z" id="path-37"></path>
        <path d="M16.9440445,25.2601017 L11.4540743,19.7368589 C11.254439,19.5372237 11.254439,19.2044982 11.4540743,19.0048629 L12.1860703,18.2728669 C12.3857056,18.0732316 12.7184311,18.0732316 12.9180664,18.2728669 L17.0438622,22.4319352 C17.1769524,22.5650254 17.4098602,22.5650254 17.5429504,22.4319352 L25.6281793,14.2801612 C25.8278146,14.080526 26.16054,14.080526 26.3601753,14.2801612 L27.0921714,15.0121573 C27.2918066,15.2117926 27.2918066,15.544518 27.0921714,15.7441533 L17.6760406,25.2601017 C17.4764053,25.4930096 17.1436798,25.4930096 16.9440445,25.2601017 L16.9440445,25.2601017 Z" id="path-39"></path>
    </defs>
    <g id="Page-1" stroke="none" stroke-width="1" fill="none" fill-rule="evenodd">
        <g id="弹窗" transform="translate(-2260.000000, -894.000000)">
            <g id="Group-12" transform="translate(2260.000000, 894.000000)">
                <g id="Group-45">
                    <g id="Group-124" transform="translate(111.333333, 0.000000)">
                        <path d="M1.5,1.5 L1.5,27.5 L51.5,27.5 L51.5,1.5 L1.5,1.5 Z" id="Clip-123" stroke="url(#linearGradient-1)" stroke-width="3" fill="#F9FCFF" fill-rule="evenodd"></path>
                        <text id="Type-something" font-family="PingFangSC-Semibold, PingFang SC" font-size="14" font-weight="500" letter-spacing="-0.875"></text>
                    </g>
                    <g id="Group-55-Copy" transform="translate(0.000000, 52.704286)" fill-rule="evenodd" stroke-width="1">
                        <g id="Group" transform="translate(5.086957, 5.652174)">
                            <path d="M14.3929822,27.8308304 C22.0491331,27.8308304 28.2552147,21.6244796 28.2552147,13.9688672 C28.2552147,6.31298548 22.0491331,0.10636535 14.3929822,0.10636535 C6.73736976,0.10636535 0.530480353,6.31298548 0.530480353,13.9688672 C0.530480353,21.6244796 6.73736976,27.8308304 14.3929822,27.8308304 Z" id="Fill-83" fill="#007AFF"></path>
                            <mask id="mask-3" fill="white">
                                <use xlink:href="#path-2"></use>
                            </mask>
                            <use id="Mask" fill="#FFFFFF" xlink:href="#path-2"></use>
                        </g>
                    </g>
                    <g id="Group-55-Copy" transform="translate(47.333333, 52.704286)" fill-rule="evenodd" stroke-width="1">
                        <g id="Group" transform="translate(5.086957, 5.652174)">
                            <path d="M14.3929822,27.8308304 C22.0491331,27.8308304 28.2552147,21.6244796 28.2552147,13.9688672 C28.2552147,6.31298548 22.0491331,0.10636535 14.3929822,0.10636535 C6.73736976,0.10636535 0.530480353,6.31298548 0.530480353,13.9688672 C0.530480353,21.6244796 6.73736976,27.8308304 14.3929822,27.8308304 Z" id="Fill-83" fill="#007AFF"></path>
                            <mask id="mask-5" fill="white">
                                <use xlink:href="#path-4"></use>
                            </mask>
                            <use id="Mask" fill="#FFFFFF" xlink:href="#path-4"></use>
                        </g>
                    </g>
                    <path d="M19.3333333,14.6771429 L19.3333333,54.7057143" id="Line-3-Copy-13" stroke="#007AFF" stroke-width="2" stroke-linecap="square" stroke-dasharray="10,10"></path>
                    <path d="M67.3333333,14.6771429 L67.3333333,54.7057143" id="Line-3-Copy-24" stroke="#007AFF" stroke-width="2" stroke-linecap="square" stroke-dasharray="10,10"></path>
                    <g id="Combined-Shape-Copy-7" transform="translate(191.333333, 174.791429)" fill="url(#linearGradient-6)" fill-rule="evenodd">
                        <path d="M10,14.3334358 L10.2798043,14.3372793 C15.6713518,14.4855723 20,18.9062074 20,24.3334358 L20,24.3334358 L19.9950733,24.5164862 C19.9002306,26.2738159 18.4479028,27.6667691 16.6666667,27.6667691 L16.6666667,27.6667691 L3.33333333,27.6667691 L3.15028298,27.6618424 C1.39295323,27.5669997 0,26.1146719 0,24.3334358 C0,18.8126345 4.47894251,14.3334358 10,14.3334358 L10,14.3334358 Z M10,0 C13.313608,0 16.0001025,2.68623834 16.0001025,6.00010247 L16.0001025,6.00010247 L15.9959637,6.22505102 C15.8776652,9.43468082 13.2382987,12.0002049 10,12.0002049 L10,12.0002049 L9.77505145,11.9960665 C6.56542165,11.877779 3.99989753,9.2386515 3.99989753,6.00010247 L3.99989753,6.00010247 L4.00403592,5.77515392 C4.12232346,2.56552412 6.76145097,0 10,0 Z"></path>
                    </g>
                    <g id="Combined-Shape-Copy-7" transform="translate(366.000000, 174.791429)" fill="url(#linearGradient-6)" fill-rule="evenodd">
                        <path d="M10,14.3334358 L10.2798043,14.3372793 C15.6713518,14.4855723 20,18.9062074 20,24.3334358 L20,24.3334358 L19.9950733,24.5164862 C19.9002306,26.2738159 18.4479028,27.6667691 16.6666667,27.6667691 L16.6666667,27.6667691 L3.33333333,27.6667691 L3.15028298,27.6618424 C1.39295323,27.5669997 0,26.1146719 0,24.3334358 C0,18.8126345 4.47894251,14.3334358 10,14.3334358 L10,14.3334358 Z M10,0 C13.313608,0 16.0001025,2.68623834 16.0001025,6.00010247 L16.0001025,6.00010247 L15.9959637,6.22505102 C15.8776652,9.43468082 13.2382987,12.0002049 10,12.0002049 L10,12.0002049 L9.77505145,11.9960665 C6.56542165,11.877779 3.99989753,9.2386515 3.99989753,6.00010247 L3.99989753,6.00010247 L4.00403592,5.77515392 C4.12232346,2.56552412 6.76145097,0 10,0 Z"></path>
                    </g>
                    <g id="Group-124" transform="translate(346.666667, 0.000000)">
                        <path d="M1.5,1.5 L1.5,27.5 L51.5,27.5 L51.5,1.5 L1.5,1.5 Z" id="Clip-123" stroke="url(#linearGradient-1)" stroke-width="3" fill="#F9FCFF" fill-rule="evenodd"></path>
                        <text id="Type-something" font-family="PingFangSC-Semibold, PingFang SC" font-size="14" font-weight="500" letter-spacing="-0.875"></text>
                    </g>
                    <path id="Line-3-Copy-38" d="M276.485942,62.1617417 L280.243,66.839 L280.938946,66.2807684 L282.191483,67.8399831 L281.495,68.398 L285.253703,73.0762441 L269.95532,76.3867542 L276.485942,62.1617417 Z M284.447179,63.4625595 L285.699716,65.0217741 L284.140501,66.2743114 L282.887964,64.7150968 L284.447179,63.4625595 Z M287.955411,60.6443505 L289.207949,62.2035651 L287.648734,63.4561024 L286.396197,61.8968878 L287.955411,60.6443505 Z M291.463644,57.8261415 L292.716182,59.3853562 L291.156967,60.6378935 L289.90443,59.0786788 L291.463644,57.8261415 Z M294.971877,55.0079325 L296.224415,56.5671472 L294.6652,57.8196845 L293.412663,56.2604699 L294.971877,55.0079325 Z M298.48011,52.1897236 L299.732648,53.7489382 L298.173433,55.0014755 L296.920896,53.4422609 L298.48011,52.1897236 Z M301.988343,49.3715146 L303.24088,50.9307292 L301.681666,52.1832666 L300.429129,50.6240519 L301.988343,49.3715146 Z M305.496576,46.5533056 L306.749113,48.1125203 L305.189899,49.3650576 L303.937361,47.805843 L305.496576,46.5533056 Z M309.004809,43.7350967 L310.257346,45.2943113 L308.698132,46.5468486 L307.445594,44.987634 L309.004809,43.7350967 Z M312.513042,40.9168877 L313.765579,42.4761023 L312.206365,43.7286396 L310.953827,42.169425 L312.513042,40.9168877 Z M316.021275,38.0986787 L317.273812,39.6578933 L315.714598,40.9104307 L314.46206,39.351216 L316.021275,38.0986787 Z M319.529508,35.2804697 L320.782045,36.8396844 L319.22283,38.0922217 L317.970293,36.5330071 L319.529508,35.2804697 Z M323.037741,32.4622608 L324.290278,34.0214754 L322.731063,35.2740127 L321.478526,33.7147981 L323.037741,32.4622608 Z M326.545974,29.6440518 L327.798511,31.2032664 L326.239296,32.4558037 L324.986759,30.8965891 L326.545974,29.6440518 Z M330.054206,26.8258428 L331.306744,28.3850574 L329.747529,29.6375948 L328.494992,28.0783801 L330.054206,26.8258428 Z M333.562439,24.0076338 L334.814977,25.5668485 L333.255762,26.8193858 L332.003225,25.2601712 L333.562439,24.0076338 Z M337.070672,21.1894249 L338.32321,22.7486395 L336.763995,24.0011768 L335.511458,22.4419622 L337.070672,21.1894249 Z M340.578905,18.3712159 L341.831443,19.9304305 L340.272228,21.1829679 L339.019691,19.6237532 L340.578905,18.3712159 Z M344.087138,15.5530069 L345.339675,17.1122216 L343.780461,18.3647589 L342.527924,16.8055443 L344.087138,15.5530069 Z" fill="#007AFF" fill-rule="nonzero"></path>
                    <path id="Line-3-Copy-47" d="M212.12745,187.236439 L213.883761,188.193189 L213.544822,188.815381 L211.788511,187.858631 L212.12745,187.236439 Z M214.280138,183.284739 L216.036449,184.241489 L215.079699,185.9978 L213.323388,185.04105 L214.280138,183.284739 Z M216.432826,179.333039 L218.189137,180.289789 L217.232387,182.0461 L215.476076,181.08935 L216.432826,179.333039 Z M218.585514,175.381338 L220.341825,176.338089 L219.385075,178.0944 L217.628763,177.13765 L218.585514,175.381338 Z M220.738202,171.429638 L222.494513,172.386388 L221.537763,174.1427 L219.781451,173.185949 L220.738202,171.429638 Z M222.890889,167.477938 L224.647201,168.434688 L223.69045,170.190999 L221.934139,169.234249 L222.890889,167.477938 Z M225.043577,163.526238 L226.799889,164.482988 L225.843138,166.239299 L224.086827,165.282549 L225.043577,163.526238 Z M227.196265,159.574537 L228.952576,160.531288 L227.995826,162.287599 L226.239515,161.330849 L227.196265,159.574537 Z M229.348953,155.622837 L231.105264,156.579587 L230.148514,158.335899 L228.392203,157.379148 L229.348953,155.622837 Z M238.58034,140.767143 L238.030178,156.409947 L232.761,153.539 L232.301202,154.384198 L230.544891,153.427448 L231.004,152.582 L225.736,149.712696 L238.58034,140.767143 Z" fill="#1B4366" fill-rule="nonzero"></path>
                    <path id="Line-3-Copy-47" d="M224.58034,181.215645 L238.58034,188.215645 L224.58034,195.215645 L224.58,189.215 L223.58034,189.215645 L223.58034,187.215645 L224.58,187.215 L224.58034,181.215645 Z M221.08034,187.215645 L221.08034,189.215645 L219.08034,189.215645 L219.08034,187.215645 L221.08034,187.215645 Z M216.58034,187.215645 L216.58034,189.215645 L214.58034,189.215645 L214.58034,187.215645 L216.58034,187.215645 Z" fill="#1B4366" fill-rule="nonzero"></path>
                    <path id="Line-3-Copy-41" d="M316.723974,60.7422015 L322.173,63.253 L322.549303,62.4372317 L324.365707,63.2742957 L323.989,64.09 L329.438803,66.6016492 L317.221941,76.3867542 L316.723974,60.7422015 Z M324.432697,58.3503224 L326.249101,59.1873864 L325.412037,61.0037905 L323.595633,60.1667265 L324.432697,58.3503224 Z M326.316091,54.2634132 L328.132495,55.1004771 L327.295431,56.9168812 L325.479027,56.0798173 L326.316091,54.2634132 Z M328.199485,50.1765039 L330.015889,51.0135679 L329.178825,52.829972 L327.362421,51.992908 L328.199485,50.1765039 Z M330.082879,46.0895946 L331.899283,46.9266586 L331.062219,48.7430627 L329.245815,47.9059987 L330.082879,46.0895946 Z M331.966273,42.0026854 L333.782677,42.8397493 L332.945613,44.6561534 L331.129209,43.8190895 L331.966273,42.0026854 Z M333.849667,37.9157761 L335.666071,38.75284 L334.829007,40.5692442 L333.012603,39.7321802 L333.849667,37.9157761 Z M335.73306,33.8288668 L337.549465,34.6659308 L336.712401,36.4823349 L334.895996,35.6452709 L335.73306,33.8288668 Z M337.616454,29.7419575 L339.432858,30.5790215 L338.595795,32.3954256 L336.77939,31.5583617 L337.616454,29.7419575 Z M339.499848,25.6550483 L341.316252,26.4921122 L340.479188,28.3085164 L338.662784,27.4714524 L339.499848,25.6550483 Z M341.383242,21.568139 L343.199646,22.405203 L342.362582,24.2216071 L340.546178,23.3845431 L341.383242,21.568139 Z M343.266636,17.4812297 L345.08304,18.3182937 L344.245976,20.1346978 L342.429572,19.2976339 L343.266636,17.4812297 Z" fill="#007AFF" fill-rule="nonzero"></path>
                    <path id="Line-3-Copy-48" d="M350.072233,189.552191 L350.404669,190.096606 L348.69774,191.138908 L348.365304,190.594492 L350.072233,189.552191 Z M347.727054,185.7116 L348.769356,187.418529 L347.062427,188.460831 L346.020125,186.753902 L347.727054,185.7116 Z M345.381875,181.87101 L346.424177,183.577939 L344.717248,184.620241 L343.674946,182.913312 L345.381875,181.87101 Z M343.036696,178.030419 L344.078997,179.737348 L342.372068,180.77965 L341.329767,179.072721 L343.036696,178.030419 Z M340.691516,174.189829 L341.733818,175.896758 L340.026889,176.93906 L338.984587,175.232131 L340.691516,174.189829 Z M338.346337,170.349239 L339.388639,172.056168 L337.68171,173.09847 L336.639408,171.391541 L338.346337,170.349239 Z M336.001158,166.508648 L337.04346,168.215577 L335.336531,169.257879 L334.294229,167.55095 L336.001158,166.508648 Z M333.655979,162.668058 L334.698281,164.374987 L332.991352,165.417289 L331.94905,163.71036 L333.655979,162.668058 Z M331.310799,158.827468 L332.353101,160.534397 L330.646172,161.576698 L329.60387,159.869769 L331.310799,158.827468 Z M328.96562,154.986877 L330.007922,156.693806 L328.300993,157.736108 L327.258691,156.029179 L328.96562,154.986877 Z M326.620441,151.146287 L327.662743,152.853216 L325.955814,153.895518 L324.913512,152.188589 L326.620441,151.146287 Z M316.666667,136.764286 L329.937031,145.064733 L324.816,148.191 L325.317564,149.012625 L323.610635,150.054927 L323.109,149.233 L317.988528,152.360846 L316.666667,136.764286 Z" fill="#1B4366" fill-rule="nonzero"></path>
                    <g id="Group-55-Copy-19" transform="translate(235.333333, 52.704286)">
                        <path d="M19.4799387,33.4830043 C27.1360896,33.4830043 33.3421712,27.2766535 33.3421712,19.6210411 C33.3421712,11.9651594 27.1360896,5.75853926 19.4799387,5.75853926 C11.8243263,5.75853926 5.61743687,11.9651594 5.61743687,19.6210411 C5.61743687,27.2766535 11.8243263,33.4830043 19.4799387,33.4830043 Z" id="Fill-83" fill="#1B4366" fill-rule="evenodd"></path>
                        <mask id="mask-8" fill="white">
                            <use xlink:href="#path-7"></use>
                        </mask>
                        <use id="Mask" fill="#FFFFFF" fill-rule="evenodd" xlink:href="#path-7"></use>
                    </g>
                    <g id="Group-55-Copy-21" transform="translate(235.333333, 110.745714)">
                        <path d="M19.4799387,33.4830043 C27.1360896,33.4830043 33.3421712,27.2766535 33.3421712,19.6210411 C33.3421712,11.9651594 27.1360896,5.75853926 19.4799387,5.75853926 C11.8243263,5.75853926 5.61743687,11.9651594 5.61743687,19.6210411 C5.61743687,27.2766535 11.8243263,33.4830043 19.4799387,33.4830043 Z" id="Fill-83" fill="#007AFF" fill-rule="evenodd"></path>
                        <mask id="mask-10" fill="white">
                            <use xlink:href="#path-9"></use>
                        </mask>
                        <use id="Mask" fill="#FFFFFF" fill-rule="evenodd" xlink:href="#path-9"></use>
                    </g>
                    <g id="Group-55-Copy-21" transform="translate(235.333333, 168.787143)">
                        <path d="M19.4799387,33.4830043 C27.1360896,33.4830043 33.3421712,27.2766535 33.3421712,19.6210411 C33.3421712,11.9651594 27.1360896,5.75853926 19.4799387,5.75853926 C11.8243263,5.75853926 5.61743687,11.9651594 5.61743687,19.6210411 C5.61743687,27.2766535 11.8243263,33.4830043 19.4799387,33.4830043 Z" id="Fill-83" fill="#007AFF" fill-rule="evenodd"></path>
                        <mask id="mask-12" fill="white">
                            <use xlink:href="#path-11"></use>
                        </mask>
                        <use id="Mask" fill="#FFFFFF" fill-rule="evenodd" xlink:href="#path-11"></use>
                    </g>
                    <path d="M0,231.081429 L400,231.081429" id="Line-5" stroke="#0099FF" stroke-width="2" opacity="0.16"></path>
                    <g id="Group-55-Copy-19" transform="translate(282.666667, 52.704286)">
                        <path d="M19.4799387,33.4830043 C27.1360896,33.4830043 33.3421712,27.2766535 33.3421712,19.6210411 C33.3421712,11.9651594 27.1360896,5.75853926 19.4799387,5.75853926 C11.8243263,5.75853926 5.61743687,11.9651594 5.61743687,19.6210411 C5.61743687,27.2766535 11.8243263,33.4830043 19.4799387,33.4830043 Z" id="Fill-83" fill="#1B4366" fill-rule="evenodd"></path>
                        <mask id="mask-14" fill="white">
                            <use xlink:href="#path-13"></use>
                        </mask>
                        <use id="Mask" fill="#FFFFFF" fill-rule="evenodd" xlink:href="#path-13"></use>
                    </g>
                    <g id="Group-55-Copy-21" transform="translate(282.666667, 110.745714)">
                        <path d="M19.4799387,33.4830043 C27.1360896,33.4830043 33.3421712,27.2766535 33.3421712,19.6210411 C33.3421712,11.9651594 27.1360896,5.75853926 19.4799387,5.75853926 C11.8243263,5.75853926 5.61743687,11.9651594 5.61743687,19.6210411 C5.61743687,27.2766535 11.8243263,33.4830043 19.4799387,33.4830043 Z" id="Fill-83" fill="#007AFF" fill-rule="evenodd"></path>
                        <mask id="mask-16" fill="white">
                            <use xlink:href="#path-15"></use>
                        </mask>
                        <use id="Mask" fill="#FFFFFF" fill-rule="evenodd" xlink:href="#path-15"></use>
                    </g>
                    <path d="M254.666667,14.6771429 L254.666667,54.7057143" id="Line-3-Copy-42" stroke="#007AFF" stroke-width="2" stroke-linecap="square" stroke-dasharray="10,10"></path>
                    <path d="M254.666667,90.7314286 L254.666667,112.747143" id="Line-3-Copy-44" stroke="#007AFF" stroke-width="2" stroke-linecap="square" stroke-dasharray="10,10"></path>
                    <path d="M254.666667,150.107143 L254.666667,170.788571" id="Line-3-Copy-46" stroke="#007AFF" stroke-width="2" stroke-linecap="square" stroke-dasharray="10,10"></path>
                    <path d="M302.666667,14.6771429 L302.666667,54.7057143" id="Line-3-Copy-43" stroke="#007AFF" stroke-width="2" stroke-linecap="square" stroke-dasharray="10,10"></path>
                    <path d="M302.666667,90.7314286 L302.666667,112.747143" id="Line-3-Copy-45" stroke="#007AFF" stroke-width="2" stroke-linecap="square" stroke-dasharray="10,10"></path>
                    <g id="Combined-Shape-Copy-7" transform="translate(124.000000, 432.975714)" fill="url(#linearGradient-6)" fill-rule="evenodd">
                        <path d="M10,14.3334358 L10.2798043,14.3372793 C15.6713518,14.4855723 20,18.9062074 20,24.3334358 L20,24.3334358 L19.9950733,24.5164862 C19.9002306,26.2738159 18.4479028,27.6667691 16.6666667,27.6667691 L16.6666667,27.6667691 L3.33333333,27.6667691 L3.15028298,27.6618424 C1.39295323,27.5669997 0,26.1146719 0,24.3334358 C0,18.8126345 4.47894251,14.3334358 10,14.3334358 L10,14.3334358 Z M10,0 C13.313608,0 16.0001025,2.68623834 16.0001025,6.00010247 L16.0001025,6.00010247 L15.9959637,6.22505102 C15.8776652,9.43468082 13.2382987,12.0002049 10,12.0002049 L10,12.0002049 L9.77505145,11.9960665 C6.56542165,11.877779 3.99989753,9.2386515 3.99989753,6.00010247 L3.99989753,6.00010247 L4.00403592,5.77515392 C4.12232346,2.56552412 6.76145097,0 10,0 Z"></path>
                    </g>
                    <g id="Group-124" transform="translate(111.333333, 258.851429)">
                        <path d="M1.5,1.5 L1.5,27.5 L51.5,27.5 L51.5,1.5 L1.5,1.5 Z" id="Clip-123" stroke="url(#linearGradient-1)" stroke-width="3" fill="#F9FCFF" fill-rule="evenodd"></path>
                        <text id="Type-something" font-family="PingFangSC-Semibold, PingFang SC" font-size="14" font-weight="500" letter-spacing="-0.875"></text>
                    </g>
                    <g id="Group-124" transform="translate(111.333333, 319.561429)">
                        <path d="M1.5,1.5 L1.5,27.5 L51.5,27.5 L51.5,1.5 L1.5,1.5 Z" id="Clip-123" stroke="url(#linearGradient-1)" stroke-width="3" fill="#F9FCFF" fill-rule="evenodd"></path>
                        <text id="Type-something" font-family="PingFangSC-Semibold, PingFang SC" font-size="14" font-weight="500" letter-spacing="-0.875"></text>
                    </g>
                    <g id="Group-124" transform="translate(111.333333, 376.935714)">
                        <path d="M1.5,1.5 L1.5,27.5 L51.5,27.5 L51.5,1.5 L1.5,1.5 Z" id="Clip-123" stroke="url(#linearGradient-1)" stroke-width="3" fill="#F9FCFF" fill-rule="evenodd"></path>
                        <text id="Type-something" font-family="PingFangSC-Semibold, PingFang SC" font-size="14" font-weight="500" letter-spacing="-0.875"></text>
                    </g>
                    <path id="Line-3-Copy-37" d="M39.5483935,61.995771 L43.188,66.765 L43.8952705,66.2259804 L45.1087164,67.8158071 L44.402,68.354 L48.0425145,73.1245583 L32.6666667,76.0542857 L39.5483935,61.995771 Z M47.4723807,63.4957272 L48.6858266,65.085554 L47.0959998,66.2989998 L45.8825539,64.7091731 L47.4723807,63.4957272 Z M51.0494909,60.765474 L52.2629368,62.3553008 L50.67311,63.5687466 L49.4596642,61.9789199 L51.0494909,60.765474 Z M54.6266011,58.0352208 L55.840047,59.6250476 L54.2502202,60.8384934 L53.0367744,59.2486667 L54.6266011,58.0352208 Z M58.2037114,55.3049676 L59.4171572,56.8947944 L57.8273305,58.1082402 L56.6138846,56.5184135 L58.2037114,55.3049676 Z M61.7808216,52.5747144 L62.9942674,54.1645412 L61.4044407,55.377987 L60.1909948,53.7881603 L61.7808216,52.5747144 Z M65.3579318,49.8444612 L66.5713777,51.434288 L64.9815509,52.6477339 L63.768105,51.0579071 L65.3579318,49.8444612 Z M68.935042,47.114208 L70.1484879,48.7040348 L68.5586611,49.9174807 L67.3452152,48.3276539 L68.935042,47.114208 Z M72.5121522,44.3839548 L73.7255981,45.9737816 L72.1357713,47.1872275 L70.9223255,45.5974007 L72.5121522,44.3839548 Z M76.0892624,41.6537017 L77.3027083,43.2435284 L75.7128815,44.4569743 L74.4994357,42.8671475 L76.0892624,41.6537017 Z M79.6663727,38.9234485 L80.8798185,40.5132752 L79.2899918,41.7267211 L78.0765459,40.1368943 L79.6663727,38.9234485 Z M83.2434829,36.1931953 L84.4569287,37.783022 L82.867102,38.9964679 L81.6536561,37.4066411 L83.2434829,36.1931953 Z M86.8205931,33.4629421 L88.034039,35.0527688 L86.4442122,36.2662147 L85.2307663,34.6763879 L86.8205931,33.4629421 Z M90.3977033,30.7326889 L91.6111492,32.3225156 L90.0213224,33.5359615 L88.8078766,31.9461347 L90.3977033,30.7326889 Z M93.9748135,28.0024357 L95.1882594,29.5922625 L93.5984326,30.8057083 L92.3849868,29.2158816 L93.9748135,28.0024357 Z M97.5519238,25.2721825 L98.7653696,26.8620093 L97.1755429,28.0754551 L95.962097,26.4856284 L97.5519238,25.2721825 Z M101.129034,22.5419293 L102.34248,24.1317561 L100.752653,25.3452019 L99.5392072,23.7553752 L101.129034,22.5419293 Z M104.706144,19.8116761 L105.91959,21.4015029 L104.329763,22.6149487 L103.116317,21.025122 L104.706144,19.8116761 Z M108.283254,17.0814229 L109.4967,18.6712497 L107.906874,19.8846956 L106.693428,18.2948688 L108.283254,17.0814229 Z M110.72661,15.2165152 L111.940056,16.806342 L111.483984,17.1544424 L110.270538,15.5646156 L110.72661,15.2165152 Z" fill="#007AFF" fill-rule="nonzero"></path>
                    <path id="Line-3-Copy-37" d="M81.3288638,60.4018105 L86.695,63.083 L87.1078542,62.2596488 L88.8969639,63.1535651 L88.485,63.977 L93.8526317,66.6592249 L81.3333333,76.0542857 L81.3288638,60.4018105 Z M89.119166,58.2341519 L90.9082757,59.1280683 L90.0143594,60.917178 L88.2252497,60.0232616 L89.119166,58.2341519 Z M91.1304778,54.2086551 L92.9195875,55.1025714 L92.0256712,56.8916811 L90.2365614,55.9977648 L91.1304778,54.2086551 Z M93.1417896,50.1831582 L94.9308993,51.0770746 L94.0369829,52.8661843 L92.2478732,51.9722679 L93.1417896,50.1831582 Z M95.1531013,46.1576614 L96.9422111,47.0515777 L96.0482947,48.8406874 L94.259185,47.9467711 L95.1531013,46.1576614 Z M97.1644131,42.1321645 L98.9535228,43.0260808 L98.0596065,44.8151906 L96.2704968,43.9212742 L97.1644131,42.1321645 Z M99.1757249,38.1066676 L100.964835,39.000584 L100.070918,40.7896937 L98.2818085,39.8957774 L99.1757249,38.1066676 Z M101.187037,34.0811708 L102.976146,34.9750871 L102.08223,36.7641968 L100.29312,35.8702805 L101.187037,34.0811708 Z M103.198348,30.0556739 L104.987458,30.9495903 L104.093542,32.7387 L102.304432,31.8447836 L103.198348,30.0556739 Z M105.20966,26.0301771 L106.99877,26.9240934 L106.104854,28.7132031 L104.315744,27.8192868 L105.20966,26.0301771 Z M107.220972,22.0046802 L109.010082,22.8985966 L108.116165,24.6877063 L106.327056,23.7937899 L107.220972,22.0046802 Z M109.232284,17.9791834 L111.021393,18.8730997 L110.127477,20.6622094 L108.338367,19.7682931 L109.232284,17.9791834 Z M110.438778,15.5644704 L112.227888,16.4583867 L112.138789,16.6367126 L110.349679,15.7427962 L110.438778,15.5644704 Z" fill="#007AFF" fill-rule="nonzero"></path>
                    <path id="Line-3-Copy-49" d="M39.5483935,320.8472 L43.188,325.616 L43.8952705,325.077409 L45.1087164,326.667236 L44.402,327.206 L48.0425145,331.975987 L32.6666667,334.905714 L39.5483935,320.8472 Z M47.4723807,322.347156 L48.6858266,323.936983 L47.0959998,325.150428 L45.8825539,323.560602 L47.4723807,322.347156 Z M51.0494909,319.616903 L52.2629368,321.206729 L50.67311,322.420175 L49.4596642,320.830348 L51.0494909,319.616903 Z M54.6266011,316.886649 L55.840047,318.476476 L54.2502202,319.689922 L53.0367744,318.100095 L54.6266011,316.886649 Z M58.2037114,314.156396 L59.4171572,315.746223 L57.8273305,316.959669 L56.6138846,315.369842 L58.2037114,314.156396 Z M61.7808216,311.426143 L62.9942674,313.01597 L61.4044407,314.229416 L60.1909948,312.639589 L61.7808216,311.426143 Z M65.3579318,308.69589 L66.5713777,310.285717 L64.9815509,311.499162 L63.768105,309.909336 L65.3579318,308.69589 Z M68.935042,305.965637 L70.1484879,307.555463 L68.5586611,308.768909 L67.3452152,307.179082 L68.935042,305.965637 Z M72.5121522,303.235383 L73.7255981,304.82521 L72.1357713,306.038656 L70.9223255,304.448829 L72.5121522,303.235383 Z M76.0892624,300.50513 L77.3027083,302.094957 L75.7128815,303.308403 L74.4994357,301.718576 L76.0892624,300.50513 Z M79.6663727,297.774877 L80.8798185,299.364704 L79.2899918,300.57815 L78.0765459,298.988323 L79.6663727,297.774877 Z M83.2434829,295.044624 L84.4569287,296.634451 L82.867102,297.847896 L81.6536561,296.25807 L83.2434829,295.044624 Z M86.8205931,292.314371 L88.034039,293.904197 L86.4442122,295.117643 L85.2307663,293.527817 L86.8205931,292.314371 Z M90.3977033,289.584117 L91.6111492,291.173944 L90.0213224,292.38739 L88.8078766,290.797563 L90.3977033,289.584117 Z M93.9748135,286.853864 L95.1882594,288.443691 L93.5984326,289.657137 L92.3849868,288.06731 L93.9748135,286.853864 Z M97.5519238,284.123611 L98.7653696,285.713438 L97.1755429,286.926884 L95.962097,285.337057 L97.5519238,284.123611 Z M101.129034,281.393358 L102.34248,282.983185 L100.752653,284.196631 L99.5392072,282.606804 L101.129034,281.393358 Z M104.706144,278.663105 L105.91959,280.252931 L104.329763,281.466377 L103.116317,279.876551 L104.706144,278.663105 Z M108.283254,275.932851 L109.4967,277.522678 L107.906874,278.736124 L106.693428,277.146297 L108.283254,275.932851 Z M110.72661,274.067944 L111.940056,275.657771 L111.483984,276.005871 L110.270538,274.416044 L110.72661,274.067944 Z" fill="#007AFF" fill-rule="nonzero"></path>
                    <path id="Line-3-Copy-52" d="M81.3288638,319.253239 L86.695,321.935 L87.1078542,321.111077 L88.8969639,322.004994 L88.485,322.828 L93.8526317,325.510653 L81.3333333,334.905714 L81.3288638,319.253239 Z M89.119166,317.08558 L90.9082757,317.979497 L90.0143594,319.768607 L88.2252497,318.87469 L89.119166,317.08558 Z M91.1304778,313.060084 L92.9195875,313.954 L92.0256712,315.74311 L90.2365614,314.849193 L91.1304778,313.060084 Z M93.1417896,309.034587 L94.9308993,309.928503 L94.0369829,311.717613 L92.2478732,310.823696 L93.1417896,309.034587 Z M95.1531013,305.00909 L96.9422111,305.903006 L96.0482947,307.692116 L94.259185,306.7982 L95.1531013,305.00909 Z M97.1644131,300.983593 L98.9535228,301.877509 L98.0596065,303.666619 L96.2704968,302.772703 L97.1644131,300.983593 Z M99.1757249,296.958096 L100.964835,297.852013 L100.070918,299.641122 L98.2818085,298.747206 L99.1757249,296.958096 Z M101.187037,292.932599 L102.976146,293.826516 L102.08223,295.615625 L100.29312,294.721709 L101.187037,292.932599 Z M103.198348,288.907103 L104.987458,289.801019 L104.093542,291.590129 L102.304432,290.696212 L103.198348,288.907103 Z M105.20966,284.881606 L106.99877,285.775522 L106.104854,287.564632 L104.315744,286.670715 L105.20966,284.881606 Z M107.220972,280.856109 L109.010082,281.750025 L108.116165,283.539135 L106.327056,282.645219 L107.220972,280.856109 Z M109.232284,276.830612 L111.021393,277.724528 L110.127477,279.513638 L108.338367,278.619722 L109.232284,276.830612 Z M110.438778,274.415899 L112.227888,275.309815 L112.138789,275.488141 L110.349679,274.594225 L110.438778,274.415899 Z" fill="#007AFF" fill-rule="nonzero"></path>
                    <path id="Line-3-Copy-49" d="M39.5483935,381.5572 L43.188,386.326 L43.8952705,385.787409 L45.1087164,387.377236 L44.402,387.916 L48.0425145,392.685987 L32.6666667,395.615714 L39.5483935,381.5572 Z M47.4723807,383.057156 L48.6858266,384.646983 L47.0959998,385.860428 L45.8825539,384.270602 L47.4723807,383.057156 Z M51.0494909,380.326903 L52.2629368,381.916729 L50.67311,383.130175 L49.4596642,381.540348 L51.0494909,380.326903 Z M54.6266011,377.596649 L55.840047,379.186476 L54.2502202,380.399922 L53.0367744,378.810095 L54.6266011,377.596649 Z M58.2037114,374.866396 L59.4171572,376.456223 L57.8273305,377.669669 L56.6138846,376.079842 L58.2037114,374.866396 Z M61.7808216,372.136143 L62.9942674,373.72597 L61.4044407,374.939416 L60.1909948,373.349589 L61.7808216,372.136143 Z M65.3579318,369.40589 L66.5713777,370.995717 L64.9815509,372.209162 L63.768105,370.619336 L65.3579318,369.40589 Z M68.935042,366.675637 L70.1484879,368.265463 L68.5586611,369.478909 L67.3452152,367.889082 L68.935042,366.675637 Z M72.5121522,363.945383 L73.7255981,365.53521 L72.1357713,366.748656 L70.9223255,365.158829 L72.5121522,363.945383 Z M76.0892624,361.21513 L77.3027083,362.804957 L75.7128815,364.018403 L74.4994357,362.428576 L76.0892624,361.21513 Z M79.6663727,358.484877 L80.8798185,360.074704 L79.2899918,361.28815 L78.0765459,359.698323 L79.6663727,358.484877 Z M83.2434829,355.754624 L84.4569287,357.344451 L82.867102,358.557896 L81.6536561,356.96807 L83.2434829,355.754624 Z M86.8205931,353.024371 L88.034039,354.614197 L86.4442122,355.827643 L85.2307663,354.237817 L86.8205931,353.024371 Z M90.3977033,350.294117 L91.6111492,351.883944 L90.0213224,353.09739 L88.8078766,351.507563 L90.3977033,350.294117 Z M93.9748135,347.563864 L95.1882594,349.153691 L93.5984326,350.367137 L92.3849868,348.77731 L93.9748135,347.563864 Z M97.5519238,344.833611 L98.7653696,346.423438 L97.1755429,347.636884 L95.962097,346.047057 L97.5519238,344.833611 Z M101.129034,342.103358 L102.34248,343.693185 L100.752653,344.906631 L99.5392072,343.316804 L101.129034,342.103358 Z M104.706144,339.373105 L105.91959,340.962931 L104.329763,342.176377 L103.116317,340.586551 L104.706144,339.373105 Z M108.283254,336.642851 L109.4967,338.232678 L107.906874,339.446124 L106.693428,337.856297 L108.283254,336.642851 Z M110.72661,334.777944 L111.940056,336.367771 L111.483984,336.715871 L110.270538,335.126044 L110.72661,334.777944 Z" fill="#007AFF" fill-rule="nonzero"></path>
                    <path id="Line-3-Copy-49备份" d="M39.5483935,438.931485 L43.188,443.701 L43.8952705,443.161695 L45.1087164,444.751521 L44.401,445.29 L48.0425145,450.060273 L32.6666667,452.99 L39.5483935,438.931485 Z M47.4723807,440.431441 L48.6858266,442.021268 L47.0959998,443.234714 L45.8825539,441.644887 L47.4723807,440.431441 Z M51.0494909,437.701188 L52.2629368,439.291015 L50.67311,440.504461 L49.4596642,438.914634 L51.0494909,437.701188 Z M54.6266011,434.970935 L55.840047,436.560762 L54.2502202,437.774208 L53.0367744,436.184381 L54.6266011,434.970935 Z M58.2037114,432.240682 L59.4171572,433.830509 L57.8273305,435.043955 L56.6138846,433.454128 L58.2037114,432.240682 Z M61.7808216,429.510429 L62.9942674,431.100255 L61.4044407,432.313701 L60.1909948,430.723875 L61.7808216,429.510429 Z M65.3579318,426.780176 L66.5713777,428.370002 L64.9815509,429.583448 L63.768105,427.993621 L65.3579318,426.780176 Z M68.935042,424.049922 L70.1484879,425.639749 L68.5586611,426.853195 L67.3452152,425.263368 L68.935042,424.049922 Z M72.5121522,421.319669 L73.7255981,422.909496 L72.1357713,424.122942 L70.9223255,422.533115 L72.5121522,421.319669 Z M76.0892624,418.589416 L77.3027083,420.179243 L75.7128815,421.392689 L74.4994357,419.802862 L76.0892624,418.589416 Z M79.6663727,415.859163 L80.8798185,417.44899 L79.2899918,418.662435 L78.0765459,417.072609 L79.6663727,415.859163 Z M83.2434829,413.12891 L84.4569287,414.718736 L82.867102,415.932182 L81.6536561,414.342355 L83.2434829,413.12891 Z M86.8205931,410.398656 L88.034039,411.988483 L86.4442122,413.201929 L85.2307663,411.612102 L86.8205931,410.398656 Z M90.3977033,407.668403 L91.6111492,409.25823 L90.0213224,410.471676 L88.8078766,408.881849 L90.3977033,407.668403 Z M93.9748135,404.93815 L95.1882594,406.527977 L93.5984326,407.741423 L92.3849868,406.151596 L93.9748135,404.93815 Z M97.5519238,402.207897 L98.7653696,403.797724 L97.1755429,405.011169 L95.962097,403.421343 L97.5519238,402.207897 Z M101.129034,399.477644 L102.34248,401.06747 L100.752653,402.280916 L99.5392072,400.691089 L101.129034,399.477644 Z M104.706144,396.74739 L105.91959,398.337217 L104.329763,399.550663 L103.116317,397.960836 L104.706144,396.74739 Z M108.283254,394.017137 L109.4967,395.606964 L107.906874,396.82041 L106.693428,395.230583 L108.283254,394.017137 Z M110.72661,392.152229 L111.940056,393.742056 L111.483984,394.090157 L110.270538,392.50033 L110.72661,392.152229 Z" fill="#007AFF" fill-rule="nonzero"></path>
                    <path id="Line-3-Copy-52" d="M81.3288638,379.963239 L86.695,382.645 L87.1078542,381.821077 L88.8969639,382.714994 L88.485,383.538 L93.8526317,386.220653 L81.3333333,395.615714 L81.3288638,379.963239 Z M89.119166,377.79558 L90.9082757,378.689497 L90.0143594,380.478607 L88.2252497,379.58469 L89.119166,377.79558 Z M91.1304778,373.770084 L92.9195875,374.664 L92.0256712,376.45311 L90.2365614,375.559193 L91.1304778,373.770084 Z M93.1417896,369.744587 L94.9308993,370.638503 L94.0369829,372.427613 L92.2478732,371.533696 L93.1417896,369.744587 Z M95.1531013,365.71909 L96.9422111,366.613006 L96.0482947,368.402116 L94.259185,367.5082 L95.1531013,365.71909 Z M97.1644131,361.693593 L98.9535228,362.587509 L98.0596065,364.376619 L96.2704968,363.482703 L97.1644131,361.693593 Z M99.1757249,357.668096 L100.964835,358.562013 L100.070918,360.351122 L98.2818085,359.457206 L99.1757249,357.668096 Z M101.187037,353.642599 L102.976146,354.536516 L102.08223,356.325625 L100.29312,355.431709 L101.187037,353.642599 Z M103.198348,349.617103 L104.987458,350.511019 L104.093542,352.300129 L102.304432,351.406212 L103.198348,349.617103 Z M105.20966,345.591606 L106.99877,346.485522 L106.104854,348.274632 L104.315744,347.380715 L105.20966,345.591606 Z M107.220972,341.566109 L109.010082,342.460025 L108.116165,344.249135 L106.327056,343.355219 L107.220972,341.566109 Z M109.232284,337.540612 L111.021393,338.434528 L110.127477,340.223638 L108.338367,339.329722 L109.232284,337.540612 Z M110.438778,335.125899 L112.227888,336.019815 L112.138789,336.198141 L110.349679,335.304225 L110.438778,335.125899 Z" fill="#007AFF" fill-rule="nonzero"></path>
                    <path id="Line-3-Copy-53" d="M97.3333333,443.210238 L97.333,449.21 L98.3333333,449.210238 L98.3333333,451.210238 L97.333,451.21 L97.3333333,457.210238 L83.3333333,450.210238 L97.3333333,443.210238 Z M102.833333,449.210238 L102.833333,451.210238 L100.833333,451.210238 L100.833333,449.210238 L102.833333,449.210238 Z M107.333333,449.210238 L107.333333,451.210238 L105.333333,451.210238 L105.333333,449.210238 L107.333333,449.210238 Z M111.833333,449.210238 L111.833333,451.210238 L109.833333,451.210238 L109.833333,449.210238 L111.833333,449.210238 Z M116.333333,449.210238 L116.333333,451.210238 L114.333333,451.210238 L114.333333,449.210238 L116.333333,449.210238 Z M120.833333,449.210238 L120.833333,451.210238 L118.833333,451.210238 L118.833333,449.210238 L120.833333,449.210238 Z" fill="#1B4366" fill-rule="nonzero"></path>
                    <g id="Group-55-Copy-19" transform="translate(0.000000, 311.555714)">
                        <path d="M19.4799387,33.4830043 C27.1360896,33.4830043 33.3421712,27.2766535 33.3421712,19.6210411 C33.3421712,11.9651594 27.1360896,5.75853926 19.4799387,5.75853926 C11.8243263,5.75853926 5.61743687,11.9651594 5.61743687,19.6210411 C5.61743687,27.2766535 11.8243263,33.4830043 19.4799387,33.4830043 Z" id="Fill-83" fill="#1B4366" fill-rule="evenodd"></path>
                        <mask id="mask-18" fill="white">
                            <use xlink:href="#path-17"></use>
                        </mask>
                        <use id="Mask" fill="#FFFFFF" fill-rule="evenodd" xlink:href="#path-17"></use>
                    </g>
                    <g id="Group-55-Copy-19" transform="translate(0.000000, 369.597143)">
                        <path d="M19.4799387,33.4830043 C27.1360896,33.4830043 33.3421712,27.2766535 33.3421712,19.6210411 C33.3421712,11.9651594 27.1360896,5.75853926 19.4799387,5.75853926 C11.8243263,5.75853926 5.61743687,11.9651594 5.61743687,19.6210411 C5.61743687,27.2766535 11.8243263,33.4830043 19.4799387,33.4830043 Z" id="Fill-83" fill="#1B4366" fill-rule="evenodd"></path>
                        <mask id="mask-20" fill="white">
                            <use xlink:href="#path-19"></use>
                        </mask>
                        <use id="Mask" fill="#FFFFFF" fill-rule="evenodd" xlink:href="#path-19"></use>
                    </g>
                    <g id="Group-55-Copy-19" transform="translate(0.000000, 426.971429)">
                        <path d="M19.4799387,33.4830043 C27.1360896,33.4830043 33.3421712,27.2766535 33.3421712,19.6210411 C33.3421712,11.9651594 27.1360896,5.75853926 19.4799387,5.75853926 C11.8243263,5.75853926 5.61743687,11.9651594 5.61743687,19.6210411 C5.61743687,27.2766535 11.8243263,33.4830043 19.4799387,33.4830043 Z" id="Fill-83" fill="#1B4366" fill-rule="evenodd"></path>
                        <mask id="mask-22" fill="white">
                            <use xlink:href="#path-21"></use>
                        </mask>
                        <use id="Mask" fill="#FFFFFF" fill-rule="evenodd" xlink:href="#path-21"></use>
                    </g>
                    <g id="Group-55-Copy-19" transform="translate(47.333333, 311.555714)">
                        <path d="M19.4799387,33.4830043 C27.1360896,33.4830043 33.3421712,27.2766535 33.3421712,19.6210411 C33.3421712,11.9651594 27.1360896,5.75853926 19.4799387,5.75853926 C11.8243263,5.75853926 5.61743687,11.9651594 5.61743687,19.6210411 C5.61743687,27.2766535 11.8243263,33.4830043 19.4799387,33.4830043 Z" id="Fill-83" fill="#1B4366" fill-rule="evenodd"></path>
                        <mask id="mask-24" fill="white">
                            <use xlink:href="#path-23"></use>
                        </mask>
                        <use id="Mask" fill="#FFFFFF" fill-rule="evenodd" xlink:href="#path-23"></use>
                    </g>
                    <g id="Group-55-Copy-19" transform="translate(47.333333, 369.597143)">
                        <path d="M19.4799387,33.4830043 C27.1360896,33.4830043 33.3421712,27.2766535 33.3421712,19.6210411 C33.3421712,11.9651594 27.1360896,5.75853926 19.4799387,5.75853926 C11.8243263,5.75853926 5.61743687,11.9651594 5.61743687,19.6210411 C5.61743687,27.2766535 11.8243263,33.4830043 19.4799387,33.4830043 Z" id="Fill-83" fill="#1B4366" fill-rule="evenodd"></path>
                        <mask id="mask-26" fill="white">
                            <use xlink:href="#path-25"></use>
                        </mask>
                        <use id="Mask" fill="#FFFFFF" fill-rule="evenodd" xlink:href="#path-25"></use>
                    </g>
                    <g id="Group-55-Copy-21" transform="translate(47.333333, 427.638571)">
                        <path d="M19.4799387,33.4830043 C27.1360896,33.4830043 33.3421712,27.2766535 33.3421712,19.6210411 C33.3421712,11.9651594 27.1360896,5.75853926 19.4799387,5.75853926 C11.8243263,5.75853926 5.61743687,11.9651594 5.61743687,19.6210411 C5.61743687,27.2766535 11.8243263,33.4830043 19.4799387,33.4830043 Z" id="Fill-83" fill="#007AFF" fill-rule="evenodd"></path>
                        <mask id="mask-28" fill="white">
                            <use xlink:href="#path-27"></use>
                        </mask>
                        <use id="Mask" fill="#FFFFFF" fill-rule="evenodd" xlink:href="#path-27"></use>
                    </g>
                    <path d="M19.3333333,273.528571 L19.3333333,313.557143" id="Line-3-Copy-54" stroke="#007AFF" stroke-width="2" stroke-linecap="square" stroke-dasharray="10,10"></path>
                    <path d="M19.3333333,349.582857 L19.3333333,371.598571" id="Line-3-Copy-55" stroke="#007AFF" stroke-width="2" stroke-linecap="square" stroke-dasharray="10,10"></path>
                    <path d="M67.3333333,273.528571 L67.3333333,313.557143" id="Line-3-Copy-57" stroke="#007AFF" stroke-width="2" stroke-linecap="square" stroke-dasharray="10,10"></path>
                    <path d="M67.3333333,349.582857 L67.3333333,371.598571" id="Line-3-Copy-58" stroke="#007AFF" stroke-width="2" stroke-linecap="square" stroke-dasharray="10,10"></path>
                    <path d="M67.3333333,407.624286 L67.3333333,429.64" id="Line-3-Copy-59" stroke="#007AFF" stroke-width="2" stroke-linecap="square" stroke-dasharray="10,10"></path>
                    <g id="Group-124" transform="translate(346.666667, 258.184286)">
                        <path d="M1.5,1.5 L1.5,27.5 L51.5,27.5 L51.5,1.5 L1.5,1.5 Z" id="Clip-123" stroke="url(#linearGradient-1)" stroke-width="3" fill="#F9FCFF" fill-rule="evenodd"></path>
                        <text id="Type-something" font-family="PingFangSC-Semibold, PingFang SC" font-size="14" font-weight="500" letter-spacing="-0.875"></text>
                    </g>
                    <path id="Line-3-Copy-50" d="M276.485942,320.346027 L280.243,325.023 L280.938946,324.465054 L282.191483,326.024269 L281.495,326.583 L285.253703,331.26053 L269.95532,334.57104 L276.485942,320.346027 Z M284.447179,321.646845 L285.699716,323.20606 L284.140501,324.458597 L282.887964,322.899383 L284.447179,321.646845 Z M287.955411,318.828636 L289.207949,320.387851 L287.648734,321.640388 L286.396197,320.081174 L287.955411,318.828636 Z M291.463644,316.010427 L292.716182,317.569642 L291.156967,318.822179 L289.90443,317.262965 L291.463644,316.010427 Z M294.971877,313.192218 L296.224415,314.751433 L294.6652,316.00397 L293.412663,314.444756 L294.971877,313.192218 Z M298.48011,310.374009 L299.732648,311.933224 L298.173433,313.185761 L296.920896,311.626547 L298.48011,310.374009 Z M301.988343,307.5558 L303.24088,309.115015 L301.681666,310.367552 L300.429129,308.808338 L301.988343,307.5558 Z M305.496576,304.737591 L306.749113,306.296806 L305.189899,307.549343 L303.937361,305.990129 L305.496576,304.737591 Z M309.004809,301.919382 L310.257346,303.478597 L308.698132,304.731134 L307.445594,303.17192 L309.004809,301.919382 Z M312.513042,299.101173 L313.765579,300.660388 L312.206365,301.912925 L310.953827,300.353711 L312.513042,299.101173 Z M316.021275,296.282964 L317.273812,297.842179 L315.714598,299.094716 L314.46206,297.535502 L316.021275,296.282964 Z M319.529508,293.464755 L320.782045,295.02397 L319.22283,296.276507 L317.970293,294.717293 L319.529508,293.464755 Z M323.037741,290.646546 L324.290278,292.205761 L322.731063,293.458298 L321.478526,291.899084 L323.037741,290.646546 Z M326.545974,287.828338 L327.798511,289.387552 L326.239296,290.640089 L324.986759,289.080875 L326.545974,287.828338 Z M330.054206,285.010129 L331.306744,286.569343 L329.747529,287.82188 L328.494992,286.262666 L330.054206,285.010129 Z M333.562439,282.19192 L334.814977,283.751134 L333.255762,285.003672 L332.003225,283.444457 L333.562439,282.19192 Z M337.070672,279.373711 L338.32321,280.932925 L336.763995,282.185463 L335.511458,280.626248 L337.070672,279.373711 Z M340.578905,276.555502 L341.831443,278.114716 L340.272228,279.367254 L339.019691,277.808039 L340.578905,276.555502 Z M344.087138,273.737293 L345.339675,275.296507 L343.780461,276.549045 L342.527924,274.98983 L344.087138,273.737293 Z" fill="#007AFF" fill-rule="nonzero"></path>
                    <path id="Line-3-Copy-60" d="M316.723974,318.926487 L322.173,321.437 L322.549303,320.621517 L324.365707,321.458581 L323.989,322.274 L329.438803,324.785935 L317.221941,334.57104 L316.723974,318.926487 Z M324.432697,316.534608 L326.249101,317.371672 L325.412037,319.188076 L323.595633,318.351012 L324.432697,316.534608 Z M326.316091,312.447699 L328.132495,313.284763 L327.295431,315.101167 L325.479027,314.264103 L326.316091,312.447699 Z M328.199485,308.36079 L330.015889,309.197854 L329.178825,311.014258 L327.362421,310.177194 L328.199485,308.36079 Z M330.082879,304.27388 L331.899283,305.110944 L331.062219,306.927348 L329.245815,306.090284 L330.082879,304.27388 Z M331.966273,300.186971 L333.782677,301.024035 L332.945613,302.840439 L331.129209,302.003375 L331.966273,300.186971 Z M333.849667,296.100062 L335.666071,296.937126 L334.829007,298.75353 L333.012603,297.916466 L333.849667,296.100062 Z M335.73306,292.013153 L337.549465,292.850216 L336.712401,294.666621 L334.895996,293.829557 L335.73306,292.013153 Z M337.616454,287.926243 L339.432858,288.763307 L338.595795,290.579711 L336.77939,289.742647 L337.616454,287.926243 Z M339.499848,283.839334 L341.316252,284.676398 L340.479188,286.492802 L338.662784,285.655738 L339.499848,283.839334 Z M341.383242,279.752425 L343.199646,280.589489 L342.362582,282.405893 L340.546178,281.568829 L341.383242,279.752425 Z M343.266636,275.665515 L345.08304,276.502579 L344.245976,278.318984 L342.429572,277.48192 L343.266636,275.665515 Z" fill="#007AFF" fill-rule="nonzero"></path>
                    <g id="Group-124" transform="translate(346.666667, 318.894286)">
                        <path d="M1.5,1.5 L1.5,27.5 L51.5,27.5 L51.5,1.5 L1.5,1.5 Z" id="Clip-123" stroke="url(#linearGradient-1)" stroke-width="3" fill="#F9FCFF" fill-rule="evenodd"></path>
                        <text id="Type-something" font-family="PingFangSC-Semibold, PingFang SC" font-size="14" font-weight="500" letter-spacing="-0.875"></text>
                    </g>
                    <g id="Group-124" transform="translate(346.666667, 377.602857)">
                        <path d="M1.5,1.5 L1.5,27.5 L51.5,27.5 L51.5,1.5 L1.5,1.5 Z" id="Clip-123" stroke="url(#linearGradient-1)" stroke-width="3" fill="#F9FCFF" fill-rule="evenodd"></path>
                        <text id="Type-something" font-family="PingFangSC-Semibold, PingFang SC" font-size="14" font-weight="500" letter-spacing="-0.875"></text>
                    </g>
                    <path id="Line-3-Copy-51" d="M276.485942,381.056027 L280.243,385.733 L280.938946,385.175054 L282.191483,386.734269 L281.495,387.293 L285.253703,391.97053 L269.95532,395.28104 L276.485942,381.056027 Z M284.447179,382.356845 L285.699716,383.91606 L284.140501,385.168597 L282.887964,383.609383 L284.447179,382.356845 Z M287.955411,379.538636 L289.207949,381.097851 L287.648734,382.350388 L286.396197,380.791174 L287.955411,379.538636 Z M291.463644,376.720427 L292.716182,378.279642 L291.156967,379.532179 L289.90443,377.972965 L291.463644,376.720427 Z M294.971877,373.902218 L296.224415,375.461433 L294.6652,376.71397 L293.412663,375.154756 L294.971877,373.902218 Z M298.48011,371.084009 L299.732648,372.643224 L298.173433,373.895761 L296.920896,372.336547 L298.48011,371.084009 Z M301.988343,368.2658 L303.24088,369.825015 L301.681666,371.077552 L300.429129,369.518338 L301.988343,368.2658 Z M305.496576,365.447591 L306.749113,367.006806 L305.189899,368.259343 L303.937361,366.700129 L305.496576,365.447591 Z M309.004809,362.629382 L310.257346,364.188597 L308.698132,365.441134 L307.445594,363.88192 L309.004809,362.629382 Z M312.513042,359.811173 L313.765579,361.370388 L312.206365,362.622925 L310.953827,361.063711 L312.513042,359.811173 Z M316.021275,356.992964 L317.273812,358.552179 L315.714598,359.804716 L314.46206,358.245502 L316.021275,356.992964 Z M319.529508,354.174755 L320.782045,355.73397 L319.22283,356.986507 L317.970293,355.427293 L319.529508,354.174755 Z M323.037741,351.356546 L324.290278,352.915761 L322.731063,354.168298 L321.478526,352.609084 L323.037741,351.356546 Z M326.545974,348.538338 L327.798511,350.097552 L326.239296,351.350089 L324.986759,349.790875 L326.545974,348.538338 Z M330.054206,345.720129 L331.306744,347.279343 L329.747529,348.53188 L328.494992,346.972666 L330.054206,345.720129 Z M333.562439,342.90192 L334.814977,344.461134 L333.255762,345.713672 L332.003225,344.154457 L333.562439,342.90192 Z M337.070672,340.083711 L338.32321,341.642925 L336.763995,342.895463 L335.511458,341.336248 L337.070672,340.083711 Z M340.578905,337.265502 L341.831443,338.824716 L340.272228,340.077254 L339.019691,338.518039 L340.578905,337.265502 Z M344.087138,334.447293 L345.339675,336.006507 L343.780461,337.259045 L342.527924,335.69983 L344.087138,334.447293 Z" fill="#007AFF" fill-rule="nonzero"></path>
                    <path id="Line-3-Copy-62" d="M276.485942,439.764599 L280.243,444.442 L280.938946,443.883626 L282.191483,445.44284 L281.495,446.001 L285.253703,450.679101 L269.95532,453.989611 L276.485942,439.764599 Z M284.447179,441.065417 L285.699716,442.624631 L284.140501,443.877169 L282.887964,442.317954 L284.447179,441.065417 Z M287.955411,438.247208 L289.207949,439.806422 L287.648734,441.05896 L286.396197,439.499745 L287.955411,438.247208 Z M291.463644,435.428999 L292.716182,436.988213 L291.156967,438.240751 L289.90443,436.681536 L291.463644,435.428999 Z M294.971877,432.61079 L296.224415,434.170004 L294.6652,435.422542 L293.412663,433.863327 L294.971877,432.61079 Z M298.48011,429.792581 L299.732648,431.351795 L298.173433,432.604333 L296.920896,431.045118 L298.48011,429.792581 Z M301.988343,426.974372 L303.24088,428.533586 L301.681666,429.786124 L300.429129,428.226909 L301.988343,426.974372 Z M305.496576,424.156163 L306.749113,425.715377 L305.189899,426.967915 L303.937361,425.4087 L305.496576,424.156163 Z M309.004809,421.337954 L310.257346,422.897168 L308.698132,424.149706 L307.445594,422.590491 L309.004809,421.337954 Z M312.513042,418.519745 L313.765579,420.078959 L312.206365,421.331497 L310.953827,419.772282 L312.513042,418.519745 Z M316.021275,415.701536 L317.273812,417.26075 L315.714598,418.513288 L314.46206,416.954073 L316.021275,415.701536 Z M319.529508,412.883327 L320.782045,414.442542 L319.22283,415.695079 L317.970293,414.135864 L319.529508,412.883327 Z M323.037741,410.065118 L324.290278,411.624333 L322.731063,412.87687 L321.478526,411.317655 L323.037741,410.065118 Z M326.545974,407.246909 L327.798511,408.806124 L326.239296,410.058661 L324.986759,408.499446 L326.545974,407.246909 Z M330.054206,404.4287 L331.306744,405.987915 L329.747529,407.240452 L328.494992,405.681237 L330.054206,404.4287 Z M333.562439,401.610491 L334.814977,403.169706 L333.255762,404.422243 L332.003225,402.863028 L333.562439,401.610491 Z M337.070672,398.792282 L338.32321,400.351497 L336.763995,401.604034 L335.511458,400.044819 L337.070672,398.792282 Z M340.578905,395.974073 L341.831443,397.533288 L340.272228,398.785825 L339.019691,397.22661 L340.578905,395.974073 Z M344.087138,393.155864 L345.339675,394.715079 L343.780461,395.967616 L342.527924,394.408401 L344.087138,393.155864 Z" fill="#007AFF" fill-rule="nonzero"></path>
                    <path id="Line-3-Copy-61" d="M316.723974,379.636487 L322.173,382.147 L322.549303,381.331517 L324.365707,382.168581 L323.989,382.984 L329.438803,385.495935 L317.221941,395.28104 L316.723974,379.636487 Z M324.432697,377.244608 L326.249101,378.081672 L325.412037,379.898076 L323.595633,379.061012 L324.432697,377.244608 Z M326.316091,373.157699 L328.132495,373.994763 L327.295431,375.811167 L325.479027,374.974103 L326.316091,373.157699 Z M328.199485,369.07079 L330.015889,369.907854 L329.178825,371.724258 L327.362421,370.887194 L328.199485,369.07079 Z M330.082879,364.98388 L331.899283,365.820944 L331.062219,367.637348 L329.245815,366.800284 L330.082879,364.98388 Z M331.966273,360.896971 L333.782677,361.734035 L332.945613,363.550439 L331.129209,362.713375 L331.966273,360.896971 Z M333.849667,356.810062 L335.666071,357.647126 L334.829007,359.46353 L333.012603,358.626466 L333.849667,356.810062 Z M335.73306,352.723153 L337.549465,353.560216 L336.712401,355.376621 L334.895996,354.539557 L335.73306,352.723153 Z M337.616454,348.636243 L339.432858,349.473307 L338.595795,351.289711 L336.77939,350.452647 L337.616454,348.636243 Z M339.499848,344.549334 L341.316252,345.386398 L340.479188,347.202802 L338.662784,346.365738 L339.499848,344.549334 Z M341.383242,340.462425 L343.199646,341.299489 L342.362582,343.115893 L340.546178,342.278829 L341.383242,340.462425 Z M343.266636,336.375515 L345.08304,337.212579 L344.245976,339.028984 L342.429572,338.19192 L343.266636,336.375515 Z" fill="#007AFF" fill-rule="nonzero"></path>
                    <path id="Line-3-Copy-69" d="M316.723974,438.345059 L322.173,440.856 L322.549303,440.040089 L324.365707,440.877153 L323.989,441.693 L329.438803,444.204506 L317.221941,453.989611 L316.723974,438.345059 Z M324.432697,435.95318 L326.249101,436.790244 L325.412037,438.606648 L323.595633,437.769584 L324.432697,435.95318 Z M326.316091,431.86627 L328.132495,432.703334 L327.295431,434.519738 L325.479027,433.682674 L326.316091,431.86627 Z M328.199485,427.779361 L330.015889,428.616425 L329.178825,430.432829 L327.362421,429.595765 L328.199485,427.779361 Z M330.082879,423.692452 L331.899283,424.529516 L331.062219,426.34592 L329.245815,425.508856 L330.082879,423.692452 Z M331.966273,419.605542 L333.782677,420.442606 L332.945613,422.259011 L331.129209,421.421947 L331.966273,419.605542 Z M333.849667,415.518633 L335.666071,416.355697 L334.829007,418.172101 L333.012603,417.335037 L333.849667,415.518633 Z M335.73306,411.431724 L337.549465,412.268788 L336.712401,414.085192 L334.895996,413.248128 L335.73306,411.431724 Z M337.616454,407.344815 L339.432858,408.181879 L338.595795,409.998283 L336.77939,409.161219 L337.616454,407.344815 Z M339.499848,403.257905 L341.316252,404.094969 L340.479188,405.911374 L338.662784,405.07431 L339.499848,403.257905 Z M341.383242,399.170996 L343.199646,400.00806 L342.362582,401.824464 L340.546178,400.9874 L341.383242,399.170996 Z M343.266636,395.084087 L345.08304,395.921151 L344.245976,397.737555 L342.429572,396.900491 L343.266636,395.084087 Z" fill="#007AFF" fill-rule="nonzero"></path>
                    <g id="Group-55-Copy-19" transform="translate(235.333333, 310.888571)">
                        <path d="M19.4799387,33.4830043 C27.1360896,33.4830043 33.3421712,27.2766535 33.3421712,19.6210411 C33.3421712,11.9651594 27.1360896,5.75853926 19.4799387,5.75853926 C11.8243263,5.75853926 5.61743687,11.9651594 5.61743687,19.6210411 C5.61743687,27.2766535 11.8243263,33.4830043 19.4799387,33.4830043 Z" id="Fill-83" fill="#1B4366" fill-rule="evenodd"></path>
                        <mask id="mask-30" fill="white">
                            <use xlink:href="#path-29"></use>
                        </mask>
                        <use id="Mask" fill="#FFFFFF" fill-rule="evenodd" xlink:href="#path-29"></use>
                    </g>
                    <g id="Group-55-Copy-19" transform="translate(235.333333, 368.930000)">
                        <path d="M19.4799387,33.4830043 C27.1360896,33.4830043 33.3421712,27.2766535 33.3421712,19.6210411 C33.3421712,11.9651594 27.1360896,5.75853926 19.4799387,5.75853926 C11.8243263,5.75853926 5.61743687,11.9651594 5.61743687,19.6210411 C5.61743687,27.2766535 11.8243263,33.4830043 19.4799387,33.4830043 Z" id="Fill-83" fill="#1B4366" fill-rule="evenodd"></path>
                        <mask id="mask-32" fill="white">
                            <use xlink:href="#path-31"></use>
                        </mask>
                        <use id="Mask" fill="#FFFFFF" fill-rule="evenodd" xlink:href="#path-31"></use>
                    </g>
                    <g id="Group-55-Copy-19" transform="translate(235.333333, 427.638571)">
                        <path d="M19.4799387,33.4830043 C27.1360896,33.4830043 33.3421712,27.2766535 33.3421712,19.6210411 C33.3421712,11.9651594 27.1360896,5.75853926 19.4799387,5.75853926 C11.8243263,5.75853926 5.61743687,11.9651594 5.61743687,19.6210411 C5.61743687,27.2766535 11.8243263,33.4830043 19.4799387,33.4830043 Z" id="Fill-83" fill="#1B4366" fill-rule="evenodd"></path>
                        <mask id="mask-34" fill="white">
                            <use xlink:href="#path-33"></use>
                        </mask>
                        <use id="Mask" fill="#FFFFFF" fill-rule="evenodd" xlink:href="#path-33"></use>
                    </g>
                    <g id="Group-55-Copy-19" transform="translate(282.666667, 310.888571)">
                        <path d="M19.4799387,33.4830043 C27.1360896,33.4830043 33.3421712,27.2766535 33.3421712,19.6210411 C33.3421712,11.9651594 27.1360896,5.75853926 19.4799387,5.75853926 C11.8243263,5.75853926 5.61743687,11.9651594 5.61743687,19.6210411 C5.61743687,27.2766535 11.8243263,33.4830043 19.4799387,33.4830043 Z" id="Fill-83" fill="#1B4366" fill-rule="evenodd"></path>
                        <mask id="mask-36" fill="white">
                            <use xlink:href="#path-35"></use>
                        </mask>
                        <use id="Mask" fill="#FFFFFF" fill-rule="evenodd" xlink:href="#path-35"></use>
                    </g>
                    <g id="Group-55-Copy-19" transform="translate(282.666667, 368.930000)">
                        <path d="M19.4799387,33.4830043 C27.1360896,33.4830043 33.3421712,27.2766535 33.3421712,19.6210411 C33.3421712,11.9651594 27.1360896,5.75853926 19.4799387,5.75853926 C11.8243263,5.75853926 5.61743687,11.9651594 5.61743687,19.6210411 C5.61743687,27.2766535 11.8243263,33.4830043 19.4799387,33.4830043 Z" id="Fill-83" fill="#1B4366" fill-rule="evenodd"></path>
                        <mask id="mask-38" fill="white">
                            <use xlink:href="#path-37"></use>
                        </mask>
                        <use id="Mask" fill="#FFFFFF" fill-rule="evenodd" xlink:href="#path-37"></use>
                    </g>
                    <g id="Group-55-Copy-19" transform="translate(282.666667, 427.638571)">
                        <path d="M19.4799387,33.4830043 C27.1360896,33.4830043 33.3421712,27.2766535 33.3421712,19.6210411 C33.3421712,11.9651594 27.1360896,5.75853926 19.4799387,5.75853926 C11.8243263,5.75853926 5.61743687,11.9651594 5.61743687,19.6210411 C5.61743687,27.2766535 11.8243263,33.4830043 19.4799387,33.4830043 Z" id="Fill-83" fill="#1B4366" fill-rule="evenodd"></path>
                        <mask id="mask-40" fill="white">
                            <use xlink:href="#path-39"></use>
                        </mask>
                        <use id="Mask" fill="#FFFFFF" fill-rule="evenodd" xlink:href="#path-39"></use>
                    </g>
                    <path d="M254.666667,272.861429 L254.666667,312.89" id="Line-3-Copy-63" stroke="#007AFF" stroke-width="2" stroke-linecap="square" stroke-dasharray="10,10"></path>
                    <path d="M254.666667,350.917143 L254.666667,370.931429" id="Line-3-Copy-64" stroke="#007AFF" stroke-width="2" stroke-linecap="square" stroke-dasharray="10,10"></path>
                    <path d="M254.666667,408.958571 L254.666667,428.972857" id="Line-3-Copy-65" stroke="#007AFF" stroke-width="2" stroke-linecap="square" stroke-dasharray="10,10"></path>
                    <path d="M302.666667,272.861429 L302.666667,312.89" id="Line-3-Copy-66" stroke="#007AFF" stroke-width="2" stroke-linecap="square" stroke-dasharray="10,10"></path>
                    <path d="M302.666667,350.917143 L302.666667,370.931429" id="Line-3-Copy-67" stroke="#007AFF" stroke-width="2" stroke-linecap="square" stroke-dasharray="10,10"></path>
                    <path d="M302.666667,408.958571 L302.666667,428.972857" id="Line-3-Copy-68" stroke="#007AFF" stroke-width="2" stroke-linecap="square" stroke-dasharray="10,10"></path>
                </g>
            </g>
        </g>
    </g>
</svg>