<?xml version="1.0" encoding="UTF-8"?>
<svg width="66px" height="66px" viewBox="0 0 66 66" version="1.1" xmlns="http://www.w3.org/2000/svg" xmlns:xlink="http://www.w3.org/1999/xlink">
    <!-- Generator: Sketch 52.4 (67378) - http://www.bohemiancoding.com/sketch -->
    <title>dapps</title>
    <desc>Created with Sketch.</desc>
    <g id="Page-1" stroke="none" stroke-width="1" fill="none" fill-rule="evenodd">
        <g id="首页" transform="translate(-297.000000, -1685.000000)">
            <g id="Group-44" transform="translate(297.000000, 1685.000000)">
                <g id="Group-45">
                    <path d="M33.8372884,23.9640168 L33.7912053,23.8887996 L33.8372884,23.9640168 L33.7912053,23.986181 L33.8372884,23.9640168 Z M33.8372884,23.9640168 L40.4810561,34.8079985 L33.8372884,23.9640168 L46.0641301,18.0833715 L33.8372884,23.9640168 Z M25.4655489,39.4860159 L14.5592054,25.1667429 L25.4655489,39.4860159 L18.19795,44.4492541 L25.4655489,39.4860159 Z M25.4655489,39.4860159 L25.7240322,39.8253867 L25.4655489,39.4860159 L26.2651231,38.9399652 L25.4655489,39.4860159 Z M31.0676257,51.9159076 L31.0365608,51.9261462 L31.0676257,51.9159076 L31.0224644,51.8903966 L31.0365608,51.9261462 L31.0224644,51.8903966 L18.19795,44.6460145 L31.0224644,51.8903966 L26.2651231,39.8253867 L31.0224644,51.8903966 L31.0676257,51.9159076 L44.1703121,47.5974192 L31.0676257,51.9159076 L31.0857509,51.9261462 L31.0676257,51.9159076 Z M14.8405294,25.1667429 L33.7912053,24.4780818 L14.8405294,25.1667429 Z M28.3311064,13.9883598 L46.4615112,17.9625187 L28.3311064,13.9883598 Z M46.126381,17.9625187 L52.4419663,33.5595194 L46.126381,17.9625187 Z M52.4419663,33.5595194 L45.0065434,47.4006589 L52.4419663,33.5595194 Z M40.4810561,35.2824206 L44.5638327,46.5152375 L40.4810561,35.2824206 Z M26.9045941,39.8253867 L43.4754086,47.5974192 L26.9045941,39.8253867 Z M33.1517342,25.1667429 L25.7240322,38.9399652 L33.1517342,25.1667429 Z M26.2651231,38.9399652 L40.4810561,34.8279742 L26.2651231,38.9399652 Z M40.4810561,34.8279742 L52.4419663,33.5595194 L40.4810561,34.8279742 Z M46.0641301,18.0833715 L40.4810561,34.5358301 L46.0641301,18.0833715 Z M26.9045941,15.1319667 L33.7912053,23.8887996 L26.9045941,15.1319667 Z M26.2651231,15.1319667 L14.5592054,25.1138074 L26.2651231,15.1319667 Z M14.5592054,25.4264266 L15.9375369,44.4492541 L14.5592054,25.4264266 Z" id="Combined-Shape" stroke-opacity="0.456889719" stroke="#FFFFFF" stroke-width="3" stroke-linecap="square"></path>
                    <g id="iconfinder__box_2559831" transform="translate(24.199140, 11.000000)">
                        <g id="Group-2" transform="translate(-1.590909, -1.750000)">
                            <polygon id="Path" fill="#9ED3FF" points="4.09090909 9.45 8.18181818 7.425 8.18181818 2.025 4.09090909 4.05"></polygon>
                            <polygon id="Path" fill="#21A3FF" points="0 2.025 0 7.425 4.09090909 9.45 4.09090909 4.05"></polygon>
                            <polygon id="Path" fill="#F7FBFF" points="0 2.025 4.09090909 4.05 8.18181818 2.025 4.09090909 0"></polygon>
                            <path d="" id="Path-3" stroke="#979797"></path>
                        </g>
                    </g>
                    <g id="iconfinder__box_2559831" transform="translate(31.085751, 21.034776)">
                        <g id="Group-2" transform="translate(-1.590909, -1.750000)">
                            <polygon id="Path" fill="#9ED3FF" points="4.09090909 9.45 8.18181818 7.425 8.18181818 2.025 4.09090909 4.05"></polygon>
                            <polygon id="Path" fill="#21A3FF" points="0 2.025 0 7.425 4.09090909 9.45 4.09090909 4.05"></polygon>
                            <polygon id="Path" fill="#F7FBFF" points="0 2.025 4.09090909 4.05 8.18181818 2.025 4.09090909 0"></polygon>
                            <path d="" id="Path-3" stroke="#979797"></path>
                        </g>
                    </g>
                    <g id="iconfinder__box_2559831" transform="translate(37.775602, 31.856594)">
                        <g id="Group-2" transform="translate(-1.590909, -1.750000)">
                            <polygon id="Path" fill="#9ED3FF" points="4.09090909 9.45 8.18181818 7.425 8.18181818 2.025 4.09090909 4.05"></polygon>
                            <polygon id="Path" fill="#21A3FF" points="0 2.025 0 7.425 4.09090909 9.45 4.09090909 4.05"></polygon>
                            <polygon id="Path" fill="#F7FBFF" points="0 2.025 4.09090909 4.05 8.18181818 2.025 4.09090909 0"></polygon>
                            <path d="" id="Path-3" stroke="#979797"></path>
                        </g>
                    </g>
                    <g id="iconfinder__box_2559831" transform="translate(49.384461, 30.676032)">
                        <g id="Group-2" transform="translate(-1.590909, -1.750000)">
                            <polygon id="Path" fill="#9ED3FF" points="4.09090909 9.45 8.18181818 7.425 8.18181818 2.025 4.09090909 4.05"></polygon>
                            <polygon id="Path" fill="#21A3FF" points="0 2.025 0 7.425 4.09090909 9.45 4.09090909 4.05"></polygon>
                            <polygon id="Path" fill="#F7FBFF" points="0 2.025 4.09090909 4.05 8.18181818 2.025 4.09090909 0"></polygon>
                            <path d="" id="Path-3" stroke="#979797"></path>
                        </g>
                    </g>
                    <g id="iconfinder__box_2559831" transform="translate(42.301089, 44.449254)">
                        <g id="Group-2" transform="translate(-1.590909, -1.750000)">
                            <polygon id="Path" fill="#9ED3FF" points="4.09090909 9.45 8.18181818 7.425 8.18181818 2.025 4.09090909 4.05"></polygon>
                            <polygon id="Path" fill="#21A3FF" points="0 2.025 0 7.425 4.09090909 9.45 4.09090909 4.05"></polygon>
                            <polygon id="Path" fill="#F7FBFF" points="0 2.025 4.09090909 4.05 8.18181818 2.025 4.09090909 0"></polygon>
                            <path d="" id="Path-3" stroke="#979797"></path>
                        </g>
                    </g>
                    <g id="iconfinder__box_2559831" transform="translate(28.331106, 48.974741)">
                        <g id="Group-2" transform="translate(-1.590909, -1.750000)">
                            <polygon id="Path" fill="#9ED3FF" points="4.09090909 9.45 8.18181818 7.425 8.18181818 2.025 4.09090909 4.05"></polygon>
                            <polygon id="Path" fill="#21A3FF" points="0 2.025 0 7.425 4.09090909 9.45 4.09090909 4.05"></polygon>
                            <polygon id="Path" fill="#F7FBFF" points="0 2.025 4.09090909 4.05 8.18181818 2.025 4.09090909 0"></polygon>
                            <path d="" id="Path-3" stroke="#979797"></path>
                        </g>
                    </g>
                    <g id="iconfinder__box_2559831" transform="translate(23.018578, 35.988560)">
                        <g id="Group-2" transform="translate(-1.590909, -1.750000)">
                            <polygon id="Path" fill="#9ED3FF" points="4.09090909 9.45 8.18181818 7.425 8.18181818 2.025 4.09090909 4.05"></polygon>
                            <polygon id="Path" fill="#21A3FF" points="0 2.025 0 7.425 4.09090909 9.45 4.09090909 4.05"></polygon>
                            <polygon id="Path" fill="#F7FBFF" points="0 2.025 4.09090909 4.05 8.18181818 2.025 4.09090909 0"></polygon>
                            <path d="" id="Path-3" stroke="#979797"></path>
                        </g>
                    </g>
                    <g id="iconfinder__box_2559831" transform="translate(12.000000, 22.215338)">
                        <g id="Group-2" transform="translate(-1.590909, -1.750000)">
                            <polygon id="Path" fill="#9ED3FF" points="4.09090909 9.45 8.18181818 7.425 8.18181818 2.025 4.09090909 4.05"></polygon>
                            <polygon id="Path" fill="#21A3FF" points="0 2.025 0 7.425 4.09090909 9.45 4.09090909 4.05"></polygon>
                            <polygon id="Path" fill="#F7FBFF" points="0 2.025 4.09090909 4.05 8.18181818 2.025 4.09090909 0"></polygon>
                            <path d="" id="Path-3" stroke="#979797"></path>
                        </g>
                    </g>
                    <g id="iconfinder__box_2559831" transform="translate(14.557884, 41.694610)">
                        <g id="Group-2" transform="translate(-1.590909, -1.750000)">
                            <polygon id="Path" fill="#9ED3FF" points="4.09090909 9.45 8.18181818 7.425 8.18181818 2.025 4.09090909 4.05"></polygon>
                            <polygon id="Path" fill="#21A3FF" points="0 2.025 0 7.425 4.09090909 9.45 4.09090909 4.05"></polygon>
                            <polygon id="Path" fill="#F7FBFF" points="0 2.025 4.09090909 4.05 8.18181818 2.025 4.09090909 0"></polygon>
                            <path d="" id="Path-3" stroke="#979797"></path>
                        </g>
                    </g>
                    <g id="iconfinder__box_2559831" transform="translate(43.475409, 15.131967)">
                        <g id="Group-2" transform="translate(-1.590909, -1.750000)">
                            <polygon id="Path" fill="#9ED3FF" points="4.09090909 9.45 8.18181818 7.425 8.18181818 2.025 4.09090909 4.05"></polygon>
                            <polygon id="Path" fill="#21A3FF" points="0 2.025 0 7.425 4.09090909 9.45 4.09090909 4.05"></polygon>
                            <polygon id="Path" fill="#F7FBFF" points="0 2.025 4.09090909 4.05 8.18181818 2.025 4.09090909 0"></polygon>
                            <path d="" id="Path-3" stroke="#979797"></path>
                        </g>
                    </g>
                </g>
            </g>
        </g>
    </g>
</svg>