<?xml version="1.0" encoding="UTF-8"?>
<svg width="40px" height="40px" viewBox="0 0 40 40" version="1.1" xmlns="http://www.w3.org/2000/svg" xmlns:xlink="http://www.w3.org/1999/xlink">
    <!-- Generator: Sketch 52.4 (67378) - http://www.bohemiancoding.com/sketch -->
    <title>游戏</title>
    <desc>Created with Sketch.</desc>
    <g id="Page-1" stroke="none" stroke-width="1" fill="none" fill-rule="evenodd">
        <g id="首页" transform="translate(-459.000000, -1854.000000)" fill="#007AFF" fill-rule="nonzero">
            <g id="Group-29" transform="translate(375.000000, 1810.000000)">
                <g id="Group-7" transform="translate(84.000000, 44.000000)">
                    <path d="M12.703716,30.2774967 L12.703716,33.3575747 C12.703716,36.6913167 10.0014336,39.3935571 6.66773359,39.3935571 L6.03889838,39.3935571 C2.70519835,39.3935571 0.002916,36.6913167 0.002916,33.3575747 L0.002916,25.1305315 C0.002916,25.0933677 0.00386056911,25.0718708 0.00706295051,25.0685606 C0.00359556687,25.0126628 0.00359556687,25.0126628 0.002916,24.9624197 L0.002916,18.8898919 C0.002916,15.5563572 2.70536375,12.8539095 6.03889838,12.8539095 L33.7833165,12.8539095 C36.8959674,12.8539095 39.4902416,15.2205881 39.7920194,18.3210156 L39.8195359,19.3088124 L39.8196717,19.3185584 L39.8196717,24.9620469 C39.8196717,25.0096144 39.8181765,25.0426476 39.8135756,25.1064141 C39.8181376,25.171059 39.8196717,25.2055421 39.8196717,25.2527947 L39.8196717,33.4802106 C39.8196717,36.8139526 37.1173893,39.516193 33.7836893,39.516193 L33.1548541,39.516193 C29.8211541,39.516193 27.1188717,36.8139526 27.1188717,33.4802106 L27.1188717,30.2774967 L12.703716,30.2774967 Z M37.9999676,25.2364135 C37.9963982,25.1866556 37.9951121,25.1583661 37.9941943,25.0866065 C37.9959169,25.0350281 37.9959169,25.0350281 37.9995894,24.9816556 L37.999967,24.9764265 C38.0018234,24.9481637 38.0018234,24.9481637 38.0014111,24.9620469 L38.0014111,19.4492555 L38.0010384,18.8901252 C38.0010383,16.5605548 36.1126536,14.6721701 33.7833165,14.6721701 L6.03889838,14.6721701 C3.70956135,14.6721701 1.8211766,16.5605548 1.8211766,18.8898919 L1.8204708,24.9347671 L1.82082481,24.9402867 C1.82405538,24.9884663 1.82485816,25.007523 1.8251982,25.0586232 C1.82398924,25.1057102 1.82398924,25.1057102 1.82127321,25.1461514 C1.82096193,25.1535747 1.82096193,25.1535747 1.8211766,25.1355067 L1.8211766,33.3575747 C1.8211766,35.6871128 3.70938963,37.5752965 6.03889838,37.5752965 L6.66773359,37.5752965 C8.99724234,37.5752965 10.8854554,35.6871128 10.8854554,33.3575747 L10.8854554,28.4592361 L28.9371323,28.4592361 L28.9371323,33.4802106 C28.9371323,35.8097487 30.8253453,37.6979324 33.1548541,37.6979324 L33.7836893,37.6979324 C36.113198,37.6979324 38.0014111,35.8097487 38.0014111,33.4802106 L38.0014111,25.2583968 C38.0011994,25.2556481 38.0007617,25.2488143 37.9999676,25.2364135 Z" id="Path"></path>
                    <path d="M13.4782981,22.3553815 C13.4782981,23.7034751 12.4566482,24.8134244 11.1452873,24.9534674 C11.0054278,26.265037 9.89528375,27.2865224 8.54641166,27.2865224 C7.19780571,27.2865224 6.08776427,26.2649634 5.94790923,24.9534675 C4.63654817,24.8134247 3.614898,23.7034753 3.614898,22.3553815 C3.614898,21.0064617 4.63636932,19.8961865 5.94798992,19.7561671 C6.08819064,18.4450344 7.1980647,17.4238678 8.54641166,17.4238678 C9.89502471,17.4238678 11.0050014,18.4449609 11.1452067,19.7561672 C12.456827,19.8961868 13.4782981,21.0064619 13.4782981,22.3553815 Z M10.8645659,21.5595371 L9.34188327,21.5595371 L9.34188327,20.0372272 C9.34188327,19.5980751 8.98583994,19.2421284 8.54641166,19.2421284 C8.10730779,19.2421284 7.75131281,19.5981234 7.75131281,20.0372272 L7.75131281,21.5595371 L6.2286302,21.5595371 C5.78928329,21.5595371 5.4331586,21.9157751 5.4331586,22.3553815 C5.4331586,22.7940145 5.78942841,23.1501076 6.2286302,23.1501076 L7.75131281,23.1501076 L7.75131281,24.6731629 C7.75131281,25.1122668 8.10730779,25.4682618 8.54641166,25.4682618 C8.98583994,25.4682618 9.34188327,25.1123151 9.34188327,24.6731629 L9.34188327,23.1501076 L10.8645659,23.1501076 C11.3037677,23.1501076 11.6600375,22.7940145 11.6600375,22.3553815 C11.6600375,21.9157751 11.3039128,21.5595371 10.8645659,21.5595371 Z" id="Path"></path>
                    <path d="M31.2586574,21.1480172 C30.0224401,21.1480172 29.020288,20.1458651 29.020288,18.9096478 C29.020288,17.6734305 30.0224401,16.6712784 31.2586574,16.6712784 C32.4948747,16.6712784 33.4970268,17.6734305 33.4970268,18.9096478 C33.4970268,20.1458651 32.4948747,21.1480172 31.2586574,21.1480172 Z M31.2586574,19.3297566 C31.4906771,19.3297566 31.6787662,19.1416675 31.6787662,18.9096478 C31.6787662,18.6776281 31.4906771,18.489539 31.2586574,18.489539 C31.0266377,18.489539 30.8385486,18.6776281 30.8385486,18.9096478 C30.8385486,19.1416675 31.0266377,19.3297566 31.2586574,19.3297566 Z" id="Oval"></path>
                    <path d="M31.2586574,27.5433496 C30.0224401,27.5433496 29.020288,26.5411974 29.020288,25.3049802 C29.020288,24.0687629 30.0224401,23.0666108 31.2586574,23.0666108 C32.4948747,23.0666108 33.4970268,24.0687629 33.4970268,25.3049802 C33.4970268,26.5411974 32.4948747,27.5433496 31.2586574,27.5433496 Z M31.2586574,25.725089 C31.4906771,25.725089 31.6787662,25.5369998 31.6787662,25.3049802 C31.6787662,25.0729605 31.4906771,24.8848714 31.2586574,24.8848714 C31.0266377,24.8848714 30.8385486,25.0729605 30.8385486,25.3049802 C30.8385486,25.5369998 31.0266377,25.725089 31.2586574,25.725089 Z" id="Oval"></path>
                    <path d="M34.2902614,24.3003938 C33.0540441,24.3003938 32.051892,23.2982417 32.051892,22.0620244 C32.051892,20.8258072 33.0540441,19.823655 34.2902614,19.823655 C35.5264787,19.823655 36.5286308,20.8258072 36.5286308,22.0620244 C36.5286308,23.2982417 35.5264787,24.3003938 34.2902614,24.3003938 Z M34.2902614,22.4821332 C34.5222811,22.4821332 34.7103702,22.2940441 34.7103702,22.0620244 C34.7103702,21.8300048 34.5222811,21.6419156 34.2902614,21.6419156 C34.0582417,21.6419156 33.8701526,21.8300048 33.8701526,22.0620244 C33.8701526,22.2940441 34.0582417,22.4821332 34.2902614,22.4821332 Z" id="Oval"></path>
                    <path d="M28.2274254,24.3003938 C26.9912081,24.3003938 25.989056,23.2982417 25.989056,22.0620244 C25.989056,20.8258072 26.9912081,19.823655 28.2274254,19.823655 C29.4636427,19.823655 30.4657948,20.8258072 30.4657948,22.0620244 C30.4657948,23.2982417 29.4636427,24.3003938 28.2274254,24.3003938 Z M28.2274254,22.4821332 C28.4594451,22.4821332 28.6475342,22.2940441 28.6475342,22.0620244 C28.6475342,21.8300048 28.4594451,21.6419156 28.2274254,21.6419156 C27.9954057,21.6419156 27.8073166,21.8300048 27.8073166,22.0620244 C27.8073166,22.2940441 27.9954057,22.4821332 28.2274254,22.4821332 Z" id="Oval"></path>
                    <path d="M20.8200516,1.66979695 L20.8200516,10.429505 C20.8200516,11.617077 19.001791,11.617077 19.001791,10.429505 L19.001791,1.66979695 C19.001791,0.481852198 20.8200516,0.481852198 20.8200516,1.66979695 Z" id="Path"></path>
                    <path d="M18.7549976,11.3386353 L18.7549976,12.8539095 L21.3516298,12.8539095 L21.3516298,11.3386353 L18.7549976,11.3386353 Z M23.1698904,10.429505 L23.1698904,13.7630398 C23.1698904,14.2609713 22.75888,14.6721701 22.2607601,14.6721701 L17.8458673,14.6721701 C17.3477474,14.6721701 16.936737,14.2609713 16.936737,13.7630398 L16.936737,10.429505 C16.936737,9.93157342 17.3477474,9.52037466 17.8458673,9.52037466 L22.2607601,9.52037466 C22.5433188,9.52037466 22.7586484,9.62330739 22.9067488,9.78019135 C23.0655018,9.92842779 23.1698904,10.1448657 23.1698904,10.429505 Z" id="Path"></path>
                    <path d="M17.4179461,25.4905959 L16.1133088,25.4905959 C15.5983228,25.4905959 15.180695,25.072968 15.180695,24.5579821 C15.180695,24.0429961 15.5983228,23.6253683 16.1133088,23.6253683 L17.4183517,23.6253685 C17.9331828,23.6259651 18.3505599,24.0431577 18.3505599,24.5579821 C18.3505599,25.072968 17.9329321,25.4905959 17.4179461,25.4905959 Z" id="Path"></path>
                    <path d="M22.8463561,25.4905959 L21.5417188,25.4905959 C21.0267328,25.4905959 20.609105,25.072968 20.609105,24.5579821 C20.609105,24.0429961 21.0267328,23.6253683 21.5417188,23.6253683 L22.8467617,23.6253685 C23.3615928,23.6259651 23.7789699,24.0431577 23.7789699,24.5579821 C23.7789699,25.072968 23.3613421,25.4905959 22.8463561,25.4905959 Z" id="Path"></path>
                </g>
            </g>
        </g>
    </g>
</svg>