<?xml version="1.0" encoding="UTF-8"?>
<svg width="40px" height="40px" viewBox="0 0 40 40" version="1.1" xmlns="http://www.w3.org/2000/svg" xmlns:xlink="http://www.w3.org/1999/xlink">
    <!-- Generator: Sketch 52.4 (67378) - http://www.bohemiancoding.com/sketch -->
    <title>物联网</title>
    <desc>Created with Sketch.</desc>
    <g id="Page-1" stroke="none" stroke-width="1" fill="none" fill-rule="evenodd">
        <g id="首页" transform="translate(-1422.000000, -1953.000000)" fill="#007AFF" fill-rule="nonzero">
            <g id="Group-29" transform="translate(375.000000, 1810.000000)">
                <g id="iconfinder_39_171479" transform="translate(1047.000000, 143.000000)">
                    <path d="M38.1931915,20.5982979 C38.0184397,25.0703546 36.2434043,29.1310638 33.4235461,32.2235461 C31.857305,30.7625532 30.0553191,29.5512057 28.08,28.6539007 C28.6357447,26.2102128 28.9665248,23.4828369 29.0147518,20.5982979 L38.1931915,20.5982979 Z M38.1931915,19.1412766 L29.0147518,19.1412766 C28.9585816,15.7330496 28.5060993,12.5438298 27.7557447,9.78297872 C29.546383,9.00851064 31.1971631,7.97617021 32.6669504,6.73617021 C35.9231206,9.90921986 38.0031206,14.2819858 38.1931915,19.1412766 Z M31.5174468,5.70411348 C30.2468085,6.74978723 28.8346099,7.62780142 27.3120567,8.30496454 C26.4215603,5.60765957 25.2275177,3.41702128 23.8397163,1.96312057 C26.7080851,2.59631206 29.3256738,3.90014184 31.5174468,5.70411348 Z M25.9585816,8.84255319 C24.271773,9.43659574 22.4712057,9.79120567 20.5985816,9.86439716 L20.5985816,1.61503546 C22.7866667,2.11489362 24.7052482,4.84085106 25.9585816,8.84255319 Z M20.5985816,11.3960284 C22.6153191,11.3236879 24.5551773,10.9492199 26.3753191,10.3185816 C27.031773,12.9060993 27.4303546,15.9168794 27.4819858,19.1412766 L20.5985816,19.1412766 L20.5985816,11.3960284 Z M20.5985816,20.5982979 L27.4831206,20.5982979 C27.44,23.2817021 27.1568794,25.8167376 26.6842553,28.0834043 C24.7753191,27.386383 22.7302128,26.9730496 20.5994326,26.8958865 L20.5994326,20.5982979 L20.5985816,20.5982979 Z M20.5985816,28.4280851 C22.6104965,28.5066667 24.5384397,28.9100709 26.332766,29.5855319 C25.1075177,34.2967376 23.0175887,37.5719149 20.5985816,38.124539 L20.5985816,28.4280851 Z M23.8388652,37.7764539 C25.4394326,36.1007092 26.7815603,33.444539 27.698156,30.164539 C29.4085106,30.973617 30.9733333,32.0382979 32.3435461,33.3112057 C29.9968794,35.4899291 27.0788652,37.061844 23.8388652,37.7764539 Z M19.1412766,38.124539 C16.7222695,37.5721986 14.6323404,34.2970213 13.4070922,29.5855319 C15.2017021,28.9100709 17.1296454,28.5066667 19.1412766,28.4280851 L19.1412766,38.124539 Z M19.1412766,26.8961702 C17.0099291,26.9730496 14.9648227,27.3866667 13.0564539,28.0842553 C12.5838298,25.8175887 12.3009929,23.2817021 12.257305,20.5982979 L19.1415603,20.5982979 L19.1412766,26.8961702 Z M19.1412766,19.1412766 L12.2570213,19.1412766 C12.3095035,15.9177305 12.7069504,12.907234 13.3642553,10.3197163 C15.1843972,10.9497872 17.124539,11.3231206 19.1409929,11.3960284 L19.1412766,19.1412766 Z M19.1412766,9.86411348 C17.2689362,9.79092199 15.4692199,9.43631206 13.7815603,8.8422695 C15.0348936,4.84085106 16.9531915,2.11489362 19.1412766,1.61503546 L19.1412766,9.86411348 Z M15.9015603,1.96312057 C14.5129078,3.41702128 13.3188652,5.60851064 12.4286525,8.30496454 C10.9060993,7.62780142 9.49333333,6.74978723 8.2235461,5.70411348 C10.4144681,3.90014184 13.0320567,2.59631206 15.9015603,1.96312057 Z M7.07234043,6.73702128 C8.54326241,7.9764539 10.1960284,9.0070922 11.9852482,9.78156028 C11.2346099,12.542695 10.782695,15.7324823 10.7262411,19.1409929 L1.54695035,19.1409929 C1.73702128,14.2825532 3.8164539,9.91035461 7.07234043,6.73702128 Z M1.54695035,20.5982979 L10.7262411,20.5982979 C10.7741844,23.4828369 11.1049645,26.2099291 11.6607092,28.6539007 C9.68539007,29.5512057 7.88312057,30.7625532 6.31659574,32.2235461 C3.49673759,29.1313475 1.72198582,25.0703546 1.54695035,20.5982979 Z M7.39631206,33.3112057 C8.76652482,32.0385816 10.3313475,30.973617 12.0417021,30.164539 C12.9585816,33.444539 14.3004255,36.1007092 15.9009929,37.7764539 C12.6612766,37.061844 9.74297872,35.4899291 7.39631206,33.3112057 Z M39.7253901,20.5982979 L39.7401418,20.5982979 L39.7401418,19.1409929 L39.7253901,19.1409929 C39.3503546,8.74695035 30.9929078,0.389219858 20.5985816,0.0141843972 L20.5985816,0 L19.1409929,0 L19.1409929,0.0144680851 C8.74723404,0.389503546 0.389503546,8.74723404 0.014751773,19.1412766 L0,19.1412766 L0,20.5982979 L0.014751773,20.5982979 C0.191205674,25.4950355 2.1387234,29.9398582 5.23687943,33.310922 C5.22836879,33.3202837 5.21929078,33.3293617 5.21049645,33.3395745 L5.26326241,33.3395745 C8.74070922,37.1083688 13.6575887,39.5276596 19.1412766,39.7259574 L19.1412766,39.7409929 L19.8689362,39.7409929 L19.8700709,39.7409929 L19.8712057,39.7409929 L20.5985816,39.7409929 L20.5985816,39.7259574 C26.0828369,39.5287943 30.9997163,37.1083688 34.4765957,33.3395745 L34.5296454,33.3395745 C34.5211348,33.3302128 34.5120567,33.3214184 34.5032624,33.310922 C37.6014184,29.9395745 39.5486525,25.4947518 39.7253901,20.5982979 Z" id="Shape"></path>
                </g>
            </g>
        </g>
    </g>
</svg>