<?xml version="1.0" encoding="UTF-8"?>
<svg width="40px" height="40px" viewBox="0 0 40 40" version="1.1" xmlns="http://www.w3.org/2000/svg" xmlns:xlink="http://www.w3.org/1999/xlink">
    <!-- Generator: Sketch 52.4 (67378) - http://www.bohemiancoding.com/sketch -->
    <title>本地服务</title>
    <desc>Created with Sketch.</desc>
    <g id="Page-1" stroke="none" stroke-width="1" fill="none" fill-rule="evenodd">
        <g id="首页" transform="translate(-652.000000, -1953.000000)" fill="#FFFFFF" fill-rule="nonzero">
            <g id="Group-29" transform="translate(375.000000, 1810.000000)">
                <g id="iconfinder_finance-08_808671" transform="translate(277.000000, 143.000000)">
                    <path d="M38.3333333,0 L1.66666667,0 C0.666666667,0 0,0.666666667 0,1.66666667 L0,40 L40,40 L40,1.66666667 C40,0.666666667 39.3333333,0 38.3333333,0 Z M32.7272727,1.81818182 L32.7272727,14.5454545 L29.0909091,14.5454545 L29.0909091,1.81818182 L32.7272727,1.81818182 Z M27.2727273,1.81818182 L27.2727273,14.5454545 L23.6363636,14.5454545 L23.6363636,1.81818182 L27.2727273,1.81818182 Z M21.8181818,1.81818182 L21.8181818,14.5454545 L18.1818182,14.5454545 L18.1818182,1.81818182 L21.8181818,1.81818182 Z M16.3636364,1.81818182 L16.3636364,14.5454545 L12.7272727,14.5454545 L12.7272727,1.81818182 L16.3636364,1.81818182 Z M10.9090909,1.81818182 L10.9090909,14.5454545 L7.27272727,14.5454545 L7.27272727,1.81818182 L10.9090909,1.81818182 Z M1.81818182,1.81818182 L5.45454545,1.81818182 L5.45454545,14.5454545 L1.81818182,14.5454545 L1.81818182,1.81818182 Z M25.4545455,38.1818182 L25.4545455,30.9090909 L27.2727273,30.9090909 L27.2727273,29.0909091 L25.4545455,29.0909091 L25.4545455,21.8181818 L32.7272727,21.8181818 L32.7272727,38.1818182 L25.4545455,38.1818182 Z M38.1818182,38.1818182 L34.5454545,38.1818182 L34.5454545,20 L23.6363636,20 L23.6363636,38.1818182 L1.81818182,38.1818182 L1.81818182,16.3636364 L38.1818182,16.3636364 L38.1818182,38.1818182 Z M38.1818182,14.5454545 L34.5454545,14.5454545 L34.5454545,1.81818182 L38.1818182,1.81818182 L38.1818182,14.5454545 Z" id="Shape"></path>
                    <path d="M21.8181818,20 L5.45454545,20 L5.45454545,36.3636364 L21.8181818,36.3636364 L21.8181818,20 Z M20,34.5454545 L7.27272727,34.5454545 L7.27272727,21.8181818 L20,21.8181818 L20,34.5454545 Z" id="Shape"></path>
                </g>
            </g>
        </g>
    </g>
</svg>