<?xml version="1.0" encoding="UTF-8"?>
<svg width="40px" height="40px" viewBox="0 0 40 40" version="1.1" xmlns="http://www.w3.org/2000/svg" xmlns:xlink="http://www.w3.org/1999/xlink">
    <!-- Generator: Sketch 52.4 (67378) - http://www.bohemiancoding.com/sketch -->
    <title>社交</title>
    <desc>Created with Sketch.</desc>
    <g id="Page-1" stroke="none" stroke-width="1" fill="none" fill-rule="evenodd">
        <g id="首页" transform="translate(-1036.000000, -1947.000000)" fill="#007AFF" fill-rule="nonzero">
            <g id="Group-29" transform="translate(375.000000, 1810.000000)">
                <g id="Group-18" transform="translate(661.000000, 137.000000)">
                    <path d="M35.2,26.634128 L35.3491005,26.5473544 C36.7959165,25.7053359 37.7,24.1863751 37.7,22.5 L37.7,20 C37.7,17.4061147 35.593533,15.3 33,15.3 L8,15.3 C5.40568542,15.3 3.3,17.4056854 3.3,20 L3.3,22.5 C3.3,24.1855636 4.20439953,25.7062038 5.65080787,26.5473011 L5.8,26.6340574 L5.8,34.7 L15.8,34.7 L15.8,39.7 L25.2,39.7 L25.2,34.7 L35.2,34.7 L35.2,26.634128 Z M5.2,22.8 L5.2,20 C5.2,18.4549396 6.45493958,17.2 8,17.2 L11.7142106,17.2 L11.4513443,17.6510546 C11.0272713,18.3787253 10.8,19.1756072 10.8,20 L10.8,25 C10.8,26.6855636 11.7043995,28.2062038 13.1508079,29.0473011 L13.3,29.1340574 L13.3,32.8 L7.7,32.8 L7.7,22.8 L5.2,22.8 Z M15.8,27.8 L15.5,27.8 C13.954135,27.8 12.7,26.5467174 12.7,25 L12.7,20 C12.7,18.4549396 13.9549396,17.2 15.5,17.2 L25.5,17.2 C27.0467174,17.2 28.3,18.454135 28.3,20 L28.3,25 C28.3,26.5475214 27.0475214,27.8 25.5,27.8 L25.2,27.8 L25.2,22.8 L23.3,22.8 L23.3,37.8 L17.7,37.8 L17.7,22.8 L15.8,22.8 L15.8,27.8 Z M33.3,32.8 L27.7,32.8 L27.7,29.134128 L27.8491005,29.0473544 C29.2959165,28.2053359 30.2,26.6863751 30.2,25 L30.2,20 C30.2,19.1766364 29.9721853,18.3798708 29.5474447,17.6510546 L29.2845785,17.2 L33,17.2 C34.5467174,17.2 35.8,18.454135 35.8,20 L35.8,22.8 L33.3,22.8 L33.3,32.8 Z M15.0892783,12.2007041 C16.4599999,13.7783955 18.4034974,14.7 20.5,14.7 C22.5972714,14.7 24.5396771,13.7787672 25.9107217,12.2007041 L26.1924794,11.8764029 L26.3999025,12.2526134 C27.2268803,13.7525318 28.7767266,14.7 30.5,14.7 C33.093533,14.7 35.2,12.5938853 35.2,10 C35.2,7.40611473 33.093533,5.3 30.5,5.3 C29.5867923,5.3 28.7122878,5.56646914 27.9535356,6.05965808 L27.5945637,6.29298982 L27.4978013,5.8759268 C26.7450835,2.63157958 23.8621856,0.3 20.5,0.3 C17.1373999,0.3 14.2536368,2.63200382 13.5022221,5.8758258 L13.4056411,6.29276168 L13.0466424,6.05977369 C12.286537,5.56646981 11.4120304,5.3 10.5,5.3 C7.90568542,5.3 5.8,7.40568542 5.8,10 C5.8,12.5943146 7.90568542,14.7 10.5,14.7 C12.2228605,14.7 13.7717156,13.7529461 14.6001845,12.2524556 L14.8077008,11.8766103 L15.0892783,12.2007041 Z M30.5,7.2 C32.0479174,7.2 33.3,8.45166357 33.3,10 C33.3,11.5483364 32.0479174,12.8 30.5,12.8 C28.9537387,12.8 27.7,11.5475328 27.7,10 C27.7,8.45246721 28.9537387,7.2 30.5,7.2 Z M20.5,2.2 C23.4248814,2.2 25.8,4.57472141 25.8,7.5 C25.8,10.4252786 23.4248814,12.8 20.5,12.8 C17.5743146,12.8 15.2,10.4256854 15.2,7.5 C15.2,4.57431458 17.5743146,2.2 20.5,2.2 Z M10.5,12.8 C8.9537387,12.8 7.7,11.5475328 7.7,10 C7.7,8.45246721 8.9537387,7.2 10.5,7.2 C12.0487323,7.2 13.3,8.4512677 13.3,10 C13.3,11.5487323 12.0487323,12.8 10.5,12.8 Z" id="Shape"></path>
                </g>
            </g>
        </g>
    </g>
</svg>