<svg xmlns="http://www.w3.org/2000/svg" width="80" height="80" viewBox="0 0 80 80">
  <path fill="#007AFF" fill-rule="evenodd" d="M22.5433266,40.0594586 C22.5433266,40.0594586 22.5433266,49.7762478 32.2601158,49.7762478 C41.976905,49.7762478 49.3982788,49.7762478 49.3982788,49.7762478 L49.3982788,57.1976216 C49.3982788,61.7523665 44.691709,62.0560162 44.691709,62.0560162 L30.1165252,62.0560162 L15.3895165,76.6312 L15.3895165,62.0560162 L10.5311219,62.0560162 C10.5311219,62.0560162 5.67272727,61.9041914 5.67272727,57.1976216 C5.67272727,52.4910518 5.67272727,32.9056485 5.67272727,32.9056485 C5.67272727,32.9056485 5.67272727,28.0472539 10.5311219,28.0472539 L22.5433266,28.0472539 L22.5433266,40.0594586 Z M66.2688781,10.9090909 C66.2688781,10.9090909 71.1272727,10.9090909 71.1272727,15.7674855 L71.1272727,40.0594586 C71.1272727,44.7660284 66.2688781,44.9178532 66.2688781,44.9178532 L61.4104835,44.9178532 L61.4104835,59.4930371 L46.6834748,44.9178532 L32.108291,44.9178532 C32.108291,44.9178532 27.4017212,44.6142035 27.4017212,40.0594586 C27.4017212,35.5023604 27.4017212,15.7674855 27.4017212,15.7674855 C27.4017212,15.7674855 27.4017212,10.9090909 32.2601158,10.9090909 C37.1185104,10.9090909 66.2688781,10.9090909 66.2688781,10.9090909 Z M37.8662928,20.7634369 C36.9101946,20.7634369 36.1351239,21.7729477 36.1351239,23.0182424 C36.1351239,24.2635371 36.9101946,25.2730479 37.8662928,25.2730479 L61.0373226,25.2730479 C61.9934208,25.2730479 62.7684915,24.2635371 62.7684915,23.0182424 C62.7684915,21.7729477 61.9934208,20.7634369 61.0373226,20.7634369 L37.8662928,20.7634369 Z M37.8662928,30.9021781 C36.9101946,30.9021781 36.1351239,31.9116889 36.1351239,33.1569836 C36.1351239,34.4022783 36.9101946,35.4117891 37.8662928,35.4117891 L61.0373226,35.4117891 C61.9934208,35.4117891 62.7684915,34.4022783 62.7684915,33.1569836 C62.7684915,31.9116889 61.9934208,30.9021781 61.0373226,30.9021781 L37.8662928,30.9021781 Z"/>
</svg>
