<?xml version="1.0" encoding="UTF-8"?>
<svg width="80px" height="80px" viewBox="0 0 80 80" version="1.1" xmlns="http://www.w3.org/2000/svg" xmlns:xlink="http://www.w3.org/1999/xlink">
    <!-- Generator: Sketch 53.2 (72643) - https://sketchapp.com -->
    <title>github</title>
    <desc>Created with Sketch.</desc>
    <g id="Page-1" stroke="none" stroke-width="1" fill="none" fill-rule="evenodd">
        <g id="社区" transform="translate(-1415.000000, -850.000000)" fill="#007AFF">
            <g id="Group-2-Copy" transform="translate(1415.000000, 850.000000)">
                <path d="M15.0345455,25.1463636 C15.1163636,24.3418182 14.8081818,23.5481818 14.2081818,23.0081818 L8.09909091,15.6445455 L8.09909091,14.5454545 L27.0754545,14.5454545 L41.7427273,46.7136364 L54.6372727,14.5454545 L72.7272727,14.5454545 L72.7272727,15.6445455 L67.5018182,20.6545455 C67.0518182,20.9981818 66.8281818,21.5627273 66.9209091,22.1218182 L66.9209091,58.9345455 C66.8281818,59.4909091 67.0518182,60.0554545 67.5018182,60.3990909 L72.6045455,65.4090909 L72.6045455,66.5081818 L46.9354545,66.5081818 L46.9354545,65.4090909 L52.2236364,60.2763636 C52.7418182,59.7581818 52.7418182,59.6054545 52.7418182,58.8118182 L52.7418182,29.0572727 L38.0445455,66.3881818 L36.0590909,66.3881818 L18.9454545,29.0572727 L18.9454545,54.0772727 C18.8036364,55.1272727 19.1527273,56.1881818 19.8918182,56.9463636 L26.7672727,65.2863636 L26.7672727,66.3881818 L7.27272727,66.3881818 L7.27272727,65.2863636 L14.1481818,56.9463636 C14.8845455,56.1854545 15.2118182,55.1190909 15.0345455,54.0772727 L15.0345455,25.1463636 L15.0345455,25.1463636 Z" id="Path"></path>
            </g>
        </g>
    </g>
</svg>