<?xml version="1.0" encoding="UTF-8"?>
<svg width="14px" height="14px" viewBox="0 0 14 14" version="1.1" xmlns="http://www.w3.org/2000/svg" xmlns:xlink="http://www.w3.org/1999/xlink">
    <!-- Generator: Sketch 52.4 (67378) - http://www.bohemiancoding.com/sketch -->
    <title>checkmark</title>
    <desc>Created with Sketch.</desc>
    <g id="Page-1" stroke="none" stroke-width="1" fill="none" fill-rule="evenodd">
        <g id="首页" transform="translate(-866.000000, -1571.000000)">
            <rect fill="#FFFFFF" x="0" y="0" width="1920" height="6298"></rect>
            <g id="Instant-Confirmation" transform="translate(866.000000, 1569.000000)">
                <text id="Token-Issuance-in-On" font-family="PingFangSC-Semibold, PingFang SC" font-size="14" font-weight="500" line-spacing="18" fill="#919AA3">
                    <tspan x="22" y="15">协议原生支持</tspan>
                </text>
                <g id="checkmark" transform="translate(0.000000, 2.000000)" fill="#007AFF" fill-rule="nonzero">
                    <path d="M6.3322193,7.22967383 L11.7630822,1.82915091 C11.9109681,1.68209122 12.1499662,1.68242595 12.2974396,1.82989931 L13.2206464,2.75310617 C13.3684124,2.90087211 13.3684124,3.14044805 13.2206464,3.288214 L6.59902481,9.90983562 C6.45125886,10.0576016 6.21168292,10.0576016 6.06391698,9.90983562 L3.10328808,6.94920672 C2.95728982,6.80320847 2.95528924,6.56712295 3.09879234,6.41867147 L4.0219992,5.46362989 C4.16898337,5.3115773 4.41206292,5.30951745 4.56160277,5.45905731 L6.3322193,7.22967383 Z M12.2845634,6.62162162 L13.6216216,6.62162162 C13.8305942,6.62162162 14,6.79102739 14,7 C14,8.92563941 13.3127741,10.5817413 11.9472577,11.9472577 C10.5817413,13.3127741 8.92563941,14 7,14 C5.07436059,14 3.41825875,13.3127741 2.05274234,11.9472577 C0.687225934,10.5817413 0,8.92563941 0,7 C0,5.07436059 0.687225934,3.41825875 2.05274234,2.05274234 C3.41825875,0.687225934 5.07436059,1.77635684e-15 7,1.77635684e-15 C7.89976075,1.77635684e-15 8.77733512,0.180015254 9.62994049,0.539006989 C9.87760206,0.643285545 9.94067554,0.965274291 9.75066203,1.1552878 L8.73195101,2.17399882 C8.63593745,2.27001238 8.49583833,2.30721772 8.36483915,2.27149068 C7.93080435,2.15311755 7.47615123,2.09381497 7,2.09381497 C5.63578002,2.09381497 4.48522309,2.5687257 3.5269744,3.5269744 C2.5687257,4.48522309 2.09381497,5.63578002 2.09381497,7 C2.09381497,8.36421998 2.5687257,9.51477691 3.5269744,10.4730256 C4.48522309,11.4312743 5.63578002,11.906185 7,11.906185 C8.36421998,11.906185 9.51477691,11.4312743 10.4730256,10.4730256 C11.4312743,9.51477691 11.906185,8.36421998 11.906185,7 C11.906185,6.79102739 12.0755908,6.62162162 12.2845634,6.62162162 Z" id="ion-android-checkmark-circle---Ionicons"></path>
                </g>
            </g>
            <g id="秒级确认-copy-6" transform="translate(866.000000, 1569.000000)" fill="#007AFF" fill-rule="nonzero">
                <g id="checkmark" transform="translate(0.000000, 2.000000)">
                    <path d="M6.3322193,7.22967383 L11.7630822,1.82915091 C11.9109681,1.68209122 12.1499662,1.68242595 12.2974396,1.82989931 L13.2206464,2.75310617 C13.3684124,2.90087211 13.3684124,3.14044805 13.2206464,3.288214 L6.59902481,9.90983562 C6.45125886,10.0576016 6.21168292,10.0576016 6.06391698,9.90983562 L3.10328808,6.94920672 C2.95728982,6.80320847 2.95528924,6.56712295 3.09879234,6.41867147 L4.0219992,5.46362989 C4.16898337,5.3115773 4.41206292,5.30951745 4.56160277,5.45905731 L6.3322193,7.22967383 Z M12.2845634,6.62162162 L13.6216216,6.62162162 C13.8305942,6.62162162 14,6.79102739 14,7 C14,8.92563941 13.3127741,10.5817413 11.9472577,11.9472577 C10.5817413,13.3127741 8.92563941,14 7,14 C5.07436059,14 3.41825875,13.3127741 2.05274234,11.9472577 C0.687225934,10.5817413 0,8.92563941 0,7 C0,5.07436059 0.687225934,3.41825875 2.05274234,2.05274234 C3.41825875,0.687225934 5.07436059,1.77635684e-15 7,1.77635684e-15 C7.89976075,1.77635684e-15 8.77733512,0.180015254 9.62994049,0.539006989 C9.87760206,0.643285545 9.94067554,0.965274291 9.75066203,1.1552878 L8.73195101,2.17399882 C8.63593745,2.27001238 8.49583833,2.30721772 8.36483915,2.27149068 C7.93080435,2.15311755 7.47615123,2.09381497 7,2.09381497 C5.63578002,2.09381497 4.48522309,2.5687257 3.5269744,3.5269744 C2.5687257,4.48522309 2.09381497,5.63578002 2.09381497,7 C2.09381497,8.36421998 2.5687257,9.51477691 3.5269744,10.4730256 C4.48522309,11.4312743 5.63578002,11.906185 7,11.906185 C8.36421998,11.906185 9.51477691,11.4312743 10.4730256,10.4730256 C11.4312743,9.51477691 11.906185,8.36421998 11.906185,7 C11.906185,6.79102739 12.0755908,6.62162162 12.2845634,6.62162162 Z" id="ion-android-checkmark-circle---Ionicons"></path>
                </g>
                <g id="checkmark" transform="translate(0.000000, 2.000000)">
                    <path d="M6.3322193,7.22967383 L11.7630822,1.82915091 C11.9109681,1.68209122 12.1499662,1.68242595 12.2974396,1.82989931 L13.2206464,2.75310617 C13.3684124,2.90087211 13.3684124,3.14044805 13.2206464,3.288214 L6.59902481,9.90983562 C6.45125886,10.0576016 6.21168292,10.0576016 6.06391698,9.90983562 L3.10328808,6.94920672 C2.95728982,6.80320847 2.95528924,6.56712295 3.09879234,6.41867147 L4.0219992,5.46362989 C4.16898337,5.3115773 4.41206292,5.30951745 4.56160277,5.45905731 L6.3322193,7.22967383 Z M12.2845634,6.62162162 L13.6216216,6.62162162 C13.8305942,6.62162162 14,6.79102739 14,7 C14,8.92563941 13.3127741,10.5817413 11.9472577,11.9472577 C10.5817413,13.3127741 8.92563941,14 7,14 C5.07436059,14 3.41825875,13.3127741 2.05274234,11.9472577 C0.687225934,10.5817413 0,8.92563941 0,7 C0,5.07436059 0.687225934,3.41825875 2.05274234,2.05274234 C3.41825875,0.687225934 5.07436059,1.77635684e-15 7,1.77635684e-15 C7.89976075,1.77635684e-15 8.77733512,0.180015254 9.62994049,0.539006989 C9.87760206,0.643285545 9.94067554,0.965274291 9.75066203,1.1552878 L8.73195101,2.17399882 C8.63593745,2.27001238 8.49583833,2.30721772 8.36483915,2.27149068 C7.93080435,2.15311755 7.47615123,2.09381497 7,2.09381497 C5.63578002,2.09381497 4.48522309,2.5687257 3.5269744,3.5269744 C2.5687257,4.48522309 2.09381497,5.63578002 2.09381497,7 C2.09381497,8.36421998 2.5687257,9.51477691 3.5269744,10.4730256 C4.48522309,11.4312743 5.63578002,11.906185 7,11.906185 C8.36421998,11.906185 9.51477691,11.4312743 10.4730256,10.4730256 C11.4312743,9.51477691 11.906185,8.36421998 11.906185,7 C11.906185,6.79102739 12.0755908,6.62162162 12.2845634,6.62162162 Z" id="ion-android-checkmark-circle---Ionicons"></path>
                </g>
            </g>
        </g>
    </g>
</svg>