<?xml version="1.0" encoding="UTF-8"?>
<svg width="60px" height="60px" viewBox="0 0 60 60" version="1.1" xmlns="http://www.w3.org/2000/svg" xmlns:xlink="http://www.w3.org/1999/xlink">
    <!-- Generator: Sketch 52.4 (67378) - http://www.bohemiancoding.com/sketch -->
    <title>支付</title>
    <desc>Created with Sketch.</desc>
    <g id="Page-1" stroke="none" stroke-width="1" fill="none" fill-rule="evenodd">
        <g id="首页" transform="translate(-382.000000, -1462.000000)" fill="#007AFF" fill-rule="nonzero">
            <g id="Group-28-Copy-3" transform="translate(382.000000, 1462.000000)">
                <path d="M23.5396687,0 L2.82476024,0 C1.26737576,0 0,1.26737576 0,2.82476024 L0.00376634699,40.5663819 L0.801290323,50.1385527 C0.92087184,51.5904795 2.15811683,52.7288579 3.61569311,52.7288579 L22.7487358,52.7288579 C24.2063121,52.7288579 25.4426155,51.5904795 25.562197,50.1385527 L26.3644289,40.4882302 L26.3644289,2.82476024 C26.3644289,1.26737576 25.0970532,0 23.5396687,0 Z M1.8831735,2.82476024 C1.8831735,2.30500436 2.30500436,1.8831735 2.82476024,1.8831735 L23.5396687,1.8831735 C24.0594246,1.8831735 24.4812554,2.30500436 24.4812554,2.82476024 L24.4812554,4.70793374 L1.8831735,4.70793374 L1.8831735,2.82476024 Z M1.8831735,6.59110724 L24.4812554,6.59110724 L24.482197,16.9485615 L1.8831735,16.9485615 L1.8831735,6.59110724 Z M23.6856146,49.9822493 C23.6451264,50.4746992 23.2430689,50.8456844 22.7487358,50.8456844 L3.61569311,50.8456844 C3.12230166,50.8456844 2.71930253,50.4746992 2.67787271,49.9822493 L1.8831735,40.4882302 L1.8831735,18.831735 L24.4831386,18.831735 L24.4850218,40.4100785 L23.6856146,49.9822493 Z M3.76634699,20.7149085 L3.76634699,22.598082 L7.53269398,22.598082 L7.53269398,20.7149085 L3.76634699,20.7149085 Z M11.299041,20.7149085 L11.299041,22.598082 L15.065388,22.598082 L15.065388,20.7149085 L11.299041,20.7149085 Z M18.831735,20.7149085 L18.831735,22.598082 L22.598082,22.598082 L22.598082,20.7149085 L18.831735,20.7149085 Z M3.76634699,24.4812554 L3.76634699,26.3644289 L7.53269398,26.3644289 L7.53269398,24.4812554 L3.76634699,24.4812554 Z M11.299041,24.4812554 L11.299041,26.3644289 L15.065388,26.3644289 L15.065388,24.4812554 L11.299041,24.4812554 Z M18.831735,24.4812554 L18.831735,26.3644289 L22.598082,26.3644289 L22.598082,24.4812554 L18.831735,24.4812554 Z M3.76634699,28.2476024 L3.76634699,30.1307759 L7.53269398,30.1307759 L7.53269398,28.2476024 L3.76634699,28.2476024 Z M11.299041,28.2476024 L11.299041,30.1307759 L15.065388,30.1307759 L15.065388,28.2476024 L11.299041,28.2476024 Z M18.831735,28.2476024 L18.831735,30.1307759 L22.598082,30.1307759 L22.598082,28.2476024 L18.831735,28.2476024 Z M3.76634699,32.0139494 L3.76634699,33.8971229 L7.53269398,33.8971229 L7.53269398,32.0139494 L3.76634699,32.0139494 Z M11.299041,32.0139494 L11.299041,33.8971229 L15.065388,33.8971229 L15.065388,32.0139494 L11.299041,32.0139494 Z M18.831735,32.0139494 L18.831735,33.8971229 L22.598082,33.8971229 L22.598082,32.0139494 L18.831735,32.0139494 Z M53.6704446,19.7733217 C56.2663993,19.7733217 58.3783784,21.8853008 58.3783784,24.4812554 L58.3783784,53.6704446 C58.3783784,56.2663993 56.2663993,58.3783784 53.6704446,58.3783784 L35.7802964,58.3783784 C33.1843418,58.3783784 31.0723627,56.2663993 31.0723627,53.6704446 L31.0723627,24.4812554 C31.0723627,21.8853008 33.1843418,19.7733217 35.7802964,19.7733217 L53.6704446,19.7733217 Z M56.4952049,53.6704446 L56.4952049,52.7288579 L32.9555362,52.7288579 L32.9555362,53.6704446 C32.9555362,55.2278291 34.2229119,56.4952049 35.7802964,56.4952049 L53.6704446,56.4952049 C55.2278291,56.4952049 56.4952049,55.2278291 56.4952049,53.6704446 Z M56.4952049,50.8456844 L56.4952049,26.3644289 L32.9555362,26.3644289 L32.9555362,50.8456844 L56.4952049,50.8456844 Z M32.9555362,24.4812554 L56.4952049,24.4812554 C56.4952049,22.923871 55.2278291,21.6564952 53.6704446,21.6564952 L35.7802964,21.6564952 C34.2229119,21.6564952 32.9555362,22.923871 32.9555362,24.4812554 Z M41.4298169,53.6704446 L48.0209241,53.6704446 L48.0209241,55.5536181 L41.4298169,55.5536181 L41.4298169,53.6704446 Z M39.488265,43.1548038 L37.8499041,35.7802964 L34.8387097,35.7802964 L34.8387097,33.8971229 L39.3602092,33.8971229 L41.2471491,42.3902354 C41.3083522,42.3855275 41.3667306,42.3714037 41.4288753,42.3714037 C42.6548213,42.3714037 43.6905667,43.1613949 44.0803836,44.2545772 L48.1941761,44.2545772 C48.5218483,43.3346469 49.3043069,42.6284568 50.2779076,42.4288405 L52.5725545,38.6050567 L41.4298169,38.6050567 L41.4298169,36.7218832 L54.6120314,36.7218832 L54.6120314,38.8658762 L52.2703051,42.7706364 C53.104551,43.2621447 53.6713862,44.1594769 53.6713862,45.1961639 C53.6713862,46.7535484 52.4040105,48.0209241 50.846626,48.0209241 C49.62068,48.0209241 48.5849346,47.2309329 48.1951177,46.1377507 L44.0813252,46.1377507 C43.6915083,47.2309329 42.6557629,48.0209241 41.4298169,48.0209241 C39.8724324,48.0209241 38.6050567,46.7535484 38.6050567,45.1961639 C38.6050567,44.3920488 38.9468527,43.6689102 39.488265,43.1548038 Z M50.8456844,44.2545772 C50.3259285,44.2545772 49.9040976,44.676408 49.9040976,45.1961639 C49.9040976,45.7159198 50.3259285,46.1377507 50.8456844,46.1377507 C51.3654403,46.1377507 51.7872711,45.7159198 51.7872711,45.1961639 C51.7872711,44.676408 51.3654403,44.2545772 50.8456844,44.2545772 Z M41.4298169,44.2545772 C40.910061,44.2545772 40.4882302,44.676408 40.4882302,45.1961639 C40.4882302,45.7159198 40.910061,46.1377507 41.4298169,46.1377507 C41.9495728,46.1377507 42.3714037,45.7159198 42.3714037,45.1961639 C42.3714037,44.676408 41.9495728,44.2545772 41.4298169,44.2545772 Z M42.3714037,14.1238012 C42.3714037,12.5664167 43.6387794,11.299041 45.1961639,11.299041 C46.7535484,11.299041 48.0209241,12.5664167 48.0209241,14.1238012 C48.0209241,15.6811857 46.7535484,16.9485615 45.1961639,16.9485615 C43.6387794,16.9485615 42.3714037,15.6811857 42.3714037,14.1238012 Z M46.1377507,14.1238012 C46.1377507,13.6040453 45.7159198,13.1822145 45.1961639,13.1822145 C44.676408,13.1822145 44.2545772,13.6040453 44.2545772,14.1238012 C44.2545772,14.6435571 44.676408,15.065388 45.1961639,15.065388 C45.7159198,15.065388 46.1377507,14.6435571 46.1377507,14.1238012 Z M49.9040976,14.1238012 C49.9040976,11.5278466 47.7921186,9.41586748 45.1961639,9.41586748 C42.6002092,9.41586748 40.4882302,11.5278466 40.4882302,14.1238012 L38.6050567,14.1238012 C38.6050567,10.490218 41.5625806,7.53269398 45.1961639,7.53269398 C48.8297472,7.53269398 51.7872711,10.490218 51.7872711,14.1238012 L49.9040976,14.1238012 Z M55.5536181,14.1238012 L53.6704446,14.1238012 C53.6704446,9.45070619 49.8692589,5.64952049 45.1961639,5.64952049 C40.5230689,5.64952049 36.7218832,9.45070619 36.7218832,14.1238012 L34.8387097,14.1238012 C34.8387097,8.41307759 39.4854403,3.76634699 45.1961639,3.76634699 C50.9068875,3.76634699 55.5536181,8.41307759 55.5536181,14.1238012 Z M45.1961639,1.8831735 C38.4468701,1.8831735 32.9555362,7.37450741 32.9555362,14.1238012 L31.0723627,14.1238012 C31.0723627,6.33499564 37.4073583,0 45.1961639,0 C52.9840279,0 59.3199651,6.33593723 59.3199651,14.1238012 L57.4367916,14.1238012 C57.4367916,7.37450741 51.9454577,1.8831735 45.1961639,1.8831735 Z" id="point-of-service-1"></path>
            </g>
        </g>
    </g>
</svg>