<?xml version="1.0" encoding="UTF-8"?>
<svg width="65px" height="65px" viewBox="0 0 65 65" version="1.1" xmlns="http://www.w3.org/2000/svg" xmlns:xlink="http://www.w3.org/1999/xlink">
    <!-- Generator: Sketch 52.4 (67378) - http://www.bohemiancoding.com/sketch -->
    <title>价值</title>
    <desc>Created with Sketch.</desc>
    <g id="Page-1" stroke="none" stroke-width="1" fill="none" fill-rule="evenodd">
        <g id="首页" transform="translate(-297.000000, -1337.000000)" fill="#FFFFFF">
            <g id="Group-12" transform="translate(297.000000, 1337.000000)">
                <g id="_x33_1">
                    <g id="Group" transform="translate(10.000000, 21.293388)">
                        <polygon id="Path" fill-opacity="0.3" points="11.5120041 11.8480165 0.12142562 11.8480165 0.12142562 11.8480165 22.7778099 36.8693182"></polygon>
                        <polygon id="Path" fill-opacity="0.3" points="44.8397107 11.8480165 44.838781 11.8480165 33.7256405 11.8480165 33.7256405 11.8480165 22.7778099 36.8693182 44.8166529 11.913843 44.876157 11.913843"></polygon>
                        <polygon id="Path" fill-opacity="0.5" points="33.7256405 11.8480165 44.838781 11.8480165 37.6980992 0.0816322314 37.6973554 0.0816322314"></polygon>
                        <polygon id="Path" fill-opacity="0.9" points="33.7256405 11.8480165 22.6147314 0.0816322314 11.5120041 11.8480165"></polygon>
                        <polygon id="Path" fill-opacity="0.5" points="11.5120041 11.8480165 7.26452479 0.0816322314 7.26452479 0.0816322314 0.12142562 11.8480165"></polygon>
                        <polygon id="Path" fill-opacity="0.8" points="11.5120041 11.8480165 22.7778099 36.8693182 33.7256405 11.8480165"></polygon>
                        <polygon id="Path" fill-opacity="0.7" points="22.6147314 0.0816322314 7.26452479 0.0816322314 11.5120041 11.8480165"></polygon>
                        <polygon id="Path" fill-opacity="0.7" points="37.6973554 0.0816322314 22.6147314 0.0816322314 33.7256405 11.8480165"></polygon>
                    </g>
                    <g id="Group" transform="translate(33.615702, 6.000000)">
                        <path d="M12.5583471,8.25619835 C12.0776653,7.77235537 11.7494628,6.89020661 11.6579752,6.49376033 C11.5834091,6.89504132 11.2933264,7.79076446 10.8347727,8.29283058 C10.2618595,8.92134298 9.61270661,9.30365702 9.20807851,9.28933884 C9.64190083,9.37915289 10.2847314,9.8527686 10.8593182,10.5465496 C11.4060124,11.2036983 11.7405372,11.8108264 11.7754959,12.2509711 C11.793719,11.8091529 12.1036983,11.1886364 12.6202686,10.5067562 C13.1621281,9.79400826 13.7828306,9.2932438 14.2120041,9.18371901 C13.8066322,9.2043595 13.1487397,8.84993802 12.5583471,8.25619835 Z" id="Path"></path>
                        <path d="M3.90607438,2.16762397 C3.41107438,1.59154959 3.11931818,0.583140496 3.04865702,0.134070248 C2.93411157,0.574214876 2.53933884,1.54617769 1.98539256,2.06665289 C1.30592975,2.70873967 0.561384298,3.0806405 0.110826446,3.04326446 C0.584442149,3.18068182 1.25907025,3.75917355 1.83849174,4.57289256 C2.39150826,5.35072314 2.71580579,6.0532438 2.71654959,6.5467562 C2.77289256,6.05640496 3.1702686,5.39200413 3.79952479,4.67683884 C4.46466942,3.92671488 5.1982438,3.4196281 5.68376033,3.33557851 C5.23320248,3.33743802 4.52119835,2.88688017 3.90607438,2.16762397 Z" id="Path"></path>
                    </g>
                </g>
            </g>
        </g>
    </g>
</svg>