<?xml version="1.0" encoding="UTF-8"?>
<svg width="70px" height="70px" viewBox="0 0 70 70" version="1.1" xmlns="http://www.w3.org/2000/svg" xmlns:xlink="http://www.w3.org/1999/xlink">
    <!-- Generator: Sketch 55 (78076) - https://sketchapp.com -->
    <title>-mockplus-dup-|8CD37DCE-A408-4198-9163-21E2726F27D0|icons/st/dapp备份 3 copy备份</title>
    <desc>Created with Sketch.</desc>
    <g id="页面-1" stroke="none" stroke-width="1" fill="none" fill-rule="evenodd">
        <g id="什么是vite" transform="translate(-1466.000000, -1671.000000)">
            <g id="编组-7" transform="translate(1441.000000, 1671.000000)">
                <g id="-mockplus-dup-|8CD37DCE-A408-4198-9163-21E2726F27D0|icons/st/dapp备份-3-copy备份" transform="translate(25.000000, 0.000000)">
                    <g id="编组-2" fill="#F9F9F9" fill-rule="nonzero">
                        <circle id="椭圆形" cx="35" cy="35" r="35"></circle>
                    </g>
                    <g id="编组" transform="translate(12.000000, 13.000000)">
                        <path d="M17.7671651,35.966086 C17.320751,36.4125134 16.5928629,36.4071348 16.1392775,35.9535358 C15.6856921,35.4999369 15.6803136,34.7720272 16.1267277,34.3255998 L36.1830918,14.2668462 C36.6295059,13.8204188 37.3591868,13.8275903 37.8127722,14.2793964 C38.2663576,14.7329953 38.2717361,15.4626979 37.825322,15.9073324 L17.7671651,35.966086 Z M20.87754,26.9377747 L20.6959586,26.9377747 C20.6959586,27.2598872 20.561767,27.559324 20.3295156,27.7779234 C20.1012707,28.0291782 19.8096664,28.1660411 19.4938899,28.1660411 L14.4023478,28.1660411 C13.775822,28.1660411 13.26928,27.6482531 13.26928,27.0100257 C13.26928,26.3717982 13.775822,25.8540102 14.4023478,25.8540102 L16.390664,25.8540102 L16.5190354,25.5377269 L12.0466859,20.976653 C11.6170957,20.536774 11.6248351,19.8128022 12.0666859,19.3620027 C12.5101466,18.9111599 13.2181073,18.9032767 13.6495429,19.3418609 L18.12166,23.9045507 L18.4316388,23.7735528 L18.4316388,21.7412628 C18.4316388,21.1043955 18.9386657,20.5870999 19.5628908,20.5870999 C20.1898396,20.5870999 20.6959586,21.1034692 20.6959586,21.7412628 L20.6959586,26.9377747 L20.87754,26.9377747 Z M31.0416814,16.7754859 L30.8601131,16.7754859 C30.8601131,17.097389 30.7261614,17.3949798 30.4918417,17.6156714 C30.2656676,17.864801 29.9722778,18.0018997 29.6563151,18.0018997 L24.5651393,18.0018997 C23.9391434,18.0018997 23.4321529,17.4846042 23.4321529,16.8458843 C23.4321529,16.2083375 23.9398088,15.6898688 24.5651393,15.6898688 L26.5551281,15.6898688 L26.6834902,15.3735855 L22.2114624,10.8125117 C21.7807594,10.3730542 21.7889662,9.6509517 22.231688,9.19762929 C22.67328,8.74706187 23.3828295,8.73916579 23.8142041,9.17771955 L28.2859996,13.7404093 L28.5959561,13.6094115 L28.5959561,11.5789741 C28.5959561,10.9409335 29.1022802,10.4248112 29.7271268,10.4248112 C30.3535474,10.4248112 30.8601131,10.940687 30.8601131,11.5789741 L30.8601131,16.7754859 L31.0416814,16.7754859 Z M39.6802968,20.034728 C41.1117988,20.034728 42.541491,20.5813571 43.6345722,21.6709952 C45.8171151,23.8538914 45.8171151,27.3943102 43.6345722,29.5772064 C42.541491,30.6704645 41.1117988,31.2152836 39.6802968,31.2152836 C38.2506045,31.2152836 36.8209122,30.6704645 35.727831,29.5772064 C33.5452881,27.3943102 33.5452881,23.8538914 35.727831,21.6709952 C36.8209122,20.5813571 38.2506045,20.034728 39.6802968,20.034728 Z M28.5015509,31.2152836 C29.9312432,31.2152836 31.3609355,31.7601026 32.4540167,32.8515507 C34.6365596,35.034447 34.6365596,38.5748657 32.4540167,40.7577619 C31.3609355,41.8492101 29.9312432,42.3958391 28.5015509,42.3958391 C27.0700489,42.3958391 25.6403566,41.8492101 24.5472755,40.7577619 C22.3647326,38.5748657 22.3647326,35.034447 24.5472755,32.8515507 C25.6403566,31.7601026 27.0700489,31.2152836 28.5015509,31.2152836 Z" id="形状结合备份" fill="#D5E5FC"></path>
                        <path d="M7.57210274,31.70197 C7.04712774,32.226945 6.1911444,32.22062 5.65773607,31.6872116 C5.12432774,31.1538033 5.11800274,30.29782 5.64297774,29.772845 L29.2289027,6.18481162 C29.7538777,5.65983662 30.6119694,5.66826996 31.1453777,6.19956996 C31.6787861,6.73297829 31.6851111,7.59106996 31.1601361,8.11393662 L7.57210274,31.70197 Z M10.6213852,21.4052916 L10.4105519,21.4052916 C10.4105519,21.7718708 10.2547425,22.112644 9.98507651,22.3614204 C9.72006237,22.6473601 9.38148193,22.8031166 9.01483524,22.8031166 L3.10306857,22.8031166 C2.37561223,22.8031166 1.78746857,22.2138495 1.78746857,21.4875166 C1.78746857,20.7611838 2.37561223,20.1719166 3.10306857,20.1719166 L5.41169357,20.1719166 L5.56074498,19.8119713 L0.367919975,14.6212547 C-0.130875219,14.1206516 -0.121889108,13.2967377 0.391141915,12.7837066 C0.906042112,12.2706263 1.72805218,12.2616549 2.22899005,12.7607843 L7.42154522,17.95334 L7.78146024,17.8042583 L7.78146024,15.4914166 C7.78146024,14.7666317 8.37016694,14.177925 9.0949519,14.177925 C9.82289937,14.177925 10.4105519,14.7655775 10.4105519,15.4914166 L10.4105519,21.4052916 L10.6213852,21.4052916 Z M23.0139577,9.01482746 L22.8031244,9.01482746 C22.8031244,9.38116835 22.6475825,9.71984074 22.3754953,9.97099806 C22.1128668,10.2545193 21.7721887,10.4105441 21.4052994,10.4105441 L15.4935327,10.4105441 C14.7666394,10.4105441 14.1779327,9.82183742 14.1779327,9.09494412 C14.1779327,8.36938591 14.767412,7.77934412 15.4935327,7.77934412 L17.8042661,7.77934412 L17.9533175,7.41939884 L12.7604925,2.22868218 C12.2603692,1.72855889 12.2698988,0.906772277 12.783978,0.390870042 C13.2967454,-0.121896887 14.1206594,-0.130882997 14.6215626,0.368211813 L19.8141177,5.56076747 L20.1740327,5.41168579 L20.1740327,3.10095246 C20.1740327,2.37483223 20.7619657,1.78746079 21.4875244,1.78746079 C22.2149109,1.78746079 22.8031244,2.37455176 22.8031244,3.10095246 L22.8031244,9.01482746 L23.0139577,9.01482746 Z M32.4911269,13.5875916 C34.1588186,13.5875916 35.8244019,14.2243083 37.0978352,15.493525 C39.6404852,18.036175 39.6404852,22.160075 37.0978352,24.702725 C35.8244019,25.9761583 34.1588186,26.6107666 32.4911269,26.6107666 C30.8255436,26.6107666 29.1599602,25.9761583 27.8865269,24.702725 C25.3438769,22.160075 25.3438769,18.036175 27.8865269,15.493525 C29.1599602,14.2243083 30.8255436,13.5875916 32.4911269,13.5875916 Z M32.4911269,16.328425 C31.4833436,16.328425 30.5367019,16.720575 29.8240852,17.4331916 C28.3545769,18.9027 28.3545769,21.2956583 29.8240852,22.767275 C30.5367019,23.4777833 31.4833436,23.8699333 32.4911269,23.8699333 C33.5010186,23.8699333 34.4476602,23.4777833 35.1602769,22.767275 C36.6297852,21.2956583 36.6297852,18.9027 35.1602769,17.4331916 C34.4476602,16.720575 33.5010186,16.328425 32.4911269,16.328425 Z M20.1006627,25.9801641 C21.7662461,25.9801641 23.4318294,26.6147725 24.7052627,27.8860975 C27.2479127,30.4287475 27.2479127,34.5526475 24.7052627,37.0952975 C23.4318294,38.3666225 21.7662461,39.0033391 20.1006627,39.0033391 C18.4329711,39.0033391 16.7673877,38.3666225 15.4939544,37.0952975 C12.9513044,34.5526475 12.9513044,30.4287475 15.4939544,27.8860975 C16.7673877,26.6147725 18.4329711,25.9801641 20.1006627,25.9801641 Z M20.1006627,28.7209975 C19.0907711,28.7209975 18.1462377,29.1110391 17.4336211,29.8236558 C15.9620044,31.2952725 15.9620044,33.6861225 17.4336211,35.1598475 C18.1462377,35.8703558 19.0907711,36.2625058 20.1006627,36.2625058 C21.1084461,36.2625058 22.0550877,35.8703558 22.7677044,35.1598475 C23.4803211,34.4472308 23.8703627,33.4984808 23.8703627,32.4906975 C23.8703627,31.4829141 23.4803211,30.5362725 22.7677044,29.8236558 C22.0550877,29.1110391 21.1084461,28.7209975 20.1006627,28.7209975 Z" id="形状结合" fill="#007AFF"></path>
                    </g>
                </g>
            </g>
        </g>
    </g>
</svg>