<?xml version="1.0" encoding="UTF-8"?>
<svg width="70px" height="70px" viewBox="0 0 70 70" version="1.1" xmlns="http://www.w3.org/2000/svg" xmlns:xlink="http://www.w3.org/1999/xlink">
    <!-- Generator: Sketch 55 (78076) - https://sketchapp.com -->
    <title>Dividend</title>
    <desc>Created with Sketch.</desc>
    <g id="页面-1" stroke="none" stroke-width="1" fill="none" fill-rule="evenodd">
        <g id="什么是vite" transform="translate(-1051.000000, -1671.000000)">
            <g id="编组-5" transform="translate(1026.000000, 1671.000000)">
                <g id="编组-2" transform="translate(25.000000, 0.000000)">
                    <circle id="椭圆形" fill="#F9F9F9" fill-rule="nonzero" cx="35" cy="35" r="35"></circle>
                    <g id="编组" transform="translate(10.000000, 12.000000)">
                        <path d="M50.7088098,26.328603 C50.8858586,26.4998165 51,26.7404234 51,27.0001621 C51,37.494449 42.4945216,46 32,46 C21.5058026,46 13,37.494449 13,27.0001621 C13,16.505551 21.5058026,8 32,8 C32.525634,8 32.9500973,8.42414261 32.9500973,8.95010539 L32.9500973,26.0500567 L49.9993173,26.0500567 C50.2778612,26.0500567 50.5249514,26.1577137 50.7088098,26.328603 Z M36.2917744,23.7332482 C36.1140454,23.5681935 36,23.3397812 36,23.0798525 L36,9.94370709 C36,9.32800105 36.5773753,8.87767462 37.1739206,9.02973289 C37.1804189,9.02973289 37.1865923,9.03623111 37.1930907,9.03623111 L37.1992641,9.03623111 C37.4341782,9.09341542 37.6690922,9.15677303 37.9036814,9.22662886 C44.0848788,11.0477541 48.9521168,15.9214168 50.7735946,22.0960225 C50.8369532,22.330933 50.90681,22.5658435 50.9639952,22.8004292 L50.9639952,22.8069274 C50.9639952,22.8131007 50.9701686,22.8195989 50.9701686,22.8257722 C51.1225541,23.4223085 50.671896,24 50.0565055,24 L36.9520032,24 C36.697919,24 36.4695033,23.8983029 36.2917744,23.7332482 C36.2982727,23.7397464 36.2982727,23.7397464 36.2917744,23.7332482 Z" id="形状结合备份" fill="#D5E5FC"></path>
                        <path d="M38.9648155,28.7619432 C39.8238096,26.7244223 40.3207393,24.580027 40.4414274,22.3647455 L21.3,22.3647455 C21.0160921,22.3647455 20.7605386,22.2513278 20.5689644,22.0739308 L20.561694,22.0666604 C20.3628494,21.881993 20.2352545,21.6195327 20.2352545,21.3283544 L20.2352545,2.15820903 C18.019973,2.27889716 15.8755777,2.77619039 13.8380568,3.63518449 C11.5587961,4.60068949 9.507098,5.98533126 7.74621463,7.74585111 C5.98533126,9.50673448 4.60105301,11.5515258 3.63518449,13.8376933 C2.6344182,16.2020173 2.13021811,18.708477 2.13021811,21.3 C2.13021811,23.891523 2.6344182,26.3976192 3.63518449,28.7619432 C4.60105301,31.0412039 5.98533126,33.092902 7.74621463,34.8537854 C9.507098,36.6146687 11.5587961,37.998947 13.8380568,38.964452 C16.2023808,39.9655818 18.708477,40.4697819 21.3,40.4697819 C23.891523,40.4697819 26.3979827,39.9655818 28.7623067,38.964452 C31.0412039,37.998947 33.0932655,36.6146687 34.8537854,34.8537854 C36.6146687,33.092902 37.9993105,31.0481107 38.9648155,28.7619432 Z M42.2735604,20.5471533 C42.4720415,20.739091 42.6,21.0088217 42.6,21.3 C42.6,33.0645476 33.0649111,42.5996365 21.3,42.5996365 C9.53545244,42.5996365 2.30926389e-13,33.0645476 2.30926389e-13,21.3 C2.30926389e-13,9.53508892 9.53545244,-6.39488462e-14 21.3,-6.39488462e-14 C21.8892634,-6.39488462e-14 22.3651091,0.475482131 22.3651091,1.06510906 L22.3651091,20.2348909 L41.4781821,20.2348909 C41.7904444,20.2348909 42.0674455,20.3555791 42.2735604,20.5471533 Z M28.7621613,3.63514814 C28.293586,3.43630355 27.8177404,3.25890654 27.3349879,3.09568676 L27.3349879,15.2648304 L39.504495,15.2648304 C39.3412752,14.7820779 39.1635147,14.3062322 38.9646701,13.8376569 C37.9991651,11.5587598 36.6148868,9.50669813 34.8540035,7.74617828 C33.0931201,5.98529491 31.041422,4.60065314 28.7621613,3.63514814 Z M25.5315729,17.0965998 C25.3327283,16.9119325 25.2051333,16.656379 25.2051333,16.3655642 L25.2051333,1.66851333 C25.2051333,0.979645868 25.8511056,0.475809298 26.5185254,0.645935932 C26.5257958,0.645935932 26.5327027,0.653206301 26.539973,0.653206301 L26.5468799,0.653206301 C26.8097037,0.717185548 27.0725276,0.788071646 27.3349879,0.866228112 C34.2505629,2.90374902 39.6960692,8.35652575 41.7339536,15.2648304 C41.8048397,15.5276542 41.8829962,15.790478 41.9469755,16.0529384 L41.9469755,16.0602087 C41.9469755,16.0671156 41.9538823,16.0743859 41.9538823,16.0812928 C42.1243725,16.7487127 41.6201724,17.3950485 40.9316684,17.3950485 L26.2702423,17.3950485 C25.9859709,17.3950485 25.7304174,17.2812672 25.5315729,17.0965998 C25.5388432,17.1038702 25.5388432,17.1038702 25.5315729,17.0965998 Z" id="形状结合" fill="#007AFF"></path>
                    </g>
                </g>
            </g>
        </g>
    </g>
</svg>