<?xml version="1.0" encoding="UTF-8"?>
<svg width="70px" height="70px" viewBox="0 0 70 70" version="1.1" xmlns="http://www.w3.org/2000/svg" xmlns:xlink="http://www.w3.org/1999/xlink">
    <!-- Generator: Sketch 55 (78076) - https://sketchapp.com -->
    <title>kyc</title>
    <desc>Created with Sketch.</desc>
    <g id="页面-1" stroke="none" stroke-width="1" fill="none" fill-rule="evenodd">
        <g id="什么是vite" transform="translate(-1259.000000, -1671.000000)">
            <g id="编组-6" transform="translate(1233.000000, 1671.000000)">
                <g id="编组-2" transform="translate(26.000000, 0.000000)">
                    <circle id="椭圆形" fill="#F9F9F9" fill-rule="nonzero" cx="35" cy="35" r="35"></circle>
                    <g id="编组" transform="translate(11.000000, 17.000000)">
                        <path d="M17.1764706,11.2941176 L48,11.2941176 L48,31.7647059 C48,33.9738449 46.209139,35.7647059 44,35.7647059 L13.1764706,35.7647059 L13.1764706,15.2941176 C13.1764706,13.0849786 14.9673316,11.2941176 17.1764706,11.2941176 Z" id="矩形" fill="#D5E5FC"></path>
                        <path d="M45.147897,25.7876559 L45.147897,0.322345699 L43.2138228,0.322345699 L43.2138228,25.4653102 C43.5361685,29.97815 40.9574029,29.97815 40.9574029,29.97815 L2.59826476,29.97815 L2.59826476,6.12456828 C1.95357337,2.25641989 5.17703035,2.25641989 5.17703035,2.25641989 L38.700983,2.25641989 L38.700983,-3.55271368e-14 L5.49937605,-3.55271368e-14 C-0.625192225,-3.55271368e-14 0.0194991727,6.44691398 0.0194991727,6.44691398 L0.0194991727,32.2345699 L40.9574029,32.2345699 C45.7925884,32.2345699 45.147897,25.7876559 45.147897,25.7876559 L45.147897,25.7876559 Z M23.2283895,20.307779 L34.1881432,20.307779 L34.1881432,18.3737048 L23.2283895,18.3737048 L23.2283895,20.307779 Z M23.2283895,16.4396306 L40.6350572,16.4396306 L40.6350572,14.5055564 L23.2283895,14.5055564 L23.2283895,16.4396306 Z M31.9317234,12.5714823 L36.4445631,12.5714823 L36.4445631,10.6374081 L31.9317234,10.6374081 L31.9317234,12.5714823 Z M23.2283895,12.5714823 L30.9646863,12.5714823 L30.9646863,10.6374081 L23.2283895,10.6374081 L23.2283895,12.5714823 Z M8.40048734,14.5055564 C8.40048734,11.9267909 10.3345615,9.99271666 12.9133271,9.99271666 C15.4920927,9.99271666 18.0708583,11.9267909 18.0708583,14.5055564 C18.0708583,17.084322 15.8144384,19.0183962 13.2356728,19.0183962 C10.6569072,19.0183962 8.40048734,16.7619763 8.40048734,14.5055564 L8.40048734,14.5055564 Z M21.2943153,24.8206188 L21.2943153,23.8535817 C20.9719696,21.5971618 16.1367841,21.5971618 15.8144384,21.5971618 L15.8144384,19.3407419 C17.7485126,18.3737048 19.0378954,16.4396306 19.0378954,14.1832107 C19.0378954,10.9597538 16.4591298,8.38098817 13.2356728,8.38098817 C10.0122158,8.38098817 7.43345025,11.2820995 7.43345025,14.1832107 C7.43345025,16.4396306 8.72283304,18.3737048 10.6569072,19.3407419 L10.6569072,21.5971618 C10.6569072,21.5971618 5.17703035,21.5971618 5.17703035,23.8535817 L5.17703035,24.8206188 L6.46641315,24.8206188 C6.46641315,24.8206188 5.49937605,22.5641989 10.9792529,22.8865446 L11.6239443,22.8865446 L11.6239443,19.6630876 C12.2686357,19.6630876 12.5909814,19.9854333 13.2356728,19.9854333 C13.8803642,19.9854333 14.2027099,19.9854333 14.8474013,19.6630876 L14.8474013,22.8865446 L15.4920927,22.8865446 C20.9719696,22.5641989 20.0049325,24.8206188 20.0049325,24.8206188 L21.2943153,24.8206188 Z" id="Fill-1" fill="#007AFF"></path>
                    </g>
                </g>
            </g>
        </g>
    </g>
</svg>