<?xml version="1.0" encoding="UTF-8"?>
<svg width="70px" height="70px" viewBox="0 0 70 70" version="1.1" xmlns="http://www.w3.org/2000/svg" xmlns:xlink="http://www.w3.org/1999/xlink">
    <!-- Generator: Sketch 55 (78076) - https://sketchapp.com -->
    <title>Order</title>
    <desc>Created with Sketch.</desc>
    <g id="页面-1" stroke="none" stroke-width="1" fill="none" fill-rule="evenodd">
        <g id="什么是vite" transform="translate(-384.000000, -1671.000000)">
            <g id="编组-2" transform="translate(361.000000, 1671.000000)">
                <g transform="translate(23.000000, 0.000000)">
                    <circle id="椭圆形" fill="#F9F9F9" fill-rule="nonzero" cx="35" cy="35" r="35"></circle>
                    <g id="编组" transform="translate(15.000000, 10.000000)">
                        <polygon id="Fill-1" fill="#D5E5FC" points="12.5110991 49.6474357 39.8281722 49.6474357 39.8281722 19.4035333 12.5110991 19.4035333"></polygon>
                        <path d="M14.7332696,3.81286039 L14.6957013,3.95958269 L13.1367349,3.95958269 C11.1583766,3.95975514 9.40429794,5.16555693 8.67665496,6.96897819 L8.50144029,7.09100701 C3.88134616,7.22682594 0.195121951,11.0165319 0.195121951,15.6499651 L0.195121951,39.4216002 C0.195121951,44.1506936 4.02875053,47.9843222 8.75784402,47.9843222 L30.0271003,47.9843222 C34.7559893,47.9843222 38.5895815,44.1506572 38.5895815,39.4216002 L38.5895815,15.6499651 C38.5895815,11.016687 34.9035104,7.22682613 30.2840825,7.09081799 L30.1089041,6.96885748 C29.3804699,5.16543068 27.6263023,3.95975511 25.6481301,3.95958269 L24.0891421,3.95958269 L24.0515769,3.81285493 C23.6158956,2.11110528 22.2870923,0.782301916 20.5853372,0.346619273 L20.3766451,0.298021006 C17.8720543,-0.227585799 15.3743154,1.30926812 14.7332696,3.81286039 Z M30.4432926,9.20995388 L30.6275202,9.22696519 C33.8530948,9.52481025 36.3590071,12.1831684 36.4738167,15.4179528 L36.4779283,15.6499651 L36.4779283,39.4216002 C36.4779283,42.9083828 33.7113627,45.7489881 30.2535673,45.8682865 L30.0271003,45.8721873 L8.75784402,45.8721873 C5.270976,45.8721873 2.43022167,43.1057688 2.31091699,39.6480616 L2.30701596,39.4216002 L2.30701596,15.6499651 C2.30701596,12.3888644 4.73769709,9.66178131 7.92781928,9.25278249 L8.15695416,9.22753469 L8.34409054,9.21026759 L8.36836881,9.39662408 C8.66906359,11.7047136 10.5925048,13.4684586 12.9176007,13.5734253 L13.1367179,13.5783722 L25.6481131,13.5783722 C27.9324101,13.5781731 29.8803778,11.97452 30.3494458,9.78651847 L30.3901844,9.5729864 L30.4432926,9.20995388 Z M25.0224433,35.2376796 L9.38343454,35.2376796 C8.80082748,35.2378829 8.32842833,35.7103449 8.32802159,36.2930924 C8.32781834,36.876417 8.80030628,37.3494079 9.38336646,37.3498145 L25.0223751,37.3498146 C25.6051131,37.3494079 26.0774495,36.8770716 26.0778562,36.2944018 C26.0780594,35.7109996 25.6055087,35.2378829 25.0224433,35.2376796 Z M31.2780813,27.7307841 L9.38350262,27.7307841 C8.80073324,27.7311908 8.32842828,28.2035586 8.3280216,28.7863698 C8.3280216,29.3696934 8.80047813,29.8427158 9.38336646,29.842919 L31.2781493,29.842919 C31.8609433,29.8427157 32.3333216,29.3703376 32.3333216,28.7874383 C32.333728,28.2041869 31.8612977,27.7311908 31.2780813,27.7307841 Z M26.2733238,20.2241295 L9.38350262,20.2241295 C8.80076468,20.2245361 8.32842828,20.6968725 8.32802159,21.2795423 C8.32781834,21.8628669 8.80030628,22.3358578 9.38336646,22.3362644 L26.2733237,22.3362645 C26.856271,22.3358578 27.3286389,21.8635529 27.3290458,21.2807837 C27.3294522,20.6974694 26.856959,20.2245362 26.2733238,20.2241295 Z M19.3908595,2.31959415 L19.5551862,2.32440511 C20.9685033,2.40837844 22.0891837,3.58098968 22.0896838,5.01565014 C22.0896838,5.55983556 22.5016292,6.00795044 23.0306949,6.06528049 L23.1457513,6.07147669 L25.6481301,6.07147669 C27.1376053,6.07147669 28.3451491,7.27918106 28.3451491,8.76870255 C28.3453991,10.2033028 27.2256809,11.3763869 25.8124507,11.4613141 L25.6481301,11.4662373 L13.1367179,11.4662373 C11.6472483,11.4662373 10.4397177,10.258787 10.439458,8.76921834 C10.439458,7.33440628 11.5591733,6.16132643 12.9723979,6.07639982 L13.1367179,6.07147669 L15.6390967,6.07147669 C16.2222676,6.07147669 16.6951641,5.59870594 16.6951641,5.01558207 C16.6956642,3.58210807 17.8145467,2.41014702 19.2266681,2.32459702 L19.3908595,2.31959415 Z" id="形状结合" fill="#007AFF" fill-rule="nonzero"></path>
                    </g>
                </g>
            </g>
        </g>
    </g>
</svg>