<?xml version="1.0" encoding="UTF-8"?>
<svg width="70px" height="70px" viewBox="0 0 70 70" version="1.1" xmlns="http://www.w3.org/2000/svg" xmlns:xlink="http://www.w3.org/1999/xlink">
    <!-- Generator: Sketch 55 (78076) - https://sketchapp.com -->
    <title>transaction</title>
    <desc>Created with Sketch.</desc>
    <g id="页面-1" stroke="none" stroke-width="1" fill="none" fill-rule="evenodd">
        <g id="什么是vite" transform="translate(-592.000000, -1671.000000)" fill-rule="nonzero">
            <g id="编组-3" transform="translate(567.000000, 1671.000000)">
                <g id="编组-2" transform="translate(25.000000, 0.000000)">
                    <circle id="椭圆形" fill="#F9F9F9" cx="35" cy="35" r="35"></circle>
                    <g id="编组" transform="translate(10.500000, 12.500000)">
                        <circle id="椭圆形" fill="#C2DBFE" cx="30.3" cy="28.3" r="18"></circle>
                        <path d="M21.3,-4.61852778e-14 C19.8470455,-4.61852778e-14 18.3896806,0.151341736 16.9276147,0.448311332 C16.3035545,0.578928592 15.90414,1.18692628 16.0335745,1.81975369 C16.1641917,2.44381393 16.7721894,2.84322847 17.4061695,2.71355368 C18.699045,2.44522103 20.0195171,2.30526316 21.3,2.30526316 C31.7834414,2.30526316 40.2947368,10.8165586 40.2947368,21.3 C40.2947368,31.7834 31.7834828,40.2945053 21.3,40.2945053 C10.8165172,40.2945053 2.30526316,31.7834 2.30526316,21.3 C2.30526316,17.5093222 3.43098328,13.8290833 5.54914374,10.6759204 C6.15319255,9.76984718 6.86349397,8.90435385 7.68986342,8.05294335 C8.13730445,7.59106874 8.12414898,6.87628808 7.65925914,6.42592605 C7.19738453,5.97848502 6.48260387,5.99164049 6.03067378,6.45814378 C5.15279096,7.35853642 4.34563261,8.34631762 3.63173018,9.39485236 C1.25736651,12.9115985 1.81188398e-13,17.03553 1.81188398e-13,21.3 C1.81188398e-13,33.0481375 9.55186248,42.6 21.3,42.6 C33.047987,42.6 42.6,33.0480564 42.6,21.3 C42.6,9.55194356 33.047987,-4.61852778e-14 21.3,-4.61852778e-14 Z M32.80952,23.2274379 L9.81373053,23.2274379 C9.34355599,23.2274379 8.91597569,23.5069274 8.74998,23.9219166 C8.57098101,24.3694141 8.66361888,24.8568504 8.98869568,25.1819272 L14.9637514,31.1567516 C15.1835741,31.3768492 15.4588104,31.4840484 15.7884674,31.4840484 C16.0968678,31.4840484 16.3889408,31.3664606 16.6135725,31.1563623 C17.0579937,30.7120844 17.0579937,29.9741388 16.6134723,29.5297608 L12.5933527,25.5093116 L32.8255876,25.509496 C33.4456758,25.5237331 33.9621516,25.0117539 33.9621516,24.3800695 C33.9621516,23.7478148 33.4417298,23.2274379 32.80952,23.2274379 Z M26.0329956,11.4665433 L25.9444665,11.5661512 C25.5906694,12.0150372 25.6201539,12.6806554 26.0329361,13.0933045 L30.0530558,17.1137537 L9.8213367,17.1135809 C9.17969914,17.0993223 8.66109895,17.6090575 8.66109895,18.2432274 C8.66109895,18.8754372 9.18147584,19.3958589 9.81373053,19.3958589 L32.80952,19.3958589 C33.2793701,19.3958589 33.7070098,19.1162215 33.8731137,18.7009619 C34.0522182,18.2535734 33.9596315,17.7664462 33.6343233,17.441138 L27.659497,11.4665433 C27.2152191,11.0221221 26.4772735,11.0221221 26.0329956,11.4665433 Z" id="形状结合" fill="#007AFF"></path>
                    </g>
                </g>
            </g>
        </g>
    </g>
</svg>