<?xml version="1.0" encoding="UTF-8"?>
<svg width="70px" height="70px" viewBox="0 0 70 70" version="1.1" xmlns="http://www.w3.org/2000/svg" xmlns:xlink="http://www.w3.org/1999/xlink">
    <!-- Generator: Sketch 55 (78076) - https://sketchapp.com -->
    <title>VX</title>
    <desc>Created with Sketch.</desc>
    <g id="页面-1" stroke="none" stroke-width="1" fill="none" fill-rule="evenodd">
        <g id="什么是vite" transform="translate(-822.000000, -1671.000000)" fill-rule="nonzero">
            <g id="编组-4" transform="translate(774.000000, 1671.000000)">
                <g id="编组-2" transform="translate(48.000000, 0.000000)">
                    <circle id="椭圆形" fill="#F9F9F9" cx="35" cy="35" r="35"></circle>
                    <g id="编组" transform="translate(11.000000, 12.000000)">
                        <g id="Group-13" transform="translate(4.674559, 6.860595)">
                            <path d="M22.0227532,30.8114964 L23.3761279,31.4741864 C25.4358353,32.4827375 28.2896519,33.0475583 31.2347097,33.0475583 C37.4216244,33.0475583 42.2460863,30.7254705 42.2460863,27.5552985 L42.2460863,5.49225978 C42.2460863,2.32208779 37.4216244,7.531753e-13 31.2347097,7.531753e-13 C25.047795,7.531753e-13 20.2233331,2.32208779 20.2233331,5.49225978 L20.2233331,15.1005725 L18.8699584,14.4378825 C16.810251,13.4293314 13.9564344,12.8645107 11.0113766,12.8645107 C4.8244619,12.8645107 1.12265752e-12,15.1865985 1.12265752e-12,18.3567705 L1.12265752e-12,33.0609868 C1.12265752e-12,36.2311588 4.8244619,38.5532466 11.0113766,38.5532466 C17.208577,38.5532466 22.0227532,36.2397075 22.0227532,33.0609868 L22.0227532,30.8114964 Z" id="Path" fill="#C2DBFE"></path>
                            <path d="M22.0227532,30.8114964 C22.0227532,23.4418172 22.0227532,19.2365279 22.0227532,18.1956284 C22.0227532,16.6342791 20.9296658,15.4464336 18.8699584,14.4378825 C16.810251,13.4293314 13.9564344,12.8645107 11.0113766,12.8645107 C4.8244619,12.8645107 4.15312229e-12,15.1865985 4.15312229e-12,18.3567705 L4.15312229e-12,33.0609868 C4.15312229e-12,36.2311588 4.8244619,38.5532466 11.0113766,38.5532466 C17.208577,38.5532466 22.0227532,36.2397075 22.0227532,33.0609868 L22.0227532,30.8114964 Z" id="Path" fill="#C7DEFF"></path>
                        </g>
                        <g id="iconfinder_currency_2318459" fill="#007AFF">
                            <path d="M23.0567483,31.9021831 L24.2747855,32.4986041 C26.3484086,33.5139691 29.2161883,34.0815534 32.1747052,34.0815534 C38.4070954,34.0815534 43.2800814,31.7361102 43.2800814,28.495294 L43.2800814,6.43225535 C43.2800814,3.1914392 38.4070954,0.845996006 32.1747052,0.845996006 C25.9423151,0.845996006 21.0693291,3.1914392 21.0693291,6.43225535 L21.0693291,15.889877 L19.8512918,15.293456 C17.7776688,14.278091 14.9098891,13.7105067 11.9513721,13.7105067 C5.71898201,13.7105067 0.845996006,16.0559499 0.845996006,19.296766 L0.845996006,34.0009823 C0.845996006,37.2417985 5.71898201,39.5872417 11.9513721,39.5872417 C18.1940587,39.5872417 23.0567483,37.2503886 23.0567483,34.0009823 L23.0567483,31.9021831 Z M2.83341519,30.0624775 L4.05145245,30.6588985 C6.12507549,31.6742635 8.99285519,32.2418478 11.9513721,32.2418478 C14.9098891,32.2418478 17.7776688,31.6742635 19.8512918,30.6588985 L21.0693291,30.0624775 L21.0693291,34.0009823 C21.0693291,35.8285868 16.8708446,37.5998225 11.9513721,37.5998225 C7.02222216,37.5998225 2.83341519,35.8377042 2.83341519,34.0009823 L2.83341519,30.0624775 Z M21.0693291,26.6555884 C21.0693291,28.483193 16.8708446,30.2544286 11.9513721,30.2544286 C7.02222216,30.2544286 2.83341519,28.4923103 2.83341519,26.6555884 L2.83341519,22.7036551 L4.05145245,23.3000761 C6.12507549,24.3154411 8.99285519,24.8830254 11.9513721,24.8830254 C14.9098891,24.8830254 17.7776688,24.3154411 19.8512918,23.3000761 L21.0693291,22.7036551 L21.0693291,26.6555884 Z M23.0567483,24.5433607 L24.2747855,25.1397817 C26.3484086,26.1551467 29.2161883,26.722731 32.1747052,26.722731 C35.1366966,26.722731 38.0034441,26.1575131 40.0750765,25.1446487 L41.2926622,24.5493457 L41.2926622,28.495294 C41.2926622,30.3228986 37.0941777,32.0941342 32.1747052,32.0941342 C27.2455552,32.0941342 23.0567483,30.3320159 23.0567483,28.495294 L23.0567483,24.5433607 Z M23.0567483,17.1979668 L24.2747855,17.7943878 C26.3484086,18.8097528 29.2161883,19.3773371 32.1747052,19.3773371 C35.1332222,19.3773371 38.0010019,18.8097528 40.0746249,17.7943878 L41.2926622,17.1979668 L41.2926622,21.1364716 C41.2926622,22.9640762 37.0941777,24.7353118 32.1747052,24.7353118 C27.2455552,24.7353118 23.0567483,22.9731935 23.0567483,21.1364716 L23.0567483,17.1979668 Z M41.2926622,13.7910777 C41.2926622,15.6186823 37.0941777,17.3899179 32.1747052,17.3899179 C27.2455552,17.3899179 23.0567483,15.6277996 23.0567483,13.7910777 L23.0567483,9.8391444 L24.2747855,10.4355654 C26.3484086,11.4509304 29.2161883,12.0185147 32.1747052,12.0185147 C35.1332222,12.0185147 38.0010019,11.4509304 40.0746249,10.4355654 L41.2926622,9.8391444 L41.2926622,13.7910777 Z M32.1747052,2.83341519 C37.1038552,2.83341519 41.2926622,4.59553351 41.2926622,6.43225535 C41.2926622,8.25985986 37.0941777,10.0310955 32.1747052,10.0310955 C27.2455552,10.0310955 23.0567483,8.26897718 23.0567483,6.43225535 C23.0567483,4.60465083 27.2552328,2.83341519 32.1747052,2.83341519 Z M11.9513721,15.6979259 C16.8708446,15.6979259 21.0693291,17.4691615 21.0693291,19.296766 C21.0693291,21.1243706 16.8708446,22.8956062 11.9513721,22.8956062 C7.02222216,22.8956062 2.83341519,21.1334879 2.83341519,19.296766 C2.83341519,17.4691615 7.03189966,15.6979259 11.9513721,15.6979259 Z" id="Combined-Shape"></path>
                        </g>
                    </g>
                </g>
            </g>
        </g>
    </g>
</svg>