<?xml version="1.0" encoding="UTF-8"?>
<svg width="80px" height="70px" viewBox="0 0 80 70" version="1.1" xmlns="http://www.w3.org/2000/svg" xmlns:xlink="http://www.w3.org/1999/xlink">
    <!-- Generator: Sketch 58 (84663) - https://sketch.com -->
    <title>dag</title>
    <desc>Created with Sketch.</desc>
    <defs>
        <linearGradient x1="97.328436%" y1="94.8454686%" x2="34.0015115%" y2="39.7706633%" id="linearGradient-1">
            <stop stop-color="#54B6FF" offset="0%"></stop>
            <stop stop-color="#2A7FFF" offset="100%"></stop>
        </linearGradient>
        <circle id="path-2" cx="45.0000056" cy="35" r="35"></circle>
        <filter x="-15.0%" y="-15.0%" width="130.0%" height="130.0%" filterUnits="objectBoundingBox" id="filter-3">
            <feMorphology radius="1.5" operator="dilate" in="SourceAlpha" result="shadowSpreadOuter1"></feMorphology>
            <feOffset dx="0" dy="0" in="shadowSpreadOuter1" result="shadowOffsetOuter1"></feOffset>
            <feGaussianBlur stdDeviation="2" in="shadowOffsetOuter1" result="shadowBlurOuter1"></feGaussianBlur>
            <feComposite in="shadowBlurOuter1" in2="SourceAlpha" operator="out" result="shadowBlurOuter1"></feComposite>
            <feColorMatrix values="0 0 0 0 0   0 0 0 0 0.478431373   0 0 0 0 1  0 0 0 0.1 0" type="matrix" in="shadowBlurOuter1"></feColorMatrix>
        </filter>
        <linearGradient x1="0%" y1="6.54885932%" x2="107.474795%" y2="105.502194%" id="linearGradient-4">
            <stop stop-color="#FFD343" offset="0%"></stop>
            <stop stop-color="#FF893B" offset="100%"></stop>
        </linearGradient>
        <linearGradient x1="47.8453902%" y1="0%" x2="52.3345842%" y2="100%" id="linearGradient-5">
            <stop stop-color="#83C3FF" offset="0%"></stop>
            <stop stop-color="#C6EEFF" offset="100%"></stop>
        </linearGradient>
        <linearGradient x1="50%" y1="90.7361541%" x2="50%" y2="25.0640252%" id="linearGradient-6">
            <stop stop-color="#83C3FF" offset="0%"></stop>
            <stop stop-color="#C6EEFF" offset="100%"></stop>
        </linearGradient>
        <linearGradient x1="3.85452822%" y1="48.5444873%" x2="100%" y2="51.4555127%" id="linearGradient-7">
            <stop stop-color="#83C3FF" offset="0%"></stop>
            <stop stop-color="#C6EEFF" offset="100%"></stop>
        </linearGradient>
    </defs>
    <g id="页面-1" stroke="none" stroke-width="1" fill="none" fill-rule="evenodd">
        <g id="代币" transform="translate(-922.000000, -1000.000000)">
            <g id="-mockplus-dup-|C043338C-F16F-4F87-88C5-7F43A061DFCB|icons/st/dapp备份-2-copy-2备份" transform="translate(922.000000, 1000.000000)">
                <g id="编组" transform="translate(-0.000006, 0.000000)">
                    <g id="椭圆形" fill-rule="nonzero">
                        <use fill="black" fill-opacity="1" filter="url(#filter-3)" xlink:href="#path-2"></use>
                        <circle stroke="#FFFFFF" stroke-width="3" stroke-linejoin="square" fill="url(#linearGradient-1)" fill-rule="evenodd" cx="45.0000056" cy="35" r="33.5"></circle>
                    </g>
                    <circle id="椭圆形" fill="url(#linearGradient-4)" cx="67.5000056" cy="12.5" r="12.5"></circle>
                    <polyline id="路径-4" stroke="#FFFFFF" stroke-width="2" stroke-linecap="round" stroke-linejoin="round" points="62.0000056 12.7805686 66.1905525 15.9966891 74.0000056 9"></polyline>
                    <path d="M54.4901056,67.95825 L11.4413556,67.95825 C10.7601056,67.95825 10.1922306,67.432875 10.1394806,66.75425 L7.17123063,28.90025 L8.59423063,28.90025 L17.5207306,61.219625 C17.6778556,61.78625 18.1929806,62.179 18.7801056,62.179 L55.4494806,62.179 L55.7919806,66.549375 C55.8512306,67.30925 55.2511056,67.95825 54.4901056,67.95825" id="Fill-1" fill="#EDF5FF"></path>
                    <path d="M55.7495056,66.007325 L17.6932556,66.007325 C15.9355056,66.007325 14.3825056,64.82395 13.9150056,63.130575 L8.24650563,42.60295 L7.17125563,28.898825 L8.59425563,28.898825 L17.5207556,61.21945 C17.6778806,61.786075 18.1930056,62.178825 18.7801306,62.178825 L55.4495056,62.178825 L55.7495056,66.007325 Z" id="Fill-3" fill="#DEEDFF"></path>
                    <path d="M7.77386813,35.5874 L5.85136813,64.87665 L4.84824313,64.28815 L1.14211813,63.8194 C0.383618125,63.7229 -0.131381875,62.998025 0.0294931252,62.249775 L7.17124313,28.900275 L7.77386813,35.5874 Z" id="Fill-5" fill="url(#linearGradient-5)"></path>
                    <polygon id="Fill-7" fill="url(#linearGradient-6)" points="7.17114313 28.8996 10.6688931 67.7036 4.84764313 64.288725"></polygon>
                    <path d="M62.6928681,63.394525 L17.6932431,63.394525 C17.1047431,63.394525 16.5896181,63.00165 16.4338681,62.436525 L9.35261813,36.7979 L57.0628681,36.7979 L63.9522431,61.7399 C64.1814931,62.571775 63.5556181,63.394525 62.6928681,63.394525" id="Fill-9" fill="#EAF6FF"></path>
                    <path d="M63.9520181,61.7402375 L55.1465181,29.8582375 C54.9901431,29.2918625 54.4747681,28.8996125 53.8871431,28.8996125 L7.17114313,28.8996125 L16.4335181,62.4358625 C16.5898931,63.0022375 17.1052681,63.3944875 17.6927681,63.3944875 L62.6928931,63.3944875 C63.5558931,63.3944875 64.1818931,62.5723625 63.9520181,61.7402375" id="Fill-11" fill="#FFFFFF"></path>
                    <path d="M62.6928681,63.394525 L57.9063681,63.394525 C58.7691181,63.394525 59.3949931,62.57165 59.1657431,61.739775 L52.2764931,36.7979 L57.0629931,36.7979 L63.9523681,61.7399 C64.1814931,62.571775 63.5556181,63.394525 62.6928681,63.394525" id="Fill-13" fill="#FFFFFF"></path>
                    <path d="M9.53045563,37.4421375 L7.17108063,28.8996375 L53.8874806,28.899275 C54.2730259,28.899275 54.6271193,29.0684163 54.8694035,29.3443945 C54.8828995,29.3599505 54.8958766,29.3754507 54.9085018,29.3912645 L54.9846421,29.4968171 C55.0554444,29.606272 55.1106825,29.7276212 55.1468556,29.85815 L55.1468556,29.85815 L57.2414806,37.44215 L52.4547306,37.44215 L9.53045563,37.4421375 Z" id="形状结合" fill="url(#linearGradient-7)"></path>
                    <path d="M24.6618681,48.095825 L22.9987431,42.9107 C22.8253681,42.36995 22.3224931,42.0032 21.7547431,42.0032 L17.9261181,42.0032 C17.0406181,42.0032 16.4117431,42.86545 16.6821181,43.708575 L18.3453681,48.89395 C18.5187431,49.43445 19.0216181,49.801325 19.5893681,49.801325 L23.4179931,49.801325 C24.3033681,49.80145 24.9323681,48.939075 24.6618681,48.095825" id="Fill-23" fill="#DBECFF"></path>
                    <path d="M31.6874931,43.361025 L29.9046181,43.361025 C29.3712431,43.361025 28.9388681,42.92865 28.9388681,42.395275 C28.9388681,41.861775 29.3712431,41.429525 29.9046181,41.429525 L31.6874931,41.429525 C32.2208681,41.429525 32.6532432,41.8619 32.6532432,42.395275 C32.6533681,42.92865 32.2208681,43.361025 31.6874931,43.361025" id="Fill-25" fill="#DBECFF"></path>
                    <path d="M39.0595223,43.361025 L37.2766473,43.361025 C36.7432723,43.361025 36.3108973,42.92865 36.3108973,42.395275 C36.3108973,41.861775 36.7432723,41.429525 37.2766473,41.429525 L39.0595223,41.429525 C39.5930223,41.429525 40.0253973,41.8619 40.0253973,42.395275 C40.0253973,42.92865 39.5930223,43.361025 39.0595223,43.361025" id="Fill-29" fill="#DBECFF"></path>
                    <path d="M46.4316764,43.361025 L44.6486764,43.361025 C44.1154264,43.361025 43.6830514,42.92865 43.6830514,42.395275 C43.6830514,41.861775 44.1154264,41.429525 44.6486764,41.429525 L46.4316764,41.429525 C46.9650514,41.429525 47.3974265,41.8619 47.3974265,42.395275 C47.3975514,42.92865 46.9650514,43.361025 46.4316764,43.361025" id="Fill-31" fill="#DBECFF"></path>
                    <path d="M53.8035806,43.361025 L52.0207056,43.361025 C51.4874556,43.361025 51.0550806,42.92865 51.0550806,42.395275 C51.0550806,41.861775 51.4874556,41.429525 52.0207056,41.429525 L53.8035806,41.429525 C54.3370806,41.429525 54.7694556,41.8619 54.7694556,42.395275 C54.7694556,42.92865 54.3370806,43.361025 53.8035806,43.361025" id="Fill-33" fill="#DBECFF"></path>
                    <path d="M32.9710056,48.626225 L31.1881306,48.626225 C30.6547556,48.626225 30.2223806,48.19385 30.2223806,47.660475 C30.2223806,47.1271 30.6547556,46.694725 31.1881306,46.694725 L32.9710056,46.694725 C33.5043806,46.694725 33.9367556,47.1271 33.9367556,47.660475 C33.9367556,48.19385 33.5043806,48.626225 32.9710056,48.626225" id="Fill-35" fill="#DBECFF"></path>
                    <path d="M40.3429723,48.626225 L38.5599723,48.626225 C38.0267223,48.626225 37.5943473,48.19385 37.5943473,47.660475 C37.5943473,47.1271 38.0267223,46.694725 38.5599723,46.694725 L40.3429723,46.694725 C40.8763473,46.694725 41.3087223,47.1271 41.3087223,47.660475 C41.3087223,48.19385 40.8763473,48.626225 40.3429723,48.626225" id="Fill-39" fill="#DBECFF"></path>
                    <path d="M47.714939,48.626225 L45.932064,48.626225 C45.398689,48.626225 44.966314,48.19385 44.966314,47.660475 C44.966314,47.1271 45.398689,46.694725 45.932064,46.694725 L47.714939,46.694725 C48.248439,46.694725 48.680814,47.1271 48.680814,47.660475 C48.680814,48.19385 48.248439,48.626225 47.714939,48.626225" id="Fill-41" fill="#DBECFF"></path>
                    <path d="M55.0870306,48.626225 L53.3040306,48.626225 C52.7707806,48.626225 52.3384056,48.19385 52.3384056,47.660475 C52.3384056,47.1271 52.7707806,46.694725 53.3040306,46.694725 L55.0870306,46.694725 C55.6204056,46.694725 56.0527806,47.1271 56.0527806,47.660475 C56.0527806,48.19385 55.6204056,48.626225 55.0870306,48.626225" id="Fill-43" fill="#DBECFF"></path>
                    <path d="M34.2542681,53.8916 L32.4713931,53.8916 C31.9380181,53.8916 31.5056431,53.459225 31.5056431,52.92585 C31.5056431,52.392475 31.9380181,51.9601 32.4713931,51.9601 L34.2542681,51.9601 C34.7876431,51.9601 35.2200181,52.392475 35.2200181,52.92585 C35.2200181,53.459225 34.7876431,53.8916 34.2542681,53.8916" id="Fill-45" fill="#DBECFF"></path>
                    <path d="M41.6263015,53.8916 L39.8434265,53.8916 C39.3100515,53.8916 38.8776765,53.459225 38.8776765,52.92585 C38.8776765,52.392475 39.3100515,51.9601 39.8434265,51.9601 L41.6263015,51.9601 C42.1596765,51.9601 42.5920515,52.392475 42.5920515,52.92585 C42.5920515,53.459225 42.1598015,53.8916 41.6263015,53.8916" id="Fill-49" fill="#DBECFF"></path>
                    <path d="M48.9983348,53.8916 L47.2153348,53.8916 C46.6820848,53.8916 46.2497098,53.459225 46.2497098,52.92585 C46.2497098,52.392475 46.6820848,51.9601 47.2153348,51.9601 L48.9983348,51.9601 C49.5317098,51.9601 49.9640848,52.392475 49.9640848,52.92585 C49.9640848,53.459225 49.5318348,53.8916 48.9983348,53.8916" id="Fill-51" fill="#DBECFF"></path>
                    <path d="M56.3702431,53.8916 L54.5874931,53.8916 C54.0541181,53.8916 53.6217431,53.459225 53.6217431,52.92585 C53.6217431,52.392475 54.0541181,51.9601 54.5874931,51.9601 L56.3703681,51.9601 C56.9038681,51.9601 57.3362431,52.392475 57.3362431,52.92585 C57.3362431,53.459225 56.9037431,53.8916 56.3702431,53.8916" id="Fill-53" fill="#DBECFF"></path>
                    <path d="M35.1456306,59.1568625 L33.3627556,59.1568625 C32.8293806,59.1568625 32.3970056,58.7244875 32.3970056,58.1911125 C32.3970056,57.6577375 32.8293806,57.2253625 33.3627556,57.2253625 L35.1456306,57.2253625 C35.6790056,57.2253625 36.1113806,57.6577375 36.1113806,58.1911125 C36.1113806,58.7244875 35.6790056,59.1568625 35.1456306,59.1568625" id="Fill-55" fill="#DBECFF"></path>
                    <path d="M42.5176598,59.1568625 L40.7347848,59.1568625 C40.2014098,59.1568625 39.7690348,58.7244875 39.7690348,58.1911125 C39.7690348,57.6577375 40.2014098,57.2253625 40.7347848,57.2253625 L42.5176598,57.2253625 C43.0511598,57.2253625 43.4835348,57.6577375 43.4835348,58.1911125 C43.4835348,58.7244875 43.0511598,59.1568625 42.5176598,59.1568625" id="Fill-59" fill="#DBECFF"></path>
                    <path d="M49.889814,59.1568625 L48.106814,59.1568625 C47.573564,59.1568625 47.141189,58.7244875 47.141189,58.1911125 C47.141189,57.6577375 47.573564,57.2253625 48.106814,57.2253625 L49.889814,57.2253625 C50.423189,57.2253625 50.855564,57.6577375 50.855564,58.1911125 C50.855564,58.7244875 50.423189,59.1568625 49.889814,59.1568625" id="Fill-61" fill="#DBECFF"></path>
                    <path d="M57.2617181,59.1568625 L55.4788431,59.1568625 C54.9455931,59.1568625 54.5132181,58.7244875 54.5132181,58.1911125 C54.5132181,57.6577375 54.9455931,57.2253625 55.4788431,57.2253625 L57.2617181,57.2253625 C57.7952181,57.2253625 58.2275931,57.6577375 58.2275931,58.1911125 C58.2275931,58.7244875 57.7952181,59.1568625 57.2617181,59.1568625" id="Fill-63" fill="#DBECFF"></path>
                    <path d="M22.2730056,59.24035 C21.8495056,59.24035 21.4608806,58.9596 21.3426306,58.531475 L20.1511306,54.2176 C20.0091306,53.70335 20.3108806,53.171475 20.8250056,53.029475 C21.3388806,52.887475 21.8710056,53.1891 22.0131306,53.703225 L23.2046306,58.0171 C23.3466306,58.53135 23.0448806,59.063225 22.5307556,59.205225 C22.4447556,59.228975 22.3582556,59.24035 22.2730056,59.24035" id="Fill-65" fill="#DBECFF"></path>
                    <path d="M25.5595056,59.24035 C25.1360056,59.24035 24.7473806,58.9596 24.6291306,58.531475 L24.0333806,56.374475 C23.8913806,55.860225 24.1931306,55.32835 24.7072556,55.18635 C25.2210056,55.04385 25.7532556,55.3461 25.8953806,55.8601 L26.4911306,58.0171 C26.6331306,58.53135 26.3313806,59.063225 25.8172556,59.205225 C25.7311306,59.228975 25.6446306,59.24035 25.5595056,59.24035" id="Fill-67" fill="#DBECFF"></path>
                </g>
            </g>
        </g>
    </g>
</svg>