<?xml version="1.0" encoding="UTF-8"?>
<svg width="80px" height="70px" viewBox="0 0 80 70" version="1.1" xmlns="http://www.w3.org/2000/svg" xmlns:xlink="http://www.w3.org/1999/xlink">
    <!-- Generator: Sketch 58 (84663) - https://sketch.com -->
    <title>name</title>
    <desc>Created with Sketch.</desc>
    <defs>
        <linearGradient x1="97.328436%" y1="94.8454686%" x2="34.0015115%" y2="39.7706633%" id="linearGradient-1">
            <stop stop-color="#54B6FF" offset="0%"></stop>
            <stop stop-color="#2A7FFF" offset="100%"></stop>
        </linearGradient>
        <circle id="path-2" cx="45" cy="35" r="35"></circle>
        <filter x="-15.0%" y="-15.0%" width="130.0%" height="130.0%" filterUnits="objectBoundingBox" id="filter-3">
            <feMorphology radius="1.5" operator="dilate" in="SourceAlpha" result="shadowSpreadOuter1"></feMorphology>
            <feOffset dx="0" dy="0" in="shadowSpreadOuter1" result="shadowOffsetOuter1"></feOffset>
            <feGaussianBlur stdDeviation="2" in="shadowOffsetOuter1" result="shadowBlurOuter1"></feGaussianBlur>
            <feComposite in="shadowBlurOuter1" in2="SourceAlpha" operator="out" result="shadowBlurOuter1"></feComposite>
            <feColorMatrix values="0 0 0 0 0   0 0 0 0 0.478431373   0 0 0 0 1  0 0 0 0.1 0" type="matrix" in="shadowBlurOuter1"></feColorMatrix>
        </filter>
        <rect id="path-4" x="0" y="7" width="65" height="41" rx="2"></rect>
        <filter x="-16.2%" y="-25.6%" width="132.3%" height="151.2%" filterUnits="objectBoundingBox" id="filter-5">
            <feMorphology radius="1.5" operator="dilate" in="SourceAlpha" result="shadowSpreadOuter1"></feMorphology>
            <feOffset dx="0" dy="0" in="shadowSpreadOuter1" result="shadowOffsetOuter1"></feOffset>
            <feGaussianBlur stdDeviation="2" in="shadowOffsetOuter1" result="shadowBlurOuter1"></feGaussianBlur>
            <feColorMatrix values="0 0 0 0 0   0 0 0 0 0.478431373   0 0 0 0 1  0 0 0 0.1 0" type="matrix" in="shadowBlurOuter1"></feColorMatrix>
        </filter>
        <linearGradient x1="3.85452822%" y1="48.295858%" x2="100%" y2="51.704142%" id="linearGradient-6">
            <stop stop-color="#83C3FF" offset="0%"></stop>
            <stop stop-color="#C6EEFF" offset="100%"></stop>
        </linearGradient>
        <linearGradient x1="0%" y1="6.54885932%" x2="107.474795%" y2="105.502194%" id="linearGradient-7">
            <stop stop-color="#FFD343" offset="0%"></stop>
            <stop stop-color="#FF893B" offset="100%"></stop>
        </linearGradient>
    </defs>
    <g id="页面-1" stroke="none" stroke-width="1" fill="none" fill-rule="evenodd">
        <g id="代币" transform="translate(-644.000000, -1000.000000)">
            <g id="-mockplus-dup-|07989310-9886-45E1-8D8A-687817531373|icons/st/dapp备份-2-copy-2" transform="translate(644.000000, 1000.000000)">
                <g id="编组">
                    <g id="椭圆形" fill-rule="nonzero">
                        <use fill="black" fill-opacity="1" filter="url(#filter-3)" xlink:href="#path-2"></use>
                        <circle stroke="#FFFFFF" stroke-width="3" stroke-linejoin="square" fill="url(#linearGradient-1)" fill-rule="evenodd" cx="45" cy="35" r="33.5"></circle>
                    </g>
                    <g id="矩形" fill-rule="nonzero">
                        <use fill="black" fill-opacity="1" filter="url(#filter-5)" xlink:href="#path-4"></use>
                        <use fill="#FFFFFF" xlink:href="#path-4"></use>
                    </g>
                    <path d="M2,7 L63,7 C64.1045695,7 65,7.8954305 65,9 L65,19 L65,19 L0,19 L0,9 C-1.3527075e-16,7.8954305 0.8954305,7 2,7 Z" id="矩形" fill="url(#linearGradient-6)"></path>
                    <circle id="椭圆形备份-14" fill="#007AFF" cx="13" cy="13" r="1"></circle>
                    <circle id="椭圆形" fill="#007AFF" cx="5" cy="13" r="1"></circle>
                    <circle id="椭圆形备份" fill="#007AFF" cx="9" cy="13" r="1"></circle>
                    <rect id="矩形" fill="#DBECFF" x="6" y="23" width="20" height="20" rx="2"></rect>
                    <rect id="矩形备份" fill="#DBECFF" x="30" y="24" width="31" height="3"></rect>
                    <rect id="矩形备份-2" fill="#DBECFF" x="30" y="32" width="18" height="3"></rect>
                    <circle id="椭圆形" fill="url(#linearGradient-7)" cx="61.5" cy="49.5" r="12.5"></circle>
                    <path d="M61.7672811,42.66 C63.3156759,42.66 64.5814083,43.0593816 65.5645161,43.8581567 C66.5230463,44.6323541 67.1067578,45.6891792 67.3156682,47.0286636 L65.3617512,47.0286636 C65.1405519,46.1315777 64.7165899,45.4741342 64.0898618,45.0563134 C63.4754194,44.6384925 62.6889449,44.4295853 61.7304147,44.4295853 C60.3049084,44.4295853 59.2357947,44.9149875 58.5230415,45.8858065 C57.8471548,46.7583147 57.5092166,47.968748 57.5092166,49.5171429 C57.5092166,51.0901154 57.8410105,52.3128374 58.5046083,53.1853456 C59.2050726,54.1070092 60.2926194,54.5678341 61.7672811,54.5678341 C62.7381001,54.5678341 63.5368632,54.3282052 64.1635945,53.8489401 C64.8271923,53.3328085 65.2880171,52.5586227 65.5460829,51.5263594 L67.5,51.5263594 C67.2050676,53.0624654 66.5169025,54.2606101 65.4354839,55.1208295 C64.4277983,55.9318935 63.2112206,56.3374194 61.7857143,56.3374194 C59.6351659,56.3374194 58.0130623,55.6492542 56.9193548,54.2729032 C55.9731135,53.1054627 55.5,51.5202251 55.5,49.5171429 C55.5,47.5509272 55.9915465,45.9595453 56.9746544,44.7429493 C58.0683618,43.3543095 59.6658881,42.66 61.7672811,42.66 Z" id="C" fill="#FFFFFF" fill-rule="nonzero"></path>
                </g>
            </g>
        </g>
    </g>
</svg>