<svg xmlns="http://www.w3.org/2000/svg" width="100" height="100" viewBox="0 0 100 100">
  <g fill="none" fill-rule="evenodd">
    <path fill="#FFF" d="M50,100 C22.4303571,100 0,77.5696429 0,50 C0,22.4303571 22.4303571,0 50,0 C77.5696429,0 100,22.4303571 100,50 C100,77.5696429 77.5696429,100 50,100"/>
    <path fill="#007AFF" fill-rule="nonzero" d="M68.3333333,50.4173164 C68.3333333,51.026461 68.0269792,51.5943987 67.5205208,51.9240534 L49.7944792,63.4530103 C48.9692708,63.9869076 47.8766667,63.746833 47.3471875,62.9173214 C46.8194792,62.0842266 47.0567708,60.9770168 47.8784375,60.4413279 L63.2882292,50.4173164 L43.5416667,37.5751154 L43.5416667,66.5417316 C43.5416667,67.5324874 42.7483333,68.3333333 41.7708333,68.3333333 C40.7933333,68.3333333 40,67.5324874 40,66.5417316 L40,34.2929011 C40,33.6371749 40.3541667,33.0351967 40.9226042,32.7198748 C41.4892708,32.4063445 42.1816667,32.4278438 42.7288542,32.7861641 L67.5205208,48.9105794 C68.0269792,49.2402341 68.3333333,49.8081718 68.3333333,50.4173164"/>
  </g>
</svg>
