<?xml version="1.0" encoding="UTF-8"?>
<svg width="36px" height="36px" viewBox="0 0 36 36" version="1.1" xmlns="http://www.w3.org/2000/svg" xmlns:xlink="http://www.w3.org/1999/xlink">
    <!-- Generator: Sketch 53.2 (72643) - https://sketchapp.com -->
    <title>全节点</title>
    <desc>Created with Sketch.</desc>
    <defs>
        <rect id="path-1" x="0" y="0" width="1921" height="3568"></rect>
        <polygon id="path-3" points="976 774 1546 774 1546 1149 976 1149"></polygon>
        <filter x="-5.3%" y="-8.0%" width="110.5%" height="116.0%" filterUnits="objectBoundingBox" id="filter-4">
            <feOffset dx="0" dy="0" in="SourceAlpha" result="shadowOffsetOuter1"></feOffset>
            <feGaussianBlur stdDeviation="10" in="shadowOffsetOuter1" result="shadowBlurOuter1"></feGaussianBlur>
            <feColorMatrix values="0 0 0 0 0.82745098   0 0 0 0 0.917647059   0 0 0 0 1  0 0 0 1 0" type="matrix" in="shadowBlurOuter1"></feColorMatrix>
        </filter>
        <linearGradient x1="47.2262377%" y1="100%" x2="52.7737623%" y2="0%" id="linearGradient-5">
            <stop stop-color="#80BCFF" offset="0%"></stop>
            <stop stop-color="#FFFFFF" offset="100%"></stop>
        </linearGradient>
        <linearGradient x1="100%" y1="45.6178065%" x2="0%" y2="51.1277369%" id="linearGradient-6">
            <stop stop-color="#80BCFF" offset="0%"></stop>
            <stop stop-color="#FFFFFF" offset="100%"></stop>
        </linearGradient>
        <linearGradient x1="45.8739784%" y1="2.83276945e-14%" x2="54.1260216%" y2="100%" id="linearGradient-7">
            <stop stop-color="#B3D7FF" offset="0%"></stop>
            <stop stop-color="#FFFFFF" offset="100%"></stop>
        </linearGradient>
        <linearGradient x1="0%" y1="53.100901%" x2="100%" y2="46.899099%" id="linearGradient-8">
            <stop stop-color="#80BCFF" offset="0%"></stop>
            <stop stop-color="#FFFFFF" offset="100%"></stop>
        </linearGradient>
        <linearGradient x1="100%" y1="100%" x2="100%" y2="0%" id="linearGradient-9">
            <stop stop-color="#80BCFF" offset="0%"></stop>
            <stop stop-color="#FFFFFF" offset="100%"></stop>
        </linearGradient>
        <linearGradient x1="-35.5974927%" y1="44.5619089%" x2="100%" y2="55.4380911%" id="linearGradient-10">
            <stop stop-color="#80BCFF" offset="0%"></stop>
            <stop stop-color="#FFFFFF" offset="100%"></stop>
        </linearGradient>
        <linearGradient x1="41.1285339%" y1="0%" x2="55.1820829%" y2="100%" id="linearGradient-11">
            <stop stop-color="#80BCFF" offset="0%"></stop>
            <stop stop-color="#FFFFFF" offset="100%"></stop>
        </linearGradient>
        <linearGradient x1="0%" y1="53.8364099%" x2="100%" y2="46.1635901%" id="linearGradient-12">
            <stop stop-color="#80BCFF" offset="0%"></stop>
            <stop stop-color="#FFFFFF" offset="100%"></stop>
        </linearGradient>
        <linearGradient x1="92.7383601%" y1="100%" x2="7.26163985%" y2="0%" id="linearGradient-13">
            <stop stop-color="#007AFF" offset="0%"></stop>
            <stop stop-color="#3EADFF" offset="100%"></stop>
        </linearGradient>
    </defs>
    <g id="Page-1" stroke="none" stroke-width="1" fill="none" fill-rule="evenodd">
        <g id="产品" transform="translate(-996.000000, -786.000000)">
            <rect fill="#FFFFFF" x="0" y="0" width="1920" height="3568"></rect>
            <g id="Group-7">
                <g id="Group-4">
                    <mask id="mask-2" fill="white">
                        <use xlink:href="#path-1"></use>
                    </mask>
                    <rect stroke="#979797" x="0.5" y="0.5" width="1920" height="3567"></rect>
                </g>
            </g>
            <g id="Rectangle">
                <use fill="black" fill-opacity="1" filter="url(#filter-4)" xlink:href="#path-3"></use>
                <use fill="#FFFFFF" fill-rule="evenodd" xlink:href="#path-3"></use>
            </g>
            <path d="M978,774 L1544,774 C1545.10457,774 1546,774.895431 1546,776 L1546,834 L976,834 L976,776 C976,774.895431 976.895431,774 978,774 Z" id="Rectangle" fill="#F2F8FF"></path>
            <g id="节点" transform="translate(996.000000, 786.000000)">
                <path d="M17.64,36 L17.64,33.84 C26.3881904,33.84 33.48,26.7481904 33.48,18 L35.64,18 C35.64,27.9411255 27.5811255,36 17.64,36 Z M17.64,0 L17.64,2.16 C10.3658687,2.16 4.07769685,7.10513501 2.29580793,14.0514893 L0.203549964,13.5147803 C2.22905585,5.61873166 9.37376477,0 17.64,0 Z" id="Shape" fill="#B3D7FF" fill-rule="nonzero"></path>
                <path d="M7.67184013,9.43838768 L8.49082042,10.1424269 C6.62369134,12.3143824 5.58,15.0757884 5.58,18 C5.58,20.8493504 6.57067091,23.5449324 8.35176948,25.6928828 L7.52040643,26.382256 C5.58006464,24.0422632 4.5,21.1034439 4.5,18 C4.5,14.814979 5.63785102,11.8044447 7.67184013,9.43838768 Z" id="Path" fill="url(#linearGradient-5)" fill-rule="nonzero"></path>
                <path d="M10.1417492,28.7919025 L10.758739,27.905492 C12.7631715,29.3006859 15.1440128,30.06 17.64,30.06 C21.1300261,30.06 24.3782903,28.570058 26.6533183,26.0129221 L27.4602041,26.7307908 C24.9823377,29.5159173 21.4416298,31.14 17.64,31.14 C14.9216097,31.14 12.3258164,30.3121319 10.1417492,28.7919025 Z" id="Path" fill="url(#linearGradient-6)" fill-rule="nonzero"></path>
                <path d="M29.0432481,24.5331247 L28.1066267,23.995407 C29.1455117,22.1858291 29.7,20.1339465 29.7,18 C29.7,14.8057224 28.4533499,11.8095035 26.2649667,9.5706659 L27.0372951,8.81574278 C29.4209788,11.2543838 30.78,14.520677 30.78,18 C30.78,20.3238959 30.1754646,22.5609777 29.0432481,24.5331247 Z" id="Path" fill="url(#linearGradient-7)" fill-rule="nonzero"></path>
                <path d="M24.4817935,6.77961157 L23.9186916,7.70119516 C22.043153,6.55521201 19.8874561,5.94 17.64,5.94 C14.8401403,5.94 12.188243,6.89638968 10.0574246,8.62139116 L9.37787784,7.78197696 C11.699266,5.90269994 14.5904862,4.86 17.64,4.86 C20.0875789,4.86 22.4378833,5.53075081 24.4817935,6.77961157 Z" id="Path" fill="url(#linearGradient-8)" fill-rule="nonzero"></path>
                <path d="M8.91496511,12.5991852 L9.83275807,13.1684445 C8.93995838,14.6078682 8.46,16.2679141 8.46,18 C8.46,19.098989 8.65293552,20.1706691 9.02528825,21.1792515 L8.01212873,21.553294 C7.59572825,20.4254005 7.38,19.2271159 7.38,18 C7.38,16.0652942 7.91688841,14.2083427 8.91496511,12.5991852 Z" id="Path" fill="url(#linearGradient-9)" fill-rule="nonzero"></path>
                <path d="M15.2653393,27.9836808 L15.5144095,26.9327936 C16.2051169,27.0964978 16.9168948,27.18 17.64,27.18 C19.5324358,27.18 21.3376588,26.6067231 22.8597778,25.5526492 L23.4746426,26.440535 C21.7733033,27.6187199 19.753941,28.26 17.64,28.26 C16.8328685,28.26 16.0375092,28.1666924 15.2653393,27.9836808 Z" id="Path" fill="url(#linearGradient-10)" fill-rule="nonzero"></path>
                <path d="M27.6705403,20.1673435 L26.6146904,19.940229 C26.7507551,19.3076675 26.82,18.6584926 26.82,18 C26.82,16.2938299 26.3543374,14.6574002 25.4865808,13.232452 L26.4090011,12.6707219 C27.3791053,14.2637357 27.9,16.0942617 27.9,18 C27.9,18.7349572 27.8226349,19.4602592 27.6705403,20.1673435 Z" id="Path" fill="url(#linearGradient-11)" fill-rule="nonzero"></path>
                <path d="M20.8942144,8.26697215 L20.551884,9.2912816 C19.6216119,8.98037901 18.6420403,8.82 17.64,8.82 C15.9836695,8.82 14.3927741,9.25878371 12.9965011,10.0792094 L12.449371,9.14805497 C14.0103987,8.23082224 15.7899699,7.74 17.64,7.74 C18.7587783,7.74 19.8539268,7.91930168 20.8942144,8.26697215 Z" id="Path" fill="url(#linearGradient-12)" fill-rule="nonzero"></path>
                <path d="M26.6069544,24.8692825 C25.733526,25.9427705 24.1511502,26.1112671 23.0704497,25.2444932 C22.3553078,24.6712321 22.0511239,23.7923128 22.1743623,22.9498296 C22.2215549,22.6250626 22.3273509,22.3053967 22.5065846,22.0118029 L21.2799052,21.021794 C19.6729958,22.7831143 16.9880756,23.0644818 15.0435645,21.6766719 L14.0092414,22.9447286 C14.0110346,22.9464289 14.0136428,22.9499106 14.0154359,22.9499106 C15.1519687,24.0685793 15.2761853,25.8803433 14.2497684,27.143137 C13.1569233,28.4928105 11.1704361,28.7013059 9.81359005,27.6138912 C8.45845563,26.5282579 8.24515196,24.5549605 9.33970868,23.2086877 C9.41754781,23.1114439 9.50761299,23.0350091 9.59327678,22.9499106 C10.6608547,21.9076766 12.3263676,21.744443 13.5722827,22.5886266 L14.6048126,21.3205699 C12.848338,19.7190016 12.5747192,17.0561716 13.9779427,15.133237 L12.7259146,14.1221762 C11.9522507,14.7874991 10.787598,14.8308985 9.96315529,14.1708386 C9.03723642,13.4273806 8.89215406,12.0794884 9.64055081,11.1570887 C10.3889476,10.2363893 11.7457936,10.0922643 12.6743207,10.8356414 C13.5521505,11.5408821 13.7181801,12.7863484 13.0957116,13.6966027 L14.3346171,14.6971376 C15.9424231,12.9670714 18.6011795,12.6960679 20.5298783,14.0665504 L21.5196171,12.8542005 C20.5483804,11.8987654 20.43207,10.3563045 21.3089216,9.27585316 C22.2443768,8.12601133 23.9405363,7.94528835 25.1007061,8.87287008 C26.2591643,9.80393347 26.4401097,11.4888999 25.5055511,12.6405231 C24.6321227,13.714092 23.1046826,13.9311701 21.9628518,13.2051204 L20.9696897,14.4192517 C22.7286911,16.0120754 23.0138023,18.6594403 21.635846,20.5857755 L22.8546193,21.568983 C23.7498915,20.6517653 25.2100069,20.5371131 26.2294957,21.3553866 C26.7452717,21.7687337 27.0468474,22.3453955 27.1334892,22.9499106 C27.2268147,23.6116708 27.0615186,24.3082478 26.6069544,24.8692825 Z" id="Path" fill="url(#linearGradient-13)" fill-rule="evenodd"></path>
            </g>
            <g id="市场" transform="translate(996.000000, 786.000000)">
                <path d="M17.64,36 L17.64,33.84 C26.3881904,33.84 33.48,26.7481904 33.48,18 L35.64,18 C35.64,27.9411255 27.5811255,36 17.64,36 Z M17.64,0 L17.64,2.16 C10.3658687,2.16 4.07769685,7.10513501 2.29580793,14.0514893 L0.203549964,13.5147803 C2.22905585,5.61873166 9.37376477,0 17.64,0 Z" id="Shape" fill="#B3D7FF" fill-rule="nonzero"></path>
                <path d="M7.67184013,9.43838768 L8.49082042,10.1424269 C6.62369134,12.3143824 5.58,15.0757884 5.58,18 C5.58,20.8493504 6.57067091,23.5449324 8.35176948,25.6928828 L7.52040643,26.382256 C5.58006464,24.0422632 4.5,21.1034439 4.5,18 C4.5,14.814979 5.63785102,11.8044447 7.67184013,9.43838768 Z" id="Path" fill="url(#linearGradient-5)" fill-rule="nonzero"></path>
                <path d="M10.1417492,28.7919025 L10.758739,27.905492 C12.7631715,29.3006859 15.1440128,30.06 17.64,30.06 C21.1300261,30.06 24.3782903,28.570058 26.6533183,26.0129221 L27.4602041,26.7307908 C24.9823377,29.5159173 21.4416298,31.14 17.64,31.14 C14.9216097,31.14 12.3258164,30.3121319 10.1417492,28.7919025 Z" id="Path" fill="url(#linearGradient-6)" fill-rule="nonzero"></path>
                <path d="M29.0432481,24.5331247 L28.1066267,23.995407 C29.1455117,22.1858291 29.7,20.1339465 29.7,18 C29.7,14.8057224 28.4533499,11.8095035 26.2649667,9.5706659 L27.0372951,8.81574278 C29.4209788,11.2543838 30.78,14.520677 30.78,18 C30.78,20.3238959 30.1754646,22.5609777 29.0432481,24.5331247 Z" id="Path" fill="url(#linearGradient-7)" fill-rule="nonzero"></path>
                <path d="M24.4817935,6.77961157 L23.9186916,7.70119516 C22.043153,6.55521201 19.8874561,5.94 17.64,5.94 C14.8401403,5.94 12.188243,6.89638968 10.0574246,8.62139116 L9.37787784,7.78197696 C11.699266,5.90269994 14.5904862,4.86 17.64,4.86 C20.0875789,4.86 22.4378833,5.53075081 24.4817935,6.77961157 Z" id="Path" fill="url(#linearGradient-8)" fill-rule="nonzero"></path>
                <path d="M8.91496511,12.5991852 L9.83275807,13.1684445 C8.93995838,14.6078682 8.46,16.2679141 8.46,18 C8.46,19.098989 8.65293552,20.1706691 9.02528825,21.1792515 L8.01212873,21.553294 C7.59572825,20.4254005 7.38,19.2271159 7.38,18 C7.38,16.0652942 7.91688841,14.2083427 8.91496511,12.5991852 Z" id="Path" fill="url(#linearGradient-9)" fill-rule="nonzero"></path>
                <path d="M15.2653393,27.9836808 L15.5144095,26.9327936 C16.2051169,27.0964978 16.9168948,27.18 17.64,27.18 C19.5324358,27.18 21.3376588,26.6067231 22.8597778,25.5526492 L23.4746426,26.440535 C21.7733033,27.6187199 19.753941,28.26 17.64,28.26 C16.8328685,28.26 16.0375092,28.1666924 15.2653393,27.9836808 Z" id="Path" fill="url(#linearGradient-10)" fill-rule="nonzero"></path>
                <path d="M27.6705403,20.1673435 L26.6146904,19.940229 C26.7507551,19.3076675 26.82,18.6584926 26.82,18 C26.82,16.2938299 26.3543374,14.6574002 25.4865808,13.232452 L26.4090011,12.6707219 C27.3791053,14.2637357 27.9,16.0942617 27.9,18 C27.9,18.7349572 27.8226349,19.4602592 27.6705403,20.1673435 Z" id="Path" fill="url(#linearGradient-11)" fill-rule="nonzero"></path>
                <path d="M20.8942144,8.26697215 L20.551884,9.2912816 C19.6216119,8.98037901 18.6420403,8.82 17.64,8.82 C15.9836695,8.82 14.3927741,9.25878371 12.9965011,10.0792094 L12.449371,9.14805497 C14.0103987,8.23082224 15.7899699,7.74 17.64,7.74 C18.7587783,7.74 19.8539268,7.91930168 20.8942144,8.26697215 Z" id="Path" fill="url(#linearGradient-12)" fill-rule="nonzero"></path>
                <path d="M26.6069544,24.8692825 C25.733526,25.9427705 24.1511502,26.1112671 23.0704497,25.2444932 C22.3553078,24.6712321 22.0511239,23.7923128 22.1743623,22.9498296 C22.2215549,22.6250626 22.3273509,22.3053967 22.5065846,22.0118029 L21.2799052,21.021794 C19.6729958,22.7831143 16.9880756,23.0644818 15.0435645,21.6766719 L14.0092414,22.9447286 C14.0110346,22.9464289 14.0136428,22.9499106 14.0154359,22.9499106 C15.1519687,24.0685793 15.2761853,25.8803433 14.2497684,27.143137 C13.1569233,28.4928105 11.1704361,28.7013059 9.81359005,27.6138912 C8.45845563,26.5282579 8.24515196,24.5549605 9.33970868,23.2086877 C9.41754781,23.1114439 9.50761299,23.0350091 9.59327678,22.9499106 C10.6608547,21.9076766 12.3263676,21.744443 13.5722827,22.5886266 L14.6048126,21.3205699 C12.848338,19.7190016 12.5747192,17.0561716 13.9779427,15.133237 L12.7259146,14.1221762 C11.9522507,14.7874991 10.787598,14.8308985 9.96315529,14.1708386 C9.03723642,13.4273806 8.89215406,12.0794884 9.64055081,11.1570887 C10.3889476,10.2363893 11.7457936,10.0922643 12.6743207,10.8356414 C13.5521505,11.5408821 13.7181801,12.7863484 13.0957116,13.6966027 L14.3346171,14.6971376 C15.9424231,12.9670714 18.6011795,12.6960679 20.5298783,14.0665504 L21.5196171,12.8542005 C20.5483804,11.8987654 20.43207,10.3563045 21.3089216,9.27585316 C22.2443768,8.12601133 23.9405363,7.94528835 25.1007061,8.87287008 C26.2591643,9.80393347 26.4401097,11.4888999 25.5055511,12.6405231 C24.6321227,13.714092 23.1046826,13.9311701 21.9628518,13.2051204 L20.9696897,14.4192517 C22.7286911,16.0120754 23.0138023,18.6594403 21.635846,20.5857755 L22.8546193,21.568983 C23.7498915,20.6517653 25.2100069,20.5371131 26.2294957,21.3553866 C26.7452717,21.7687337 27.0468474,22.3453955 27.1334892,22.9499106 C27.2268147,23.6116708 27.0615186,24.3082478 26.6069544,24.8692825 Z" id="Path" fill="url(#linearGradient-13)"></path>
            </g>
        </g>
    </g>
</svg>