<?xml version="1.0" encoding="UTF-8"?>
<svg width="36px" height="36px" viewBox="0 0 36 36" version="1.1" xmlns="http://www.w3.org/2000/svg" xmlns:xlink="http://www.w3.org/1999/xlink">
    <!-- Generator: Sketch 53.2 (72643) - https://sketchapp.com -->
    <title>超级节点</title>
    <desc>Created with Sketch.</desc>
    <defs>
        <rect id="path-1" x="0" y="0" width="1921" height="3568"></rect>
        <path d="M378,774 L944,774 C945.104569,774 946,774.895431 946,776 L946,1147 C946,1148.10457 945.104569,1149 944,1149 L378,1149 C376.895431,1149 376,1148.10457 376,1147 L376,776 C376,774.895431 376.895431,774 378,774 Z" id="path-3"></path>
        <filter x="-5.3%" y="-8.0%" width="110.5%" height="116.0%" filterUnits="objectBoundingBox" id="filter-4">
            <feOffset dx="0" dy="0" in="SourceAlpha" result="shadowOffsetOuter1"></feOffset>
            <feGaussianBlur stdDeviation="10" in="shadowOffsetOuter1" result="shadowBlurOuter1"></feGaussianBlur>
            <feColorMatrix values="0 0 0 0 0.82745098   0 0 0 0 0.917647059   0 0 0 0 1  0 0 0 1 0" type="matrix" in="shadowBlurOuter1"></feColorMatrix>
        </filter>
        <linearGradient x1="52.7737623%" y1="100%" x2="47.2262377%" y2="3.94299247e-14%" id="linearGradient-5">
            <stop stop-color="#B3D7FF" offset="0%"></stop>
            <stop stop-color="#FFFFFF" offset="100%"></stop>
        </linearGradient>
        <linearGradient x1="100%" y1="45.6178065%" x2="3.33066907e-14%" y2="54.3821935%" id="linearGradient-6">
            <stop stop-color="#B3D7FF" offset="0%"></stop>
            <stop stop-color="#FFFFFF" offset="100%"></stop>
        </linearGradient>
        <linearGradient x1="45.8739784%" y1="2.83276945e-14%" x2="54.1260216%" y2="100%" id="linearGradient-7">
            <stop stop-color="#B3D7FF" offset="0%"></stop>
            <stop stop-color="#FFFFFF" offset="100%"></stop>
        </linearGradient>
        <linearGradient x1="0%" y1="46.899099%" x2="100%" y2="53.100901%" id="linearGradient-8">
            <stop stop-color="#B3D7FF" offset="0%"></stop>
            <stop stop-color="#FFFFFF" offset="100%"></stop>
        </linearGradient>
        <linearGradient x1="53.751757%" y1="100%" x2="46.248243%" y2="3.94299247e-14%" id="linearGradient-9">
            <stop stop-color="#B3D7FF" offset="0%"></stop>
            <stop stop-color="#FFFFFF" offset="100%"></stop>
        </linearGradient>
        <linearGradient x1="100%" y1="44.5619089%" x2="3.33066907e-14%" y2="55.4380911%" id="linearGradient-10">
            <stop stop-color="#B3D7FF" offset="0%"></stop>
            <stop stop-color="#FFFFFF" offset="100%"></stop>
        </linearGradient>
        <linearGradient x1="44.8179171%" y1="2.83276945e-14%" x2="55.1820829%" y2="100%" id="linearGradient-11">
            <stop stop-color="#B3D7FF" offset="0%"></stop>
            <stop stop-color="#FFFFFF" offset="100%"></stop>
        </linearGradient>
        <linearGradient x1="0%" y1="46.1635901%" x2="100%" y2="53.8364099%" id="linearGradient-12">
            <stop stop-color="#B3D7FF" offset="0%"></stop>
            <stop stop-color="#FFFFFF" offset="100%"></stop>
        </linearGradient>
        <linearGradient x1="100%" y1="94.1010923%" x2="0%" y2="5.89890766%" id="linearGradient-13">
            <stop stop-color="#007AFF" offset="0%"></stop>
            <stop stop-color="#3EADFF" offset="100%"></stop>
        </linearGradient>
    </defs>
    <g id="Page-1" stroke="none" stroke-width="1" fill="none" fill-rule="evenodd">
        <g id="产品" transform="translate(-396.000000, -786.000000)">
            <rect fill="#FFFFFF" x="0" y="0" width="1920" height="3568"></rect>
            <g id="Group-7">
                <g id="Group-4">
                    <mask id="mask-2" fill="white">
                        <use xlink:href="#path-1"></use>
                    </mask>
                    <rect stroke="#979797" x="0.5" y="0.5" width="1920" height="3567"></rect>
                </g>
            </g>
            <g id="Rectangle">
                <use fill="black" fill-opacity="1" filter="url(#filter-4)" xlink:href="#path-3"></use>
                <use fill="#FFFFFF" fill-rule="evenodd" xlink:href="#path-3"></use>
            </g>
            <path d="M378,774 L944,774 C945.104569,774 946,774.895431 946,776 L946,834 L376,834 L376,776 C376,774.895431 376.895431,774 378,774 Z" id="Rectangle" fill="#F2F8FF"></path>
            <g id="网络" transform="translate(396.000000, 786.000000)">
                <path d="M17.64,36 L17.64,33.84 C26.3881904,33.84 33.48,26.7481904 33.48,18 L35.64,18 C35.64,27.9411255 27.5811255,36 17.64,36 Z M17.64,0 L17.64,2.16 C10.3658687,2.16 4.07769685,7.10513501 2.29580793,14.0514893 L0.203549964,13.5147803 C2.22905585,5.61873166 9.37376477,0 17.64,0 Z" id="Shape" fill="#B3D7FF" fill-rule="nonzero"></path>
                <path d="M7.67184013,9.43838768 L8.49082042,10.1424269 C6.62369134,12.3143824 5.58,15.0757884 5.58,18 C5.58,20.8493504 6.57067091,23.5449324 8.35176948,25.6928828 L7.52040643,26.382256 C5.58006464,24.0422632 4.5,21.1034439 4.5,18 C4.5,14.814979 5.63785102,11.8044447 7.67184013,9.43838768 Z" id="Path" fill="url(#linearGradient-5)" fill-rule="nonzero"></path>
                <path d="M10.1417492,28.7919025 L10.758739,27.905492 C12.7631715,29.3006859 15.1440128,30.06 17.64,30.06 C21.1300261,30.06 24.3782903,28.570058 26.6533183,26.0129221 L27.4602041,26.7307908 C24.9823377,29.5159173 21.4416298,31.14 17.64,31.14 C14.9216097,31.14 12.3258164,30.3121319 10.1417492,28.7919025 Z" id="Path" fill="url(#linearGradient-6)" fill-rule="nonzero"></path>
                <path d="M29.0432481,24.5331247 L28.1066267,23.995407 C29.1455117,22.1858291 29.7,20.1339465 29.7,18 C29.7,14.8057224 28.4533499,11.8095035 26.2649667,9.5706659 L27.0372951,8.81574278 C29.4209788,11.2543838 30.78,14.520677 30.78,18 C30.78,20.3238959 30.1754646,22.5609777 29.0432481,24.5331247 Z" id="Path" fill="url(#linearGradient-7)" fill-rule="nonzero"></path>
                <path d="M24.4817935,6.77961157 L23.9186916,7.70119516 C22.043153,6.55521201 19.8874561,5.94 17.64,5.94 C14.8401403,5.94 12.188243,6.89638968 10.0574246,8.62139116 L9.37787784,7.78197696 C11.699266,5.90269994 14.5904862,4.86 17.64,4.86 C20.0875789,4.86 22.4378833,5.53075081 24.4817935,6.77961157 Z" id="Path" fill="url(#linearGradient-8)" fill-rule="nonzero"></path>
                <path d="M8.91496511,12.5991852 L9.83275807,13.1684445 C8.93995838,14.6078682 8.46,16.2679141 8.46,18 C8.46,19.098989 8.65293552,20.1706691 9.02528825,21.1792515 L8.01212873,21.553294 C7.59572825,20.4254005 7.38,19.2271159 7.38,18 C7.38,16.0652942 7.91688841,14.2083427 8.91496511,12.5991852 Z" id="Path" fill="url(#linearGradient-9)" fill-rule="nonzero"></path>
                <path d="M15.2653393,27.9836808 L15.5144095,26.9327936 C16.2051169,27.0964978 16.9168948,27.18 17.64,27.18 C19.5324358,27.18 21.3376588,26.6067231 22.8597778,25.5526492 L23.4746426,26.440535 C21.7733033,27.6187199 19.753941,28.26 17.64,28.26 C16.8328685,28.26 16.0375092,28.1666924 15.2653393,27.9836808 Z" id="Path" fill="url(#linearGradient-10)" fill-rule="nonzero"></path>
                <path d="M27.6705403,20.1673435 L26.6146904,19.940229 C26.7507551,19.3076675 26.82,18.6584926 26.82,18 C26.82,16.2938299 26.3543374,14.6574002 25.4865808,13.232452 L26.4090011,12.6707219 C27.3791053,14.2637357 27.9,16.0942617 27.9,18 C27.9,18.7349572 27.8226349,19.4602592 27.6705403,20.1673435 Z" id="Path" fill="url(#linearGradient-11)" fill-rule="nonzero"></path>
                <path d="M20.8942144,8.26697215 L20.551884,9.2912816 C19.6216119,8.98037901 18.6420403,8.82 17.64,8.82 C15.9836695,8.82 14.3927741,9.25878371 12.9965011,10.0792094 L12.449371,9.14805497 C14.0103987,8.23082224 15.7899699,7.74 17.64,7.74 C18.7587783,7.74 19.8539268,7.91930168 20.8942144,8.26697215 Z" id="Path" fill="url(#linearGradient-12)" fill-rule="nonzero"></path>
                <g id="分组" stroke-width="1" fill-rule="evenodd" transform="translate(9.360000, 10.080000)">
                    <path d="M0,11.5598237 C0,12.2179932 0.53359322,12.7515864 1.19176271,12.7515864 L8.38189831,12.7515864 L8.38189831,15.6713492 L6.49494915,15.6713492 C6.16586441,15.6713492 5.89911864,15.9380949 5.89911864,16.2671797 C5.89911864,16.5962644 6.16586441,16.8630102 6.49494915,16.8630102 L11.4605085,16.8630102 C11.7896949,16.8630102 12.0564407,16.5962644 12.0564407,16.2671797 C12.0564407,15.9380949 11.7896949,15.6713492 11.4605085,15.6713492 L9.57366102,15.6713492 L9.57366102,12.7515864 L16.7637966,12.7515864 C17.4218644,12.7515864 17.9554576,12.2179932 17.9554576,11.5598237 L17.9554576,9.05721356 L0,9.05721356 L0,11.5598237 Z M16.7637966,-4.06779661e-05 L1.19176271,-4.06779661e-05 C0.53359322,-4.06779661e-05 0,0.533552542 0,1.19172203 L0,7.84562034 L17.9554576,7.84562034 L17.9554576,1.19172203 C17.9554576,0.533552542 17.4218644,-4.06779661e-05 16.7637966,-4.06779661e-05 L16.7637966,-4.06779661e-05 Z" id="Fill-1" fill="url(#linearGradient-13)"></path>
                    <rect id="矩形" fill="#FFFFFF" fill-rule="nonzero" x="0" y="7.848" width="18" height="1.2672"></rect>
                </g>
            </g>
            <g id="市场" transform="translate(396.000000, 786.000000)">
                <path d="M17.64,36 L17.64,33.84 C26.3881904,33.84 33.48,26.7481904 33.48,18 L35.64,18 C35.64,27.9411255 27.5811255,36 17.64,36 Z M17.64,0 L17.64,2.16 C10.3658687,2.16 4.07769685,7.10513501 2.29580793,14.0514893 L0.203549964,13.5147803 C2.22905585,5.61873166 9.37376477,0 17.64,0 Z" id="Shape" fill="#B3D7FF" fill-rule="nonzero"></path>
                <path d="M7.67184013,9.43838768 L8.49082042,10.1424269 C6.62369134,12.3143824 5.58,15.0757884 5.58,18 C5.58,20.8493504 6.57067091,23.5449324 8.35176948,25.6928828 L7.52040643,26.382256 C5.58006464,24.0422632 4.5,21.1034439 4.5,18 C4.5,14.814979 5.63785102,11.8044447 7.67184013,9.43838768 Z" id="Path" fill="url(#linearGradient-5)" fill-rule="nonzero"></path>
                <path d="M10.1417492,28.7919025 L10.758739,27.905492 C12.7631715,29.3006859 15.1440128,30.06 17.64,30.06 C21.1300261,30.06 24.3782903,28.570058 26.6533183,26.0129221 L27.4602041,26.7307908 C24.9823377,29.5159173 21.4416298,31.14 17.64,31.14 C14.9216097,31.14 12.3258164,30.3121319 10.1417492,28.7919025 Z" id="Path" fill="url(#linearGradient-6)" fill-rule="nonzero"></path>
                <path d="M29.0432481,24.5331247 L28.1066267,23.995407 C29.1455117,22.1858291 29.7,20.1339465 29.7,18 C29.7,14.8057224 28.4533499,11.8095035 26.2649667,9.5706659 L27.0372951,8.81574278 C29.4209788,11.2543838 30.78,14.520677 30.78,18 C30.78,20.3238959 30.1754646,22.5609777 29.0432481,24.5331247 Z" id="Path" fill="url(#linearGradient-7)" fill-rule="nonzero"></path>
                <path d="M24.4817935,6.77961157 L23.9186916,7.70119516 C22.043153,6.55521201 19.8874561,5.94 17.64,5.94 C14.8401403,5.94 12.188243,6.89638968 10.0574246,8.62139116 L9.37787784,7.78197696 C11.699266,5.90269994 14.5904862,4.86 17.64,4.86 C20.0875789,4.86 22.4378833,5.53075081 24.4817935,6.77961157 Z" id="Path" fill="url(#linearGradient-8)" fill-rule="nonzero"></path>
                <path d="M8.91496511,12.5991852 L9.83275807,13.1684445 C8.93995838,14.6078682 8.46,16.2679141 8.46,18 C8.46,19.098989 8.65293552,20.1706691 9.02528825,21.1792515 L8.01212873,21.553294 C7.59572825,20.4254005 7.38,19.2271159 7.38,18 C7.38,16.0652942 7.91688841,14.2083427 8.91496511,12.5991852 Z" id="Path" fill="url(#linearGradient-9)" fill-rule="nonzero"></path>
                <path d="M15.2653393,27.9836808 L15.5144095,26.9327936 C16.2051169,27.0964978 16.9168948,27.18 17.64,27.18 C19.5324358,27.18 21.3376588,26.6067231 22.8597778,25.5526492 L23.4746426,26.440535 C21.7733033,27.6187199 19.753941,28.26 17.64,28.26 C16.8328685,28.26 16.0375092,28.1666924 15.2653393,27.9836808 Z" id="Path" fill="url(#linearGradient-10)" fill-rule="nonzero"></path>
                <path d="M27.6705403,20.1673435 L26.6146904,19.940229 C26.7507551,19.3076675 26.82,18.6584926 26.82,18 C26.82,16.2938299 26.3543374,14.6574002 25.4865808,13.232452 L26.4090011,12.6707219 C27.3791053,14.2637357 27.9,16.0942617 27.9,18 C27.9,18.7349572 27.8226349,19.4602592 27.6705403,20.1673435 Z" id="Path" fill="url(#linearGradient-11)" fill-rule="nonzero"></path>
                <path d="M20.8942144,8.26697215 L20.551884,9.2912816 C19.6216119,8.98037901 18.6420403,8.82 17.64,8.82 C15.9836695,8.82 14.3927741,9.25878371 12.9965011,10.0792094 L12.449371,9.14805497 C14.0103987,8.23082224 15.7899699,7.74 17.64,7.74 C18.7587783,7.74 19.8539268,7.91930168 20.8942144,8.26697215 Z" id="Path" fill="url(#linearGradient-12)" fill-rule="nonzero"></path>
                <g id="分组" transform="translate(9.360000, 10.080000)">
                    <path d="M0,11.5598237 C0,12.2179932 0.53359322,12.7515864 1.19176271,12.7515864 L8.38189831,12.7515864 L8.38189831,15.6713492 L6.49494915,15.6713492 C6.16586441,15.6713492 5.89911864,15.9380949 5.89911864,16.2671797 C5.89911864,16.5962644 6.16586441,16.8630102 6.49494915,16.8630102 L11.4605085,16.8630102 C11.7896949,16.8630102 12.0564407,16.5962644 12.0564407,16.2671797 C12.0564407,15.9380949 11.7896949,15.6713492 11.4605085,15.6713492 L9.57366102,15.6713492 L9.57366102,12.7515864 L16.7637966,12.7515864 C17.4218644,12.7515864 17.9554576,12.2179932 17.9554576,11.5598237 L17.9554576,9.05721356 L0,9.05721356 L0,11.5598237 Z M16.7637966,-4.06779661e-05 L1.19176271,-4.06779661e-05 C0.53359322,-4.06779661e-05 0,0.533552542 0,1.19172203 L0,7.84562034 L17.9554576,7.84562034 L17.9554576,1.19172203 C17.9554576,0.533552542 17.4218644,-4.06779661e-05 16.7637966,-4.06779661e-05 L16.7637966,-4.06779661e-05 Z" id="Fill-1" fill="url(#linearGradient-13)"></path>
                    <rect id="矩形" fill="#FFFFFF" fill-rule="nonzero" x="0" y="7.848" width="18" height="1.2672"></rect>
                </g>
            </g>
        </g>
    </g>
</svg>